ISO-10303-21;
HEADER;
/* Generated by software containing ST-Developer
 * from STEP Tools, Inc. (www.steptools.com) 
 */

FILE_DESCRIPTION(
/* description */ (''),
/* implementation_level */ '2;1');

FILE_NAME(
/* name */ 'macropad.step',
/* time_stamp */ '2026-08-12T09:43:28-04:00',
/* author */ (''),
/* organization */ (''),
/* preprocessor_version */ 'ST-DEVELOPER v20.1',
/* originating_system */ 'Autodesk Translation Framework v15.8.0.0',
/* authorisation */ '');

FILE_SCHEMA (('AUTOMOTIVE_DESIGN { 1 0 10303 214 3 1 1 }'));
ENDSEC;

DATA;
#10=MECHANICAL_DESIGN_GEOMETRIC_PRESENTATION_REPRESENTATION('',(#13,#14),
#715);
#11=SHAPE_REPRESENTATION_RELATIONSHIP('SRR','None',#722,#12);
#12=ADVANCED_BREP_SHAPE_REPRESENTATION('',(#15,#16),#714);
#13=STYLED_ITEM('',(#731),#15);
#14=STYLED_ITEM('',(#731),#16);
#15=MANIFOLD_SOLID_BREP('Body1',#438);
#16=MANIFOLD_SOLID_BREP('Body2',#439);
#17=FACE_BOUND('',#75,.T.);
#18=FACE_BOUND('',#76,.T.);
#19=FACE_BOUND('',#77,.T.);
#20=FACE_BOUND('',#78,.T.);
#21=FACE_BOUND('',#80,.T.);
#22=FACE_BOUND('',#81,.T.);
#23=FACE_BOUND('',#82,.T.);
#24=FACE_BOUND('',#83,.T.);
#25=FACE_BOUND('',#84,.T.);
#26=CIRCLE('',#457,1.45);
#27=CIRCLE('',#458,1.45);
#28=CIRCLE('',#460,1.45);
#29=CIRCLE('',#461,1.45);
#30=CIRCLE('',#463,1.45);
#31=CIRCLE('',#464,1.45);
#32=CIRCLE('',#466,1.45);
#33=CIRCLE('',#467,1.45);
#34=CYLINDRICAL_SURFACE('',#456,1.45);
#35=CYLINDRICAL_SURFACE('',#459,1.45);
#36=CYLINDRICAL_SURFACE('',#462,1.45);
#37=CYLINDRICAL_SURFACE('',#465,1.45);
#38=FACE_OUTER_BOUND('',#60,.T.);
#39=FACE_OUTER_BOUND('',#61,.T.);
#40=FACE_OUTER_BOUND('',#62,.T.);
#41=FACE_OUTER_BOUND('',#63,.T.);
#42=FACE_OUTER_BOUND('',#64,.T.);
#43=FACE_OUTER_BOUND('',#65,.T.);
#44=FACE_OUTER_BOUND('',#66,.T.);
#45=FACE_OUTER_BOUND('',#67,.T.);
#46=FACE_OUTER_BOUND('',#68,.T.);
#47=FACE_OUTER_BOUND('',#69,.T.);
#48=FACE_OUTER_BOUND('',#70,.T.);
#49=FACE_OUTER_BOUND('',#71,.T.);
#50=FACE_OUTER_BOUND('',#72,.T.);
#51=FACE_OUTER_BOUND('',#73,.T.);
#52=FACE_OUTER_BOUND('',#74,.T.);
#53=FACE_OUTER_BOUND('',#79,.T.);
#54=FACE_OUTER_BOUND('',#85,.T.);
#55=FACE_OUTER_BOUND('',#86,.T.);
#56=FACE_OUTER_BOUND('',#87,.T.);
#57=FACE_OUTER_BOUND('',#88,.T.);
#58=FACE_OUTER_BOUND('',#89,.T.);
#59=FACE_OUTER_BOUND('',#90,.T.);
#60=EDGE_LOOP('',(#284,#285,#286,#287));
#61=EDGE_LOOP('',(#288,#289,#290,#291));
#62=EDGE_LOOP('',(#292,#293,#294,#295,#296,#297));
#63=EDGE_LOOP('',(#298,#299,#300,#301));
#64=EDGE_LOOP('',(#302,#303,#304,#305));
#65=EDGE_LOOP('',(#306,#307,#308,#309));
#66=EDGE_LOOP('',(#310,#311,#312,#313));
#67=EDGE_LOOP('',(#314,#315,#316,#317));
#68=EDGE_LOOP('',(#318,#319,#320,#321));
#69=EDGE_LOOP('',(#322,#323,#324,#325,#326,#327));
#70=EDGE_LOOP('',(#328,#329,#330,#331));
#71=EDGE_LOOP('',(#332,#333,#334,#335));
#72=EDGE_LOOP('',(#336,#337,#338,#339));
#73=EDGE_LOOP('',(#340,#341,#342,#343,#344,#345,#346,#347));
#74=EDGE_LOOP('',(#348,#349,#350,#351,#352,#353,#354,#355,#356,#357));
#75=EDGE_LOOP('',(#358));
#76=EDGE_LOOP('',(#359));
#77=EDGE_LOOP('',(#360));
#78=EDGE_LOOP('',(#361));
#79=EDGE_LOOP('',(#362,#363,#364,#365));
#80=EDGE_LOOP('',(#366,#367,#368,#369));
#81=EDGE_LOOP('',(#370));
#82=EDGE_LOOP('',(#371));
#83=EDGE_LOOP('',(#372));
#84=EDGE_LOOP('',(#373));
#85=EDGE_LOOP('',(#374,#375,#376,#377));
#86=EDGE_LOOP('',(#378,#379,#380,#381));
#87=EDGE_LOOP('',(#382,#383,#384,#385));
#88=EDGE_LOOP('',(#386,#387,#388,#389));
#89=EDGE_LOOP('',(#390,#391,#392,#393));
#90=EDGE_LOOP('',(#394,#395,#396,#397));
#91=LINE('',#598,#140);
#92=LINE('',#600,#141);
#93=LINE('',#602,#142);
#94=LINE('',#603,#143);
#95=LINE('',#606,#144);
#96=LINE('',#608,#145);
#97=LINE('',#609,#146);
#98=LINE('',#613,#147);
#99=LINE('',#615,#148);
#100=LINE('',#617,#149);
#101=LINE('',#618,#150);
#102=LINE('',#619,#151);
#103=LINE('',#624,#152);
#104=LINE('',#630,#153);
#105=LINE('',#636,#154);
#106=LINE('',#642,#155);
#107=LINE('',#646,#156);
#108=LINE('',#648,#157);
#109=LINE('',#649,#158);
#110=LINE('',#652,#159);
#111=LINE('',#654,#160);
#112=LINE('',#655,#161);
#113=LINE('',#657,#162);
#114=LINE('',#658,#163);
#115=LINE('',#662,#164);
#116=LINE('',#664,#165);
#117=LINE('',#666,#166);
#118=LINE('',#667,#167);
#119=LINE('',#670,#168);
#120=LINE('',#672,#169);
#121=LINE('',#673,#170);
#122=LINE('',#676,#171);
#123=LINE('',#678,#172);
#124=LINE('',#679,#173);
#125=LINE('',#681,#174);
#126=LINE('',#682,#175);
#127=LINE('',#683,#176);
#128=LINE('',#689,#177);
#129=LINE('',#691,#178);
#130=LINE('',#693,#179);
#131=LINE('',#694,#180);
#132=LINE('',#697,#181);
#133=LINE('',#699,#182);
#134=LINE('',#700,#183);
#135=LINE('',#703,#184);
#136=LINE('',#705,#185);
#137=LINE('',#706,#186);
#138=LINE('',#708,#187);
#139=LINE('',#709,#188);
#140=VECTOR('',#487,10.);
#141=VECTOR('',#488,10.);
#142=VECTOR('',#489,10.);
#143=VECTOR('',#490,10.);
#144=VECTOR('',#493,10.);
#145=VECTOR('',#494,10.);
#146=VECTOR('',#495,10.);
#147=VECTOR('',#498,10.);
#148=VECTOR('',#499,10.);
#149=VECTOR('',#500,10.);
#150=VECTOR('',#501,10.);
#151=VECTOR('',#502,10.);
#152=VECTOR('',#507,1.45);
#153=VECTOR('',#514,1.45);
#154=VECTOR('',#521,1.45);
#155=VECTOR('',#528,1.45);
#156=VECTOR('',#533,10.);
#157=VECTOR('',#534,10.);
#158=VECTOR('',#535,10.);
#159=VECTOR('',#538,10.);
#160=VECTOR('',#539,10.);
#161=VECTOR('',#540,10.);
#162=VECTOR('',#543,10.);
#163=VECTOR('',#544,10.);
#164=VECTOR('',#547,10.);
#165=VECTOR('',#548,10.);
#166=VECTOR('',#549,10.);
#167=VECTOR('',#550,10.);
#168=VECTOR('',#553,10.);
#169=VECTOR('',#554,10.);
#170=VECTOR('',#555,10.);
#171=VECTOR('',#558,10.);
#172=VECTOR('',#559,10.);
#173=VECTOR('',#560,10.);
#174=VECTOR('',#563,10.);
#175=VECTOR('',#564,10.);
#176=VECTOR('',#565,10.);
#177=VECTOR('',#572,10.);
#178=VECTOR('',#573,10.);
#179=VECTOR('',#574,10.);
#180=VECTOR('',#575,10.);
#181=VECTOR('',#578,10.);
#182=VECTOR('',#579,10.);
#183=VECTOR('',#580,10.);
#184=VECTOR('',#583,10.);
#185=VECTOR('',#584,10.);
#186=VECTOR('',#585,10.);
#187=VECTOR('',#588,10.);
#188=VECTOR('',#589,10.);
#189=VERTEX_POINT('',#596);
#190=VERTEX_POINT('',#597);
#191=VERTEX_POINT('',#599);
#192=VERTEX_POINT('',#601);
#193=VERTEX_POINT('',#605);
#194=VERTEX_POINT('',#607);
#195=VERTEX_POINT('',#611);
#196=VERTEX_POINT('',#612);
#197=VERTEX_POINT('',#614);
#198=VERTEX_POINT('',#616);
#199=VERTEX_POINT('',#621);
#200=VERTEX_POINT('',#623);
#201=VERTEX_POINT('',#627);
#202=VERTEX_POINT('',#629);
#203=VERTEX_POINT('',#633);
#204=VERTEX_POINT('',#635);
#205=VERTEX_POINT('',#639);
#206=VERTEX_POINT('',#641);
#207=VERTEX_POINT('',#645);
#208=VERTEX_POINT('',#647);
#209=VERTEX_POINT('',#651);
#210=VERTEX_POINT('',#653);
#211=VERTEX_POINT('',#660);
#212=VERTEX_POINT('',#661);
#213=VERTEX_POINT('',#663);
#214=VERTEX_POINT('',#665);
#215=VERTEX_POINT('',#669);
#216=VERTEX_POINT('',#671);
#217=VERTEX_POINT('',#675);
#218=VERTEX_POINT('',#677);
#219=VERTEX_POINT('',#687);
#220=VERTEX_POINT('',#688);
#221=VERTEX_POINT('',#690);
#222=VERTEX_POINT('',#692);
#223=VERTEX_POINT('',#696);
#224=VERTEX_POINT('',#698);
#225=VERTEX_POINT('',#702);
#226=VERTEX_POINT('',#704);
#227=EDGE_CURVE('',#189,#190,#91,.T.);
#228=EDGE_CURVE('',#191,#189,#92,.T.);
#229=EDGE_CURVE('',#192,#191,#93,.T.);
#230=EDGE_CURVE('',#192,#190,#94,.T.);
#231=EDGE_CURVE('',#190,#193,#95,.T.);
#232=EDGE_CURVE('',#194,#192,#96,.T.);
#233=EDGE_CURVE('',#194,#193,#97,.T.);
#234=EDGE_CURVE('',#195,#196,#98,.T.);
#235=EDGE_CURVE('',#197,#195,#99,.T.);
#236=EDGE_CURVE('',#197,#198,#100,.T.);
#237=EDGE_CURVE('',#198,#193,#101,.T.);
#238=EDGE_CURVE('',#196,#194,#102,.T.);
#239=EDGE_CURVE('',#199,#199,#26,.T.);
#240=EDGE_CURVE('',#199,#200,#103,.T.);
#241=EDGE_CURVE('',#200,#200,#27,.T.);
#242=EDGE_CURVE('',#201,#201,#28,.T.);
#243=EDGE_CURVE('',#201,#202,#104,.T.);
#244=EDGE_CURVE('',#202,#202,#29,.T.);
#245=EDGE_CURVE('',#203,#203,#30,.T.);
#246=EDGE_CURVE('',#203,#204,#105,.T.);
#247=EDGE_CURVE('',#204,#204,#31,.T.);
#248=EDGE_CURVE('',#205,#205,#32,.T.);
#249=EDGE_CURVE('',#205,#206,#106,.T.);
#250=EDGE_CURVE('',#206,#206,#33,.T.);
#251=EDGE_CURVE('',#207,#197,#107,.T.);
#252=EDGE_CURVE('',#208,#195,#108,.T.);
#253=EDGE_CURVE('',#207,#208,#109,.T.);
#254=EDGE_CURVE('',#209,#207,#110,.T.);
#255=EDGE_CURVE('',#210,#208,#111,.T.);
#256=EDGE_CURVE('',#209,#210,#112,.T.);
#257=EDGE_CURVE('',#198,#209,#113,.T.);
#258=EDGE_CURVE('',#189,#210,#114,.T.);
#259=EDGE_CURVE('',#211,#212,#115,.T.);
#260=EDGE_CURVE('',#212,#213,#116,.T.);
#261=EDGE_CURVE('',#214,#213,#117,.T.);
#262=EDGE_CURVE('',#211,#214,#118,.T.);
#263=EDGE_CURVE('',#215,#211,#119,.T.);
#264=EDGE_CURVE('',#216,#214,#120,.T.);
#265=EDGE_CURVE('',#215,#216,#121,.T.);
#266=EDGE_CURVE('',#217,#215,#122,.T.);
#267=EDGE_CURVE('',#218,#216,#123,.T.);
#268=EDGE_CURVE('',#217,#218,#124,.T.);
#269=EDGE_CURVE('',#213,#191,#125,.T.);
#270=EDGE_CURVE('',#212,#217,#126,.T.);
#271=EDGE_CURVE('',#196,#218,#127,.T.);
#272=EDGE_CURVE('',#219,#220,#128,.T.);
#273=EDGE_CURVE('',#220,#221,#129,.T.);
#274=EDGE_CURVE('',#222,#221,#130,.T.);
#275=EDGE_CURVE('',#219,#222,#131,.T.);
#276=EDGE_CURVE('',#223,#219,#132,.T.);
#277=EDGE_CURVE('',#224,#222,#133,.T.);
#278=EDGE_CURVE('',#223,#224,#134,.T.);
#279=EDGE_CURVE('',#225,#223,#135,.T.);
#280=EDGE_CURVE('',#226,#224,#136,.T.);
#281=EDGE_CURVE('',#225,#226,#137,.T.);
#282=EDGE_CURVE('',#220,#225,#138,.T.);
#283=EDGE_CURVE('',#221,#226,#139,.T.);
#284=ORIENTED_EDGE('',*,*,#227,.F.);
#285=ORIENTED_EDGE('',*,*,#228,.F.);
#286=ORIENTED_EDGE('',*,*,#229,.F.);
#287=ORIENTED_EDGE('',*,*,#230,.T.);
#288=ORIENTED_EDGE('',*,*,#231,.F.);
#289=ORIENTED_EDGE('',*,*,#230,.F.);
#290=ORIENTED_EDGE('',*,*,#232,.F.);
#291=ORIENTED_EDGE('',*,*,#233,.T.);
#292=ORIENTED_EDGE('',*,*,#234,.F.);
#293=ORIENTED_EDGE('',*,*,#235,.F.);
#294=ORIENTED_EDGE('',*,*,#236,.T.);
#295=ORIENTED_EDGE('',*,*,#237,.T.);
#296=ORIENTED_EDGE('',*,*,#233,.F.);
#297=ORIENTED_EDGE('',*,*,#238,.F.);
#298=ORIENTED_EDGE('',*,*,#239,.F.);
#299=ORIENTED_EDGE('',*,*,#240,.T.);
#300=ORIENTED_EDGE('',*,*,#241,.T.);
#301=ORIENTED_EDGE('',*,*,#240,.F.);
#302=ORIENTED_EDGE('',*,*,#242,.F.);
#303=ORIENTED_EDGE('',*,*,#243,.T.);
#304=ORIENTED_EDGE('',*,*,#244,.T.);
#305=ORIENTED_EDGE('',*,*,#243,.F.);
#306=ORIENTED_EDGE('',*,*,#245,.F.);
#307=ORIENTED_EDGE('',*,*,#246,.T.);
#308=ORIENTED_EDGE('',*,*,#247,.T.);
#309=ORIENTED_EDGE('',*,*,#246,.F.);
#310=ORIENTED_EDGE('',*,*,#248,.F.);
#311=ORIENTED_EDGE('',*,*,#249,.T.);
#312=ORIENTED_EDGE('',*,*,#250,.T.);
#313=ORIENTED_EDGE('',*,*,#249,.F.);
#314=ORIENTED_EDGE('',*,*,#251,.T.);
#315=ORIENTED_EDGE('',*,*,#235,.T.);
#316=ORIENTED_EDGE('',*,*,#252,.F.);
#317=ORIENTED_EDGE('',*,*,#253,.F.);
#318=ORIENTED_EDGE('',*,*,#254,.T.);
#319=ORIENTED_EDGE('',*,*,#253,.T.);
#320=ORIENTED_EDGE('',*,*,#255,.F.);
#321=ORIENTED_EDGE('',*,*,#256,.F.);
#322=ORIENTED_EDGE('',*,*,#231,.T.);
#323=ORIENTED_EDGE('',*,*,#237,.F.);
#324=ORIENTED_EDGE('',*,*,#257,.T.);
#325=ORIENTED_EDGE('',*,*,#256,.T.);
#326=ORIENTED_EDGE('',*,*,#258,.F.);
#327=ORIENTED_EDGE('',*,*,#227,.T.);
#328=ORIENTED_EDGE('',*,*,#259,.T.);
#329=ORIENTED_EDGE('',*,*,#260,.T.);
#330=ORIENTED_EDGE('',*,*,#261,.F.);
#331=ORIENTED_EDGE('',*,*,#262,.F.);
#332=ORIENTED_EDGE('',*,*,#263,.T.);
#333=ORIENTED_EDGE('',*,*,#262,.T.);
#334=ORIENTED_EDGE('',*,*,#264,.F.);
#335=ORIENTED_EDGE('',*,*,#265,.F.);
#336=ORIENTED_EDGE('',*,*,#266,.T.);
#337=ORIENTED_EDGE('',*,*,#265,.T.);
#338=ORIENTED_EDGE('',*,*,#267,.F.);
#339=ORIENTED_EDGE('',*,*,#268,.F.);
#340=ORIENTED_EDGE('',*,*,#229,.T.);
#341=ORIENTED_EDGE('',*,*,#269,.F.);
#342=ORIENTED_EDGE('',*,*,#260,.F.);
#343=ORIENTED_EDGE('',*,*,#270,.T.);
#344=ORIENTED_EDGE('',*,*,#268,.T.);
#345=ORIENTED_EDGE('',*,*,#271,.F.);
#346=ORIENTED_EDGE('',*,*,#238,.T.);
#347=ORIENTED_EDGE('',*,*,#232,.T.);
#348=ORIENTED_EDGE('',*,*,#228,.T.);
#349=ORIENTED_EDGE('',*,*,#258,.T.);
#350=ORIENTED_EDGE('',*,*,#255,.T.);
#351=ORIENTED_EDGE('',*,*,#252,.T.);
#352=ORIENTED_EDGE('',*,*,#234,.T.);
#353=ORIENTED_EDGE('',*,*,#271,.T.);
#354=ORIENTED_EDGE('',*,*,#267,.T.);
#355=ORIENTED_EDGE('',*,*,#264,.T.);
#356=ORIENTED_EDGE('',*,*,#261,.T.);
#357=ORIENTED_EDGE('',*,*,#269,.T.);
#358=ORIENTED_EDGE('',*,*,#248,.T.);
#359=ORIENTED_EDGE('',*,*,#245,.T.);
#360=ORIENTED_EDGE('',*,*,#242,.T.);
#361=ORIENTED_EDGE('',*,*,#239,.T.);
#362=ORIENTED_EDGE('',*,*,#270,.F.);
#363=ORIENTED_EDGE('',*,*,#259,.F.);
#364=ORIENTED_EDGE('',*,*,#263,.F.);
#365=ORIENTED_EDGE('',*,*,#266,.F.);
#366=ORIENTED_EDGE('',*,*,#257,.F.);
#367=ORIENTED_EDGE('',*,*,#236,.F.);
#368=ORIENTED_EDGE('',*,*,#251,.F.);
#369=ORIENTED_EDGE('',*,*,#254,.F.);
#370=ORIENTED_EDGE('',*,*,#250,.F.);
#371=ORIENTED_EDGE('',*,*,#247,.F.);
#372=ORIENTED_EDGE('',*,*,#244,.F.);
#373=ORIENTED_EDGE('',*,*,#241,.F.);
#374=ORIENTED_EDGE('',*,*,#272,.T.);
#375=ORIENTED_EDGE('',*,*,#273,.T.);
#376=ORIENTED_EDGE('',*,*,#274,.F.);
#377=ORIENTED_EDGE('',*,*,#275,.F.);
#378=ORIENTED_EDGE('',*,*,#276,.T.);
#379=ORIENTED_EDGE('',*,*,#275,.T.);
#380=ORIENTED_EDGE('',*,*,#277,.F.);
#381=ORIENTED_EDGE('',*,*,#278,.F.);
#382=ORIENTED_EDGE('',*,*,#279,.T.);
#383=ORIENTED_EDGE('',*,*,#278,.T.);
#384=ORIENTED_EDGE('',*,*,#280,.F.);
#385=ORIENTED_EDGE('',*,*,#281,.F.);
#386=ORIENTED_EDGE('',*,*,#282,.T.);
#387=ORIENTED_EDGE('',*,*,#281,.T.);
#388=ORIENTED_EDGE('',*,*,#283,.F.);
#389=ORIENTED_EDGE('',*,*,#273,.F.);
#390=ORIENTED_EDGE('',*,*,#283,.T.);
#391=ORIENTED_EDGE('',*,*,#280,.T.);
#392=ORIENTED_EDGE('',*,*,#277,.T.);
#393=ORIENTED_EDGE('',*,*,#274,.T.);
#394=ORIENTED_EDGE('',*,*,#282,.F.);
#395=ORIENTED_EDGE('',*,*,#272,.F.);
#396=ORIENTED_EDGE('',*,*,#276,.F.);
#397=ORIENTED_EDGE('',*,*,#279,.F.);
#398=PLANE('',#453);
#399=PLANE('',#454);
#400=PLANE('',#455);
#401=PLANE('',#468);
#402=PLANE('',#469);
#403=PLANE('',#470);
#404=PLANE('',#471);
#405=PLANE('',#472);
#406=PLANE('',#473);
#407=PLANE('',#474);
#408=PLANE('',#475);
#409=PLANE('',#476);
#410=PLANE('',#477);
#411=PLANE('',#478);
#412=PLANE('',#479);
#413=PLANE('',#480);
#414=PLANE('',#481);
#415=PLANE('',#482);
#416=ADVANCED_FACE('',(#38),#398,.F.);
#417=ADVANCED_FACE('',(#39),#399,.F.);
#418=ADVANCED_FACE('',(#40),#400,.T.);
#419=ADVANCED_FACE('',(#41),#34,.F.);
#420=ADVANCED_FACE('',(#42),#35,.F.);
#421=ADVANCED_FACE('',(#43),#36,.F.);
#422=ADVANCED_FACE('',(#44),#37,.F.);
#423=ADVANCED_FACE('',(#45),#401,.T.);
#424=ADVANCED_FACE('',(#46),#402,.T.);
#425=ADVANCED_FACE('',(#47),#403,.T.);
#426=ADVANCED_FACE('',(#48),#404,.T.);
#427=ADVANCED_FACE('',(#49),#405,.T.);
#428=ADVANCED_FACE('',(#50),#406,.T.);
#429=ADVANCED_FACE('',(#51),#407,.T.);
#430=ADVANCED_FACE('',(#52,#17,#18,#19,#20),#408,.T.);
#431=ADVANCED_FACE('',(#53,#21,#22,#23,#24,#25),#409,.F.);
#432=ADVANCED_FACE('',(#54),#410,.T.);
#433=ADVANCED_FACE('',(#55),#411,.T.);
#434=ADVANCED_FACE('',(#56),#412,.T.);
#435=ADVANCED_FACE('',(#57),#413,.T.);
#436=ADVANCED_FACE('',(#58),#414,.T.);
#437=ADVANCED_FACE('',(#59),#415,.F.);
#438=CLOSED_SHELL('',(#416,#417,#418,#419,#420,#421,#422,#423,#424,#425,
#426,#427,#428,#429,#430,#431));
#439=CLOSED_SHELL('',(#432,#433,#434,#435,#436,#437));
#440=DERIVED_UNIT_ELEMENT(#442,1.);
#441=DERIVED_UNIT_ELEMENT(#717,-3.);
#442=(
MASS_UNIT()
NAMED_UNIT(*)
SI_UNIT(.KILO.,.GRAM.)
);
#443=DERIVED_UNIT((#440,#441));
#444=MEASURE_REPRESENTATION_ITEM('density measure',
POSITIVE_RATIO_MEASURE(7850.),#443);
#445=PROPERTY_DEFINITION_REPRESENTATION(#450,#447);
#446=PROPERTY_DEFINITION_REPRESENTATION(#451,#448);
#447=REPRESENTATION('material name',(#449),#714);
#448=REPRESENTATION('density',(#444),#714);
#449=DESCRIPTIVE_REPRESENTATION_ITEM('Steel','Steel');
#450=PROPERTY_DEFINITION('material property','material name',#724);
#451=PROPERTY_DEFINITION('material property','density of part',#724);
#452=AXIS2_PLACEMENT_3D('',#594,#483,#484);
#453=AXIS2_PLACEMENT_3D('',#595,#485,#486);
#454=AXIS2_PLACEMENT_3D('',#604,#491,#492);
#455=AXIS2_PLACEMENT_3D('',#610,#496,#497);
#456=AXIS2_PLACEMENT_3D('',#620,#503,#504);
#457=AXIS2_PLACEMENT_3D('',#622,#505,#506);
#458=AXIS2_PLACEMENT_3D('',#625,#508,#509);
#459=AXIS2_PLACEMENT_3D('',#626,#510,#511);
#460=AXIS2_PLACEMENT_3D('',#628,#512,#513);
#461=AXIS2_PLACEMENT_3D('',#631,#515,#516);
#462=AXIS2_PLACEMENT_3D('',#632,#517,#518);
#463=AXIS2_PLACEMENT_3D('',#634,#519,#520);
#464=AXIS2_PLACEMENT_3D('',#637,#522,#523);
#465=AXIS2_PLACEMENT_3D('',#638,#524,#525);
#466=AXIS2_PLACEMENT_3D('',#640,#526,#527);
#467=AXIS2_PLACEMENT_3D('',#643,#529,#530);
#468=AXIS2_PLACEMENT_3D('',#644,#531,#532);
#469=AXIS2_PLACEMENT_3D('',#650,#536,#537);
#470=AXIS2_PLACEMENT_3D('',#656,#541,#542);
#471=AXIS2_PLACEMENT_3D('',#659,#545,#546);
#472=AXIS2_PLACEMENT_3D('',#668,#551,#552);
#473=AXIS2_PLACEMENT_3D('',#674,#556,#557);
#474=AXIS2_PLACEMENT_3D('',#680,#561,#562);
#475=AXIS2_PLACEMENT_3D('',#684,#566,#567);
#476=AXIS2_PLACEMENT_3D('',#685,#568,#569);
#477=AXIS2_PLACEMENT_3D('',#686,#570,#571);
#478=AXIS2_PLACEMENT_3D('',#695,#576,#577);
#479=AXIS2_PLACEMENT_3D('',#701,#581,#582);
#480=AXIS2_PLACEMENT_3D('',#707,#586,#587);
#481=AXIS2_PLACEMENT_3D('',#710,#590,#591);
#482=AXIS2_PLACEMENT_3D('',#711,#592,#593);
#483=DIRECTION('axis',(0.,0.,1.));
#484=DIRECTION('refdir',(1.,0.,0.));
#485=DIRECTION('center_axis',(0.,1.,0.));
#486=DIRECTION('ref_axis',(0.,0.,1.));
#487=DIRECTION('',(0.,0.,-1.));
#488=DIRECTION('',(1.,0.,0.));
#489=DIRECTION('',(0.,0.,1.));
#490=DIRECTION('',(1.,0.,0.));
#491=DIRECTION('center_axis',(0.,0.,-1.));
#492=DIRECTION('ref_axis',(0.,1.,0.));
#493=DIRECTION('',(0.,-1.,0.));
#494=DIRECTION('',(0.,1.,0.));
#495=DIRECTION('',(1.,0.,0.));
#496=DIRECTION('center_axis',(0.,1.,0.));
#497=DIRECTION('ref_axis',(-1.,0.,0.));
#498=DIRECTION('',(-1.,0.,0.));
#499=DIRECTION('',(0.,0.,1.));
#500=DIRECTION('',(-1.,0.,0.));
#501=DIRECTION('',(0.,0.,1.));
#502=DIRECTION('',(0.,0.,-1.));
#503=DIRECTION('center_axis',(0.,0.,1.));
#504=DIRECTION('ref_axis',(1.,0.,0.));
#505=DIRECTION('center_axis',(0.,0.,-1.));
#506=DIRECTION('ref_axis',(1.,0.,0.));
#507=DIRECTION('',(0.,0.,-1.));
#508=DIRECTION('center_axis',(0.,0.,-1.));
#509=DIRECTION('ref_axis',(1.,0.,0.));
#510=DIRECTION('center_axis',(0.,0.,1.));
#511=DIRECTION('ref_axis',(1.,0.,0.));
#512=DIRECTION('center_axis',(0.,0.,-1.));
#513=DIRECTION('ref_axis',(1.,0.,0.));
#514=DIRECTION('',(0.,0.,-1.));
#515=DIRECTION('center_axis',(0.,0.,-1.));
#516=DIRECTION('ref_axis',(1.,0.,0.));
#517=DIRECTION('center_axis',(0.,0.,1.));
#518=DIRECTION('ref_axis',(1.,0.,0.));
#519=DIRECTION('center_axis',(0.,0.,-1.));
#520=DIRECTION('ref_axis',(1.,0.,0.));
#521=DIRECTION('',(0.,0.,-1.));
#522=DIRECTION('center_axis',(0.,0.,-1.));
#523=DIRECTION('ref_axis',(1.,0.,0.));
#524=DIRECTION('center_axis',(0.,0.,1.));
#525=DIRECTION('ref_axis',(1.,0.,0.));
#526=DIRECTION('center_axis',(0.,0.,-1.));
#527=DIRECTION('ref_axis',(1.,0.,0.));
#528=DIRECTION('',(0.,0.,-1.));
#529=DIRECTION('center_axis',(0.,0.,-1.));
#530=DIRECTION('ref_axis',(1.,0.,0.));
#531=DIRECTION('center_axis',(-1.,0.,0.));
#532=DIRECTION('ref_axis',(0.,-1.,0.));
#533=DIRECTION('',(0.,-1.,0.));
#534=DIRECTION('',(0.,-1.,0.));
#535=DIRECTION('',(0.,0.,1.));
#536=DIRECTION('center_axis',(0.,-1.,0.));
#537=DIRECTION('ref_axis',(1.,0.,0.));
#538=DIRECTION('',(1.,0.,0.));
#539=DIRECTION('',(1.,0.,0.));
#540=DIRECTION('',(0.,0.,1.));
#541=DIRECTION('center_axis',(1.,0.,0.));
#542=DIRECTION('ref_axis',(0.,1.,0.));
#543=DIRECTION('',(0.,1.,0.));
#544=DIRECTION('',(0.,1.,0.));
#545=DIRECTION('center_axis',(0.,1.,0.));
#546=DIRECTION('ref_axis',(-1.,0.,0.));
#547=DIRECTION('',(-1.,0.,0.));
#548=DIRECTION('',(0.,0.,1.));
#549=DIRECTION('',(-1.,0.,0.));
#550=DIRECTION('',(0.,0.,1.));
#551=DIRECTION('center_axis',(1.,0.,0.));
#552=DIRECTION('ref_axis',(0.,1.,0.));
#553=DIRECTION('',(0.,1.,0.));
#554=DIRECTION('',(0.,1.,0.));
#555=DIRECTION('',(0.,0.,1.));
#556=DIRECTION('center_axis',(0.,-1.,0.));
#557=DIRECTION('ref_axis',(1.,0.,0.));
#558=DIRECTION('',(1.,0.,0.));
#559=DIRECTION('',(1.,0.,0.));
#560=DIRECTION('',(0.,0.,1.));
#561=DIRECTION('center_axis',(-1.,0.,0.));
#562=DIRECTION('ref_axis',(0.,-1.,0.));
#563=DIRECTION('',(0.,-1.,0.));
#564=DIRECTION('',(0.,-1.,0.));
#565=DIRECTION('',(0.,-1.,0.));
#566=DIRECTION('center_axis',(0.,0.,1.));
#567=DIRECTION('ref_axis',(1.,0.,0.));
#568=DIRECTION('center_axis',(0.,0.,1.));
#569=DIRECTION('ref_axis',(1.,0.,0.));
#570=DIRECTION('center_axis',(0.,1.,0.));
#571=DIRECTION('ref_axis',(-1.,0.,0.));
#572=DIRECTION('',(-1.,0.,0.));
#573=DIRECTION('',(0.,0.,1.));
#574=DIRECTION('',(-1.,0.,0.));
#575=DIRECTION('',(0.,0.,1.));
#576=DIRECTION('center_axis',(1.,0.,0.));
#577=DIRECTION('ref_axis',(0.,1.,0.));
#578=DIRECTION('',(0.,1.,0.));
#579=DIRECTION('',(0.,1.,0.));
#580=DIRECTION('',(0.,0.,1.));
#581=DIRECTION('center_axis',(0.,-1.,0.));
#582=DIRECTION('ref_axis',(1.,0.,0.));
#583=DIRECTION('',(1.,0.,0.));
#584=DIRECTION('',(1.,0.,0.));
#585=DIRECTION('',(0.,0.,1.));
#586=DIRECTION('center_axis',(-1.,0.,0.));
#587=DIRECTION('ref_axis',(0.,-1.,0.));
#588=DIRECTION('',(0.,-1.,0.));
#589=DIRECTION('',(0.,-1.,0.));
#590=DIRECTION('center_axis',(0.,0.,1.));
#591=DIRECTION('ref_axis',(1.,0.,0.));
#592=DIRECTION('center_axis',(0.,0.,1.));
#593=DIRECTION('ref_axis',(1.,0.,0.));
#594=CARTESIAN_POINT('',(0.,0.,0.));
#595=CARTESIAN_POINT('Origin',(-10.,19.369804097054,5.00000007450581));
#596=CARTESIAN_POINT('',(0.,19.369804097054,13.));
#597=CARTESIAN_POINT('',(0.,19.369804097054,5.00000007450581));
#598=CARTESIAN_POINT('',(0.,19.369804097054,2.5000000372529));
#599=CARTESIAN_POINT('',(-10.,19.369804097054,13.));
#600=CARTESIAN_POINT('',(9.45,19.369804097054,13.));
#601=CARTESIAN_POINT('',(-10.,19.369804097054,5.00000007450581));
#602=CARTESIAN_POINT('',(-10.,19.369804097054,2.5000000372529));
#603=CARTESIAN_POINT('',(-10.,19.369804097054,5.00000007450581));
#604=CARTESIAN_POINT('Origin',(-10.,0.,5.00000007450581));
#605=CARTESIAN_POINT('',(0.,0.,5.00000007450581));
#606=CARTESIAN_POINT('',(0.,0.,5.00000007450581));
#607=CARTESIAN_POINT('',(-10.,0.,5.00000007450581));
#608=CARTESIAN_POINT('',(-10.,14.7,5.00000007450581));
#609=CARTESIAN_POINT('',(-10.,0.,5.00000007450581));
#610=CARTESIAN_POINT('Origin',(57.8,0.,0.));
#611=CARTESIAN_POINT('',(57.8,0.,13.));
#612=CARTESIAN_POINT('',(-10.,0.,13.));
#613=CARTESIAN_POINT('',(0.,0.,13.));
#614=CARTESIAN_POINT('',(57.8,0.,0.));
#615=CARTESIAN_POINT('',(57.8,0.,0.));
#616=CARTESIAN_POINT('',(0.,0.,0.));
#617=CARTESIAN_POINT('',(0.,0.,0.));
#618=CARTESIAN_POINT('',(0.,0.,0.));
#619=CARTESIAN_POINT('',(-10.,0.,6.5));
#620=CARTESIAN_POINT('Origin',(-5.,-5.,0.));
#621=CARTESIAN_POINT('',(-6.45,-5.,13.));
#622=CARTESIAN_POINT('Origin',(-5.,-5.,13.));
#623=CARTESIAN_POINT('',(-6.45,-5.,0.));
#624=CARTESIAN_POINT('',(-6.45,-5.,0.));
#625=CARTESIAN_POINT('Origin',(-5.,-5.,0.));
#626=CARTESIAN_POINT('Origin',(62.8,-5.,0.));
#627=CARTESIAN_POINT('',(61.35,-5.,13.));
#628=CARTESIAN_POINT('Origin',(62.8,-5.,13.));
#629=CARTESIAN_POINT('',(61.35,-5.,0.));
#630=CARTESIAN_POINT('',(61.35,-5.,0.));
#631=CARTESIAN_POINT('Origin',(62.8,-5.,0.));
#632=CARTESIAN_POINT('Origin',(-5.,24.4,0.));
#633=CARTESIAN_POINT('',(-6.45,24.4,13.));
#634=CARTESIAN_POINT('Origin',(-5.,24.4,13.));
#635=CARTESIAN_POINT('',(-6.45,24.4,0.));
#636=CARTESIAN_POINT('',(-6.45,24.4,0.));
#637=CARTESIAN_POINT('Origin',(-5.,24.4,0.));
#638=CARTESIAN_POINT('Origin',(62.8,24.4,0.));
#639=CARTESIAN_POINT('',(61.35,24.4,13.));
#640=CARTESIAN_POINT('Origin',(62.8,24.4,13.));
#641=CARTESIAN_POINT('',(61.35,24.4,0.));
#642=CARTESIAN_POINT('',(61.35,24.4,0.));
#643=CARTESIAN_POINT('Origin',(62.8,24.4,0.));
#644=CARTESIAN_POINT('Origin',(57.8,19.4,0.));
#645=CARTESIAN_POINT('',(57.8,19.4,0.));
#646=CARTESIAN_POINT('',(57.8,0.,0.));
#647=CARTESIAN_POINT('',(57.8,19.4,13.));
#648=CARTESIAN_POINT('',(57.8,0.,13.));
#649=CARTESIAN_POINT('',(57.8,19.4,0.));
#650=CARTESIAN_POINT('Origin',(0.,19.4,0.));
#651=CARTESIAN_POINT('',(0.,19.4,0.));
#652=CARTESIAN_POINT('',(57.8,19.4,0.));
#653=CARTESIAN_POINT('',(0.,19.4,13.));
#654=CARTESIAN_POINT('',(57.8,19.4,13.));
#655=CARTESIAN_POINT('',(0.,19.4,0.));
#656=CARTESIAN_POINT('Origin',(0.,0.,0.));
#657=CARTESIAN_POINT('',(0.,19.4,0.));
#658=CARTESIAN_POINT('',(0.,19.4,13.));
#659=CARTESIAN_POINT('Origin',(67.8,29.4,0.));
#660=CARTESIAN_POINT('',(67.8,29.4,0.));
#661=CARTESIAN_POINT('',(-10.,29.4,0.));
#662=CARTESIAN_POINT('',(67.8,29.4,0.));
#663=CARTESIAN_POINT('',(-10.,29.4,13.));
#664=CARTESIAN_POINT('',(-10.,29.4,0.));
#665=CARTESIAN_POINT('',(67.8,29.4,13.));
#666=CARTESIAN_POINT('',(67.8,29.4,13.));
#667=CARTESIAN_POINT('',(67.8,29.4,0.));
#668=CARTESIAN_POINT('Origin',(67.8,-10.,0.));
#669=CARTESIAN_POINT('',(67.8,-10.,0.));
#670=CARTESIAN_POINT('',(67.8,-10.,0.));
#671=CARTESIAN_POINT('',(67.8,-10.,13.));
#672=CARTESIAN_POINT('',(67.8,-10.,13.));
#673=CARTESIAN_POINT('',(67.8,-10.,0.));
#674=CARTESIAN_POINT('Origin',(-10.,-10.,0.));
#675=CARTESIAN_POINT('',(-10.,-10.,0.));
#676=CARTESIAN_POINT('',(-10.,-10.,0.));
#677=CARTESIAN_POINT('',(-10.,-10.,13.));
#678=CARTESIAN_POINT('',(-10.,-10.,13.));
#679=CARTESIAN_POINT('',(-10.,-10.,0.));
#680=CARTESIAN_POINT('Origin',(-10.,29.4,0.));
#681=CARTESIAN_POINT('',(-10.,29.4,13.));
#682=CARTESIAN_POINT('',(-10.,29.4,0.));
#683=CARTESIAN_POINT('',(-10.,29.4,13.));
#684=CARTESIAN_POINT('Origin',(28.9,9.7,13.));
#685=CARTESIAN_POINT('Origin',(28.9,9.7,0.));
#686=CARTESIAN_POINT('Origin',(57.8,19.4,0.));
#687=CARTESIAN_POINT('',(57.8,19.4,0.));
#688=CARTESIAN_POINT('',(0.,19.4,0.));
#689=CARTESIAN_POINT('',(57.8,19.4,0.));
#690=CARTESIAN_POINT('',(0.,19.4,3.));
#691=CARTESIAN_POINT('',(0.,19.4,0.));
#692=CARTESIAN_POINT('',(57.8,19.4,3.));
#693=CARTESIAN_POINT('',(57.8,19.4,3.));
#694=CARTESIAN_POINT('',(57.8,19.4,0.));
#695=CARTESIAN_POINT('Origin',(57.8,0.,0.));
#696=CARTESIAN_POINT('',(57.8,0.,0.));
#697=CARTESIAN_POINT('',(57.8,0.,0.));
#698=CARTESIAN_POINT('',(57.8,0.,3.));
#699=CARTESIAN_POINT('',(57.8,0.,3.));
#700=CARTESIAN_POINT('',(57.8,0.,0.));
#701=CARTESIAN_POINT('Origin',(0.,0.,0.));
#702=CARTESIAN_POINT('',(0.,0.,0.));
#703=CARTESIAN_POINT('',(0.,0.,0.));
#704=CARTESIAN_POINT('',(0.,0.,3.));
#705=CARTESIAN_POINT('',(0.,0.,3.));
#706=CARTESIAN_POINT('',(0.,0.,0.));
#707=CARTESIAN_POINT('Origin',(0.,19.4,0.));
#708=CARTESIAN_POINT('',(0.,19.4,0.));
#709=CARTESIAN_POINT('',(0.,19.4,3.));
#710=CARTESIAN_POINT('Origin',(28.9,9.7,3.));
#711=CARTESIAN_POINT('Origin',(28.9,9.7,0.));
#712=UNCERTAINTY_MEASURE_WITH_UNIT(LENGTH_MEASURE(0.01),#716,
'DISTANCE_ACCURACY_VALUE',
'Maximum model space distance between geometric entities at asserted c
onnectivities');
#713=UNCERTAINTY_MEASURE_WITH_UNIT(LENGTH_MEASURE(0.01),#716,
'DISTANCE_ACCURACY_VALUE',
'Maximum model space distance between geometric entities at asserted c
onnectivities');
#714=(
GEOMETRIC_REPRESENTATION_CONTEXT(3)
GLOBAL_UNCERTAINTY_ASSIGNED_CONTEXT((#712))
GLOBAL_UNIT_ASSIGNED_CONTEXT((#716,#718,#719))
REPRESENTATION_CONTEXT('','3D')
);
#715=(
GEOMETRIC_REPRESENTATION_CONTEXT(3)
GLOBAL_UNCERTAINTY_ASSIGNED_CONTEXT((#713))
GLOBAL_UNIT_ASSIGNED_CONTEXT((#716,#718,#719))
REPRESENTATION_CONTEXT('','3D')
);
#716=(
LENGTH_UNIT()
NAMED_UNIT(*)
SI_UNIT(.MILLI.,.METRE.)
);
#717=(
LENGTH_UNIT()
NAMED_UNIT(*)
SI_UNIT($,.METRE.)
);
#718=(
NAMED_UNIT(*)
PLANE_ANGLE_UNIT()
SI_UNIT($,.RADIAN.)
);
#719=(
NAMED_UNIT(*)
SI_UNIT($,.STERADIAN.)
SOLID_ANGLE_UNIT()
);
#720=SHAPE_DEFINITION_REPRESENTATION(#721,#722);
#721=PRODUCT_DEFINITION_SHAPE('',$,#724);
#722=SHAPE_REPRESENTATION('',(#452),#714);
#723=PRODUCT_DEFINITION_CONTEXT('part definition',#728,'design');
#724=PRODUCT_DEFINITION('2026-08-09-13-25-07-924','(Unsaved)',#725,#723);
#725=PRODUCT_DEFINITION_FORMATION('',$,#730);
#726=PRODUCT_RELATED_PRODUCT_CATEGORY('(Unsaved)','(Unsaved)',(#730));
#727=APPLICATION_PROTOCOL_DEFINITION('international standard',
'automotive_design',2009,#728);
#728=APPLICATION_CONTEXT(
'Core Data for Automotive Mechanical Design Process');
#729=PRODUCT_CONTEXT('part definition',#728,'mechanical');
#730=PRODUCT('2026-08-09-13-25-07-924','(Unsaved)',$,(#729));
#731=PRESENTATION_STYLE_ASSIGNMENT((#732));
#732=SURFACE_STYLE_USAGE(.BOTH.,#733);
#733=SURFACE_SIDE_STYLE('',(#734));
#734=SURFACE_STYLE_FILL_AREA(#735);
#735=FILL_AREA_STYLE('Steel - Satin',(#736));
#736=FILL_AREA_STYLE_COLOUR('Steel - Satin',#737);
#737=COLOUR_RGB('Steel - Satin',0.627450980392157,0.627450980392157,0.627450980392157);
ENDSEC;
END-ISO-10303-21;
