ISO-10303-21;
HEADER;
/* Generated by software containing ST-Developer
 * from STEP Tools, Inc. (www.steptools.com) 
 */

FILE_DESCRIPTION(
/* description */ (''),
/* implementation_level */ '2;1');

FILE_NAME(
/* name */ 'macropad (Assembly).step',
/* time_stamp */ '2026-08-17T09:32:04-04:00',
/* author */ (''),
/* organization */ (''),
/* preprocessor_version */ 'ST-DEVELOPER v20.1',
/* originating_system */ 'Autodesk Translation Framework v15.8.0.0',
/* authorisation */ '');

FILE_SCHEMA (('AUTOMOTIVE_DESIGN { 1 0 10303 214 3 1 1 }'));
ENDSEC;

DATA;
#10=MECHANICAL_DESIGN_GEOMETRIC_PRESENTATION_REPRESENTATION('',(#23,#24,
#25),#1891);
#11=ITEM_DEFINED_TRANSFORMATION($,$,#1153,#1251);
#12=ITEM_DEFINED_TRANSFORMATION($,$,#1220,#1252);
#13=(
REPRESENTATION_RELATIONSHIP($,$,#1905,#1904)
REPRESENTATION_RELATIONSHIP_WITH_TRANSFORMATION(#11)
SHAPE_REPRESENTATION_RELATIONSHIP()
);
#14=(
REPRESENTATION_RELATIONSHIP($,$,#1906,#1904)
REPRESENTATION_RELATIONSHIP_WITH_TRANSFORMATION(#12)
SHAPE_REPRESENTATION_RELATIONSHIP()
);
#15=CONTEXT_DEPENDENT_SHAPE_REPRESENTATION(#13,#1902);
#16=CONTEXT_DEPENDENT_SHAPE_REPRESENTATION(#14,#1903);
#17=NEXT_ASSEMBLY_USAGE_OCCURRENCE('macropad:2','macropad:2',
'macropad:2',#1908,#1909,'macropad:2');
#18=NEXT_ASSEMBLY_USAGE_OCCURRENCE('macropad:1','macropad:1',
'macropad:1',#1908,#1910,'macropad:1');
#19=SHAPE_REPRESENTATION_RELATIONSHIP('SRR','None',#1905,#21);
#20=SHAPE_REPRESENTATION_RELATIONSHIP('SRR','None',#1906,#22);
#21=ADVANCED_BREP_SHAPE_REPRESENTATION('',(#26),#1889);
#22=ADVANCED_BREP_SHAPE_REPRESENTATION('',(#27,#28),#1890);
#23=STYLED_ITEM('',(#1923),#26);
#24=STYLED_ITEM('',(#1923),#27);
#25=STYLED_ITEM('',(#1923),#28);
#26=MANIFOLD_SOLID_BREP('Body1',#1126);
#27=MANIFOLD_SOLID_BREP('Body1',#1127);
#28=MANIFOLD_SOLID_BREP('Body2',#1128);
#29=FACE_BOUND('',#201,.T.);
#30=FACE_BOUND('',#202,.T.);
#31=FACE_BOUND('',#203,.T.);
#32=FACE_BOUND('',#204,.T.);
#33=FACE_BOUND('',#205,.T.);
#34=FACE_BOUND('',#206,.T.);
#35=FACE_BOUND('',#207,.T.);
#36=FACE_BOUND('',#209,.T.);
#37=FACE_BOUND('',#210,.T.);
#38=FACE_BOUND('',#211,.T.);
#39=FACE_BOUND('',#212,.T.);
#40=FACE_BOUND('',#213,.T.);
#41=FACE_BOUND('',#214,.T.);
#42=FACE_BOUND('',#215,.T.);
#43=FACE_BOUND('',#231,.T.);
#44=FACE_BOUND('',#232,.T.);
#45=FACE_BOUND('',#233,.T.);
#46=FACE_BOUND('',#234,.T.);
#47=FACE_BOUND('',#236,.T.);
#48=FACE_BOUND('',#237,.T.);
#49=FACE_BOUND('',#238,.T.);
#50=FACE_BOUND('',#239,.T.);
#51=FACE_BOUND('',#240,.T.);
#52=CIRCLE('',#1156,0.499999999999998);
#53=CIRCLE('',#1157,0.499999999999998);
#54=CIRCLE('',#1160,0.499999999999998);
#55=CIRCLE('',#1161,0.499999999999998);
#56=CIRCLE('',#1164,0.499999999999998);
#57=CIRCLE('',#1165,0.499999999999998);
#58=CIRCLE('',#1168,0.5);
#59=CIRCLE('',#1169,0.5);
#60=CIRCLE('',#1172,0.500000000000003);
#61=CIRCLE('',#1173,0.500000000000003);
#62=CIRCLE('',#1176,0.499999999999998);
#63=CIRCLE('',#1177,0.499999999999998);
#64=CIRCLE('',#1180,0.499999999999998);
#65=CIRCLE('',#1181,0.499999999999998);
#66=CIRCLE('',#1184,0.5);
#67=CIRCLE('',#1185,0.5);
#68=CIRCLE('',#1188,0.499999999999998);
#69=CIRCLE('',#1189,0.499999999999998);
#70=CIRCLE('',#1192,0.499999999999998);
#71=CIRCLE('',#1193,0.499999999999998);
#72=CIRCLE('',#1196,0.5);
#73=CIRCLE('',#1197,0.5);
#74=CIRCLE('',#1200,0.5);
#75=CIRCLE('',#1201,0.5);
#76=CIRCLE('',#1203,1.45);
#77=CIRCLE('',#1204,1.45);
#78=CIRCLE('',#1206,1.45);
#79=CIRCLE('',#1207,1.45);
#80=CIRCLE('',#1209,1.45);
#81=CIRCLE('',#1210,1.45);
#82=CIRCLE('',#1212,1.45);
#83=CIRCLE('',#1213,1.45);
#84=CIRCLE('',#1225,1.45);
#85=CIRCLE('',#1226,1.45);
#86=CIRCLE('',#1228,1.45);
#87=CIRCLE('',#1229,1.45);
#88=CIRCLE('',#1231,1.45);
#89=CIRCLE('',#1232,1.45);
#90=CIRCLE('',#1234,1.45);
#91=CIRCLE('',#1235,1.45);
#92=CYLINDRICAL_SURFACE('',#1155,0.499999999999998);
#93=CYLINDRICAL_SURFACE('',#1159,0.499999999999998);
#94=CYLINDRICAL_SURFACE('',#1163,0.499999999999998);
#95=CYLINDRICAL_SURFACE('',#1167,0.5);
#96=CYLINDRICAL_SURFACE('',#1171,0.500000000000003);
#97=CYLINDRICAL_SURFACE('',#1175,0.499999999999998);
#98=CYLINDRICAL_SURFACE('',#1179,0.499999999999998);
#99=CYLINDRICAL_SURFACE('',#1183,0.5);
#100=CYLINDRICAL_SURFACE('',#1187,0.499999999999998);
#101=CYLINDRICAL_SURFACE('',#1191,0.499999999999998);
#102=CYLINDRICAL_SURFACE('',#1195,0.5);
#103=CYLINDRICAL_SURFACE('',#1199,0.5);
#104=CYLINDRICAL_SURFACE('',#1202,1.45);
#105=CYLINDRICAL_SURFACE('',#1205,1.45);
#106=CYLINDRICAL_SURFACE('',#1208,1.45);
#107=CYLINDRICAL_SURFACE('',#1211,1.45);
#108=CYLINDRICAL_SURFACE('',#1224,1.45);
#109=CYLINDRICAL_SURFACE('',#1227,1.45);
#110=CYLINDRICAL_SURFACE('',#1230,1.45);
#111=CYLINDRICAL_SURFACE('',#1233,1.45);
#112=FACE_OUTER_BOUND('',#168,.T.);
#113=FACE_OUTER_BOUND('',#169,.T.);
#114=FACE_OUTER_BOUND('',#170,.T.);
#115=FACE_OUTER_BOUND('',#171,.T.);
#116=FACE_OUTER_BOUND('',#172,.T.);
#117=FACE_OUTER_BOUND('',#173,.T.);
#118=FACE_OUTER_BOUND('',#174,.T.);
#119=FACE_OUTER_BOUND('',#175,.T.);
#120=FACE_OUTER_BOUND('',#176,.T.);
#121=FACE_OUTER_BOUND('',#177,.T.);
#122=FACE_OUTER_BOUND('',#178,.T.);
#123=FACE_OUTER_BOUND('',#179,.T.);
#124=FACE_OUTER_BOUND('',#180,.T.);
#125=FACE_OUTER_BOUND('',#181,.T.);
#126=FACE_OUTER_BOUND('',#182,.T.);
#127=FACE_OUTER_BOUND('',#183,.T.);
#128=FACE_OUTER_BOUND('',#184,.T.);
#129=FACE_OUTER_BOUND('',#185,.T.);
#130=FACE_OUTER_BOUND('',#186,.T.);
#131=FACE_OUTER_BOUND('',#187,.T.);
#132=FACE_OUTER_BOUND('',#188,.T.);
#133=FACE_OUTER_BOUND('',#189,.T.);
#134=FACE_OUTER_BOUND('',#190,.T.);
#135=FACE_OUTER_BOUND('',#191,.T.);
#136=FACE_OUTER_BOUND('',#192,.T.);
#137=FACE_OUTER_BOUND('',#193,.T.);
#138=FACE_OUTER_BOUND('',#194,.T.);
#139=FACE_OUTER_BOUND('',#195,.T.);
#140=FACE_OUTER_BOUND('',#196,.T.);
#141=FACE_OUTER_BOUND('',#197,.T.);
#142=FACE_OUTER_BOUND('',#198,.T.);
#143=FACE_OUTER_BOUND('',#199,.T.);
#144=FACE_OUTER_BOUND('',#200,.T.);
#145=FACE_OUTER_BOUND('',#208,.T.);
#146=FACE_OUTER_BOUND('',#216,.T.);
#147=FACE_OUTER_BOUND('',#217,.T.);
#148=FACE_OUTER_BOUND('',#218,.T.);
#149=FACE_OUTER_BOUND('',#219,.T.);
#150=FACE_OUTER_BOUND('',#220,.T.);
#151=FACE_OUTER_BOUND('',#221,.T.);
#152=FACE_OUTER_BOUND('',#222,.T.);
#153=FACE_OUTER_BOUND('',#223,.T.);
#154=FACE_OUTER_BOUND('',#224,.T.);
#155=FACE_OUTER_BOUND('',#225,.T.);
#156=FACE_OUTER_BOUND('',#226,.T.);
#157=FACE_OUTER_BOUND('',#227,.T.);
#158=FACE_OUTER_BOUND('',#228,.T.);
#159=FACE_OUTER_BOUND('',#229,.T.);
#160=FACE_OUTER_BOUND('',#230,.T.);
#161=FACE_OUTER_BOUND('',#235,.T.);
#162=FACE_OUTER_BOUND('',#241,.T.);
#163=FACE_OUTER_BOUND('',#242,.T.);
#164=FACE_OUTER_BOUND('',#243,.T.);
#165=FACE_OUTER_BOUND('',#244,.T.);
#166=FACE_OUTER_BOUND('',#245,.T.);
#167=FACE_OUTER_BOUND('',#246,.T.);
#168=EDGE_LOOP('',(#728,#729,#730,#731));
#169=EDGE_LOOP('',(#732,#733,#734,#735));
#170=EDGE_LOOP('',(#736,#737,#738,#739));
#171=EDGE_LOOP('',(#740,#741,#742,#743));
#172=EDGE_LOOP('',(#744,#745,#746,#747));
#173=EDGE_LOOP('',(#748,#749,#750,#751));
#174=EDGE_LOOP('',(#752,#753,#754,#755));
#175=EDGE_LOOP('',(#756,#757,#758,#759));
#176=EDGE_LOOP('',(#760,#761,#762,#763));
#177=EDGE_LOOP('',(#764,#765,#766,#767));
#178=EDGE_LOOP('',(#768,#769,#770,#771));
#179=EDGE_LOOP('',(#772,#773,#774,#775));
#180=EDGE_LOOP('',(#776,#777,#778,#779));
#181=EDGE_LOOP('',(#780,#781,#782,#783));
#182=EDGE_LOOP('',(#784,#785,#786,#787));
#183=EDGE_LOOP('',(#788,#789,#790,#791));
#184=EDGE_LOOP('',(#792,#793,#794,#795));
#185=EDGE_LOOP('',(#796,#797,#798,#799));
#186=EDGE_LOOP('',(#800,#801,#802,#803));
#187=EDGE_LOOP('',(#804,#805,#806,#807));
#188=EDGE_LOOP('',(#808,#809,#810,#811));
#189=EDGE_LOOP('',(#812,#813,#814,#815));
#190=EDGE_LOOP('',(#816,#817,#818,#819));
#191=EDGE_LOOP('',(#820,#821,#822,#823));
#192=EDGE_LOOP('',(#824,#825,#826,#827));
#193=EDGE_LOOP('',(#828,#829,#830,#831));
#194=EDGE_LOOP('',(#832,#833,#834,#835));
#195=EDGE_LOOP('',(#836,#837,#838,#839));
#196=EDGE_LOOP('',(#840,#841,#842,#843));
#197=EDGE_LOOP('',(#844,#845,#846,#847));
#198=EDGE_LOOP('',(#848,#849,#850,#851));
#199=EDGE_LOOP('',(#852,#853,#854,#855));
#200=EDGE_LOOP('',(#856,#857,#858,#859));
#201=EDGE_LOOP('',(#860));
#202=EDGE_LOOP('',(#861));
#203=EDGE_LOOP('',(#862));
#204=EDGE_LOOP('',(#863));
#205=EDGE_LOOP('',(#864,#865,#866,#867,#868,#869,#870,#871));
#206=EDGE_LOOP('',(#872,#873,#874,#875,#876,#877,#878,#879));
#207=EDGE_LOOP('',(#880,#881,#882,#883,#884,#885,#886,#887));
#208=EDGE_LOOP('',(#888,#889,#890,#891));
#209=EDGE_LOOP('',(#892));
#210=EDGE_LOOP('',(#893));
#211=EDGE_LOOP('',(#894));
#212=EDGE_LOOP('',(#895));
#213=EDGE_LOOP('',(#896,#897,#898,#899,#900,#901,#902,#903));
#214=EDGE_LOOP('',(#904,#905,#906,#907,#908,#909,#910,#911));
#215=EDGE_LOOP('',(#912,#913,#914,#915,#916,#917,#918,#919));
#216=EDGE_LOOP('',(#920,#921,#922,#923));
#217=EDGE_LOOP('',(#924,#925,#926,#927));
#218=EDGE_LOOP('',(#928,#929,#930,#931,#932,#933));
#219=EDGE_LOOP('',(#934,#935,#936,#937));
#220=EDGE_LOOP('',(#938,#939,#940,#941));
#221=EDGE_LOOP('',(#942,#943,#944,#945));
#222=EDGE_LOOP('',(#946,#947,#948,#949));
#223=EDGE_LOOP('',(#950,#951,#952,#953));
#224=EDGE_LOOP('',(#954,#955,#956,#957));
#225=EDGE_LOOP('',(#958,#959,#960,#961,#962,#963));
#226=EDGE_LOOP('',(#964,#965,#966,#967));
#227=EDGE_LOOP('',(#968,#969,#970,#971));
#228=EDGE_LOOP('',(#972,#973,#974,#975));
#229=EDGE_LOOP('',(#976,#977,#978,#979,#980,#981,#982,#983));
#230=EDGE_LOOP('',(#984,#985,#986,#987,#988,#989,#990,#991,#992,#993));
#231=EDGE_LOOP('',(#994));
#232=EDGE_LOOP('',(#995));
#233=EDGE_LOOP('',(#996));
#234=EDGE_LOOP('',(#997));
#235=EDGE_LOOP('',(#998,#999,#1000,#1001));
#236=EDGE_LOOP('',(#1002,#1003,#1004,#1005));
#237=EDGE_LOOP('',(#1006));
#238=EDGE_LOOP('',(#1007));
#239=EDGE_LOOP('',(#1008));
#240=EDGE_LOOP('',(#1009));
#241=EDGE_LOOP('',(#1010,#1011,#1012,#1013));
#242=EDGE_LOOP('',(#1014,#1015,#1016,#1017));
#243=EDGE_LOOP('',(#1018,#1019,#1020,#1021));
#244=EDGE_LOOP('',(#1022,#1023,#1024,#1025));
#245=EDGE_LOOP('',(#1026,#1027,#1028,#1029));
#246=EDGE_LOOP('',(#1030,#1031,#1032,#1033));
#247=LINE('',#1573,#360);
#248=LINE('',#1575,#361);
#249=LINE('',#1577,#362);
#250=LINE('',#1578,#363);
#251=LINE('',#1583,#364);
#252=LINE('',#1587,#365);
#253=LINE('',#1589,#366);
#254=LINE('',#1590,#367);
#255=LINE('',#1595,#368);
#256=LINE('',#1599,#369);
#257=LINE('',#1601,#370);
#258=LINE('',#1602,#371);
#259=LINE('',#1607,#372);
#260=LINE('',#1611,#373);
#261=LINE('',#1613,#374);
#262=LINE('',#1614,#375);
#263=LINE('',#1621,#376);
#264=LINE('',#1623,#377);
#265=LINE('',#1625,#378);
#266=LINE('',#1626,#379);
#267=LINE('',#1631,#380);
#268=LINE('',#1635,#381);
#269=LINE('',#1637,#382);
#270=LINE('',#1638,#383);
#271=LINE('',#1643,#384);
#272=LINE('',#1647,#385);
#273=LINE('',#1649,#386);
#274=LINE('',#1650,#387);
#275=LINE('',#1655,#388);
#276=LINE('',#1659,#389);
#277=LINE('',#1661,#390);
#278=LINE('',#1662,#391);
#279=LINE('',#1669,#392);
#280=LINE('',#1671,#393);
#281=LINE('',#1673,#394);
#282=LINE('',#1674,#395);
#283=LINE('',#1679,#396);
#284=LINE('',#1683,#397);
#285=LINE('',#1685,#398);
#286=LINE('',#1686,#399);
#287=LINE('',#1691,#400);
#288=LINE('',#1695,#401);
#289=LINE('',#1697,#402);
#290=LINE('',#1698,#403);
#291=LINE('',#1703,#404);
#292=LINE('',#1707,#405);
#293=LINE('',#1709,#406);
#294=LINE('',#1710,#407);
#295=LINE('',#1718,#408);
#296=LINE('',#1724,#409);
#297=LINE('',#1730,#410);
#298=LINE('',#1736,#411);
#299=LINE('',#1741,#412);
#300=LINE('',#1743,#413);
#301=LINE('',#1745,#414);
#302=LINE('',#1746,#415);
#303=LINE('',#1749,#416);
#304=LINE('',#1751,#417);
#305=LINE('',#1752,#418);
#306=LINE('',#1755,#419);
#307=LINE('',#1757,#420);
#308=LINE('',#1758,#421);
#309=LINE('',#1760,#422);
#310=LINE('',#1761,#423);
#311=LINE('',#1768,#424);
#312=LINE('',#1770,#425);
#313=LINE('',#1772,#426);
#314=LINE('',#1773,#427);
#315=LINE('',#1776,#428);
#316=LINE('',#1778,#429);
#317=LINE('',#1779,#430);
#318=LINE('',#1783,#431);
#319=LINE('',#1785,#432);
#320=LINE('',#1787,#433);
#321=LINE('',#1788,#434);
#322=LINE('',#1789,#435);
#323=LINE('',#1794,#436);
#324=LINE('',#1800,#437);
#325=LINE('',#1806,#438);
#326=LINE('',#1812,#439);
#327=LINE('',#1816,#440);
#328=LINE('',#1818,#441);
#329=LINE('',#1819,#442);
#330=LINE('',#1822,#443);
#331=LINE('',#1824,#444);
#332=LINE('',#1825,#445);
#333=LINE('',#1827,#446);
#334=LINE('',#1828,#447);
#335=LINE('',#1832,#448);
#336=LINE('',#1834,#449);
#337=LINE('',#1836,#450);
#338=LINE('',#1837,#451);
#339=LINE('',#1840,#452);
#340=LINE('',#1842,#453);
#341=LINE('',#1843,#454);
#342=LINE('',#1846,#455);
#343=LINE('',#1848,#456);
#344=LINE('',#1849,#457);
#345=LINE('',#1851,#458);
#346=LINE('',#1852,#459);
#347=LINE('',#1853,#460);
#348=LINE('',#1859,#461);
#349=LINE('',#1861,#462);
#350=LINE('',#1863,#463);
#351=LINE('',#1864,#464);
#352=LINE('',#1867,#465);
#353=LINE('',#1869,#466);
#354=LINE('',#1870,#467);
#355=LINE('',#1873,#468);
#356=LINE('',#1875,#469);
#357=LINE('',#1876,#470);
#358=LINE('',#1878,#471);
#359=LINE('',#1879,#472);
#360=VECTOR('',#1259,10.);
#361=VECTOR('',#1260,10.);
#362=VECTOR('',#1261,10.);
#363=VECTOR('',#1262,10.);
#364=VECTOR('',#1267,10.);
#365=VECTOR('',#1272,10.);
#366=VECTOR('',#1273,10.);
#367=VECTOR('',#1274,10.);
#368=VECTOR('',#1279,10.);
#369=VECTOR('',#1284,10.);
#370=VECTOR('',#1285,10.);
#371=VECTOR('',#1286,10.);
#372=VECTOR('',#1291,10.);
#373=VECTOR('',#1296,10.);
#374=VECTOR('',#1297,10.);
#375=VECTOR('',#1298,10.);
#376=VECTOR('',#1307,10.);
#377=VECTOR('',#1308,10.);
#378=VECTOR('',#1309,10.);
#379=VECTOR('',#1310,10.);
#380=VECTOR('',#1315,10.);
#381=VECTOR('',#1320,10.);
#382=VECTOR('',#1321,10.);
#383=VECTOR('',#1322,10.);
#384=VECTOR('',#1327,10.);
#385=VECTOR('',#1332,10.);
#386=VECTOR('',#1333,10.);
#387=VECTOR('',#1334,10.);
#388=VECTOR('',#1339,10.);
#389=VECTOR('',#1344,10.);
#390=VECTOR('',#1345,10.);
#391=VECTOR('',#1346,10.);
#392=VECTOR('',#1355,10.);
#393=VECTOR('',#1356,10.);
#394=VECTOR('',#1357,10.);
#395=VECTOR('',#1358,10.);
#396=VECTOR('',#1363,10.);
#397=VECTOR('',#1368,10.);
#398=VECTOR('',#1369,10.);
#399=VECTOR('',#1370,10.);
#400=VECTOR('',#1375,10.);
#401=VECTOR('',#1380,10.);
#402=VECTOR('',#1381,10.);
#403=VECTOR('',#1382,10.);
#404=VECTOR('',#1387,10.);
#405=VECTOR('',#1392,10.);
#406=VECTOR('',#1393,10.);
#407=VECTOR('',#1394,10.);
#408=VECTOR('',#1405,1.45);
#409=VECTOR('',#1412,1.45);
#410=VECTOR('',#1419,1.45);
#411=VECTOR('',#1426,1.45);
#412=VECTOR('',#1431,10.);
#413=VECTOR('',#1432,10.);
#414=VECTOR('',#1433,10.);
#415=VECTOR('',#1434,10.);
#416=VECTOR('',#1437,10.);
#417=VECTOR('',#1438,10.);
#418=VECTOR('',#1439,10.);
#419=VECTOR('',#1442,10.);
#420=VECTOR('',#1443,10.);
#421=VECTOR('',#1444,10.);
#422=VECTOR('',#1447,10.);
#423=VECTOR('',#1448,10.);
#424=VECTOR('',#1457,10.);
#425=VECTOR('',#1458,10.);
#426=VECTOR('',#1459,10.);
#427=VECTOR('',#1460,10.);
#428=VECTOR('',#1463,10.);
#429=VECTOR('',#1464,10.);
#430=VECTOR('',#1465,10.);
#431=VECTOR('',#1468,10.);
#432=VECTOR('',#1469,10.);
#433=VECTOR('',#1470,10.);
#434=VECTOR('',#1471,10.);
#435=VECTOR('',#1472,10.);
#436=VECTOR('',#1477,1.45);
#437=VECTOR('',#1484,1.45);
#438=VECTOR('',#1491,1.45);
#439=VECTOR('',#1498,1.45);
#440=VECTOR('',#1503,10.);
#441=VECTOR('',#1504,10.);
#442=VECTOR('',#1505,10.);
#443=VECTOR('',#1508,10.);
#444=VECTOR('',#1509,10.);
#445=VECTOR('',#1510,10.);
#446=VECTOR('',#1513,10.);
#447=VECTOR('',#1514,10.);
#448=VECTOR('',#1517,10.);
#449=VECTOR('',#1518,10.);
#450=VECTOR('',#1519,10.);
#451=VECTOR('',#1520,10.);
#452=VECTOR('',#1523,10.);
#453=VECTOR('',#1524,10.);
#454=VECTOR('',#1525,10.);
#455=VECTOR('',#1528,10.);
#456=VECTOR('',#1529,10.);
#457=VECTOR('',#1530,10.);
#458=VECTOR('',#1533,10.);
#459=VECTOR('',#1534,10.);
#460=VECTOR('',#1535,10.);
#461=VECTOR('',#1542,10.);
#462=VECTOR('',#1543,10.);
#463=VECTOR('',#1544,10.);
#464=VECTOR('',#1545,10.);
#465=VECTOR('',#1548,10.);
#466=VECTOR('',#1549,10.);
#467=VECTOR('',#1550,10.);
#468=VECTOR('',#1553,10.);
#469=VECTOR('',#1554,10.);
#470=VECTOR('',#1555,10.);
#471=VECTOR('',#1558,10.);
#472=VECTOR('',#1559,10.);
#473=VERTEX_POINT('',#1571);
#474=VERTEX_POINT('',#1572);
#475=VERTEX_POINT('',#1574);
#476=VERTEX_POINT('',#1576);
#477=VERTEX_POINT('',#1580);
#478=VERTEX_POINT('',#1582);
#479=VERTEX_POINT('',#1586);
#480=VERTEX_POINT('',#1588);
#481=VERTEX_POINT('',#1592);
#482=VERTEX_POINT('',#1594);
#483=VERTEX_POINT('',#1598);
#484=VERTEX_POINT('',#1600);
#485=VERTEX_POINT('',#1604);
#486=VERTEX_POINT('',#1606);
#487=VERTEX_POINT('',#1610);
#488=VERTEX_POINT('',#1612);
#489=VERTEX_POINT('',#1619);
#490=VERTEX_POINT('',#1620);
#491=VERTEX_POINT('',#1622);
#492=VERTEX_POINT('',#1624);
#493=VERTEX_POINT('',#1628);
#494=VERTEX_POINT('',#1630);
#495=VERTEX_POINT('',#1634);
#496=VERTEX_POINT('',#1636);
#497=VERTEX_POINT('',#1640);
#498=VERTEX_POINT('',#1642);
#499=VERTEX_POINT('',#1646);
#500=VERTEX_POINT('',#1648);
#501=VERTEX_POINT('',#1652);
#502=VERTEX_POINT('',#1654);
#503=VERTEX_POINT('',#1658);
#504=VERTEX_POINT('',#1660);
#505=VERTEX_POINT('',#1667);
#506=VERTEX_POINT('',#1668);
#507=VERTEX_POINT('',#1670);
#508=VERTEX_POINT('',#1672);
#509=VERTEX_POINT('',#1676);
#510=VERTEX_POINT('',#1678);
#511=VERTEX_POINT('',#1682);
#512=VERTEX_POINT('',#1684);
#513=VERTEX_POINT('',#1688);
#514=VERTEX_POINT('',#1690);
#515=VERTEX_POINT('',#1694);
#516=VERTEX_POINT('',#1696);
#517=VERTEX_POINT('',#1700);
#518=VERTEX_POINT('',#1702);
#519=VERTEX_POINT('',#1706);
#520=VERTEX_POINT('',#1708);
#521=VERTEX_POINT('',#1715);
#522=VERTEX_POINT('',#1717);
#523=VERTEX_POINT('',#1721);
#524=VERTEX_POINT('',#1723);
#525=VERTEX_POINT('',#1727);
#526=VERTEX_POINT('',#1729);
#527=VERTEX_POINT('',#1733);
#528=VERTEX_POINT('',#1735);
#529=VERTEX_POINT('',#1739);
#530=VERTEX_POINT('',#1740);
#531=VERTEX_POINT('',#1742);
#532=VERTEX_POINT('',#1744);
#533=VERTEX_POINT('',#1748);
#534=VERTEX_POINT('',#1750);
#535=VERTEX_POINT('',#1754);
#536=VERTEX_POINT('',#1756);
#537=VERTEX_POINT('',#1766);
#538=VERTEX_POINT('',#1767);
#539=VERTEX_POINT('',#1769);
#540=VERTEX_POINT('',#1771);
#541=VERTEX_POINT('',#1775);
#542=VERTEX_POINT('',#1777);
#543=VERTEX_POINT('',#1781);
#544=VERTEX_POINT('',#1782);
#545=VERTEX_POINT('',#1784);
#546=VERTEX_POINT('',#1786);
#547=VERTEX_POINT('',#1791);
#548=VERTEX_POINT('',#1793);
#549=VERTEX_POINT('',#1797);
#550=VERTEX_POINT('',#1799);
#551=VERTEX_POINT('',#1803);
#552=VERTEX_POINT('',#1805);
#553=VERTEX_POINT('',#1809);
#554=VERTEX_POINT('',#1811);
#555=VERTEX_POINT('',#1815);
#556=VERTEX_POINT('',#1817);
#557=VERTEX_POINT('',#1821);
#558=VERTEX_POINT('',#1823);
#559=VERTEX_POINT('',#1830);
#560=VERTEX_POINT('',#1831);
#561=VERTEX_POINT('',#1833);
#562=VERTEX_POINT('',#1835);
#563=VERTEX_POINT('',#1839);
#564=VERTEX_POINT('',#1841);
#565=VERTEX_POINT('',#1845);
#566=VERTEX_POINT('',#1847);
#567=VERTEX_POINT('',#1857);
#568=VERTEX_POINT('',#1858);
#569=VERTEX_POINT('',#1860);
#570=VERTEX_POINT('',#1862);
#571=VERTEX_POINT('',#1866);
#572=VERTEX_POINT('',#1868);
#573=VERTEX_POINT('',#1872);
#574=VERTEX_POINT('',#1874);
#575=EDGE_CURVE('',#473,#474,#247,.T.);
#576=EDGE_CURVE('',#473,#475,#248,.T.);
#577=EDGE_CURVE('',#476,#475,#249,.T.);
#578=EDGE_CURVE('',#474,#476,#250,.T.);
#579=EDGE_CURVE('',#477,#473,#52,.T.);
#580=EDGE_CURVE('',#477,#478,#251,.T.);
#581=EDGE_CURVE('',#475,#478,#53,.T.);
#582=EDGE_CURVE('',#479,#477,#252,.T.);
#583=EDGE_CURVE('',#479,#480,#253,.T.);
#584=EDGE_CURVE('',#478,#480,#254,.T.);
#585=EDGE_CURVE('',#481,#479,#54,.T.);
#586=EDGE_CURVE('',#481,#482,#255,.T.);
#587=EDGE_CURVE('',#480,#482,#55,.T.);
#588=EDGE_CURVE('',#483,#481,#256,.T.);
#589=EDGE_CURVE('',#483,#484,#257,.T.);
#590=EDGE_CURVE('',#482,#484,#258,.T.);
#591=EDGE_CURVE('',#485,#483,#56,.T.);
#592=EDGE_CURVE('',#485,#486,#259,.T.);
#593=EDGE_CURVE('',#484,#486,#57,.T.);
#594=EDGE_CURVE('',#487,#485,#260,.T.);
#595=EDGE_CURVE('',#487,#488,#261,.T.);
#596=EDGE_CURVE('',#486,#488,#262,.T.);
#597=EDGE_CURVE('',#474,#487,#58,.T.);
#598=EDGE_CURVE('',#488,#476,#59,.T.);
#599=EDGE_CURVE('',#489,#490,#263,.T.);
#600=EDGE_CURVE('',#489,#491,#264,.T.);
#601=EDGE_CURVE('',#492,#491,#265,.T.);
#602=EDGE_CURVE('',#490,#492,#266,.T.);
#603=EDGE_CURVE('',#493,#489,#60,.T.);
#604=EDGE_CURVE('',#493,#494,#267,.T.);
#605=EDGE_CURVE('',#491,#494,#61,.T.);
#606=EDGE_CURVE('',#495,#493,#268,.T.);
#607=EDGE_CURVE('',#495,#496,#269,.T.);
#608=EDGE_CURVE('',#494,#496,#270,.T.);
#609=EDGE_CURVE('',#497,#495,#62,.T.);
#610=EDGE_CURVE('',#497,#498,#271,.T.);
#611=EDGE_CURVE('',#496,#498,#63,.T.);
#612=EDGE_CURVE('',#499,#497,#272,.T.);
#613=EDGE_CURVE('',#499,#500,#273,.T.);
#614=EDGE_CURVE('',#498,#500,#274,.T.);
#615=EDGE_CURVE('',#501,#499,#64,.T.);
#616=EDGE_CURVE('',#501,#502,#275,.T.);
#617=EDGE_CURVE('',#500,#502,#65,.T.);
#618=EDGE_CURVE('',#503,#501,#276,.T.);
#619=EDGE_CURVE('',#503,#504,#277,.T.);
#620=EDGE_CURVE('',#502,#504,#278,.T.);
#621=EDGE_CURVE('',#490,#503,#66,.T.);
#622=EDGE_CURVE('',#504,#492,#67,.T.);
#623=EDGE_CURVE('',#505,#506,#279,.T.);
#624=EDGE_CURVE('',#505,#507,#280,.T.);
#625=EDGE_CURVE('',#508,#507,#281,.T.);
#626=EDGE_CURVE('',#506,#508,#282,.T.);
#627=EDGE_CURVE('',#509,#505,#68,.T.);
#628=EDGE_CURVE('',#509,#510,#283,.T.);
#629=EDGE_CURVE('',#507,#510,#69,.T.);
#630=EDGE_CURVE('',#511,#509,#284,.T.);
#631=EDGE_CURVE('',#511,#512,#285,.T.);
#632=EDGE_CURVE('',#510,#512,#286,.T.);
#633=EDGE_CURVE('',#513,#511,#70,.T.);
#634=EDGE_CURVE('',#513,#514,#287,.T.);
#635=EDGE_CURVE('',#512,#514,#71,.T.);
#636=EDGE_CURVE('',#515,#513,#288,.T.);
#637=EDGE_CURVE('',#515,#516,#289,.T.);
#638=EDGE_CURVE('',#514,#516,#290,.T.);
#639=EDGE_CURVE('',#517,#515,#72,.T.);
#640=EDGE_CURVE('',#517,#518,#291,.T.);
#641=EDGE_CURVE('',#516,#518,#73,.T.);
#642=EDGE_CURVE('',#519,#517,#292,.T.);
#643=EDGE_CURVE('',#519,#520,#293,.T.);
#644=EDGE_CURVE('',#518,#520,#294,.T.);
#645=EDGE_CURVE('',#506,#519,#74,.T.);
#646=EDGE_CURVE('',#520,#508,#75,.T.);
#647=EDGE_CURVE('',#521,#521,#76,.T.);
#648=EDGE_CURVE('',#521,#522,#295,.T.);
#649=EDGE_CURVE('',#522,#522,#77,.T.);
#650=EDGE_CURVE('',#523,#523,#78,.T.);
#651=EDGE_CURVE('',#523,#524,#296,.T.);
#652=EDGE_CURVE('',#524,#524,#79,.T.);
#653=EDGE_CURVE('',#525,#525,#80,.T.);
#654=EDGE_CURVE('',#525,#526,#297,.T.);
#655=EDGE_CURVE('',#526,#526,#81,.T.);
#656=EDGE_CURVE('',#527,#527,#82,.T.);
#657=EDGE_CURVE('',#527,#528,#298,.T.);
#658=EDGE_CURVE('',#528,#528,#83,.T.);
#659=EDGE_CURVE('',#529,#530,#299,.T.);
#660=EDGE_CURVE('',#529,#531,#300,.T.);
#661=EDGE_CURVE('',#532,#531,#301,.T.);
#662=EDGE_CURVE('',#530,#532,#302,.T.);
#663=EDGE_CURVE('',#530,#533,#303,.T.);
#664=EDGE_CURVE('',#534,#532,#304,.T.);
#665=EDGE_CURVE('',#533,#534,#305,.T.);
#666=EDGE_CURVE('',#533,#535,#306,.T.);
#667=EDGE_CURVE('',#536,#534,#307,.T.);
#668=EDGE_CURVE('',#535,#536,#308,.T.);
#669=EDGE_CURVE('',#535,#529,#309,.T.);
#670=EDGE_CURVE('',#531,#536,#310,.T.);
#671=EDGE_CURVE('',#537,#538,#311,.T.);
#672=EDGE_CURVE('',#539,#537,#312,.T.);
#673=EDGE_CURVE('',#540,#539,#313,.T.);
#674=EDGE_CURVE('',#540,#538,#314,.T.);
#675=EDGE_CURVE('',#538,#541,#315,.T.);
#676=EDGE_CURVE('',#542,#540,#316,.T.);
#677=EDGE_CURVE('',#542,#541,#317,.T.);
#678=EDGE_CURVE('',#543,#544,#318,.T.);
#679=EDGE_CURVE('',#545,#543,#319,.T.);
#680=EDGE_CURVE('',#545,#546,#320,.T.);
#681=EDGE_CURVE('',#546,#541,#321,.T.);
#682=EDGE_CURVE('',#544,#542,#322,.T.);
#683=EDGE_CURVE('',#547,#547,#84,.T.);
#684=EDGE_CURVE('',#547,#548,#323,.T.);
#685=EDGE_CURVE('',#548,#548,#85,.T.);
#686=EDGE_CURVE('',#549,#549,#86,.T.);
#687=EDGE_CURVE('',#549,#550,#324,.T.);
#688=EDGE_CURVE('',#550,#550,#87,.T.);
#689=EDGE_CURVE('',#551,#551,#88,.T.);
#690=EDGE_CURVE('',#551,#552,#325,.T.);
#691=EDGE_CURVE('',#552,#552,#89,.T.);
#692=EDGE_CURVE('',#553,#553,#90,.T.);
#693=EDGE_CURVE('',#553,#554,#326,.T.);
#694=EDGE_CURVE('',#554,#554,#91,.T.);
#695=EDGE_CURVE('',#555,#545,#327,.T.);
#696=EDGE_CURVE('',#556,#543,#328,.T.);
#697=EDGE_CURVE('',#555,#556,#329,.T.);
#698=EDGE_CURVE('',#557,#555,#330,.T.);
#699=EDGE_CURVE('',#558,#556,#331,.T.);
#700=EDGE_CURVE('',#557,#558,#332,.T.);
#701=EDGE_CURVE('',#546,#557,#333,.T.);
#702=EDGE_CURVE('',#537,#558,#334,.T.);
#703=EDGE_CURVE('',#559,#560,#335,.T.);
#704=EDGE_CURVE('',#560,#561,#336,.T.);
#705=EDGE_CURVE('',#562,#561,#337,.T.);
#706=EDGE_CURVE('',#559,#562,#338,.T.);
#707=EDGE_CURVE('',#563,#559,#339,.T.);
#708=EDGE_CURVE('',#564,#562,#340,.T.);
#709=EDGE_CURVE('',#563,#564,#341,.T.);
#710=EDGE_CURVE('',#565,#563,#342,.T.);
#711=EDGE_CURVE('',#566,#564,#343,.T.);
#712=EDGE_CURVE('',#565,#566,#344,.T.);
#713=EDGE_CURVE('',#561,#539,#345,.T.);
#714=EDGE_CURVE('',#560,#565,#346,.T.);
#715=EDGE_CURVE('',#544,#566,#347,.T.);
#716=EDGE_CURVE('',#567,#568,#348,.T.);
#717=EDGE_CURVE('',#568,#569,#349,.T.);
#718=EDGE_CURVE('',#570,#569,#350,.T.);
#719=EDGE_CURVE('',#567,#570,#351,.T.);
#720=EDGE_CURVE('',#571,#567,#352,.T.);
#721=EDGE_CURVE('',#572,#570,#353,.T.);
#722=EDGE_CURVE('',#571,#572,#354,.T.);
#723=EDGE_CURVE('',#573,#571,#355,.T.);
#724=EDGE_CURVE('',#574,#572,#356,.T.);
#725=EDGE_CURVE('',#573,#574,#357,.T.);
#726=EDGE_CURVE('',#568,#573,#358,.T.);
#727=EDGE_CURVE('',#569,#574,#359,.T.);
#728=ORIENTED_EDGE('',*,*,#575,.F.);
#729=ORIENTED_EDGE('',*,*,#576,.T.);
#730=ORIENTED_EDGE('',*,*,#577,.F.);
#731=ORIENTED_EDGE('',*,*,#578,.F.);
#732=ORIENTED_EDGE('',*,*,#579,.F.);
#733=ORIENTED_EDGE('',*,*,#580,.T.);
#734=ORIENTED_EDGE('',*,*,#581,.F.);
#735=ORIENTED_EDGE('',*,*,#576,.F.);
#736=ORIENTED_EDGE('',*,*,#582,.F.);
#737=ORIENTED_EDGE('',*,*,#583,.T.);
#738=ORIENTED_EDGE('',*,*,#584,.F.);
#739=ORIENTED_EDGE('',*,*,#580,.F.);
#740=ORIENTED_EDGE('',*,*,#585,.F.);
#741=ORIENTED_EDGE('',*,*,#586,.T.);
#742=ORIENTED_EDGE('',*,*,#587,.F.);
#743=ORIENTED_EDGE('',*,*,#583,.F.);
#744=ORIENTED_EDGE('',*,*,#588,.F.);
#745=ORIENTED_EDGE('',*,*,#589,.T.);
#746=ORIENTED_EDGE('',*,*,#590,.F.);
#747=ORIENTED_EDGE('',*,*,#586,.F.);
#748=ORIENTED_EDGE('',*,*,#591,.F.);
#749=ORIENTED_EDGE('',*,*,#592,.T.);
#750=ORIENTED_EDGE('',*,*,#593,.F.);
#751=ORIENTED_EDGE('',*,*,#589,.F.);
#752=ORIENTED_EDGE('',*,*,#594,.F.);
#753=ORIENTED_EDGE('',*,*,#595,.T.);
#754=ORIENTED_EDGE('',*,*,#596,.F.);
#755=ORIENTED_EDGE('',*,*,#592,.F.);
#756=ORIENTED_EDGE('',*,*,#597,.F.);
#757=ORIENTED_EDGE('',*,*,#578,.T.);
#758=ORIENTED_EDGE('',*,*,#598,.F.);
#759=ORIENTED_EDGE('',*,*,#595,.F.);
#760=ORIENTED_EDGE('',*,*,#599,.F.);
#761=ORIENTED_EDGE('',*,*,#600,.T.);
#762=ORIENTED_EDGE('',*,*,#601,.F.);
#763=ORIENTED_EDGE('',*,*,#602,.F.);
#764=ORIENTED_EDGE('',*,*,#603,.F.);
#765=ORIENTED_EDGE('',*,*,#604,.T.);
#766=ORIENTED_EDGE('',*,*,#605,.F.);
#767=ORIENTED_EDGE('',*,*,#600,.F.);
#768=ORIENTED_EDGE('',*,*,#606,.F.);
#769=ORIENTED_EDGE('',*,*,#607,.T.);
#770=ORIENTED_EDGE('',*,*,#608,.F.);
#771=ORIENTED_EDGE('',*,*,#604,.F.);
#772=ORIENTED_EDGE('',*,*,#609,.F.);
#773=ORIENTED_EDGE('',*,*,#610,.T.);
#774=ORIENTED_EDGE('',*,*,#611,.F.);
#775=ORIENTED_EDGE('',*,*,#607,.F.);
#776=ORIENTED_EDGE('',*,*,#612,.F.);
#777=ORIENTED_EDGE('',*,*,#613,.T.);
#778=ORIENTED_EDGE('',*,*,#614,.F.);
#779=ORIENTED_EDGE('',*,*,#610,.F.);
#780=ORIENTED_EDGE('',*,*,#615,.F.);
#781=ORIENTED_EDGE('',*,*,#616,.T.);
#782=ORIENTED_EDGE('',*,*,#617,.F.);
#783=ORIENTED_EDGE('',*,*,#613,.F.);
#784=ORIENTED_EDGE('',*,*,#618,.F.);
#785=ORIENTED_EDGE('',*,*,#619,.T.);
#786=ORIENTED_EDGE('',*,*,#620,.F.);
#787=ORIENTED_EDGE('',*,*,#616,.F.);
#788=ORIENTED_EDGE('',*,*,#621,.F.);
#789=ORIENTED_EDGE('',*,*,#602,.T.);
#790=ORIENTED_EDGE('',*,*,#622,.F.);
#791=ORIENTED_EDGE('',*,*,#619,.F.);
#792=ORIENTED_EDGE('',*,*,#623,.F.);
#793=ORIENTED_EDGE('',*,*,#624,.T.);
#794=ORIENTED_EDGE('',*,*,#625,.F.);
#795=ORIENTED_EDGE('',*,*,#626,.F.);
#796=ORIENTED_EDGE('',*,*,#627,.F.);
#797=ORIENTED_EDGE('',*,*,#628,.T.);
#798=ORIENTED_EDGE('',*,*,#629,.F.);
#799=ORIENTED_EDGE('',*,*,#624,.F.);
#800=ORIENTED_EDGE('',*,*,#630,.F.);
#801=ORIENTED_EDGE('',*,*,#631,.T.);
#802=ORIENTED_EDGE('',*,*,#632,.F.);
#803=ORIENTED_EDGE('',*,*,#628,.F.);
#804=ORIENTED_EDGE('',*,*,#633,.F.);
#805=ORIENTED_EDGE('',*,*,#634,.T.);
#806=ORIENTED_EDGE('',*,*,#635,.F.);
#807=ORIENTED_EDGE('',*,*,#631,.F.);
#808=ORIENTED_EDGE('',*,*,#636,.F.);
#809=ORIENTED_EDGE('',*,*,#637,.T.);
#810=ORIENTED_EDGE('',*,*,#638,.F.);
#811=ORIENTED_EDGE('',*,*,#634,.F.);
#812=ORIENTED_EDGE('',*,*,#639,.F.);
#813=ORIENTED_EDGE('',*,*,#640,.T.);
#814=ORIENTED_EDGE('',*,*,#641,.F.);
#815=ORIENTED_EDGE('',*,*,#637,.F.);
#816=ORIENTED_EDGE('',*,*,#642,.F.);
#817=ORIENTED_EDGE('',*,*,#643,.T.);
#818=ORIENTED_EDGE('',*,*,#644,.F.);
#819=ORIENTED_EDGE('',*,*,#640,.F.);
#820=ORIENTED_EDGE('',*,*,#645,.F.);
#821=ORIENTED_EDGE('',*,*,#626,.T.);
#822=ORIENTED_EDGE('',*,*,#646,.F.);
#823=ORIENTED_EDGE('',*,*,#643,.F.);
#824=ORIENTED_EDGE('',*,*,#647,.F.);
#825=ORIENTED_EDGE('',*,*,#648,.T.);
#826=ORIENTED_EDGE('',*,*,#649,.F.);
#827=ORIENTED_EDGE('',*,*,#648,.F.);
#828=ORIENTED_EDGE('',*,*,#650,.F.);
#829=ORIENTED_EDGE('',*,*,#651,.T.);
#830=ORIENTED_EDGE('',*,*,#652,.F.);
#831=ORIENTED_EDGE('',*,*,#651,.F.);
#832=ORIENTED_EDGE('',*,*,#653,.F.);
#833=ORIENTED_EDGE('',*,*,#654,.T.);
#834=ORIENTED_EDGE('',*,*,#655,.F.);
#835=ORIENTED_EDGE('',*,*,#654,.F.);
#836=ORIENTED_EDGE('',*,*,#656,.F.);
#837=ORIENTED_EDGE('',*,*,#657,.T.);
#838=ORIENTED_EDGE('',*,*,#658,.F.);
#839=ORIENTED_EDGE('',*,*,#657,.F.);
#840=ORIENTED_EDGE('',*,*,#659,.F.);
#841=ORIENTED_EDGE('',*,*,#660,.T.);
#842=ORIENTED_EDGE('',*,*,#661,.F.);
#843=ORIENTED_EDGE('',*,*,#662,.F.);
#844=ORIENTED_EDGE('',*,*,#663,.F.);
#845=ORIENTED_EDGE('',*,*,#662,.T.);
#846=ORIENTED_EDGE('',*,*,#664,.F.);
#847=ORIENTED_EDGE('',*,*,#665,.F.);
#848=ORIENTED_EDGE('',*,*,#666,.F.);
#849=ORIENTED_EDGE('',*,*,#665,.T.);
#850=ORIENTED_EDGE('',*,*,#667,.F.);
#851=ORIENTED_EDGE('',*,*,#668,.F.);
#852=ORIENTED_EDGE('',*,*,#669,.F.);
#853=ORIENTED_EDGE('',*,*,#668,.T.);
#854=ORIENTED_EDGE('',*,*,#670,.F.);
#855=ORIENTED_EDGE('',*,*,#660,.F.);
#856=ORIENTED_EDGE('',*,*,#670,.T.);
#857=ORIENTED_EDGE('',*,*,#667,.T.);
#858=ORIENTED_EDGE('',*,*,#664,.T.);
#859=ORIENTED_EDGE('',*,*,#661,.T.);
#860=ORIENTED_EDGE('',*,*,#647,.T.);
#861=ORIENTED_EDGE('',*,*,#650,.T.);
#862=ORIENTED_EDGE('',*,*,#653,.T.);
#863=ORIENTED_EDGE('',*,*,#656,.T.);
#864=ORIENTED_EDGE('',*,*,#625,.T.);
#865=ORIENTED_EDGE('',*,*,#629,.T.);
#866=ORIENTED_EDGE('',*,*,#632,.T.);
#867=ORIENTED_EDGE('',*,*,#635,.T.);
#868=ORIENTED_EDGE('',*,*,#638,.T.);
#869=ORIENTED_EDGE('',*,*,#641,.T.);
#870=ORIENTED_EDGE('',*,*,#644,.T.);
#871=ORIENTED_EDGE('',*,*,#646,.T.);
#872=ORIENTED_EDGE('',*,*,#601,.T.);
#873=ORIENTED_EDGE('',*,*,#605,.T.);
#874=ORIENTED_EDGE('',*,*,#608,.T.);
#875=ORIENTED_EDGE('',*,*,#611,.T.);
#876=ORIENTED_EDGE('',*,*,#614,.T.);
#877=ORIENTED_EDGE('',*,*,#617,.T.);
#878=ORIENTED_EDGE('',*,*,#620,.T.);
#879=ORIENTED_EDGE('',*,*,#622,.T.);
#880=ORIENTED_EDGE('',*,*,#577,.T.);
#881=ORIENTED_EDGE('',*,*,#581,.T.);
#882=ORIENTED_EDGE('',*,*,#584,.T.);
#883=ORIENTED_EDGE('',*,*,#587,.T.);
#884=ORIENTED_EDGE('',*,*,#590,.T.);
#885=ORIENTED_EDGE('',*,*,#593,.T.);
#886=ORIENTED_EDGE('',*,*,#596,.T.);
#887=ORIENTED_EDGE('',*,*,#598,.T.);
#888=ORIENTED_EDGE('',*,*,#669,.T.);
#889=ORIENTED_EDGE('',*,*,#659,.T.);
#890=ORIENTED_EDGE('',*,*,#663,.T.);
#891=ORIENTED_EDGE('',*,*,#666,.T.);
#892=ORIENTED_EDGE('',*,*,#649,.T.);
#893=ORIENTED_EDGE('',*,*,#652,.T.);
#894=ORIENTED_EDGE('',*,*,#655,.T.);
#895=ORIENTED_EDGE('',*,*,#658,.T.);
#896=ORIENTED_EDGE('',*,*,#623,.T.);
#897=ORIENTED_EDGE('',*,*,#645,.T.);
#898=ORIENTED_EDGE('',*,*,#642,.T.);
#899=ORIENTED_EDGE('',*,*,#639,.T.);
#900=ORIENTED_EDGE('',*,*,#636,.T.);
#901=ORIENTED_EDGE('',*,*,#633,.T.);
#902=ORIENTED_EDGE('',*,*,#630,.T.);
#903=ORIENTED_EDGE('',*,*,#627,.T.);
#904=ORIENTED_EDGE('',*,*,#599,.T.);
#905=ORIENTED_EDGE('',*,*,#621,.T.);
#906=ORIENTED_EDGE('',*,*,#618,.T.);
#907=ORIENTED_EDGE('',*,*,#615,.T.);
#908=ORIENTED_EDGE('',*,*,#612,.T.);
#909=ORIENTED_EDGE('',*,*,#609,.T.);
#910=ORIENTED_EDGE('',*,*,#606,.T.);
#911=ORIENTED_EDGE('',*,*,#603,.T.);
#912=ORIENTED_EDGE('',*,*,#575,.T.);
#913=ORIENTED_EDGE('',*,*,#597,.T.);
#914=ORIENTED_EDGE('',*,*,#594,.T.);
#915=ORIENTED_EDGE('',*,*,#591,.T.);
#916=ORIENTED_EDGE('',*,*,#588,.T.);
#917=ORIENTED_EDGE('',*,*,#585,.T.);
#918=ORIENTED_EDGE('',*,*,#582,.T.);
#919=ORIENTED_EDGE('',*,*,#579,.T.);
#920=ORIENTED_EDGE('',*,*,#671,.F.);
#921=ORIENTED_EDGE('',*,*,#672,.F.);
#922=ORIENTED_EDGE('',*,*,#673,.F.);
#923=ORIENTED_EDGE('',*,*,#674,.T.);
#924=ORIENTED_EDGE('',*,*,#675,.F.);
#925=ORIENTED_EDGE('',*,*,#674,.F.);
#926=ORIENTED_EDGE('',*,*,#676,.F.);
#927=ORIENTED_EDGE('',*,*,#677,.T.);
#928=ORIENTED_EDGE('',*,*,#678,.F.);
#929=ORIENTED_EDGE('',*,*,#679,.F.);
#930=ORIENTED_EDGE('',*,*,#680,.T.);
#931=ORIENTED_EDGE('',*,*,#681,.T.);
#932=ORIENTED_EDGE('',*,*,#677,.F.);
#933=ORIENTED_EDGE('',*,*,#682,.F.);
#934=ORIENTED_EDGE('',*,*,#683,.F.);
#935=ORIENTED_EDGE('',*,*,#684,.T.);
#936=ORIENTED_EDGE('',*,*,#685,.T.);
#937=ORIENTED_EDGE('',*,*,#684,.F.);
#938=ORIENTED_EDGE('',*,*,#686,.F.);
#939=ORIENTED_EDGE('',*,*,#687,.T.);
#940=ORIENTED_EDGE('',*,*,#688,.T.);
#941=ORIENTED_EDGE('',*,*,#687,.F.);
#942=ORIENTED_EDGE('',*,*,#689,.F.);
#943=ORIENTED_EDGE('',*,*,#690,.T.);
#944=ORIENTED_EDGE('',*,*,#691,.T.);
#945=ORIENTED_EDGE('',*,*,#690,.F.);
#946=ORIENTED_EDGE('',*,*,#692,.F.);
#947=ORIENTED_EDGE('',*,*,#693,.T.);
#948=ORIENTED_EDGE('',*,*,#694,.T.);
#949=ORIENTED_EDGE('',*,*,#693,.F.);
#950=ORIENTED_EDGE('',*,*,#695,.T.);
#951=ORIENTED_EDGE('',*,*,#679,.T.);
#952=ORIENTED_EDGE('',*,*,#696,.F.);
#953=ORIENTED_EDGE('',*,*,#697,.F.);
#954=ORIENTED_EDGE('',*,*,#698,.T.);
#955=ORIENTED_EDGE('',*,*,#697,.T.);
#956=ORIENTED_EDGE('',*,*,#699,.F.);
#957=ORIENTED_EDGE('',*,*,#700,.F.);
#958=ORIENTED_EDGE('',*,*,#675,.T.);
#959=ORIENTED_EDGE('',*,*,#681,.F.);
#960=ORIENTED_EDGE('',*,*,#701,.T.);
#961=ORIENTED_EDGE('',*,*,#700,.T.);
#962=ORIENTED_EDGE('',*,*,#702,.F.);
#963=ORIENTED_EDGE('',*,*,#671,.T.);
#964=ORIENTED_EDGE('',*,*,#703,.T.);
#965=ORIENTED_EDGE('',*,*,#704,.T.);
#966=ORIENTED_EDGE('',*,*,#705,.F.);
#967=ORIENTED_EDGE('',*,*,#706,.F.);
#968=ORIENTED_EDGE('',*,*,#707,.T.);
#969=ORIENTED_EDGE('',*,*,#706,.T.);
#970=ORIENTED_EDGE('',*,*,#708,.F.);
#971=ORIENTED_EDGE('',*,*,#709,.F.);
#972=ORIENTED_EDGE('',*,*,#710,.T.);
#973=ORIENTED_EDGE('',*,*,#709,.T.);
#974=ORIENTED_EDGE('',*,*,#711,.F.);
#975=ORIENTED_EDGE('',*,*,#712,.F.);
#976=ORIENTED_EDGE('',*,*,#673,.T.);
#977=ORIENTED_EDGE('',*,*,#713,.F.);
#978=ORIENTED_EDGE('',*,*,#704,.F.);
#979=ORIENTED_EDGE('',*,*,#714,.T.);
#980=ORIENTED_EDGE('',*,*,#712,.T.);
#981=ORIENTED_EDGE('',*,*,#715,.F.);
#982=ORIENTED_EDGE('',*,*,#682,.T.);
#983=ORIENTED_EDGE('',*,*,#676,.T.);
#984=ORIENTED_EDGE('',*,*,#672,.T.);
#985=ORIENTED_EDGE('',*,*,#702,.T.);
#986=ORIENTED_EDGE('',*,*,#699,.T.);
#987=ORIENTED_EDGE('',*,*,#696,.T.);
#988=ORIENTED_EDGE('',*,*,#678,.T.);
#989=ORIENTED_EDGE('',*,*,#715,.T.);
#990=ORIENTED_EDGE('',*,*,#711,.T.);
#991=ORIENTED_EDGE('',*,*,#708,.T.);
#992=ORIENTED_EDGE('',*,*,#705,.T.);
#993=ORIENTED_EDGE('',*,*,#713,.T.);
#994=ORIENTED_EDGE('',*,*,#692,.T.);
#995=ORIENTED_EDGE('',*,*,#689,.T.);
#996=ORIENTED_EDGE('',*,*,#686,.T.);
#997=ORIENTED_EDGE('',*,*,#683,.T.);
#998=ORIENTED_EDGE('',*,*,#714,.F.);
#999=ORIENTED_EDGE('',*,*,#703,.F.);
#1000=ORIENTED_EDGE('',*,*,#707,.F.);
#1001=ORIENTED_EDGE('',*,*,#710,.F.);
#1002=ORIENTED_EDGE('',*,*,#701,.F.);
#1003=ORIENTED_EDGE('',*,*,#680,.F.);
#1004=ORIENTED_EDGE('',*,*,#695,.F.);
#1005=ORIENTED_EDGE('',*,*,#698,.F.);
#1006=ORIENTED_EDGE('',*,*,#694,.F.);
#1007=ORIENTED_EDGE('',*,*,#691,.F.);
#1008=ORIENTED_EDGE('',*,*,#688,.F.);
#1009=ORIENTED_EDGE('',*,*,#685,.F.);
#1010=ORIENTED_EDGE('',*,*,#716,.T.);
#1011=ORIENTED_EDGE('',*,*,#717,.T.);
#1012=ORIENTED_EDGE('',*,*,#718,.F.);
#1013=ORIENTED_EDGE('',*,*,#719,.F.);
#1014=ORIENTED_EDGE('',*,*,#720,.T.);
#1015=ORIENTED_EDGE('',*,*,#719,.T.);
#1016=ORIENTED_EDGE('',*,*,#721,.F.);
#1017=ORIENTED_EDGE('',*,*,#722,.F.);
#1018=ORIENTED_EDGE('',*,*,#723,.T.);
#1019=ORIENTED_EDGE('',*,*,#722,.T.);
#1020=ORIENTED_EDGE('',*,*,#724,.F.);
#1021=ORIENTED_EDGE('',*,*,#725,.F.);
#1022=ORIENTED_EDGE('',*,*,#726,.T.);
#1023=ORIENTED_EDGE('',*,*,#725,.T.);
#1024=ORIENTED_EDGE('',*,*,#727,.F.);
#1025=ORIENTED_EDGE('',*,*,#717,.F.);
#1026=ORIENTED_EDGE('',*,*,#727,.T.);
#1027=ORIENTED_EDGE('',*,*,#724,.T.);
#1028=ORIENTED_EDGE('',*,*,#721,.T.);
#1029=ORIENTED_EDGE('',*,*,#718,.T.);
#1030=ORIENTED_EDGE('',*,*,#726,.F.);
#1031=ORIENTED_EDGE('',*,*,#716,.F.);
#1032=ORIENTED_EDGE('',*,*,#720,.F.);
#1033=ORIENTED_EDGE('',*,*,#723,.F.);
#1034=PLANE('',#1154);
#1035=PLANE('',#1158);
#1036=PLANE('',#1162);
#1037=PLANE('',#1166);
#1038=PLANE('',#1170);
#1039=PLANE('',#1174);
#1040=PLANE('',#1178);
#1041=PLANE('',#1182);
#1042=PLANE('',#1186);
#1043=PLANE('',#1190);
#1044=PLANE('',#1194);
#1045=PLANE('',#1198);
#1046=PLANE('',#1214);
#1047=PLANE('',#1215);
#1048=PLANE('',#1216);
#1049=PLANE('',#1217);
#1050=PLANE('',#1218);
#1051=PLANE('',#1219);
#1052=PLANE('',#1221);
#1053=PLANE('',#1222);
#1054=PLANE('',#1223);
#1055=PLANE('',#1236);
#1056=PLANE('',#1237);
#1057=PLANE('',#1238);
#1058=PLANE('',#1239);
#1059=PLANE('',#1240);
#1060=PLANE('',#1241);
#1061=PLANE('',#1242);
#1062=PLANE('',#1243);
#1063=PLANE('',#1244);
#1064=PLANE('',#1245);
#1065=PLANE('',#1246);
#1066=PLANE('',#1247);
#1067=PLANE('',#1248);
#1068=PLANE('',#1249);
#1069=PLANE('',#1250);
#1070=ADVANCED_FACE('',(#112),#1034,.F.);
#1071=ADVANCED_FACE('',(#113),#92,.F.);
#1072=ADVANCED_FACE('',(#114),#1035,.F.);
#1073=ADVANCED_FACE('',(#115),#93,.F.);
#1074=ADVANCED_FACE('',(#116),#1036,.F.);
#1075=ADVANCED_FACE('',(#117),#94,.F.);
#1076=ADVANCED_FACE('',(#118),#1037,.F.);
#1077=ADVANCED_FACE('',(#119),#95,.F.);
#1078=ADVANCED_FACE('',(#120),#1038,.F.);
#1079=ADVANCED_FACE('',(#121),#96,.F.);
#1080=ADVANCED_FACE('',(#122),#1039,.F.);
#1081=ADVANCED_FACE('',(#123),#97,.F.);
#1082=ADVANCED_FACE('',(#124),#1040,.F.);
#1083=ADVANCED_FACE('',(#125),#98,.F.);
#1084=ADVANCED_FACE('',(#126),#1041,.F.);
#1085=ADVANCED_FACE('',(#127),#99,.F.);
#1086=ADVANCED_FACE('',(#128),#1042,.F.);
#1087=ADVANCED_FACE('',(#129),#100,.F.);
#1088=ADVANCED_FACE('',(#130),#1043,.F.);
#1089=ADVANCED_FACE('',(#131),#101,.F.);
#1090=ADVANCED_FACE('',(#132),#1044,.F.);
#1091=ADVANCED_FACE('',(#133),#102,.F.);
#1092=ADVANCED_FACE('',(#134),#1045,.F.);
#1093=ADVANCED_FACE('',(#135),#103,.F.);
#1094=ADVANCED_FACE('',(#136),#104,.F.);
#1095=ADVANCED_FACE('',(#137),#105,.F.);
#1096=ADVANCED_FACE('',(#138),#106,.F.);
#1097=ADVANCED_FACE('',(#139),#107,.F.);
#1098=ADVANCED_FACE('',(#140),#1046,.T.);
#1099=ADVANCED_FACE('',(#141),#1047,.T.);
#1100=ADVANCED_FACE('',(#142),#1048,.T.);
#1101=ADVANCED_FACE('',(#143),#1049,.T.);
#1102=ADVANCED_FACE('',(#144,#29,#30,#31,#32,#33,#34,#35),#1050,.T.);
#1103=ADVANCED_FACE('',(#145,#36,#37,#38,#39,#40,#41,#42),#1051,.F.);
#1104=ADVANCED_FACE('',(#146),#1052,.F.);
#1105=ADVANCED_FACE('',(#147),#1053,.F.);
#1106=ADVANCED_FACE('',(#148),#1054,.T.);
#1107=ADVANCED_FACE('',(#149),#108,.F.);
#1108=ADVANCED_FACE('',(#150),#109,.F.);
#1109=ADVANCED_FACE('',(#151),#110,.F.);
#1110=ADVANCED_FACE('',(#152),#111,.F.);
#1111=ADVANCED_FACE('',(#153),#1055,.T.);
#1112=ADVANCED_FACE('',(#154),#1056,.T.);
#1113=ADVANCED_FACE('',(#155),#1057,.T.);
#1114=ADVANCED_FACE('',(#156),#1058,.T.);
#1115=ADVANCED_FACE('',(#157),#1059,.T.);
#1116=ADVANCED_FACE('',(#158),#1060,.T.);
#1117=ADVANCED_FACE('',(#159),#1061,.T.);
#1118=ADVANCED_FACE('',(#160,#43,#44,#45,#46),#1062,.T.);
#1119=ADVANCED_FACE('',(#161,#47,#48,#49,#50,#51),#1063,.F.);
#1120=ADVANCED_FACE('',(#162),#1064,.T.);
#1121=ADVANCED_FACE('',(#163),#1065,.T.);
#1122=ADVANCED_FACE('',(#164),#1066,.T.);
#1123=ADVANCED_FACE('',(#165),#1067,.T.);
#1124=ADVANCED_FACE('',(#166),#1068,.T.);
#1125=ADVANCED_FACE('',(#167),#1069,.F.);
#1126=CLOSED_SHELL('',(#1070,#1071,#1072,#1073,#1074,#1075,#1076,#1077,
#1078,#1079,#1080,#1081,#1082,#1083,#1084,#1085,#1086,#1087,#1088,#1089,
#1090,#1091,#1092,#1093,#1094,#1095,#1096,#1097,#1098,#1099,#1100,#1101,
#1102,#1103));
#1127=CLOSED_SHELL('',(#1104,#1105,#1106,#1107,#1108,#1109,#1110,#1111,
#1112,#1113,#1114,#1115,#1116,#1117,#1118,#1119));
#1128=CLOSED_SHELL('',(#1120,#1121,#1122,#1123,#1124,#1125));
#1129=DERIVED_UNIT_ELEMENT(#1133,1.);
#1130=DERIVED_UNIT_ELEMENT(#1893,-3.);
#1131=DERIVED_UNIT_ELEMENT(#1133,1.);
#1132=DERIVED_UNIT_ELEMENT(#1893,-3.);
#1133=(
MASS_UNIT()
NAMED_UNIT(*)
SI_UNIT(.KILO.,.GRAM.)
);
#1134=DERIVED_UNIT((#1129,#1130));
#1135=DERIVED_UNIT((#1131,#1132));
#1136=MEASURE_REPRESENTATION_ITEM('density measure',
POSITIVE_RATIO_MEASURE(7850.),#1134);
#1137=MEASURE_REPRESENTATION_ITEM('density measure',
POSITIVE_RATIO_MEASURE(7850.),#1135);
#1138=PROPERTY_DEFINITION_REPRESENTATION(#1148,#1142);
#1139=PROPERTY_DEFINITION_REPRESENTATION(#1149,#1143);
#1140=PROPERTY_DEFINITION_REPRESENTATION(#1150,#1144);
#1141=PROPERTY_DEFINITION_REPRESENTATION(#1151,#1145);
#1142=REPRESENTATION('material name',(#1146),#1889);
#1143=REPRESENTATION('density',(#1136),#1889);
#1144=REPRESENTATION('material name',(#1147),#1890);
#1145=REPRESENTATION('density',(#1137),#1890);
#1146=DESCRIPTIVE_REPRESENTATION_ITEM('Steel','Steel');
#1147=DESCRIPTIVE_REPRESENTATION_ITEM('Steel','Steel');
#1148=PROPERTY_DEFINITION('material property','material name',#1909);
#1149=PROPERTY_DEFINITION('material property','density of part',#1909);
#1150=PROPERTY_DEFINITION('material property','material name',#1910);
#1151=PROPERTY_DEFINITION('material property','density of part',#1910);
#1152=AXIS2_PLACEMENT_3D('',#1568,#1253,#1254);
#1153=AXIS2_PLACEMENT_3D('',#1569,#1255,#1256);
#1154=AXIS2_PLACEMENT_3D('',#1570,#1257,#1258);
#1155=AXIS2_PLACEMENT_3D('',#1579,#1263,#1264);
#1156=AXIS2_PLACEMENT_3D('',#1581,#1265,#1266);
#1157=AXIS2_PLACEMENT_3D('',#1584,#1268,#1269);
#1158=AXIS2_PLACEMENT_3D('',#1585,#1270,#1271);
#1159=AXIS2_PLACEMENT_3D('',#1591,#1275,#1276);
#1160=AXIS2_PLACEMENT_3D('',#1593,#1277,#1278);
#1161=AXIS2_PLACEMENT_3D('',#1596,#1280,#1281);
#1162=AXIS2_PLACEMENT_3D('',#1597,#1282,#1283);
#1163=AXIS2_PLACEMENT_3D('',#1603,#1287,#1288);
#1164=AXIS2_PLACEMENT_3D('',#1605,#1289,#1290);
#1165=AXIS2_PLACEMENT_3D('',#1608,#1292,#1293);
#1166=AXIS2_PLACEMENT_3D('',#1609,#1294,#1295);
#1167=AXIS2_PLACEMENT_3D('',#1615,#1299,#1300);
#1168=AXIS2_PLACEMENT_3D('',#1616,#1301,#1302);
#1169=AXIS2_PLACEMENT_3D('',#1617,#1303,#1304);
#1170=AXIS2_PLACEMENT_3D('',#1618,#1305,#1306);
#1171=AXIS2_PLACEMENT_3D('',#1627,#1311,#1312);
#1172=AXIS2_PLACEMENT_3D('',#1629,#1313,#1314);
#1173=AXIS2_PLACEMENT_3D('',#1632,#1316,#1317);
#1174=AXIS2_PLACEMENT_3D('',#1633,#1318,#1319);
#1175=AXIS2_PLACEMENT_3D('',#1639,#1323,#1324);
#1176=AXIS2_PLACEMENT_3D('',#1641,#1325,#1326);
#1177=AXIS2_PLACEMENT_3D('',#1644,#1328,#1329);
#1178=AXIS2_PLACEMENT_3D('',#1645,#1330,#1331);
#1179=AXIS2_PLACEMENT_3D('',#1651,#1335,#1336);
#1180=AXIS2_PLACEMENT_3D('',#1653,#1337,#1338);
#1181=AXIS2_PLACEMENT_3D('',#1656,#1340,#1341);
#1182=AXIS2_PLACEMENT_3D('',#1657,#1342,#1343);
#1183=AXIS2_PLACEMENT_3D('',#1663,#1347,#1348);
#1184=AXIS2_PLACEMENT_3D('',#1664,#1349,#1350);
#1185=AXIS2_PLACEMENT_3D('',#1665,#1351,#1352);
#1186=AXIS2_PLACEMENT_3D('',#1666,#1353,#1354);
#1187=AXIS2_PLACEMENT_3D('',#1675,#1359,#1360);
#1188=AXIS2_PLACEMENT_3D('',#1677,#1361,#1362);
#1189=AXIS2_PLACEMENT_3D('',#1680,#1364,#1365);
#1190=AXIS2_PLACEMENT_3D('',#1681,#1366,#1367);
#1191=AXIS2_PLACEMENT_3D('',#1687,#1371,#1372);
#1192=AXIS2_PLACEMENT_3D('',#1689,#1373,#1374);
#1193=AXIS2_PLACEMENT_3D('',#1692,#1376,#1377);
#1194=AXIS2_PLACEMENT_3D('',#1693,#1378,#1379);
#1195=AXIS2_PLACEMENT_3D('',#1699,#1383,#1384);
#1196=AXIS2_PLACEMENT_3D('',#1701,#1385,#1386);
#1197=AXIS2_PLACEMENT_3D('',#1704,#1388,#1389);
#1198=AXIS2_PLACEMENT_3D('',#1705,#1390,#1391);
#1199=AXIS2_PLACEMENT_3D('',#1711,#1395,#1396);
#1200=AXIS2_PLACEMENT_3D('',#1712,#1397,#1398);
#1201=AXIS2_PLACEMENT_3D('',#1713,#1399,#1400);
#1202=AXIS2_PLACEMENT_3D('',#1714,#1401,#1402);
#1203=AXIS2_PLACEMENT_3D('',#1716,#1403,#1404);
#1204=AXIS2_PLACEMENT_3D('',#1719,#1406,#1407);
#1205=AXIS2_PLACEMENT_3D('',#1720,#1408,#1409);
#1206=AXIS2_PLACEMENT_3D('',#1722,#1410,#1411);
#1207=AXIS2_PLACEMENT_3D('',#1725,#1413,#1414);
#1208=AXIS2_PLACEMENT_3D('',#1726,#1415,#1416);
#1209=AXIS2_PLACEMENT_3D('',#1728,#1417,#1418);
#1210=AXIS2_PLACEMENT_3D('',#1731,#1420,#1421);
#1211=AXIS2_PLACEMENT_3D('',#1732,#1422,#1423);
#1212=AXIS2_PLACEMENT_3D('',#1734,#1424,#1425);
#1213=AXIS2_PLACEMENT_3D('',#1737,#1427,#1428);
#1214=AXIS2_PLACEMENT_3D('',#1738,#1429,#1430);
#1215=AXIS2_PLACEMENT_3D('',#1747,#1435,#1436);
#1216=AXIS2_PLACEMENT_3D('',#1753,#1440,#1441);
#1217=AXIS2_PLACEMENT_3D('',#1759,#1445,#1446);
#1218=AXIS2_PLACEMENT_3D('',#1762,#1449,#1450);
#1219=AXIS2_PLACEMENT_3D('',#1763,#1451,#1452);
#1220=AXIS2_PLACEMENT_3D('',#1764,#1453,#1454);
#1221=AXIS2_PLACEMENT_3D('',#1765,#1455,#1456);
#1222=AXIS2_PLACEMENT_3D('',#1774,#1461,#1462);
#1223=AXIS2_PLACEMENT_3D('',#1780,#1466,#1467);
#1224=AXIS2_PLACEMENT_3D('',#1790,#1473,#1474);
#1225=AXIS2_PLACEMENT_3D('',#1792,#1475,#1476);
#1226=AXIS2_PLACEMENT_3D('',#1795,#1478,#1479);
#1227=AXIS2_PLACEMENT_3D('',#1796,#1480,#1481);
#1228=AXIS2_PLACEMENT_3D('',#1798,#1482,#1483);
#1229=AXIS2_PLACEMENT_3D('',#1801,#1485,#1486);
#1230=AXIS2_PLACEMENT_3D('',#1802,#1487,#1488);
#1231=AXIS2_PLACEMENT_3D('',#1804,#1489,#1490);
#1232=AXIS2_PLACEMENT_3D('',#1807,#1492,#1493);
#1233=AXIS2_PLACEMENT_3D('',#1808,#1494,#1495);
#1234=AXIS2_PLACEMENT_3D('',#1810,#1496,#1497);
#1235=AXIS2_PLACEMENT_3D('',#1813,#1499,#1500);
#1236=AXIS2_PLACEMENT_3D('',#1814,#1501,#1502);
#1237=AXIS2_PLACEMENT_3D('',#1820,#1506,#1507);
#1238=AXIS2_PLACEMENT_3D('',#1826,#1511,#1512);
#1239=AXIS2_PLACEMENT_3D('',#1829,#1515,#1516);
#1240=AXIS2_PLACEMENT_3D('',#1838,#1521,#1522);
#1241=AXIS2_PLACEMENT_3D('',#1844,#1526,#1527);
#1242=AXIS2_PLACEMENT_3D('',#1850,#1531,#1532);
#1243=AXIS2_PLACEMENT_3D('',#1854,#1536,#1537);
#1244=AXIS2_PLACEMENT_3D('',#1855,#1538,#1539);
#1245=AXIS2_PLACEMENT_3D('',#1856,#1540,#1541);
#1246=AXIS2_PLACEMENT_3D('',#1865,#1546,#1547);
#1247=AXIS2_PLACEMENT_3D('',#1871,#1551,#1552);
#1248=AXIS2_PLACEMENT_3D('',#1877,#1556,#1557);
#1249=AXIS2_PLACEMENT_3D('',#1880,#1560,#1561);
#1250=AXIS2_PLACEMENT_3D('',#1881,#1562,#1563);
#1251=AXIS2_PLACEMENT_3D('',#1882,#1564,#1565);
#1252=AXIS2_PLACEMENT_3D('',#1883,#1566,#1567);
#1253=DIRECTION('axis',(0.,0.,1.));
#1254=DIRECTION('refdir',(1.,0.,0.));
#1255=DIRECTION('axis',(0.,0.,1.));
#1256=DIRECTION('refdir',(1.,0.,0.));
#1257=DIRECTION('center_axis',(0.,1.,0.));
#1258=DIRECTION('ref_axis',(-1.,0.,0.));
#1259=DIRECTION('',(-1.,0.,0.));
#1260=DIRECTION('',(0.,0.,1.));
#1261=DIRECTION('',(1.,0.,0.));
#1262=DIRECTION('',(0.,0.,1.));
#1263=DIRECTION('center_axis',(0.,0.,1.));
#1264=DIRECTION('ref_axis',(1.,0.,0.));
#1265=DIRECTION('center_axis',(0.,0.,1.));
#1266=DIRECTION('ref_axis',(1.,0.,0.));
#1267=DIRECTION('',(0.,0.,1.));
#1268=DIRECTION('center_axis',(0.,0.,-1.));
#1269=DIRECTION('ref_axis',(1.,0.,0.));
#1270=DIRECTION('center_axis',(1.,0.,0.));
#1271=DIRECTION('ref_axis',(0.,1.,0.));
#1272=DIRECTION('',(0.,1.,0.));
#1273=DIRECTION('',(0.,0.,1.));
#1274=DIRECTION('',(0.,-1.,0.));
#1275=DIRECTION('center_axis',(0.,0.,1.));
#1276=DIRECTION('ref_axis',(0.,-1.,0.));
#1277=DIRECTION('center_axis',(0.,0.,1.));
#1278=DIRECTION('ref_axis',(0.,-1.,0.));
#1279=DIRECTION('',(0.,0.,1.));
#1280=DIRECTION('center_axis',(0.,0.,-1.));
#1281=DIRECTION('ref_axis',(0.,-1.,0.));
#1282=DIRECTION('center_axis',(0.,-1.,0.));
#1283=DIRECTION('ref_axis',(1.,0.,0.));
#1284=DIRECTION('',(1.,0.,0.));
#1285=DIRECTION('',(0.,0.,1.));
#1286=DIRECTION('',(-1.,0.,0.));
#1287=DIRECTION('center_axis',(0.,0.,1.));
#1288=DIRECTION('ref_axis',(-1.,0.,0.));
#1289=DIRECTION('center_axis',(0.,0.,1.));
#1290=DIRECTION('ref_axis',(-1.,0.,0.));
#1291=DIRECTION('',(0.,0.,1.));
#1292=DIRECTION('center_axis',(0.,0.,-1.));
#1293=DIRECTION('ref_axis',(-1.,0.,0.));
#1294=DIRECTION('center_axis',(-1.,0.,0.));
#1295=DIRECTION('ref_axis',(0.,-1.,0.));
#1296=DIRECTION('',(0.,-1.,0.));
#1297=DIRECTION('',(0.,0.,1.));
#1298=DIRECTION('',(0.,1.,0.));
#1299=DIRECTION('center_axis',(0.,0.,1.));
#1300=DIRECTION('ref_axis',(0.,1.,0.));
#1301=DIRECTION('center_axis',(0.,0.,1.));
#1302=DIRECTION('ref_axis',(0.,1.,0.));
#1303=DIRECTION('center_axis',(0.,0.,-1.));
#1304=DIRECTION('ref_axis',(0.,1.,0.));
#1305=DIRECTION('center_axis',(0.,1.,0.));
#1306=DIRECTION('ref_axis',(-1.,0.,0.));
#1307=DIRECTION('',(-1.,0.,0.));
#1308=DIRECTION('',(0.,0.,1.));
#1309=DIRECTION('',(1.,0.,0.));
#1310=DIRECTION('',(0.,0.,1.));
#1311=DIRECTION('center_axis',(0.,0.,1.));
#1312=DIRECTION('ref_axis',(1.,0.,0.));
#1313=DIRECTION('center_axis',(0.,0.,1.));
#1314=DIRECTION('ref_axis',(1.,0.,0.));
#1315=DIRECTION('',(0.,0.,1.));
#1316=DIRECTION('center_axis',(0.,0.,-1.));
#1317=DIRECTION('ref_axis',(1.,0.,0.));
#1318=DIRECTION('center_axis',(1.,0.,0.));
#1319=DIRECTION('ref_axis',(0.,1.,0.));
#1320=DIRECTION('',(0.,1.,0.));
#1321=DIRECTION('',(0.,0.,1.));
#1322=DIRECTION('',(0.,-1.,0.));
#1323=DIRECTION('center_axis',(0.,0.,1.));
#1324=DIRECTION('ref_axis',(0.,-1.,0.));
#1325=DIRECTION('center_axis',(0.,0.,1.));
#1326=DIRECTION('ref_axis',(0.,-1.,0.));
#1327=DIRECTION('',(0.,0.,1.));
#1328=DIRECTION('center_axis',(0.,0.,-1.));
#1329=DIRECTION('ref_axis',(0.,-1.,0.));
#1330=DIRECTION('center_axis',(0.,-1.,0.));
#1331=DIRECTION('ref_axis',(1.,0.,0.));
#1332=DIRECTION('',(1.,0.,0.));
#1333=DIRECTION('',(0.,0.,1.));
#1334=DIRECTION('',(-1.,0.,0.));
#1335=DIRECTION('center_axis',(0.,0.,1.));
#1336=DIRECTION('ref_axis',(-1.,0.,0.));
#1337=DIRECTION('center_axis',(0.,0.,1.));
#1338=DIRECTION('ref_axis',(-1.,0.,0.));
#1339=DIRECTION('',(0.,0.,1.));
#1340=DIRECTION('center_axis',(0.,0.,-1.));
#1341=DIRECTION('ref_axis',(-1.,0.,0.));
#1342=DIRECTION('center_axis',(-1.,0.,0.));
#1343=DIRECTION('ref_axis',(0.,-1.,0.));
#1344=DIRECTION('',(0.,-1.,0.));
#1345=DIRECTION('',(0.,0.,1.));
#1346=DIRECTION('',(0.,1.,0.));
#1347=DIRECTION('center_axis',(0.,0.,1.));
#1348=DIRECTION('ref_axis',(0.,1.,0.));
#1349=DIRECTION('center_axis',(0.,0.,1.));
#1350=DIRECTION('ref_axis',(0.,1.,0.));
#1351=DIRECTION('center_axis',(0.,0.,-1.));
#1352=DIRECTION('ref_axis',(0.,1.,0.));
#1353=DIRECTION('center_axis',(0.,1.,0.));
#1354=DIRECTION('ref_axis',(-1.,0.,0.));
#1355=DIRECTION('',(-1.,0.,0.));
#1356=DIRECTION('',(0.,0.,1.));
#1357=DIRECTION('',(1.,0.,0.));
#1358=DIRECTION('',(0.,0.,1.));
#1359=DIRECTION('center_axis',(0.,0.,1.));
#1360=DIRECTION('ref_axis',(1.,0.,0.));
#1361=DIRECTION('center_axis',(0.,0.,1.));
#1362=DIRECTION('ref_axis',(1.,0.,0.));
#1363=DIRECTION('',(0.,0.,1.));
#1364=DIRECTION('center_axis',(0.,0.,-1.));
#1365=DIRECTION('ref_axis',(1.,0.,0.));
#1366=DIRECTION('center_axis',(1.,0.,0.));
#1367=DIRECTION('ref_axis',(0.,1.,0.));
#1368=DIRECTION('',(0.,1.,0.));
#1369=DIRECTION('',(0.,0.,1.));
#1370=DIRECTION('',(0.,-1.,0.));
#1371=DIRECTION('center_axis',(0.,0.,1.));
#1372=DIRECTION('ref_axis',(0.,-1.,0.));
#1373=DIRECTION('center_axis',(0.,0.,1.));
#1374=DIRECTION('ref_axis',(0.,-1.,0.));
#1375=DIRECTION('',(0.,0.,1.));
#1376=DIRECTION('center_axis',(0.,0.,-1.));
#1377=DIRECTION('ref_axis',(0.,-1.,0.));
#1378=DIRECTION('center_axis',(0.,-1.,0.));
#1379=DIRECTION('ref_axis',(1.,0.,0.));
#1380=DIRECTION('',(1.,0.,0.));
#1381=DIRECTION('',(0.,0.,1.));
#1382=DIRECTION('',(-1.,0.,0.));
#1383=DIRECTION('center_axis',(0.,0.,1.));
#1384=DIRECTION('ref_axis',(-1.,0.,0.));
#1385=DIRECTION('center_axis',(0.,0.,1.));
#1386=DIRECTION('ref_axis',(-1.,0.,0.));
#1387=DIRECTION('',(0.,0.,1.));
#1388=DIRECTION('center_axis',(0.,0.,-1.));
#1389=DIRECTION('ref_axis',(-1.,0.,0.));
#1390=DIRECTION('center_axis',(-1.,0.,0.));
#1391=DIRECTION('ref_axis',(0.,-1.,0.));
#1392=DIRECTION('',(0.,-1.,0.));
#1393=DIRECTION('',(0.,0.,1.));
#1394=DIRECTION('',(0.,1.,0.));
#1395=DIRECTION('center_axis',(0.,0.,1.));
#1396=DIRECTION('ref_axis',(0.,1.,0.));
#1397=DIRECTION('center_axis',(0.,0.,1.));
#1398=DIRECTION('ref_axis',(0.,1.,0.));
#1399=DIRECTION('center_axis',(0.,0.,-1.));
#1400=DIRECTION('ref_axis',(0.,1.,0.));
#1401=DIRECTION('center_axis',(0.,0.,1.));
#1402=DIRECTION('ref_axis',(1.,0.,0.));
#1403=DIRECTION('center_axis',(0.,0.,-1.));
#1404=DIRECTION('ref_axis',(1.,0.,0.));
#1405=DIRECTION('',(0.,0.,-1.));
#1406=DIRECTION('center_axis',(0.,0.,1.));
#1407=DIRECTION('ref_axis',(1.,0.,0.));
#1408=DIRECTION('center_axis',(0.,0.,1.));
#1409=DIRECTION('ref_axis',(1.,0.,0.));
#1410=DIRECTION('center_axis',(0.,0.,-1.));
#1411=DIRECTION('ref_axis',(1.,0.,0.));
#1412=DIRECTION('',(0.,0.,-1.));
#1413=DIRECTION('center_axis',(0.,0.,1.));
#1414=DIRECTION('ref_axis',(1.,0.,0.));
#1415=DIRECTION('center_axis',(0.,0.,1.));
#1416=DIRECTION('ref_axis',(1.,0.,0.));
#1417=DIRECTION('center_axis',(0.,0.,-1.));
#1418=DIRECTION('ref_axis',(1.,0.,0.));
#1419=DIRECTION('',(0.,0.,-1.));
#1420=DIRECTION('center_axis',(0.,0.,1.));
#1421=DIRECTION('ref_axis',(1.,0.,0.));
#1422=DIRECTION('center_axis',(0.,0.,1.));
#1423=DIRECTION('ref_axis',(1.,0.,0.));
#1424=DIRECTION('center_axis',(0.,0.,-1.));
#1425=DIRECTION('ref_axis',(1.,0.,0.));
#1426=DIRECTION('',(0.,0.,-1.));
#1427=DIRECTION('center_axis',(0.,0.,1.));
#1428=DIRECTION('ref_axis',(1.,0.,0.));
#1429=DIRECTION('center_axis',(-1.,0.,0.));
#1430=DIRECTION('ref_axis',(0.,-1.,0.));
#1431=DIRECTION('',(0.,1.,0.));
#1432=DIRECTION('',(0.,0.,1.));
#1433=DIRECTION('',(0.,-1.,0.));
#1434=DIRECTION('',(0.,0.,1.));
#1435=DIRECTION('center_axis',(0.,1.,0.));
#1436=DIRECTION('ref_axis',(-1.,0.,0.));
#1437=DIRECTION('',(1.,0.,0.));
#1438=DIRECTION('',(-1.,0.,0.));
#1439=DIRECTION('',(0.,0.,1.));
#1440=DIRECTION('center_axis',(1.,0.,0.));
#1441=DIRECTION('ref_axis',(0.,1.,0.));
#1442=DIRECTION('',(0.,-1.,0.));
#1443=DIRECTION('',(0.,1.,0.));
#1444=DIRECTION('',(0.,0.,1.));
#1445=DIRECTION('center_axis',(0.,-1.,0.));
#1446=DIRECTION('ref_axis',(1.,0.,0.));
#1447=DIRECTION('',(-1.,0.,0.));
#1448=DIRECTION('',(1.,0.,0.));
#1449=DIRECTION('center_axis',(0.,0.,1.));
#1450=DIRECTION('ref_axis',(1.,0.,0.));
#1451=DIRECTION('center_axis',(0.,0.,1.));
#1452=DIRECTION('ref_axis',(1.,0.,0.));
#1453=DIRECTION('axis',(0.,0.,1.));
#1454=DIRECTION('refdir',(1.,0.,0.));
#1455=DIRECTION('center_axis',(0.,1.,0.));
#1456=DIRECTION('ref_axis',(0.,0.,1.));
#1457=DIRECTION('',(0.,0.,-1.));
#1458=DIRECTION('',(1.,0.,0.));
#1459=DIRECTION('',(0.,0.,1.));
#1460=DIRECTION('',(1.,0.,0.));
#1461=DIRECTION('center_axis',(0.,0.,-1.));
#1462=DIRECTION('ref_axis',(0.,1.,0.));
#1463=DIRECTION('',(0.,-1.,0.));
#1464=DIRECTION('',(0.,1.,0.));
#1465=DIRECTION('',(1.,0.,0.));
#1466=DIRECTION('center_axis',(0.,1.,0.));
#1467=DIRECTION('ref_axis',(-1.,0.,0.));
#1468=DIRECTION('',(-1.,0.,0.));
#1469=DIRECTION('',(0.,0.,1.));
#1470=DIRECTION('',(-1.,0.,0.));
#1471=DIRECTION('',(0.,0.,1.));
#1472=DIRECTION('',(0.,0.,-1.));
#1473=DIRECTION('center_axis',(0.,0.,1.));
#1474=DIRECTION('ref_axis',(1.,0.,0.));
#1475=DIRECTION('center_axis',(0.,0.,-1.));
#1476=DIRECTION('ref_axis',(1.,0.,0.));
#1477=DIRECTION('',(0.,0.,-1.));
#1478=DIRECTION('center_axis',(0.,0.,-1.));
#1479=DIRECTION('ref_axis',(1.,0.,0.));
#1480=DIRECTION('center_axis',(0.,0.,1.));
#1481=DIRECTION('ref_axis',(1.,0.,0.));
#1482=DIRECTION('center_axis',(0.,0.,-1.));
#1483=DIRECTION('ref_axis',(1.,0.,0.));
#1484=DIRECTION('',(0.,0.,-1.));
#1485=DIRECTION('center_axis',(0.,0.,-1.));
#1486=DIRECTION('ref_axis',(1.,0.,0.));
#1487=DIRECTION('center_axis',(0.,0.,1.));
#1488=DIRECTION('ref_axis',(1.,0.,0.));
#1489=DIRECTION('center_axis',(0.,0.,-1.));
#1490=DIRECTION('ref_axis',(1.,0.,0.));
#1491=DIRECTION('',(0.,0.,-1.));
#1492=DIRECTION('center_axis',(0.,0.,-1.));
#1493=DIRECTION('ref_axis',(1.,0.,0.));
#1494=DIRECTION('center_axis',(0.,0.,1.));
#1495=DIRECTION('ref_axis',(1.,0.,0.));
#1496=DIRECTION('center_axis',(0.,0.,-1.));
#1497=DIRECTION('ref_axis',(1.,0.,0.));
#1498=DIRECTION('',(0.,0.,-1.));
#1499=DIRECTION('center_axis',(0.,0.,-1.));
#1500=DIRECTION('ref_axis',(1.,0.,0.));
#1501=DIRECTION('center_axis',(-1.,0.,0.));
#1502=DIRECTION('ref_axis',(0.,-1.,0.));
#1503=DIRECTION('',(0.,-1.,0.));
#1504=DIRECTION('',(0.,-1.,0.));
#1505=DIRECTION('',(0.,0.,1.));
#1506=DIRECTION('center_axis',(0.,-1.,0.));
#1507=DIRECTION('ref_axis',(1.,0.,0.));
#1508=DIRECTION('',(1.,0.,0.));
#1509=DIRECTION('',(1.,0.,0.));
#1510=DIRECTION('',(0.,0.,1.));
#1511=DIRECTION('center_axis',(1.,0.,0.));
#1512=DIRECTION('ref_axis',(0.,1.,0.));
#1513=DIRECTION('',(0.,1.,0.));
#1514=DIRECTION('',(0.,1.,0.));
#1515=DIRECTION('center_axis',(0.,1.,0.));
#1516=DIRECTION('ref_axis',(-1.,0.,0.));
#1517=DIRECTION('',(-1.,0.,0.));
#1518=DIRECTION('',(0.,0.,1.));
#1519=DIRECTION('',(-1.,0.,0.));
#1520=DIRECTION('',(0.,0.,1.));
#1521=DIRECTION('center_axis',(1.,0.,0.));
#1522=DIRECTION('ref_axis',(0.,1.,0.));
#1523=DIRECTION('',(0.,1.,0.));
#1524=DIRECTION('',(0.,1.,0.));
#1525=DIRECTION('',(0.,0.,1.));
#1526=DIRECTION('center_axis',(0.,-1.,0.));
#1527=DIRECTION('ref_axis',(1.,0.,0.));
#1528=DIRECTION('',(1.,0.,0.));
#1529=DIRECTION('',(1.,0.,0.));
#1530=DIRECTION('',(0.,0.,1.));
#1531=DIRECTION('center_axis',(-1.,0.,0.));
#1532=DIRECTION('ref_axis',(0.,-1.,0.));
#1533=DIRECTION('',(0.,-1.,0.));
#1534=DIRECTION('',(0.,-1.,0.));
#1535=DIRECTION('',(0.,-1.,0.));
#1536=DIRECTION('center_axis',(0.,0.,1.));
#1537=DIRECTION('ref_axis',(1.,0.,0.));
#1538=DIRECTION('center_axis',(0.,0.,1.));
#1539=DIRECTION('ref_axis',(1.,0.,0.));
#1540=DIRECTION('center_axis',(0.,1.,0.));
#1541=DIRECTION('ref_axis',(-1.,0.,0.));
#1542=DIRECTION('',(-1.,0.,0.));
#1543=DIRECTION('',(0.,0.,1.));
#1544=DIRECTION('',(-1.,0.,0.));
#1545=DIRECTION('',(0.,0.,1.));
#1546=DIRECTION('center_axis',(1.,0.,0.));
#1547=DIRECTION('ref_axis',(0.,1.,0.));
#1548=DIRECTION('',(0.,1.,0.));
#1549=DIRECTION('',(0.,1.,0.));
#1550=DIRECTION('',(0.,0.,1.));
#1551=DIRECTION('center_axis',(0.,-1.,0.));
#1552=DIRECTION('ref_axis',(1.,0.,0.));
#1553=DIRECTION('',(1.,0.,0.));
#1554=DIRECTION('',(1.,0.,0.));
#1555=DIRECTION('',(0.,0.,1.));
#1556=DIRECTION('center_axis',(-1.,0.,0.));
#1557=DIRECTION('ref_axis',(0.,-1.,0.));
#1558=DIRECTION('',(0.,-1.,0.));
#1559=DIRECTION('',(0.,-1.,0.));
#1560=DIRECTION('center_axis',(0.,0.,1.));
#1561=DIRECTION('ref_axis',(1.,0.,0.));
#1562=DIRECTION('center_axis',(0.,0.,1.));
#1563=DIRECTION('ref_axis',(1.,0.,0.));
#1564=DIRECTION('',(7.7715611723761E-16,-2.39431610686221E-30,1.));
#1565=DIRECTION('',(1.,-6.21724893790088E-15,-1.19715805343111E-30));
#1566=DIRECTION('',(0.,0.,1.));
#1567=DIRECTION('',(1.,0.,0.));
#1568=CARTESIAN_POINT('',(0.,0.,0.));
#1569=CARTESIAN_POINT('',(0.,0.,0.));
#1570=CARTESIAN_POINT('Origin',(54.125,-2.525,0.));
#1571=CARTESIAN_POINT('',(54.125,-2.525,0.));
#1572=CARTESIAN_POINT('',(41.125,-2.525,0.));
#1573=CARTESIAN_POINT('',(41.35,-2.525,0.));
#1574=CARTESIAN_POINT('',(54.125,-2.525,3.));
#1575=CARTESIAN_POINT('',(54.125,-2.525,0.));
#1576=CARTESIAN_POINT('',(41.125,-2.525,3.));
#1577=CARTESIAN_POINT('',(41.35,-2.525,3.));
#1578=CARTESIAN_POINT('',(41.125,-2.525,0.));
#1579=CARTESIAN_POINT('Origin',(54.125,-3.025,0.));
#1580=CARTESIAN_POINT('',(54.625,-3.025,0.));
#1581=CARTESIAN_POINT('Origin',(54.125,-3.025,0.));
#1582=CARTESIAN_POINT('',(54.625,-3.025,3.));
#1583=CARTESIAN_POINT('',(54.625,-3.025,0.));
#1584=CARTESIAN_POINT('Origin',(54.125,-3.025,3.));
#1585=CARTESIAN_POINT('Origin',(54.625,-16.025,0.));
#1586=CARTESIAN_POINT('',(54.625,-16.025,0.));
#1587=CARTESIAN_POINT('',(54.625,-12.785,0.));
#1588=CARTESIAN_POINT('',(54.625,-16.025,3.));
#1589=CARTESIAN_POINT('',(54.625,-16.025,0.));
#1590=CARTESIAN_POINT('',(54.625,-12.785,3.));
#1591=CARTESIAN_POINT('Origin',(54.125,-16.025,0.));
#1592=CARTESIAN_POINT('',(54.125,-16.525,0.));
#1593=CARTESIAN_POINT('Origin',(54.125,-16.025,0.));
#1594=CARTESIAN_POINT('',(54.125,-16.525,3.));
#1595=CARTESIAN_POINT('',(54.125,-16.525,0.));
#1596=CARTESIAN_POINT('Origin',(54.125,-16.025,3.));
#1597=CARTESIAN_POINT('Origin',(41.125,-16.525,0.));
#1598=CARTESIAN_POINT('',(41.125,-16.525,0.));
#1599=CARTESIAN_POINT('',(34.85,-16.525,0.));
#1600=CARTESIAN_POINT('',(41.125,-16.525,3.));
#1601=CARTESIAN_POINT('',(41.125,-16.525,0.));
#1602=CARTESIAN_POINT('',(34.85,-16.525,3.));
#1603=CARTESIAN_POINT('Origin',(41.125,-16.025,0.));
#1604=CARTESIAN_POINT('',(40.625,-16.025,0.));
#1605=CARTESIAN_POINT('Origin',(41.125,-16.025,0.));
#1606=CARTESIAN_POINT('',(40.625,-16.025,3.));
#1607=CARTESIAN_POINT('',(40.625,-16.025,0.));
#1608=CARTESIAN_POINT('Origin',(41.125,-16.025,3.));
#1609=CARTESIAN_POINT('Origin',(40.625,-3.025,0.));
#1610=CARTESIAN_POINT('',(40.625,-3.025,0.));
#1611=CARTESIAN_POINT('',(40.625,-6.285,0.));
#1612=CARTESIAN_POINT('',(40.625,-3.025,3.));
#1613=CARTESIAN_POINT('',(40.625,-3.025,0.));
#1614=CARTESIAN_POINT('',(40.625,-6.285,3.));
#1615=CARTESIAN_POINT('Origin',(41.125,-3.025,0.));
#1616=CARTESIAN_POINT('Origin',(41.125,-3.025,0.));
#1617=CARTESIAN_POINT('Origin',(41.125,-3.025,3.));
#1618=CARTESIAN_POINT('Origin',(35.075,-2.525,0.));
#1619=CARTESIAN_POINT('',(35.075,-2.525,0.));
#1620=CARTESIAN_POINT('',(22.075,-2.525,0.));
#1621=CARTESIAN_POINT('',(31.825,-2.525,0.));
#1622=CARTESIAN_POINT('',(35.075,-2.525,3.));
#1623=CARTESIAN_POINT('',(35.075,-2.525,0.));
#1624=CARTESIAN_POINT('',(22.075,-2.525,3.));
#1625=CARTESIAN_POINT('',(31.825,-2.525,3.));
#1626=CARTESIAN_POINT('',(22.075,-2.525,0.));
#1627=CARTESIAN_POINT('Origin',(35.075,-3.025,0.));
#1628=CARTESIAN_POINT('',(35.575,-3.025,0.));
#1629=CARTESIAN_POINT('Origin',(35.075,-3.025,0.));
#1630=CARTESIAN_POINT('',(35.575,-3.025,3.));
#1631=CARTESIAN_POINT('',(35.575,-3.025,0.));
#1632=CARTESIAN_POINT('Origin',(35.075,-3.025,3.));
#1633=CARTESIAN_POINT('Origin',(35.575,-16.025,0.));
#1634=CARTESIAN_POINT('',(35.575,-16.025,0.));
#1635=CARTESIAN_POINT('',(35.575,-12.785,0.));
#1636=CARTESIAN_POINT('',(35.575,-16.025,3.));
#1637=CARTESIAN_POINT('',(35.575,-16.025,0.));
#1638=CARTESIAN_POINT('',(35.575,-12.785,3.));
#1639=CARTESIAN_POINT('Origin',(35.075,-16.025,0.));
#1640=CARTESIAN_POINT('',(35.075,-16.525,0.));
#1641=CARTESIAN_POINT('Origin',(35.075,-16.025,0.));
#1642=CARTESIAN_POINT('',(35.075,-16.525,3.));
#1643=CARTESIAN_POINT('',(35.075,-16.525,0.));
#1644=CARTESIAN_POINT('Origin',(35.075,-16.025,3.));
#1645=CARTESIAN_POINT('Origin',(22.075,-16.525,0.));
#1646=CARTESIAN_POINT('',(22.075,-16.525,0.));
#1647=CARTESIAN_POINT('',(25.325,-16.525,0.));
#1648=CARTESIAN_POINT('',(22.075,-16.525,3.));
#1649=CARTESIAN_POINT('',(22.075,-16.525,0.));
#1650=CARTESIAN_POINT('',(25.325,-16.525,3.));
#1651=CARTESIAN_POINT('Origin',(22.075,-16.025,0.));
#1652=CARTESIAN_POINT('',(21.575,-16.025,0.));
#1653=CARTESIAN_POINT('Origin',(22.075,-16.025,0.));
#1654=CARTESIAN_POINT('',(21.575,-16.025,3.));
#1655=CARTESIAN_POINT('',(21.575,-16.025,0.));
#1656=CARTESIAN_POINT('Origin',(22.075,-16.025,3.));
#1657=CARTESIAN_POINT('Origin',(21.575,-3.025,0.));
#1658=CARTESIAN_POINT('',(21.575,-3.025,0.));
#1659=CARTESIAN_POINT('',(21.575,-6.285,0.));
#1660=CARTESIAN_POINT('',(21.575,-3.025,3.));
#1661=CARTESIAN_POINT('',(21.575,-3.025,0.));
#1662=CARTESIAN_POINT('',(21.575,-6.285,3.));
#1663=CARTESIAN_POINT('Origin',(22.075,-3.025,0.));
#1664=CARTESIAN_POINT('Origin',(22.075,-3.025,0.));
#1665=CARTESIAN_POINT('Origin',(22.075,-3.025,3.));
#1666=CARTESIAN_POINT('Origin',(16.025,-2.525,0.));
#1667=CARTESIAN_POINT('',(16.025,-2.525,0.));
#1668=CARTESIAN_POINT('',(3.025,-2.525,0.));
#1669=CARTESIAN_POINT('',(22.3,-2.525,0.));
#1670=CARTESIAN_POINT('',(16.025,-2.525,3.));
#1671=CARTESIAN_POINT('',(16.025,-2.525,0.));
#1672=CARTESIAN_POINT('',(3.025,-2.525,3.));
#1673=CARTESIAN_POINT('',(22.3,-2.525,3.));
#1674=CARTESIAN_POINT('',(3.025,-2.525,0.));
#1675=CARTESIAN_POINT('Origin',(16.025,-3.025,0.));
#1676=CARTESIAN_POINT('',(16.525,-3.025,0.));
#1677=CARTESIAN_POINT('Origin',(16.025,-3.025,0.));
#1678=CARTESIAN_POINT('',(16.525,-3.025,3.));
#1679=CARTESIAN_POINT('',(16.525,-3.025,0.));
#1680=CARTESIAN_POINT('Origin',(16.025,-3.025,3.));
#1681=CARTESIAN_POINT('Origin',(16.525,-16.025,0.));
#1682=CARTESIAN_POINT('',(16.525,-16.025,0.));
#1683=CARTESIAN_POINT('',(16.525,-12.785,0.));
#1684=CARTESIAN_POINT('',(16.525,-16.025,3.));
#1685=CARTESIAN_POINT('',(16.525,-16.025,0.));
#1686=CARTESIAN_POINT('',(16.525,-12.785,3.));
#1687=CARTESIAN_POINT('Origin',(16.025,-16.025,0.));
#1688=CARTESIAN_POINT('',(16.025,-16.525,0.));
#1689=CARTESIAN_POINT('Origin',(16.025,-16.025,0.));
#1690=CARTESIAN_POINT('',(16.025,-16.525,3.));
#1691=CARTESIAN_POINT('',(16.025,-16.525,0.));
#1692=CARTESIAN_POINT('Origin',(16.025,-16.025,3.));
#1693=CARTESIAN_POINT('Origin',(3.025,-16.525,0.));
#1694=CARTESIAN_POINT('',(3.025,-16.525,0.));
#1695=CARTESIAN_POINT('',(15.8,-16.525,0.));
#1696=CARTESIAN_POINT('',(3.025,-16.525,3.));
#1697=CARTESIAN_POINT('',(3.025,-16.525,0.));
#1698=CARTESIAN_POINT('',(15.8,-16.525,3.));
#1699=CARTESIAN_POINT('Origin',(3.025,-16.025,0.));
#1700=CARTESIAN_POINT('',(2.525,-16.025,0.));
#1701=CARTESIAN_POINT('Origin',(3.025,-16.025,0.));
#1702=CARTESIAN_POINT('',(2.525,-16.025,3.));
#1703=CARTESIAN_POINT('',(2.525,-16.025,0.));
#1704=CARTESIAN_POINT('Origin',(3.025,-16.025,3.));
#1705=CARTESIAN_POINT('Origin',(2.525,-3.025,0.));
#1706=CARTESIAN_POINT('',(2.525,-3.025,0.));
#1707=CARTESIAN_POINT('',(2.525,-6.285,0.));
#1708=CARTESIAN_POINT('',(2.525,-3.025,3.));
#1709=CARTESIAN_POINT('',(2.525,-3.025,0.));
#1710=CARTESIAN_POINT('',(2.525,-6.285,3.));
#1711=CARTESIAN_POINT('Origin',(3.025,-3.025,0.));
#1712=CARTESIAN_POINT('Origin',(3.025,-3.025,0.));
#1713=CARTESIAN_POINT('Origin',(3.025,-3.025,3.));
#1714=CARTESIAN_POINT('Origin',(62.475,5.155,0.));
#1715=CARTESIAN_POINT('',(61.025,5.155,3.));
#1716=CARTESIAN_POINT('Origin',(62.475,5.155,3.));
#1717=CARTESIAN_POINT('',(61.025,5.155,0.));
#1718=CARTESIAN_POINT('',(61.025,5.155,0.));
#1719=CARTESIAN_POINT('Origin',(62.475,5.155,0.));
#1720=CARTESIAN_POINT('Origin',(62.475,-24.245,0.));
#1721=CARTESIAN_POINT('',(61.025,-24.245,3.));
#1722=CARTESIAN_POINT('Origin',(62.475,-24.245,3.));
#1723=CARTESIAN_POINT('',(61.025,-24.245,0.));
#1724=CARTESIAN_POINT('',(61.025,-24.245,0.));
#1725=CARTESIAN_POINT('Origin',(62.475,-24.245,0.));
#1726=CARTESIAN_POINT('Origin',(-5.325,-24.245,0.));
#1727=CARTESIAN_POINT('',(-6.77499999999999,-24.245,3.));
#1728=CARTESIAN_POINT('Origin',(-5.325,-24.245,3.));
#1729=CARTESIAN_POINT('',(-6.775,-24.245,0.));
#1730=CARTESIAN_POINT('',(-6.775,-24.245,0.));
#1731=CARTESIAN_POINT('Origin',(-5.325,-24.245,0.));
#1732=CARTESIAN_POINT('Origin',(-5.325,5.155,0.));
#1733=CARTESIAN_POINT('',(-6.775,5.155,3.));
#1734=CARTESIAN_POINT('Origin',(-5.325,5.155,3.));
#1735=CARTESIAN_POINT('',(-6.775,5.155,0.));
#1736=CARTESIAN_POINT('',(-6.775,5.155,0.));
#1737=CARTESIAN_POINT('Origin',(-5.325,5.155,0.));
#1738=CARTESIAN_POINT('Origin',(-10.325,10.155,0.));
#1739=CARTESIAN_POINT('',(-10.325,-29.245,0.));
#1740=CARTESIAN_POINT('',(-10.325,10.155,0.));
#1741=CARTESIAN_POINT('',(-10.325,-29.245,0.));
#1742=CARTESIAN_POINT('',(-10.325,-29.245,3.));
#1743=CARTESIAN_POINT('',(-10.325,-29.245,0.));
#1744=CARTESIAN_POINT('',(-10.325,10.155,3.));
#1745=CARTESIAN_POINT('',(-10.325,-29.245,3.));
#1746=CARTESIAN_POINT('',(-10.325,10.155,0.));
#1747=CARTESIAN_POINT('Origin',(67.475,10.155,0.));
#1748=CARTESIAN_POINT('',(67.475,10.155,0.));
#1749=CARTESIAN_POINT('',(-10.325,10.155,0.));
#1750=CARTESIAN_POINT('',(67.475,10.155,3.));
#1751=CARTESIAN_POINT('',(-10.325,10.155,3.));
#1752=CARTESIAN_POINT('',(67.475,10.155,0.));
#1753=CARTESIAN_POINT('Origin',(67.475,-29.245,0.));
#1754=CARTESIAN_POINT('',(67.475,-29.245,0.));
#1755=CARTESIAN_POINT('',(67.475,10.155,0.));
#1756=CARTESIAN_POINT('',(67.475,-29.245,3.));
#1757=CARTESIAN_POINT('',(67.475,10.155,3.));
#1758=CARTESIAN_POINT('',(67.475,-29.245,0.));
#1759=CARTESIAN_POINT('Origin',(-10.325,-29.245,0.));
#1760=CARTESIAN_POINT('',(67.475,-29.245,0.));
#1761=CARTESIAN_POINT('',(67.475,-29.245,3.));
#1762=CARTESIAN_POINT('Origin',(28.575,-9.545,3.));
#1763=CARTESIAN_POINT('Origin',(28.575,-9.545,0.));
#1764=CARTESIAN_POINT('',(0.,0.,0.));
#1765=CARTESIAN_POINT('Origin',(-10.,19.369804097054,5.00000007450581));
#1766=CARTESIAN_POINT('',(0.,19.369804097054,13.));
#1767=CARTESIAN_POINT('',(0.,19.369804097054,5.00000007450581));
#1768=CARTESIAN_POINT('',(0.,19.369804097054,2.5000000372529));
#1769=CARTESIAN_POINT('',(-10.,19.369804097054,13.));
#1770=CARTESIAN_POINT('',(9.45,19.369804097054,13.));
#1771=CARTESIAN_POINT('',(-10.,19.369804097054,5.00000007450581));
#1772=CARTESIAN_POINT('',(-10.,19.369804097054,2.5000000372529));
#1773=CARTESIAN_POINT('',(-10.,19.369804097054,5.00000007450581));
#1774=CARTESIAN_POINT('Origin',(-10.,0.,5.00000007450581));
#1775=CARTESIAN_POINT('',(0.,0.,5.00000007450581));
#1776=CARTESIAN_POINT('',(0.,0.,5.00000007450581));
#1777=CARTESIAN_POINT('',(-10.,0.,5.00000007450581));
#1778=CARTESIAN_POINT('',(-10.,14.7,5.00000007450581));
#1779=CARTESIAN_POINT('',(-10.,0.,5.00000007450581));
#1780=CARTESIAN_POINT('Origin',(57.8,0.,0.));
#1781=CARTESIAN_POINT('',(57.8,0.,13.));
#1782=CARTESIAN_POINT('',(-10.,0.,13.));
#1783=CARTESIAN_POINT('',(0.,0.,13.));
#1784=CARTESIAN_POINT('',(57.8,0.,0.));
#1785=CARTESIAN_POINT('',(57.8,0.,0.));
#1786=CARTESIAN_POINT('',(0.,0.,0.));
#1787=CARTESIAN_POINT('',(0.,0.,0.));
#1788=CARTESIAN_POINT('',(0.,0.,0.));
#1789=CARTESIAN_POINT('',(-10.,0.,6.5));
#1790=CARTESIAN_POINT('Origin',(-5.,-5.,0.));
#1791=CARTESIAN_POINT('',(-6.45,-5.,13.));
#1792=CARTESIAN_POINT('Origin',(-5.,-5.,13.));
#1793=CARTESIAN_POINT('',(-6.45,-5.,0.));
#1794=CARTESIAN_POINT('',(-6.45,-5.,0.));
#1795=CARTESIAN_POINT('Origin',(-5.,-5.,0.));
#1796=CARTESIAN_POINT('Origin',(62.8,-5.,0.));
#1797=CARTESIAN_POINT('',(61.35,-5.,13.));
#1798=CARTESIAN_POINT('Origin',(62.8,-5.,13.));
#1799=CARTESIAN_POINT('',(61.35,-5.,0.));
#1800=CARTESIAN_POINT('',(61.35,-5.,0.));
#1801=CARTESIAN_POINT('Origin',(62.8,-5.,0.));
#1802=CARTESIAN_POINT('Origin',(-5.,24.4,0.));
#1803=CARTESIAN_POINT('',(-6.45,24.4,13.));
#1804=CARTESIAN_POINT('Origin',(-5.,24.4,13.));
#1805=CARTESIAN_POINT('',(-6.45,24.4,0.));
#1806=CARTESIAN_POINT('',(-6.45,24.4,0.));
#1807=CARTESIAN_POINT('Origin',(-5.,24.4,0.));
#1808=CARTESIAN_POINT('Origin',(62.8,24.4,0.));
#1809=CARTESIAN_POINT('',(61.35,24.4,13.));
#1810=CARTESIAN_POINT('Origin',(62.8,24.4,13.));
#1811=CARTESIAN_POINT('',(61.35,24.4,0.));
#1812=CARTESIAN_POINT('',(61.35,24.4,0.));
#1813=CARTESIAN_POINT('Origin',(62.8,24.4,0.));
#1814=CARTESIAN_POINT('Origin',(57.8,19.4,0.));
#1815=CARTESIAN_POINT('',(57.8,19.4,0.));
#1816=CARTESIAN_POINT('',(57.8,0.,0.));
#1817=CARTESIAN_POINT('',(57.8,19.4,13.));
#1818=CARTESIAN_POINT('',(57.8,0.,13.));
#1819=CARTESIAN_POINT('',(57.8,19.4,0.));
#1820=CARTESIAN_POINT('Origin',(0.,19.4,0.));
#1821=CARTESIAN_POINT('',(0.,19.4,0.));
#1822=CARTESIAN_POINT('',(57.8,19.4,0.));
#1823=CARTESIAN_POINT('',(0.,19.4,13.));
#1824=CARTESIAN_POINT('',(57.8,19.4,13.));
#1825=CARTESIAN_POINT('',(0.,19.4,0.));
#1826=CARTESIAN_POINT('Origin',(0.,0.,0.));
#1827=CARTESIAN_POINT('',(0.,19.4,0.));
#1828=CARTESIAN_POINT('',(0.,19.4,13.));
#1829=CARTESIAN_POINT('Origin',(67.8,29.4,0.));
#1830=CARTESIAN_POINT('',(67.8,29.4,0.));
#1831=CARTESIAN_POINT('',(-10.,29.4,0.));
#1832=CARTESIAN_POINT('',(67.8,29.4,0.));
#1833=CARTESIAN_POINT('',(-10.,29.4,13.));
#1834=CARTESIAN_POINT('',(-10.,29.4,0.));
#1835=CARTESIAN_POINT('',(67.8,29.4,13.));
#1836=CARTESIAN_POINT('',(67.8,29.4,13.));
#1837=CARTESIAN_POINT('',(67.8,29.4,0.));
#1838=CARTESIAN_POINT('Origin',(67.8,-10.,0.));
#1839=CARTESIAN_POINT('',(67.8,-10.,0.));
#1840=CARTESIAN_POINT('',(67.8,-10.,0.));
#1841=CARTESIAN_POINT('',(67.8,-10.,13.));
#1842=CARTESIAN_POINT('',(67.8,-10.,13.));
#1843=CARTESIAN_POINT('',(67.8,-10.,0.));
#1844=CARTESIAN_POINT('Origin',(-10.,-10.,0.));
#1845=CARTESIAN_POINT('',(-10.,-10.,0.));
#1846=CARTESIAN_POINT('',(-10.,-10.,0.));
#1847=CARTESIAN_POINT('',(-10.,-10.,13.));
#1848=CARTESIAN_POINT('',(-10.,-10.,13.));
#1849=CARTESIAN_POINT('',(-10.,-10.,0.));
#1850=CARTESIAN_POINT('Origin',(-10.,29.4,0.));
#1851=CARTESIAN_POINT('',(-10.,29.4,13.));
#1852=CARTESIAN_POINT('',(-10.,29.4,0.));
#1853=CARTESIAN_POINT('',(-10.,29.4,13.));
#1854=CARTESIAN_POINT('Origin',(28.9,9.7,13.));
#1855=CARTESIAN_POINT('Origin',(28.9,9.7,0.));
#1856=CARTESIAN_POINT('Origin',(57.8,19.4,0.));
#1857=CARTESIAN_POINT('',(57.8,19.4,0.));
#1858=CARTESIAN_POINT('',(0.,19.4,0.));
#1859=CARTESIAN_POINT('',(57.8,19.4,0.));
#1860=CARTESIAN_POINT('',(0.,19.4,3.));
#1861=CARTESIAN_POINT('',(0.,19.4,0.));
#1862=CARTESIAN_POINT('',(57.8,19.4,3.));
#1863=CARTESIAN_POINT('',(57.8,19.4,3.));
#1864=CARTESIAN_POINT('',(57.8,19.4,0.));
#1865=CARTESIAN_POINT('Origin',(57.8,0.,0.));
#1866=CARTESIAN_POINT('',(57.8,0.,0.));
#1867=CARTESIAN_POINT('',(57.8,0.,0.));
#1868=CARTESIAN_POINT('',(57.8,0.,3.));
#1869=CARTESIAN_POINT('',(57.8,0.,3.));
#1870=CARTESIAN_POINT('',(57.8,0.,0.));
#1871=CARTESIAN_POINT('Origin',(0.,0.,0.));
#1872=CARTESIAN_POINT('',(0.,0.,0.));
#1873=CARTESIAN_POINT('',(0.,0.,0.));
#1874=CARTESIAN_POINT('',(0.,0.,3.));
#1875=CARTESIAN_POINT('',(0.,0.,3.));
#1876=CARTESIAN_POINT('',(0.,0.,0.));
#1877=CARTESIAN_POINT('Origin',(0.,19.4,0.));
#1878=CARTESIAN_POINT('',(0.,19.4,0.));
#1879=CARTESIAN_POINT('',(0.,19.4,3.));
#1880=CARTESIAN_POINT('Origin',(28.9,9.7,3.));
#1881=CARTESIAN_POINT('Origin',(28.9,9.7,0.));
#1882=CARTESIAN_POINT('',(0.293302602039223,19.2112844067269,13.007128016588));
#1883=CARTESIAN_POINT('',(0.,0.,0.));
#1884=UNCERTAINTY_MEASURE_WITH_UNIT(LENGTH_MEASURE(0.01),#1892,
'DISTANCE_ACCURACY_VALUE',
'Maximum model space distance between geometric entities at asserted c
onnectivities');
#1885=UNCERTAINTY_MEASURE_WITH_UNIT(LENGTH_MEASURE(0.01),#1892,
'DISTANCE_ACCURACY_VALUE',
'Maximum model space distance between geometric entities at asserted c
onnectivities');
#1886=UNCERTAINTY_MEASURE_WITH_UNIT(LENGTH_MEASURE(0.01),#1892,
'DISTANCE_ACCURACY_VALUE',
'Maximum model space distance between geometric entities at asserted c
onnectivities');
#1887=UNCERTAINTY_MEASURE_WITH_UNIT(LENGTH_MEASURE(0.01),#1892,
'DISTANCE_ACCURACY_VALUE',
'Maximum model space distance between geometric entities at asserted c
onnectivities');
#1888=(
GEOMETRIC_REPRESENTATION_CONTEXT(3)
GLOBAL_UNCERTAINTY_ASSIGNED_CONTEXT((#1884))
GLOBAL_UNIT_ASSIGNED_CONTEXT((#1892,#1894,#1895))
REPRESENTATION_CONTEXT('','3D')
);
#1889=(
GEOMETRIC_REPRESENTATION_CONTEXT(3)
GLOBAL_UNCERTAINTY_ASSIGNED_CONTEXT((#1885))
GLOBAL_UNIT_ASSIGNED_CONTEXT((#1892,#1894,#1895))
REPRESENTATION_CONTEXT('','3D')
);
#1890=(
GEOMETRIC_REPRESENTATION_CONTEXT(3)
GLOBAL_UNCERTAINTY_ASSIGNED_CONTEXT((#1886))
GLOBAL_UNIT_ASSIGNED_CONTEXT((#1892,#1894,#1895))
REPRESENTATION_CONTEXT('','3D')
);
#1891=(
GEOMETRIC_REPRESENTATION_CONTEXT(3)
GLOBAL_UNCERTAINTY_ASSIGNED_CONTEXT((#1887))
GLOBAL_UNIT_ASSIGNED_CONTEXT((#1892,#1894,#1895))
REPRESENTATION_CONTEXT('','3D')
);
#1892=(
LENGTH_UNIT()
NAMED_UNIT(*)
SI_UNIT(.MILLI.,.METRE.)
);
#1893=(
LENGTH_UNIT()
NAMED_UNIT(*)
SI_UNIT($,.METRE.)
);
#1894=(
NAMED_UNIT(*)
PLANE_ANGLE_UNIT()
SI_UNIT($,.RADIAN.)
);
#1895=(
NAMED_UNIT(*)
SI_UNIT($,.STERADIAN.)
SOLID_ANGLE_UNIT()
);
#1896=SHAPE_DEFINITION_REPRESENTATION(#1899,#1904);
#1897=SHAPE_DEFINITION_REPRESENTATION(#1900,#1905);
#1898=SHAPE_DEFINITION_REPRESENTATION(#1901,#1906);
#1899=PRODUCT_DEFINITION_SHAPE('',$,#1908);
#1900=PRODUCT_DEFINITION_SHAPE('',$,#1909);
#1901=PRODUCT_DEFINITION_SHAPE('',$,#1910);
#1902=PRODUCT_DEFINITION_SHAPE($,$,#17);
#1903=PRODUCT_DEFINITION_SHAPE($,$,#18);
#1904=SHAPE_REPRESENTATION('',(#1152,#1251,#1252),#1888);
#1905=SHAPE_REPRESENTATION('',(#1153),#1889);
#1906=SHAPE_REPRESENTATION('',(#1220),#1890);
#1907=PRODUCT_DEFINITION_CONTEXT('part definition',#1918,'design');
#1908=PRODUCT_DEFINITION('2026-08-09-13-38-04-233',
'macropad (Assembly)',#1911,#1907);
#1909=PRODUCT_DEFINITION('2026-08-09-13-36-26-473','macropad',#1912,#1907);
#1910=PRODUCT_DEFINITION('2026-08-09-13-25-07-924','macropad',#1913,#1907);
#1911=PRODUCT_DEFINITION_FORMATION('',$,#1920);
#1912=PRODUCT_DEFINITION_FORMATION('',$,#1921);
#1913=PRODUCT_DEFINITION_FORMATION('',$,#1922);
#1914=PRODUCT_RELATED_PRODUCT_CATEGORY('macropad (Assembly)',
'macropad (Assembly)',(#1920));
#1915=PRODUCT_RELATED_PRODUCT_CATEGORY('macropad','macropad',(#1921));
#1916=PRODUCT_RELATED_PRODUCT_CATEGORY('macropad','macropad',(#1922));
#1917=APPLICATION_PROTOCOL_DEFINITION('international standard',
'automotive_design',2009,#1918);
#1918=APPLICATION_CONTEXT(
'Core Data for Automotive Mechanical Design Process');
#1919=PRODUCT_CONTEXT('part definition',#1918,'mechanical');
#1920=PRODUCT('2026-08-09-13-38-04-233','macropad (Assembly)',$,(#1919));
#1921=PRODUCT('2026-08-09-13-36-26-473','macropad',$,(#1919));
#1922=PRODUCT('2026-08-09-13-25-07-924','macropad',$,(#1919));
#1923=PRESENTATION_STYLE_ASSIGNMENT((#1924));
#1924=SURFACE_STYLE_USAGE(.BOTH.,#1925);
#1925=SURFACE_SIDE_STYLE('',(#1926));
#1926=SURFACE_STYLE_FILL_AREA(#1927);
#1927=FILL_AREA_STYLE('Steel - Satin',(#1928));
#1928=FILL_AREA_STYLE_COLOUR('Steel - Satin',#1929);
#1929=COLOUR_RGB('Steel - Satin',0.627450980392157,0.627450980392157,0.627450980392157);
ENDSEC;
END-ISO-10303-21;
