%TF.GenerationSoftware,KiCad,Pcbnew,7.0.11+dfsg-1build4*%
%TF.CreationDate,2026-08-29T20:49:05+00:00*%
%TF.ProjectId,spotify-pad,73706f74-6966-4792-9d70-61642e6b6963,rev?*%
%TF.SameCoordinates,Original*%
%TF.FileFunction,Legend,Top*%
%TF.FilePolarity,Positive*%
%FSLAX46Y46*%
G04 Gerber Fmt 4.6, Leading zero omitted, Abs format (unit mm)*
G04 Created by KiCad (PCBNEW 7.0.11+dfsg-1build4) date 2026-08-29 20:49:05*
%MOMM*%
%LPD*%
G01*
G04 APERTURE LIST*
%ADD10C,0.150000*%
%ADD11C,0.195000*%
%ADD12C,0.127500*%
%ADD13C,0.240000*%
%ADD14C,0.210000*%
%ADD15C,0.330000*%
%ADD16C,0.120000*%
%ADD17C,0.450000*%
G04 APERTURE END LIST*
D10*
X122500000Y-51000000D02*
X122500000Y-84900000D01*
X122500000Y-84900000D02*
X87500000Y-84900000D01*
X87500000Y-84900000D02*
X87500000Y-51000000D01*
X87500000Y-51000000D02*
X122500000Y-51000000D01*
D11*
X92433335Y-60591264D02*
X91690478Y-60591264D01*
X92061906Y-60591264D02*
X92061906Y-59291264D01*
X92061906Y-59291264D02*
X91938097Y-59476979D01*
X91938097Y-59476979D02*
X91814287Y-59600788D01*
X91814287Y-59600788D02*
X91690478Y-59662693D01*
X92990477Y-60467455D02*
X93052382Y-60529360D01*
X93052382Y-60529360D02*
X92990477Y-60591264D01*
X92990477Y-60591264D02*
X92928573Y-60529360D01*
X92928573Y-60529360D02*
X92990477Y-60467455D01*
X92990477Y-60467455D02*
X92990477Y-60591264D01*
X94228573Y-59291264D02*
X93609525Y-59291264D01*
X93609525Y-59291264D02*
X93547621Y-59910312D01*
X93547621Y-59910312D02*
X93609525Y-59848407D01*
X93609525Y-59848407D02*
X93733335Y-59786502D01*
X93733335Y-59786502D02*
X94042859Y-59786502D01*
X94042859Y-59786502D02*
X94166668Y-59848407D01*
X94166668Y-59848407D02*
X94228573Y-59910312D01*
X94228573Y-59910312D02*
X94290478Y-60034121D01*
X94290478Y-60034121D02*
X94290478Y-60343645D01*
X94290478Y-60343645D02*
X94228573Y-60467455D01*
X94228573Y-60467455D02*
X94166668Y-60529360D01*
X94166668Y-60529360D02*
X94042859Y-60591264D01*
X94042859Y-60591264D02*
X93733335Y-60591264D01*
X93733335Y-60591264D02*
X93609525Y-60529360D01*
X93609525Y-60529360D02*
X93547621Y-60467455D01*
X95404763Y-59724598D02*
X95404763Y-60591264D01*
X95095239Y-59229360D02*
X94785716Y-60157931D01*
X94785716Y-60157931D02*
X95590477Y-60157931D01*
X96023811Y-59291264D02*
X96023811Y-59538883D01*
X96519049Y-59291264D02*
X96519049Y-59538883D01*
X98004763Y-60529360D02*
X98190477Y-60591264D01*
X98190477Y-60591264D02*
X98500001Y-60591264D01*
X98500001Y-60591264D02*
X98623810Y-60529360D01*
X98623810Y-60529360D02*
X98685715Y-60467455D01*
X98685715Y-60467455D02*
X98747620Y-60343645D01*
X98747620Y-60343645D02*
X98747620Y-60219836D01*
X98747620Y-60219836D02*
X98685715Y-60096026D01*
X98685715Y-60096026D02*
X98623810Y-60034121D01*
X98623810Y-60034121D02*
X98500001Y-59972217D01*
X98500001Y-59972217D02*
X98252382Y-59910312D01*
X98252382Y-59910312D02*
X98128572Y-59848407D01*
X98128572Y-59848407D02*
X98066667Y-59786502D01*
X98066667Y-59786502D02*
X98004763Y-59662693D01*
X98004763Y-59662693D02*
X98004763Y-59538883D01*
X98004763Y-59538883D02*
X98066667Y-59415074D01*
X98066667Y-59415074D02*
X98128572Y-59353169D01*
X98128572Y-59353169D02*
X98252382Y-59291264D01*
X98252382Y-59291264D02*
X98561905Y-59291264D01*
X98561905Y-59291264D02*
X98747620Y-59353169D01*
X99119048Y-59291264D02*
X99861905Y-59291264D01*
X99490477Y-60591264D02*
X99490477Y-59291264D01*
X100171429Y-59291264D02*
X101038095Y-59291264D01*
X101038095Y-59291264D02*
X100480953Y-60591264D01*
X101409524Y-59291264D02*
X102276190Y-59291264D01*
X102276190Y-59291264D02*
X101719048Y-60591264D01*
X102957143Y-59848407D02*
X102833333Y-59786502D01*
X102833333Y-59786502D02*
X102771428Y-59724598D01*
X102771428Y-59724598D02*
X102709524Y-59600788D01*
X102709524Y-59600788D02*
X102709524Y-59538883D01*
X102709524Y-59538883D02*
X102771428Y-59415074D01*
X102771428Y-59415074D02*
X102833333Y-59353169D01*
X102833333Y-59353169D02*
X102957143Y-59291264D01*
X102957143Y-59291264D02*
X103204762Y-59291264D01*
X103204762Y-59291264D02*
X103328571Y-59353169D01*
X103328571Y-59353169D02*
X103390476Y-59415074D01*
X103390476Y-59415074D02*
X103452381Y-59538883D01*
X103452381Y-59538883D02*
X103452381Y-59600788D01*
X103452381Y-59600788D02*
X103390476Y-59724598D01*
X103390476Y-59724598D02*
X103328571Y-59786502D01*
X103328571Y-59786502D02*
X103204762Y-59848407D01*
X103204762Y-59848407D02*
X102957143Y-59848407D01*
X102957143Y-59848407D02*
X102833333Y-59910312D01*
X102833333Y-59910312D02*
X102771428Y-59972217D01*
X102771428Y-59972217D02*
X102709524Y-60096026D01*
X102709524Y-60096026D02*
X102709524Y-60343645D01*
X102709524Y-60343645D02*
X102771428Y-60467455D01*
X102771428Y-60467455D02*
X102833333Y-60529360D01*
X102833333Y-60529360D02*
X102957143Y-60591264D01*
X102957143Y-60591264D02*
X103204762Y-60591264D01*
X103204762Y-60591264D02*
X103328571Y-60529360D01*
X103328571Y-60529360D02*
X103390476Y-60467455D01*
X103390476Y-60467455D02*
X103452381Y-60343645D01*
X103452381Y-60343645D02*
X103452381Y-60096026D01*
X103452381Y-60096026D02*
X103390476Y-59972217D01*
X103390476Y-59972217D02*
X103328571Y-59910312D01*
X103328571Y-59910312D02*
X103204762Y-59848407D01*
X104071428Y-60591264D02*
X104319047Y-60591264D01*
X104319047Y-60591264D02*
X104442857Y-60529360D01*
X104442857Y-60529360D02*
X104504761Y-60467455D01*
X104504761Y-60467455D02*
X104628571Y-60281740D01*
X104628571Y-60281740D02*
X104690476Y-60034121D01*
X104690476Y-60034121D02*
X104690476Y-59538883D01*
X104690476Y-59538883D02*
X104628571Y-59415074D01*
X104628571Y-59415074D02*
X104566666Y-59353169D01*
X104566666Y-59353169D02*
X104442857Y-59291264D01*
X104442857Y-59291264D02*
X104195238Y-59291264D01*
X104195238Y-59291264D02*
X104071428Y-59353169D01*
X104071428Y-59353169D02*
X104009523Y-59415074D01*
X104009523Y-59415074D02*
X103947619Y-59538883D01*
X103947619Y-59538883D02*
X103947619Y-59848407D01*
X103947619Y-59848407D02*
X104009523Y-59972217D01*
X104009523Y-59972217D02*
X104071428Y-60034121D01*
X104071428Y-60034121D02*
X104195238Y-60096026D01*
X104195238Y-60096026D02*
X104442857Y-60096026D01*
X104442857Y-60096026D02*
X104566666Y-60034121D01*
X104566666Y-60034121D02*
X104628571Y-59972217D01*
X104628571Y-59972217D02*
X104690476Y-59848407D01*
X106176190Y-59415074D02*
X106238094Y-59353169D01*
X106238094Y-59353169D02*
X106361904Y-59291264D01*
X106361904Y-59291264D02*
X106671428Y-59291264D01*
X106671428Y-59291264D02*
X106795237Y-59353169D01*
X106795237Y-59353169D02*
X106857142Y-59415074D01*
X106857142Y-59415074D02*
X106919047Y-59538883D01*
X106919047Y-59538883D02*
X106919047Y-59662693D01*
X106919047Y-59662693D02*
X106857142Y-59848407D01*
X106857142Y-59848407D02*
X106114285Y-60591264D01*
X106114285Y-60591264D02*
X106919047Y-60591264D01*
X108033332Y-59724598D02*
X108033332Y-60591264D01*
X107723808Y-59229360D02*
X107414285Y-60157931D01*
X107414285Y-60157931D02*
X108219046Y-60157931D01*
X108961903Y-59291264D02*
X109085713Y-59291264D01*
X109085713Y-59291264D02*
X109209522Y-59353169D01*
X109209522Y-59353169D02*
X109271427Y-59415074D01*
X109271427Y-59415074D02*
X109333332Y-59538883D01*
X109333332Y-59538883D02*
X109395237Y-59786502D01*
X109395237Y-59786502D02*
X109395237Y-60096026D01*
X109395237Y-60096026D02*
X109333332Y-60343645D01*
X109333332Y-60343645D02*
X109271427Y-60467455D01*
X109271427Y-60467455D02*
X109209522Y-60529360D01*
X109209522Y-60529360D02*
X109085713Y-60591264D01*
X109085713Y-60591264D02*
X108961903Y-60591264D01*
X108961903Y-60591264D02*
X108838094Y-60529360D01*
X108838094Y-60529360D02*
X108776189Y-60467455D01*
X108776189Y-60467455D02*
X108714284Y-60343645D01*
X108714284Y-60343645D02*
X108652380Y-60096026D01*
X108652380Y-60096026D02*
X108652380Y-59786502D01*
X108652380Y-59786502D02*
X108714284Y-59538883D01*
X108714284Y-59538883D02*
X108776189Y-59415074D01*
X108776189Y-59415074D02*
X108838094Y-59353169D01*
X108838094Y-59353169D02*
X108961903Y-59291264D01*
X109828570Y-60591264D02*
X110509522Y-59724598D01*
X109828570Y-59724598D02*
X110509522Y-60591264D01*
X110942856Y-59415074D02*
X111004760Y-59353169D01*
X111004760Y-59353169D02*
X111128570Y-59291264D01*
X111128570Y-59291264D02*
X111438094Y-59291264D01*
X111438094Y-59291264D02*
X111561903Y-59353169D01*
X111561903Y-59353169D02*
X111623808Y-59415074D01*
X111623808Y-59415074D02*
X111685713Y-59538883D01*
X111685713Y-59538883D02*
X111685713Y-59662693D01*
X111685713Y-59662693D02*
X111623808Y-59848407D01*
X111623808Y-59848407D02*
X110880951Y-60591264D01*
X110880951Y-60591264D02*
X111685713Y-60591264D01*
X112799998Y-59724598D02*
X112799998Y-60591264D01*
X112490474Y-59229360D02*
X112180951Y-60157931D01*
X112180951Y-60157931D02*
X112985712Y-60157931D01*
X113728569Y-59291264D02*
X113852379Y-59291264D01*
X113852379Y-59291264D02*
X113976188Y-59353169D01*
X113976188Y-59353169D02*
X114038093Y-59415074D01*
X114038093Y-59415074D02*
X114099998Y-59538883D01*
X114099998Y-59538883D02*
X114161903Y-59786502D01*
X114161903Y-59786502D02*
X114161903Y-60096026D01*
X114161903Y-60096026D02*
X114099998Y-60343645D01*
X114099998Y-60343645D02*
X114038093Y-60467455D01*
X114038093Y-60467455D02*
X113976188Y-60529360D01*
X113976188Y-60529360D02*
X113852379Y-60591264D01*
X113852379Y-60591264D02*
X113728569Y-60591264D01*
X113728569Y-60591264D02*
X113604760Y-60529360D01*
X113604760Y-60529360D02*
X113542855Y-60467455D01*
X113542855Y-60467455D02*
X113480950Y-60343645D01*
X113480950Y-60343645D02*
X113419046Y-60096026D01*
X113419046Y-60096026D02*
X113419046Y-59786502D01*
X113419046Y-59786502D02*
X113480950Y-59538883D01*
X113480950Y-59538883D02*
X113542855Y-59415074D01*
X113542855Y-59415074D02*
X113604760Y-59353169D01*
X113604760Y-59353169D02*
X113728569Y-59291264D01*
X115647617Y-60529360D02*
X115833331Y-60591264D01*
X115833331Y-60591264D02*
X116142855Y-60591264D01*
X116142855Y-60591264D02*
X116266664Y-60529360D01*
X116266664Y-60529360D02*
X116328569Y-60467455D01*
X116328569Y-60467455D02*
X116390474Y-60343645D01*
X116390474Y-60343645D02*
X116390474Y-60219836D01*
X116390474Y-60219836D02*
X116328569Y-60096026D01*
X116328569Y-60096026D02*
X116266664Y-60034121D01*
X116266664Y-60034121D02*
X116142855Y-59972217D01*
X116142855Y-59972217D02*
X115895236Y-59910312D01*
X115895236Y-59910312D02*
X115771426Y-59848407D01*
X115771426Y-59848407D02*
X115709521Y-59786502D01*
X115709521Y-59786502D02*
X115647617Y-59662693D01*
X115647617Y-59662693D02*
X115647617Y-59538883D01*
X115647617Y-59538883D02*
X115709521Y-59415074D01*
X115709521Y-59415074D02*
X115771426Y-59353169D01*
X115771426Y-59353169D02*
X115895236Y-59291264D01*
X115895236Y-59291264D02*
X116204759Y-59291264D01*
X116204759Y-59291264D02*
X116390474Y-59353169D01*
X116947616Y-60591264D02*
X116947616Y-59291264D01*
X116947616Y-59291264D02*
X117442854Y-59291264D01*
X117442854Y-59291264D02*
X117566664Y-59353169D01*
X117566664Y-59353169D02*
X117628569Y-59415074D01*
X117628569Y-59415074D02*
X117690473Y-59538883D01*
X117690473Y-59538883D02*
X117690473Y-59724598D01*
X117690473Y-59724598D02*
X117628569Y-59848407D01*
X117628569Y-59848407D02*
X117566664Y-59910312D01*
X117566664Y-59910312D02*
X117442854Y-59972217D01*
X117442854Y-59972217D02*
X116947616Y-59972217D01*
X118247616Y-60591264D02*
X118247616Y-59291264D01*
D12*
X93929762Y-84241359D02*
X94051190Y-84281835D01*
X94051190Y-84281835D02*
X94091667Y-84322311D01*
X94091667Y-84322311D02*
X94132143Y-84403263D01*
X94132143Y-84403263D02*
X94132143Y-84524692D01*
X94132143Y-84524692D02*
X94091667Y-84605644D01*
X94091667Y-84605644D02*
X94051190Y-84646121D01*
X94051190Y-84646121D02*
X93970238Y-84686597D01*
X93970238Y-84686597D02*
X93646428Y-84686597D01*
X93646428Y-84686597D02*
X93646428Y-83836597D01*
X93646428Y-83836597D02*
X93929762Y-83836597D01*
X93929762Y-83836597D02*
X94010714Y-83877073D01*
X94010714Y-83877073D02*
X94051190Y-83917549D01*
X94051190Y-83917549D02*
X94091667Y-83998501D01*
X94091667Y-83998501D02*
X94091667Y-84079454D01*
X94091667Y-84079454D02*
X94051190Y-84160406D01*
X94051190Y-84160406D02*
X94010714Y-84200882D01*
X94010714Y-84200882D02*
X93929762Y-84241359D01*
X93929762Y-84241359D02*
X93646428Y-84241359D01*
X94901190Y-84686597D02*
X94496428Y-84686597D01*
X94496428Y-84686597D02*
X94496428Y-83836597D01*
X95184523Y-84686597D02*
X95184523Y-83836597D01*
X95670238Y-84686597D02*
X95305952Y-84200882D01*
X95670238Y-83836597D02*
X95184523Y-84322311D01*
X97167857Y-84605644D02*
X97127381Y-84646121D01*
X97127381Y-84646121D02*
X97005952Y-84686597D01*
X97005952Y-84686597D02*
X96925000Y-84686597D01*
X96925000Y-84686597D02*
X96803571Y-84646121D01*
X96803571Y-84646121D02*
X96722619Y-84565168D01*
X96722619Y-84565168D02*
X96682142Y-84484216D01*
X96682142Y-84484216D02*
X96641666Y-84322311D01*
X96641666Y-84322311D02*
X96641666Y-84200882D01*
X96641666Y-84200882D02*
X96682142Y-84038978D01*
X96682142Y-84038978D02*
X96722619Y-83958025D01*
X96722619Y-83958025D02*
X96803571Y-83877073D01*
X96803571Y-83877073D02*
X96925000Y-83836597D01*
X96925000Y-83836597D02*
X97005952Y-83836597D01*
X97005952Y-83836597D02*
X97127381Y-83877073D01*
X97127381Y-83877073D02*
X97167857Y-83917549D01*
X97491666Y-84646121D02*
X97613095Y-84686597D01*
X97613095Y-84686597D02*
X97815476Y-84686597D01*
X97815476Y-84686597D02*
X97896428Y-84646121D01*
X97896428Y-84646121D02*
X97936904Y-84605644D01*
X97936904Y-84605644D02*
X97977381Y-84524692D01*
X97977381Y-84524692D02*
X97977381Y-84443740D01*
X97977381Y-84443740D02*
X97936904Y-84362787D01*
X97936904Y-84362787D02*
X97896428Y-84322311D01*
X97896428Y-84322311D02*
X97815476Y-84281835D01*
X97815476Y-84281835D02*
X97653571Y-84241359D01*
X97653571Y-84241359D02*
X97572619Y-84200882D01*
X97572619Y-84200882D02*
X97532142Y-84160406D01*
X97532142Y-84160406D02*
X97491666Y-84079454D01*
X97491666Y-84079454D02*
X97491666Y-83998501D01*
X97491666Y-83998501D02*
X97532142Y-83917549D01*
X97532142Y-83917549D02*
X97572619Y-83877073D01*
X97572619Y-83877073D02*
X97653571Y-83836597D01*
X97653571Y-83836597D02*
X97855952Y-83836597D01*
X97855952Y-83836597D02*
X97977381Y-83877073D01*
X99636904Y-84686597D02*
X99636904Y-83836597D01*
X99636904Y-83836597D02*
X99839285Y-83836597D01*
X99839285Y-83836597D02*
X99960714Y-83877073D01*
X99960714Y-83877073D02*
X100041666Y-83958025D01*
X100041666Y-83958025D02*
X100082143Y-84038978D01*
X100082143Y-84038978D02*
X100122619Y-84200882D01*
X100122619Y-84200882D02*
X100122619Y-84322311D01*
X100122619Y-84322311D02*
X100082143Y-84484216D01*
X100082143Y-84484216D02*
X100041666Y-84565168D01*
X100041666Y-84565168D02*
X99960714Y-84646121D01*
X99960714Y-84646121D02*
X99839285Y-84686597D01*
X99839285Y-84686597D02*
X99636904Y-84686597D01*
X100972619Y-84605644D02*
X100932143Y-84646121D01*
X100932143Y-84646121D02*
X100810714Y-84686597D01*
X100810714Y-84686597D02*
X100729762Y-84686597D01*
X100729762Y-84686597D02*
X100608333Y-84646121D01*
X100608333Y-84646121D02*
X100527381Y-84565168D01*
X100527381Y-84565168D02*
X100486904Y-84484216D01*
X100486904Y-84484216D02*
X100446428Y-84322311D01*
X100446428Y-84322311D02*
X100446428Y-84200882D01*
X100446428Y-84200882D02*
X100486904Y-84038978D01*
X100486904Y-84038978D02*
X100527381Y-83958025D01*
X100527381Y-83958025D02*
X100608333Y-83877073D01*
X100608333Y-83877073D02*
X100729762Y-83836597D01*
X100729762Y-83836597D02*
X100810714Y-83836597D01*
X100810714Y-83836597D02*
X100932143Y-83877073D01*
X100932143Y-83877073D02*
X100972619Y-83917549D01*
X102470238Y-84686597D02*
X102186904Y-84281835D01*
X101984523Y-84686597D02*
X101984523Y-83836597D01*
X101984523Y-83836597D02*
X102308333Y-83836597D01*
X102308333Y-83836597D02*
X102389285Y-83877073D01*
X102389285Y-83877073D02*
X102429762Y-83917549D01*
X102429762Y-83917549D02*
X102470238Y-83998501D01*
X102470238Y-83998501D02*
X102470238Y-84119930D01*
X102470238Y-84119930D02*
X102429762Y-84200882D01*
X102429762Y-84200882D02*
X102389285Y-84241359D01*
X102389285Y-84241359D02*
X102308333Y-84281835D01*
X102308333Y-84281835D02*
X101984523Y-84281835D01*
X102834523Y-84241359D02*
X103117857Y-84241359D01*
X103239285Y-84686597D02*
X102834523Y-84686597D01*
X102834523Y-84686597D02*
X102834523Y-83836597D01*
X102834523Y-83836597D02*
X103239285Y-83836597D01*
X103563095Y-84646121D02*
X103684524Y-84686597D01*
X103684524Y-84686597D02*
X103886905Y-84686597D01*
X103886905Y-84686597D02*
X103967857Y-84646121D01*
X103967857Y-84646121D02*
X104008333Y-84605644D01*
X104008333Y-84605644D02*
X104048810Y-84524692D01*
X104048810Y-84524692D02*
X104048810Y-84443740D01*
X104048810Y-84443740D02*
X104008333Y-84362787D01*
X104008333Y-84362787D02*
X103967857Y-84322311D01*
X103967857Y-84322311D02*
X103886905Y-84281835D01*
X103886905Y-84281835D02*
X103725000Y-84241359D01*
X103725000Y-84241359D02*
X103644048Y-84200882D01*
X103644048Y-84200882D02*
X103603571Y-84160406D01*
X103603571Y-84160406D02*
X103563095Y-84079454D01*
X103563095Y-84079454D02*
X103563095Y-83998501D01*
X103563095Y-83998501D02*
X103603571Y-83917549D01*
X103603571Y-83917549D02*
X103644048Y-83877073D01*
X103644048Y-83877073D02*
X103725000Y-83836597D01*
X103725000Y-83836597D02*
X103927381Y-83836597D01*
X103927381Y-83836597D02*
X104048810Y-83877073D01*
X105020238Y-84646121D02*
X105141667Y-84686597D01*
X105141667Y-84686597D02*
X105344048Y-84686597D01*
X105344048Y-84686597D02*
X105425000Y-84646121D01*
X105425000Y-84646121D02*
X105465476Y-84605644D01*
X105465476Y-84605644D02*
X105505953Y-84524692D01*
X105505953Y-84524692D02*
X105505953Y-84443740D01*
X105505953Y-84443740D02*
X105465476Y-84362787D01*
X105465476Y-84362787D02*
X105425000Y-84322311D01*
X105425000Y-84322311D02*
X105344048Y-84281835D01*
X105344048Y-84281835D02*
X105182143Y-84241359D01*
X105182143Y-84241359D02*
X105101191Y-84200882D01*
X105101191Y-84200882D02*
X105060714Y-84160406D01*
X105060714Y-84160406D02*
X105020238Y-84079454D01*
X105020238Y-84079454D02*
X105020238Y-83998501D01*
X105020238Y-83998501D02*
X105060714Y-83917549D01*
X105060714Y-83917549D02*
X105101191Y-83877073D01*
X105101191Y-83877073D02*
X105182143Y-83836597D01*
X105182143Y-83836597D02*
X105384524Y-83836597D01*
X105384524Y-83836597D02*
X105505953Y-83877073D01*
X105870238Y-84686597D02*
X105870238Y-83836597D01*
X105870238Y-83836597D02*
X106072619Y-83836597D01*
X106072619Y-83836597D02*
X106194048Y-83877073D01*
X106194048Y-83877073D02*
X106275000Y-83958025D01*
X106275000Y-83958025D02*
X106315477Y-84038978D01*
X106315477Y-84038978D02*
X106355953Y-84200882D01*
X106355953Y-84200882D02*
X106355953Y-84322311D01*
X106355953Y-84322311D02*
X106315477Y-84484216D01*
X106315477Y-84484216D02*
X106275000Y-84565168D01*
X106275000Y-84565168D02*
X106194048Y-84646121D01*
X106194048Y-84646121D02*
X106072619Y-84686597D01*
X106072619Y-84686597D02*
X105870238Y-84686597D01*
X106679762Y-84443740D02*
X107084524Y-84443740D01*
X106598810Y-84686597D02*
X106882143Y-83836597D01*
X106882143Y-83836597D02*
X107165477Y-84686597D01*
X108055952Y-84646121D02*
X108177381Y-84686597D01*
X108177381Y-84686597D02*
X108379762Y-84686597D01*
X108379762Y-84686597D02*
X108460714Y-84646121D01*
X108460714Y-84646121D02*
X108501190Y-84605644D01*
X108501190Y-84605644D02*
X108541667Y-84524692D01*
X108541667Y-84524692D02*
X108541667Y-84443740D01*
X108541667Y-84443740D02*
X108501190Y-84362787D01*
X108501190Y-84362787D02*
X108460714Y-84322311D01*
X108460714Y-84322311D02*
X108379762Y-84281835D01*
X108379762Y-84281835D02*
X108217857Y-84241359D01*
X108217857Y-84241359D02*
X108136905Y-84200882D01*
X108136905Y-84200882D02*
X108096428Y-84160406D01*
X108096428Y-84160406D02*
X108055952Y-84079454D01*
X108055952Y-84079454D02*
X108055952Y-83998501D01*
X108055952Y-83998501D02*
X108096428Y-83917549D01*
X108096428Y-83917549D02*
X108136905Y-83877073D01*
X108136905Y-83877073D02*
X108217857Y-83836597D01*
X108217857Y-83836597D02*
X108420238Y-83836597D01*
X108420238Y-83836597D02*
X108541667Y-83877073D01*
X109391667Y-84605644D02*
X109351191Y-84646121D01*
X109351191Y-84646121D02*
X109229762Y-84686597D01*
X109229762Y-84686597D02*
X109148810Y-84686597D01*
X109148810Y-84686597D02*
X109027381Y-84646121D01*
X109027381Y-84646121D02*
X108946429Y-84565168D01*
X108946429Y-84565168D02*
X108905952Y-84484216D01*
X108905952Y-84484216D02*
X108865476Y-84322311D01*
X108865476Y-84322311D02*
X108865476Y-84200882D01*
X108865476Y-84200882D02*
X108905952Y-84038978D01*
X108905952Y-84038978D02*
X108946429Y-83958025D01*
X108946429Y-83958025D02*
X109027381Y-83877073D01*
X109027381Y-83877073D02*
X109148810Y-83836597D01*
X109148810Y-83836597D02*
X109229762Y-83836597D01*
X109229762Y-83836597D02*
X109351191Y-83877073D01*
X109351191Y-83877073D02*
X109391667Y-83917549D01*
X110160714Y-84686597D02*
X109755952Y-84686597D01*
X109755952Y-84686597D02*
X109755952Y-83836597D01*
X110970238Y-83836597D02*
X111253571Y-84686597D01*
X111253571Y-84686597D02*
X111536905Y-83836597D01*
X112305952Y-84605644D02*
X112265476Y-84646121D01*
X112265476Y-84646121D02*
X112144047Y-84686597D01*
X112144047Y-84686597D02*
X112063095Y-84686597D01*
X112063095Y-84686597D02*
X111941666Y-84646121D01*
X111941666Y-84646121D02*
X111860714Y-84565168D01*
X111860714Y-84565168D02*
X111820237Y-84484216D01*
X111820237Y-84484216D02*
X111779761Y-84322311D01*
X111779761Y-84322311D02*
X111779761Y-84200882D01*
X111779761Y-84200882D02*
X111820237Y-84038978D01*
X111820237Y-84038978D02*
X111860714Y-83958025D01*
X111860714Y-83958025D02*
X111941666Y-83877073D01*
X111941666Y-83877073D02*
X112063095Y-83836597D01*
X112063095Y-83836597D02*
X112144047Y-83836597D01*
X112144047Y-83836597D02*
X112265476Y-83877073D01*
X112265476Y-83877073D02*
X112305952Y-83917549D01*
X113155952Y-84605644D02*
X113115476Y-84646121D01*
X113115476Y-84646121D02*
X112994047Y-84686597D01*
X112994047Y-84686597D02*
X112913095Y-84686597D01*
X112913095Y-84686597D02*
X112791666Y-84646121D01*
X112791666Y-84646121D02*
X112710714Y-84565168D01*
X112710714Y-84565168D02*
X112670237Y-84484216D01*
X112670237Y-84484216D02*
X112629761Y-84322311D01*
X112629761Y-84322311D02*
X112629761Y-84200882D01*
X112629761Y-84200882D02*
X112670237Y-84038978D01*
X112670237Y-84038978D02*
X112710714Y-83958025D01*
X112710714Y-83958025D02*
X112791666Y-83877073D01*
X112791666Y-83877073D02*
X112913095Y-83836597D01*
X112913095Y-83836597D02*
X112994047Y-83836597D01*
X112994047Y-83836597D02*
X113115476Y-83877073D01*
X113115476Y-83877073D02*
X113155952Y-83917549D01*
X114613095Y-83877073D02*
X114532142Y-83836597D01*
X114532142Y-83836597D02*
X114410714Y-83836597D01*
X114410714Y-83836597D02*
X114289285Y-83877073D01*
X114289285Y-83877073D02*
X114208333Y-83958025D01*
X114208333Y-83958025D02*
X114167856Y-84038978D01*
X114167856Y-84038978D02*
X114127380Y-84200882D01*
X114127380Y-84200882D02*
X114127380Y-84322311D01*
X114127380Y-84322311D02*
X114167856Y-84484216D01*
X114167856Y-84484216D02*
X114208333Y-84565168D01*
X114208333Y-84565168D02*
X114289285Y-84646121D01*
X114289285Y-84646121D02*
X114410714Y-84686597D01*
X114410714Y-84686597D02*
X114491666Y-84686597D01*
X114491666Y-84686597D02*
X114613095Y-84646121D01*
X114613095Y-84646121D02*
X114653571Y-84605644D01*
X114653571Y-84605644D02*
X114653571Y-84322311D01*
X114653571Y-84322311D02*
X114491666Y-84322311D01*
X115017856Y-84686597D02*
X115017856Y-83836597D01*
X115017856Y-83836597D02*
X115503571Y-84686597D01*
X115503571Y-84686597D02*
X115503571Y-83836597D01*
X115908332Y-84686597D02*
X115908332Y-83836597D01*
X115908332Y-83836597D02*
X116110713Y-83836597D01*
X116110713Y-83836597D02*
X116232142Y-83877073D01*
X116232142Y-83877073D02*
X116313094Y-83958025D01*
X116313094Y-83958025D02*
X116353571Y-84038978D01*
X116353571Y-84038978D02*
X116394047Y-84200882D01*
X116394047Y-84200882D02*
X116394047Y-84322311D01*
X116394047Y-84322311D02*
X116353571Y-84484216D01*
X116353571Y-84484216D02*
X116313094Y-84565168D01*
X116313094Y-84565168D02*
X116232142Y-84646121D01*
X116232142Y-84646121D02*
X116110713Y-84686597D01*
X116110713Y-84686597D02*
X115908332Y-84686597D01*
D13*
X99738095Y-133661043D02*
X100957143Y-134118186D01*
X100957143Y-134118186D02*
X99738095Y-134575329D01*
X101719047Y-133661043D02*
X102938095Y-134118186D01*
X102938095Y-134118186D02*
X101719047Y-134575329D01*
X104080951Y-135261043D02*
X104080951Y-132975329D01*
D14*
X115733333Y-100236746D02*
X116200000Y-101636746D01*
X116200000Y-101636746D02*
X116666666Y-100236746D01*
X117400000Y-100236746D02*
X117666666Y-100236746D01*
X117666666Y-100236746D02*
X117800000Y-100303413D01*
X117800000Y-100303413D02*
X117933333Y-100436746D01*
X117933333Y-100436746D02*
X118000000Y-100703413D01*
X118000000Y-100703413D02*
X118000000Y-101170080D01*
X118000000Y-101170080D02*
X117933333Y-101436746D01*
X117933333Y-101436746D02*
X117800000Y-101570080D01*
X117800000Y-101570080D02*
X117666666Y-101636746D01*
X117666666Y-101636746D02*
X117400000Y-101636746D01*
X117400000Y-101636746D02*
X117266666Y-101570080D01*
X117266666Y-101570080D02*
X117133333Y-101436746D01*
X117133333Y-101436746D02*
X117066666Y-101170080D01*
X117066666Y-101170080D02*
X117066666Y-100703413D01*
X117066666Y-100703413D02*
X117133333Y-100436746D01*
X117133333Y-100436746D02*
X117266666Y-100303413D01*
X117266666Y-100303413D02*
X117400000Y-100236746D01*
X119266667Y-101636746D02*
X118600000Y-101636746D01*
X118600000Y-101636746D02*
X118600000Y-100236746D01*
D15*
X59890477Y-80395840D02*
X60204763Y-80500601D01*
X60204763Y-80500601D02*
X60728572Y-80500601D01*
X60728572Y-80500601D02*
X60938096Y-80395840D01*
X60938096Y-80395840D02*
X61042858Y-80291078D01*
X61042858Y-80291078D02*
X61147620Y-80081554D01*
X61147620Y-80081554D02*
X61147620Y-79872030D01*
X61147620Y-79872030D02*
X61042858Y-79662506D01*
X61042858Y-79662506D02*
X60938096Y-79557744D01*
X60938096Y-79557744D02*
X60728572Y-79452982D01*
X60728572Y-79452982D02*
X60309525Y-79348220D01*
X60309525Y-79348220D02*
X60100001Y-79243459D01*
X60100001Y-79243459D02*
X59995239Y-79138697D01*
X59995239Y-79138697D02*
X59890477Y-78929173D01*
X59890477Y-78929173D02*
X59890477Y-78719649D01*
X59890477Y-78719649D02*
X59995239Y-78510125D01*
X59995239Y-78510125D02*
X60100001Y-78405363D01*
X60100001Y-78405363D02*
X60309525Y-78300601D01*
X60309525Y-78300601D02*
X60833334Y-78300601D01*
X60833334Y-78300601D02*
X61147620Y-78405363D01*
X62090477Y-80500601D02*
X62090477Y-78300601D01*
X62090477Y-78300601D02*
X62928572Y-78300601D01*
X62928572Y-78300601D02*
X63138096Y-78405363D01*
X63138096Y-78405363D02*
X63242858Y-78510125D01*
X63242858Y-78510125D02*
X63347620Y-78719649D01*
X63347620Y-78719649D02*
X63347620Y-79033935D01*
X63347620Y-79033935D02*
X63242858Y-79243459D01*
X63242858Y-79243459D02*
X63138096Y-79348220D01*
X63138096Y-79348220D02*
X62928572Y-79452982D01*
X62928572Y-79452982D02*
X62090477Y-79452982D01*
X64709525Y-78300601D02*
X65128572Y-78300601D01*
X65128572Y-78300601D02*
X65338096Y-78405363D01*
X65338096Y-78405363D02*
X65547620Y-78614887D01*
X65547620Y-78614887D02*
X65652382Y-79033935D01*
X65652382Y-79033935D02*
X65652382Y-79767268D01*
X65652382Y-79767268D02*
X65547620Y-80186316D01*
X65547620Y-80186316D02*
X65338096Y-80395840D01*
X65338096Y-80395840D02*
X65128572Y-80500601D01*
X65128572Y-80500601D02*
X64709525Y-80500601D01*
X64709525Y-80500601D02*
X64500001Y-80395840D01*
X64500001Y-80395840D02*
X64290477Y-80186316D01*
X64290477Y-80186316D02*
X64185715Y-79767268D01*
X64185715Y-79767268D02*
X64185715Y-79033935D01*
X64185715Y-79033935D02*
X64290477Y-78614887D01*
X64290477Y-78614887D02*
X64500001Y-78405363D01*
X64500001Y-78405363D02*
X64709525Y-78300601D01*
X66280953Y-78300601D02*
X67538096Y-78300601D01*
X66909525Y-80500601D02*
X66909525Y-78300601D01*
X68271429Y-80500601D02*
X68271429Y-78300601D01*
X70052381Y-79348220D02*
X69319048Y-79348220D01*
X69319048Y-80500601D02*
X69319048Y-78300601D01*
X69319048Y-78300601D02*
X70366667Y-78300601D01*
X71623810Y-79452982D02*
X71623810Y-80500601D01*
X70890476Y-78300601D02*
X71623810Y-79452982D01*
X71623810Y-79452982D02*
X72357143Y-78300601D01*
X74766666Y-80500601D02*
X74766666Y-78300601D01*
X74766666Y-78300601D02*
X75604761Y-78300601D01*
X75604761Y-78300601D02*
X75814285Y-78405363D01*
X75814285Y-78405363D02*
X75919047Y-78510125D01*
X75919047Y-78510125D02*
X76023809Y-78719649D01*
X76023809Y-78719649D02*
X76023809Y-79033935D01*
X76023809Y-79033935D02*
X75919047Y-79243459D01*
X75919047Y-79243459D02*
X75814285Y-79348220D01*
X75814285Y-79348220D02*
X75604761Y-79452982D01*
X75604761Y-79452982D02*
X74766666Y-79452982D01*
X76861904Y-79872030D02*
X77909523Y-79872030D01*
X76652380Y-80500601D02*
X77385714Y-78300601D01*
X77385714Y-78300601D02*
X78119047Y-80500601D01*
X78852380Y-80500601D02*
X78852380Y-78300601D01*
X78852380Y-78300601D02*
X79376190Y-78300601D01*
X79376190Y-78300601D02*
X79690475Y-78405363D01*
X79690475Y-78405363D02*
X79899999Y-78614887D01*
X79899999Y-78614887D02*
X80004761Y-78824411D01*
X80004761Y-78824411D02*
X80109523Y-79243459D01*
X80109523Y-79243459D02*
X80109523Y-79557744D01*
X80109523Y-79557744D02*
X80004761Y-79976792D01*
X80004761Y-79976792D02*
X79899999Y-80186316D01*
X79899999Y-80186316D02*
X79690475Y-80395840D01*
X79690475Y-80395840D02*
X79376190Y-80500601D01*
X79376190Y-80500601D02*
X78852380Y-80500601D01*
D13*
X80916666Y-133661043D02*
X82135714Y-134118186D01*
X82135714Y-134118186D02*
X80916666Y-134575329D01*
X83278570Y-135261043D02*
X83278570Y-132975329D01*
X84802380Y-135261043D02*
X84802380Y-132975329D01*
X62019047Y-135261043D02*
X62019047Y-132975329D01*
X64380953Y-133661043D02*
X63161905Y-134118186D01*
X63161905Y-134118186D02*
X64380953Y-134575329D01*
X66361905Y-133661043D02*
X65142857Y-134118186D01*
X65142857Y-134118186D02*
X66361905Y-134575329D01*
D10*
X83238095Y-51254819D02*
X83238095Y-50254819D01*
X83238095Y-50731009D02*
X83809523Y-50731009D01*
X83809523Y-51254819D02*
X83809523Y-50254819D01*
X84809523Y-51254819D02*
X84238095Y-51254819D01*
X84523809Y-51254819D02*
X84523809Y-50254819D01*
X84523809Y-50254819D02*
X84428571Y-50397676D01*
X84428571Y-50397676D02*
X84333333Y-50492914D01*
X84333333Y-50492914D02*
X84238095Y-50540533D01*
X125738095Y-51254819D02*
X125738095Y-50254819D01*
X125738095Y-50731009D02*
X126309523Y-50731009D01*
X126309523Y-51254819D02*
X126309523Y-50254819D01*
X126738095Y-50350057D02*
X126785714Y-50302438D01*
X126785714Y-50302438D02*
X126880952Y-50254819D01*
X126880952Y-50254819D02*
X127119047Y-50254819D01*
X127119047Y-50254819D02*
X127214285Y-50302438D01*
X127214285Y-50302438D02*
X127261904Y-50350057D01*
X127261904Y-50350057D02*
X127309523Y-50445295D01*
X127309523Y-50445295D02*
X127309523Y-50540533D01*
X127309523Y-50540533D02*
X127261904Y-50683390D01*
X127261904Y-50683390D02*
X126690476Y-51254819D01*
X126690476Y-51254819D02*
X127309523Y-51254819D01*
X81716667Y-114407200D02*
X81859524Y-114454819D01*
X81859524Y-114454819D02*
X82097619Y-114454819D01*
X82097619Y-114454819D02*
X82192857Y-114407200D01*
X82192857Y-114407200D02*
X82240476Y-114359580D01*
X82240476Y-114359580D02*
X82288095Y-114264342D01*
X82288095Y-114264342D02*
X82288095Y-114169104D01*
X82288095Y-114169104D02*
X82240476Y-114073866D01*
X82240476Y-114073866D02*
X82192857Y-114026247D01*
X82192857Y-114026247D02*
X82097619Y-113978628D01*
X82097619Y-113978628D02*
X81907143Y-113931009D01*
X81907143Y-113931009D02*
X81811905Y-113883390D01*
X81811905Y-113883390D02*
X81764286Y-113835771D01*
X81764286Y-113835771D02*
X81716667Y-113740533D01*
X81716667Y-113740533D02*
X81716667Y-113645295D01*
X81716667Y-113645295D02*
X81764286Y-113550057D01*
X81764286Y-113550057D02*
X81811905Y-113502438D01*
X81811905Y-113502438D02*
X81907143Y-113454819D01*
X81907143Y-113454819D02*
X82145238Y-113454819D01*
X82145238Y-113454819D02*
X82288095Y-113502438D01*
X82621429Y-113454819D02*
X82859524Y-114454819D01*
X82859524Y-114454819D02*
X83050000Y-113740533D01*
X83050000Y-113740533D02*
X83240476Y-114454819D01*
X83240476Y-114454819D02*
X83478572Y-113454819D01*
X83811905Y-113550057D02*
X83859524Y-113502438D01*
X83859524Y-113502438D02*
X83954762Y-113454819D01*
X83954762Y-113454819D02*
X84192857Y-113454819D01*
X84192857Y-113454819D02*
X84288095Y-113502438D01*
X84288095Y-113502438D02*
X84335714Y-113550057D01*
X84335714Y-113550057D02*
X84383333Y-113645295D01*
X84383333Y-113645295D02*
X84383333Y-113740533D01*
X84383333Y-113740533D02*
X84335714Y-113883390D01*
X84335714Y-113883390D02*
X83764286Y-114454819D01*
X83764286Y-114454819D02*
X84383333Y-114454819D01*
X100766667Y-114407200D02*
X100909524Y-114454819D01*
X100909524Y-114454819D02*
X101147619Y-114454819D01*
X101147619Y-114454819D02*
X101242857Y-114407200D01*
X101242857Y-114407200D02*
X101290476Y-114359580D01*
X101290476Y-114359580D02*
X101338095Y-114264342D01*
X101338095Y-114264342D02*
X101338095Y-114169104D01*
X101338095Y-114169104D02*
X101290476Y-114073866D01*
X101290476Y-114073866D02*
X101242857Y-114026247D01*
X101242857Y-114026247D02*
X101147619Y-113978628D01*
X101147619Y-113978628D02*
X100957143Y-113931009D01*
X100957143Y-113931009D02*
X100861905Y-113883390D01*
X100861905Y-113883390D02*
X100814286Y-113835771D01*
X100814286Y-113835771D02*
X100766667Y-113740533D01*
X100766667Y-113740533D02*
X100766667Y-113645295D01*
X100766667Y-113645295D02*
X100814286Y-113550057D01*
X100814286Y-113550057D02*
X100861905Y-113502438D01*
X100861905Y-113502438D02*
X100957143Y-113454819D01*
X100957143Y-113454819D02*
X101195238Y-113454819D01*
X101195238Y-113454819D02*
X101338095Y-113502438D01*
X101671429Y-113454819D02*
X101909524Y-114454819D01*
X101909524Y-114454819D02*
X102100000Y-113740533D01*
X102100000Y-113740533D02*
X102290476Y-114454819D01*
X102290476Y-114454819D02*
X102528572Y-113454819D01*
X102814286Y-113454819D02*
X103433333Y-113454819D01*
X103433333Y-113454819D02*
X103100000Y-113835771D01*
X103100000Y-113835771D02*
X103242857Y-113835771D01*
X103242857Y-113835771D02*
X103338095Y-113883390D01*
X103338095Y-113883390D02*
X103385714Y-113931009D01*
X103385714Y-113931009D02*
X103433333Y-114026247D01*
X103433333Y-114026247D02*
X103433333Y-114264342D01*
X103433333Y-114264342D02*
X103385714Y-114359580D01*
X103385714Y-114359580D02*
X103338095Y-114407200D01*
X103338095Y-114407200D02*
X103242857Y-114454819D01*
X103242857Y-114454819D02*
X102957143Y-114454819D01*
X102957143Y-114454819D02*
X102861905Y-114407200D01*
X102861905Y-114407200D02*
X102814286Y-114359580D01*
X116114819Y-87333333D02*
X116829104Y-87333333D01*
X116829104Y-87333333D02*
X116971961Y-87380952D01*
X116971961Y-87380952D02*
X117067200Y-87476190D01*
X117067200Y-87476190D02*
X117114819Y-87619047D01*
X117114819Y-87619047D02*
X117114819Y-87714285D01*
X117114819Y-86333333D02*
X117114819Y-86904761D01*
X117114819Y-86619047D02*
X116114819Y-86619047D01*
X116114819Y-86619047D02*
X116257676Y-86714285D01*
X116257676Y-86714285D02*
X116352914Y-86809523D01*
X116352914Y-86809523D02*
X116400533Y-86904761D01*
X121333333Y-91179580D02*
X121285714Y-91227200D01*
X121285714Y-91227200D02*
X121142857Y-91274819D01*
X121142857Y-91274819D02*
X121047619Y-91274819D01*
X121047619Y-91274819D02*
X120904762Y-91227200D01*
X120904762Y-91227200D02*
X120809524Y-91131961D01*
X120809524Y-91131961D02*
X120761905Y-91036723D01*
X120761905Y-91036723D02*
X120714286Y-90846247D01*
X120714286Y-90846247D02*
X120714286Y-90703390D01*
X120714286Y-90703390D02*
X120761905Y-90512914D01*
X120761905Y-90512914D02*
X120809524Y-90417676D01*
X120809524Y-90417676D02*
X120904762Y-90322438D01*
X120904762Y-90322438D02*
X121047619Y-90274819D01*
X121047619Y-90274819D02*
X121142857Y-90274819D01*
X121142857Y-90274819D02*
X121285714Y-90322438D01*
X121285714Y-90322438D02*
X121333333Y-90370057D01*
X122285714Y-91274819D02*
X121714286Y-91274819D01*
X122000000Y-91274819D02*
X122000000Y-90274819D01*
X122000000Y-90274819D02*
X121904762Y-90417676D01*
X121904762Y-90417676D02*
X121809524Y-90512914D01*
X121809524Y-90512914D02*
X121714286Y-90560533D01*
X116833333Y-91304819D02*
X116500000Y-90828628D01*
X116261905Y-91304819D02*
X116261905Y-90304819D01*
X116261905Y-90304819D02*
X116642857Y-90304819D01*
X116642857Y-90304819D02*
X116738095Y-90352438D01*
X116738095Y-90352438D02*
X116785714Y-90400057D01*
X116785714Y-90400057D02*
X116833333Y-90495295D01*
X116833333Y-90495295D02*
X116833333Y-90638152D01*
X116833333Y-90638152D02*
X116785714Y-90733390D01*
X116785714Y-90733390D02*
X116738095Y-90781009D01*
X116738095Y-90781009D02*
X116642857Y-90828628D01*
X116642857Y-90828628D02*
X116261905Y-90828628D01*
X117785714Y-91304819D02*
X117214286Y-91304819D01*
X117500000Y-91304819D02*
X117500000Y-90304819D01*
X117500000Y-90304819D02*
X117404762Y-90447676D01*
X117404762Y-90447676D02*
X117309524Y-90542914D01*
X117309524Y-90542914D02*
X117214286Y-90590533D01*
X66238095Y-48754819D02*
X66238095Y-49564342D01*
X66238095Y-49564342D02*
X66285714Y-49659580D01*
X66285714Y-49659580D02*
X66333333Y-49707200D01*
X66333333Y-49707200D02*
X66428571Y-49754819D01*
X66428571Y-49754819D02*
X66619047Y-49754819D01*
X66619047Y-49754819D02*
X66714285Y-49707200D01*
X66714285Y-49707200D02*
X66761904Y-49659580D01*
X66761904Y-49659580D02*
X66809523Y-49564342D01*
X66809523Y-49564342D02*
X66809523Y-48754819D01*
X67809523Y-49754819D02*
X67238095Y-49754819D01*
X67523809Y-49754819D02*
X67523809Y-48754819D01*
X67523809Y-48754819D02*
X67428571Y-48897676D01*
X67428571Y-48897676D02*
X67333333Y-48992914D01*
X67333333Y-48992914D02*
X67238095Y-49040533D01*
X53238095Y-134754819D02*
X53238095Y-133754819D01*
X53238095Y-134231009D02*
X53809523Y-134231009D01*
X53809523Y-134754819D02*
X53809523Y-133754819D01*
X54190476Y-133754819D02*
X54809523Y-133754819D01*
X54809523Y-133754819D02*
X54476190Y-134135771D01*
X54476190Y-134135771D02*
X54619047Y-134135771D01*
X54619047Y-134135771D02*
X54714285Y-134183390D01*
X54714285Y-134183390D02*
X54761904Y-134231009D01*
X54761904Y-134231009D02*
X54809523Y-134326247D01*
X54809523Y-134326247D02*
X54809523Y-134564342D01*
X54809523Y-134564342D02*
X54761904Y-134659580D01*
X54761904Y-134659580D02*
X54714285Y-134707200D01*
X54714285Y-134707200D02*
X54619047Y-134754819D01*
X54619047Y-134754819D02*
X54333333Y-134754819D01*
X54333333Y-134754819D02*
X54238095Y-134707200D01*
X54238095Y-134707200D02*
X54190476Y-134659580D01*
X125154819Y-113419047D02*
X124678628Y-113752380D01*
X125154819Y-113990475D02*
X124154819Y-113990475D01*
X124154819Y-113990475D02*
X124154819Y-113609523D01*
X124154819Y-113609523D02*
X124202438Y-113514285D01*
X124202438Y-113514285D02*
X124250057Y-113466666D01*
X124250057Y-113466666D02*
X124345295Y-113419047D01*
X124345295Y-113419047D02*
X124488152Y-113419047D01*
X124488152Y-113419047D02*
X124583390Y-113466666D01*
X124583390Y-113466666D02*
X124631009Y-113514285D01*
X124631009Y-113514285D02*
X124678628Y-113609523D01*
X124678628Y-113609523D02*
X124678628Y-113990475D01*
X124631009Y-112990475D02*
X124631009Y-112657142D01*
X125154819Y-112514285D02*
X125154819Y-112990475D01*
X125154819Y-112990475D02*
X124154819Y-112990475D01*
X124154819Y-112990475D02*
X124154819Y-112514285D01*
X125154819Y-111561904D02*
X125154819Y-112133332D01*
X125154819Y-111847618D02*
X124154819Y-111847618D01*
X124154819Y-111847618D02*
X124297676Y-111942856D01*
X124297676Y-111942856D02*
X124392914Y-112038094D01*
X124392914Y-112038094D02*
X124440533Y-112133332D01*
X109238095Y-135254819D02*
X109238095Y-134254819D01*
X109238095Y-134731009D02*
X109809523Y-134731009D01*
X109809523Y-135254819D02*
X109809523Y-134254819D01*
X110714285Y-134588152D02*
X110714285Y-135254819D01*
X110476190Y-134207200D02*
X110238095Y-134921485D01*
X110238095Y-134921485D02*
X110857142Y-134921485D01*
X62666667Y-114407200D02*
X62809524Y-114454819D01*
X62809524Y-114454819D02*
X63047619Y-114454819D01*
X63047619Y-114454819D02*
X63142857Y-114407200D01*
X63142857Y-114407200D02*
X63190476Y-114359580D01*
X63190476Y-114359580D02*
X63238095Y-114264342D01*
X63238095Y-114264342D02*
X63238095Y-114169104D01*
X63238095Y-114169104D02*
X63190476Y-114073866D01*
X63190476Y-114073866D02*
X63142857Y-114026247D01*
X63142857Y-114026247D02*
X63047619Y-113978628D01*
X63047619Y-113978628D02*
X62857143Y-113931009D01*
X62857143Y-113931009D02*
X62761905Y-113883390D01*
X62761905Y-113883390D02*
X62714286Y-113835771D01*
X62714286Y-113835771D02*
X62666667Y-113740533D01*
X62666667Y-113740533D02*
X62666667Y-113645295D01*
X62666667Y-113645295D02*
X62714286Y-113550057D01*
X62714286Y-113550057D02*
X62761905Y-113502438D01*
X62761905Y-113502438D02*
X62857143Y-113454819D01*
X62857143Y-113454819D02*
X63095238Y-113454819D01*
X63095238Y-113454819D02*
X63238095Y-113502438D01*
X63571429Y-113454819D02*
X63809524Y-114454819D01*
X63809524Y-114454819D02*
X64000000Y-113740533D01*
X64000000Y-113740533D02*
X64190476Y-114454819D01*
X64190476Y-114454819D02*
X64428572Y-113454819D01*
X65333333Y-114454819D02*
X64761905Y-114454819D01*
X65047619Y-114454819D02*
X65047619Y-113454819D01*
X65047619Y-113454819D02*
X64952381Y-113597676D01*
X64952381Y-113597676D02*
X64857143Y-113692914D01*
X64857143Y-113692914D02*
X64761905Y-113740533D01*
D16*
%TO.C,SW2*%
X75950000Y-114900000D02*
X75950000Y-129100000D01*
X75950000Y-129100000D02*
X90150000Y-129100000D01*
X90150000Y-114900000D02*
X75950000Y-114900000D01*
X90150000Y-129100000D02*
X90150000Y-114900000D01*
%TO.C,SW3*%
X95000000Y-114900000D02*
X95000000Y-129100000D01*
X95000000Y-129100000D02*
X109200000Y-129100000D01*
X109200000Y-114900000D02*
X95000000Y-114900000D01*
X109200000Y-129100000D02*
X109200000Y-114900000D01*
%TO.C,J1*%
X112620000Y-85670000D02*
X94780000Y-85670000D01*
X112620000Y-85670000D02*
X112620000Y-88330000D01*
X94780000Y-85670000D02*
X94780000Y-88330000D01*
X115220000Y-87000000D02*
X115220000Y-88330000D01*
X115220000Y-88330000D02*
X113890000Y-88330000D01*
X112620000Y-88330000D02*
X94780000Y-88330000D01*
%TO.C,C1*%
X121238748Y-91765000D02*
X121761252Y-91765000D01*
X121238748Y-93235000D02*
X121761252Y-93235000D01*
%TO.C,R1*%
X116772936Y-91765000D02*
X117227064Y-91765000D01*
X116772936Y-93235000D02*
X117227064Y-93235000D01*
%TO.C,U1*%
X57980000Y-50880000D02*
X57980000Y-52300000D01*
X57980000Y-50880000D02*
X61000000Y-50880000D01*
X57980000Y-70700000D02*
X57980000Y-72120000D01*
X57980000Y-72120000D02*
X76020000Y-72120000D01*
X73000000Y-50880000D02*
X76020000Y-50880000D01*
X76020000Y-50880000D02*
X76020000Y-52300000D01*
X76020000Y-70700000D02*
X76020000Y-72120000D01*
D17*
X57525000Y-53880000D02*
G75*
G03*
X57075000Y-53880000I-225000J0D01*
G01*
X57075000Y-53880000D02*
G75*
G03*
X57525000Y-53880000I225000J0D01*
G01*
D16*
%TO.C,RE1*%
X121600000Y-109700000D02*
X121600000Y-110300000D01*
X121300000Y-110000000D02*
X121600000Y-109700000D01*
X121600000Y-110300000D02*
X121300000Y-110000000D01*
X123400000Y-111400000D02*
X111600000Y-111400000D01*
X123400000Y-115500000D02*
X123400000Y-111400000D01*
X111600000Y-115500000D02*
X111600000Y-111400000D01*
X117500000Y-117000000D02*
X117500000Y-118000000D01*
X118000000Y-117500000D02*
X117000000Y-117500000D01*
X123400000Y-119500000D02*
X123400000Y-123600000D01*
X123400000Y-123600000D02*
X121000000Y-123600000D01*
X118800000Y-123600000D02*
X116200000Y-123600000D01*
X114000000Y-123600000D02*
X111600000Y-123600000D01*
X111600000Y-123600000D02*
X111600000Y-119500000D01*
X120500000Y-117500000D02*
G75*
G03*
X114500000Y-117500000I-3000000J0D01*
G01*
X114500000Y-117500000D02*
G75*
G03*
X120500000Y-117500000I3000000J0D01*
G01*
%TO.C,SW1*%
X56900000Y-114900000D02*
X56900000Y-129100000D01*
X56900000Y-129100000D02*
X71100000Y-129100000D01*
X71100000Y-114900000D02*
X56900000Y-114900000D01*
X71100000Y-129100000D02*
X71100000Y-114900000D01*
%TD*%
M02*
