%TF.GenerationSoftware,KiCad,Pcbnew,10.0.3*%
%TF.CreationDate,2026-09-04T19:04:51-04:00*%
%TF.ProjectId,spotify-pad,73706f74-6966-4792-9d70-61642e6b6963,rev?*%
%TF.SameCoordinates,Original*%
%TF.FileFunction,Copper,L1,Top*%
%TF.FilePolarity,Positive*%
%FSLAX46Y46*%
G04 Gerber Fmt 4.6, Leading zero omitted, Abs format (unit mm)*
G04 Created by KiCad (PCBNEW 10.0.3) date 2026-09-04 19:04:51*
%MOMM*%
%LPD*%
G01*
G04 APERTURE LIST*
G04 Aperture macros list*
%AMRoundRect*
0 Rectangle with rounded corners*
0 $1 Rounding radius*
0 $2 $3 $4 $5 $6 $7 $8 $9 X,Y pos of 4 corners*
0 Add a 4 corners polygon primitive as box body*
4,1,4,$2,$3,$4,$5,$6,$7,$8,$9,$2,$3,0*
0 Add four circle primitives for the rounded corners*
1,1,$1+$1,$2,$3*
1,1,$1+$1,$4,$5*
1,1,$1+$1,$6,$7*
1,1,$1+$1,$8,$9*
0 Add four rect primitives between the rounded corners*
20,1,$1+$1,$2,$3,$4,$5,0*
20,1,$1+$1,$4,$5,$6,$7,0*
20,1,$1+$1,$6,$7,$8,$9,0*
20,1,$1+$1,$8,$9,$2,$3,0*%
G04 Aperture macros list end*
%TA.AperFunction,ComponentPad*%
%ADD10R,1.700000X1.700000*%
%TD*%
%TA.AperFunction,ComponentPad*%
%ADD11O,1.700000X1.700000*%
%TD*%
%TA.AperFunction,SMDPad,CuDef*%
%ADD12RoundRect,0.250000X-0.250000X-0.475000X0.250000X-0.475000X0.250000X0.475000X-0.250000X0.475000X0*%
%TD*%
%TA.AperFunction,SMDPad,CuDef*%
%ADD13RoundRect,0.250000X-0.262500X-0.450000X0.262500X-0.450000X0.262500X0.450000X-0.262500X0.450000X0*%
%TD*%
%TA.AperFunction,ComponentPad*%
%ADD14RoundRect,0.425000X-0.425000X-0.425000X0.425000X-0.425000X0.425000X0.425000X-0.425000X0.425000X0*%
%TD*%
%TA.AperFunction,ComponentPad*%
%ADD15R,2.000000X2.000000*%
%TD*%
%TA.AperFunction,ComponentPad*%
%ADD16C,2.000000*%
%TD*%
%TA.AperFunction,ComponentPad*%
%ADD17R,2.000000X3.200000*%
%TD*%
%TA.AperFunction,ViaPad*%
%ADD18C,0.800000*%
%TD*%
%TA.AperFunction,Conductor*%
%ADD19C,0.600000*%
%TD*%
%TA.AperFunction,Conductor*%
%ADD20C,0.300000*%
%TD*%
G04 APERTURE END LIST*
D10*
%TO.P,J1,1*%
%TO.N,GND*%
X113890000Y-87000000D03*
D11*
%TO.P,J1,2*%
%TO.N,+3V3*%
X111350000Y-87000000D03*
%TO.P,J1,3*%
%TO.N,LCD_SCK*%
X108810000Y-87000000D03*
%TO.P,J1,4*%
%TO.N,LCD_MOSI*%
X106270000Y-87000000D03*
%TO.P,J1,5*%
%TO.N,LCD_RST*%
X103730000Y-87000000D03*
%TO.P,J1,6*%
%TO.N,LCD_DC*%
X101190000Y-87000000D03*
%TO.P,J1,7*%
%TO.N,LCD_CS*%
X98650000Y-87000000D03*
%TO.P,J1,8*%
%TO.N,LCD_BL*%
X96110000Y-87000000D03*
%TD*%
D12*
%TO.P,C1,1*%
%TO.N,+3V3*%
X120550000Y-92500000D03*
%TO.P,C1,2*%
%TO.N,GND*%
X122450000Y-92500000D03*
%TD*%
D13*
%TO.P,R1,1*%
%TO.N,LCD_BL*%
X116087500Y-92500000D03*
%TO.P,R1,2*%
%TO.N,+3V3*%
X117912500Y-92500000D03*
%TD*%
D14*
%TO.P,U1,1*%
%TO.N,SW_BACK*%
X59380000Y-53880000D03*
D11*
%TO.P,U1,2*%
%TO.N,SW_PLAY*%
X59380000Y-56420000D03*
%TO.P,U1,3*%
%TO.N,SW_NEXT*%
X59380000Y-58960000D03*
%TO.P,U1,4*%
%TO.N,ENC_SW*%
X59380000Y-61500000D03*
%TO.P,U1,5*%
%TO.N,ENC_A*%
X59380000Y-64040000D03*
%TO.P,U1,6*%
%TO.N,ENC_B*%
X59380000Y-66580000D03*
%TO.P,U1,7*%
%TO.N,LCD_RST*%
X59380000Y-69120000D03*
%TO.P,U1,8*%
%TO.N,LCD_CS*%
X74620000Y-69120000D03*
%TO.P,U1,9*%
%TO.N,LCD_SCK*%
X74620000Y-66580000D03*
%TO.P,U1,10*%
%TO.N,LCD_DC*%
X74620000Y-64040000D03*
%TO.P,U1,11*%
%TO.N,LCD_MOSI*%
X74620000Y-61500000D03*
%TO.P,U1,12*%
%TO.N,+3V3*%
X74620000Y-58960000D03*
%TO.P,U1,13*%
%TO.N,GND*%
X74620000Y-56420000D03*
%TO.P,U1,14*%
%TO.N,+5V*%
X74620000Y-53880000D03*
%TD*%
D15*
%TO.P,RE1,A*%
%TO.N,ENC_A*%
X120000000Y-110000000D03*
D16*
%TO.P,RE1,B*%
%TO.N,ENC_B*%
X115000000Y-110000000D03*
%TO.P,RE1,C*%
%TO.N,GND*%
X117500000Y-110000000D03*
D17*
%TO.P,RE1,MP*%
%TO.N,N/C*%
X123100000Y-117500000D03*
X111900000Y-117500000D03*
D16*
%TO.P,RE1,S1*%
%TO.N,ENC_SW*%
X115000000Y-124500000D03*
%TO.P,RE1,S2*%
%TO.N,GND*%
X120000000Y-124500000D03*
%TD*%
D18*
%TO.N,GND*%
X109741999Y-114120000D03*
X90692000Y-114120000D03*
X124000000Y-92500000D03*
X71642000Y-114120000D03*
X75820000Y-56420000D03*
%TO.N,SW_BACK*%
X58500000Y-116000000D03*
%TO.N,SW_PLAY*%
X77500000Y-116000000D03*
%TO.N,SW_NEXT*%
X96500000Y-116000000D03*
%TO.N,ENC_A*%
X55200000Y-103000000D03*
X55200000Y-95000000D03*
%TO.N,ENC_B*%
X56600000Y-103000000D03*
X56600000Y-95000000D03*
%TO.N,ENC_SW*%
X61000000Y-103000000D03*
X61000000Y-95000000D03*
%TO.N,LCD_RST*%
X59380000Y-91500000D03*
%TD*%
%TO.N,GND*%
D19*
X122450000Y-92500000D02*
X124000000Y-92500000D01*
X74620000Y-56420000D02*
X75820000Y-56420000D01*
%TO.N,+3V3*%
X111350000Y-87000000D02*
X111350000Y-90300000D01*
X117912000Y-90300000D02*
X117912000Y-92500000D01*
X74620000Y-58960000D02*
X111350000Y-58960000D01*
X117912000Y-92500000D02*
X120550000Y-92500000D01*
X111350000Y-58960000D02*
X111350000Y-87000000D01*
X111350000Y-90300000D02*
X117912000Y-90300000D01*
%TO.N,SW_BACK*%
D20*
X58500000Y-116000000D02*
X58500000Y-100400000D01*
X58500000Y-100400000D02*
X51800000Y-100400000D01*
X51800000Y-100400000D02*
X51800000Y-53880000D01*
X51800000Y-53880000D02*
X59380000Y-53880000D01*
%TO.N,SW_PLAY*%
X77500000Y-99200000D02*
X52600000Y-99200000D01*
X52600000Y-56420000D02*
X59380000Y-56420000D01*
X77500000Y-116000000D02*
X77500000Y-99200000D01*
X52600000Y-99200000D02*
X52600000Y-56420000D01*
%TO.N,SW_NEXT*%
X96500000Y-98000000D02*
X53400000Y-98000000D01*
X96500000Y-116000000D02*
X96500000Y-98000000D01*
X53400000Y-58960000D02*
X59380000Y-58960000D01*
X53400000Y-98000000D02*
X53400000Y-58960000D01*
%TO.N,ENC_A*%
X55200000Y-95000000D02*
X55200000Y-64040000D01*
X128000000Y-136400000D02*
X55200000Y-136400000D01*
X55200000Y-136400000D02*
X55200000Y-103000000D01*
X120000000Y-110000000D02*
X128000000Y-110000000D01*
X128000000Y-110000000D02*
X128000000Y-136400000D01*
X55200000Y-64040000D02*
X59380000Y-64040000D01*
%TO.N,ENC_B*%
X125600000Y-113500000D02*
X125600000Y-135200000D01*
X125600000Y-135200000D02*
X56600000Y-135200000D01*
X56600000Y-135200000D02*
X56600000Y-103000000D01*
X115000000Y-113500000D02*
X125600000Y-113500000D01*
X56600000Y-95000000D02*
X56600000Y-66580000D01*
X115000000Y-110000000D02*
X115000000Y-113500000D01*
X56600000Y-66580000D02*
X59380000Y-66580000D01*
%TO.N,ENC_SW*%
X70800000Y-110000000D02*
X61000000Y-110000000D01*
X61000000Y-110000000D02*
X61000000Y-103000000D01*
X61000000Y-95000000D02*
X61000000Y-61500000D01*
X115000000Y-124500000D02*
X115000000Y-134000000D01*
X70800000Y-134000000D02*
X70800000Y-110000000D01*
X115000000Y-134000000D02*
X70800000Y-134000000D01*
X61000000Y-61500000D02*
X59380000Y-61500000D01*
%TO.N,LCD_SCK*%
X108810000Y-66580000D02*
X108810000Y-87000000D01*
X74620000Y-66580000D02*
X108810000Y-66580000D01*
%TO.N,LCD_RST*%
X59380000Y-69120000D02*
X59380000Y-91500000D01*
%TO.N,LCD_BL*%
X96110000Y-93200000D02*
X96110000Y-87000000D01*
X116088000Y-93200000D02*
X96110000Y-93200000D01*
X116088000Y-92500000D02*
X116088000Y-93200000D01*
%TD*%
%TA.AperFunction,Conductor*%
%TO.N,GND*%
G36*
X55925089Y-103316547D02*
G01*
X55930913Y-103316352D01*
X55956256Y-103331459D01*
X55982863Y-103344189D01*
X55988474Y-103350664D01*
X55990929Y-103352128D01*
X55992532Y-103355348D01*
X56003102Y-103367546D01*
X56055884Y-103446540D01*
X56055885Y-103446541D01*
X56055886Y-103446542D01*
X56113182Y-103503838D01*
X56146666Y-103565159D01*
X56149500Y-103591518D01*
X56149500Y-135259309D01*
X56180201Y-135373886D01*
X56239511Y-135476613D01*
X56323387Y-135560489D01*
X56426114Y-135619799D01*
X56540691Y-135650500D01*
X56540694Y-135650500D01*
X125659306Y-135650500D01*
X125659309Y-135650500D01*
X125773886Y-135619799D01*
X125876613Y-135560489D01*
X125960489Y-135476613D01*
X126019799Y-135373886D01*
X126050500Y-135259309D01*
X126050500Y-113440691D01*
X126019799Y-113326114D01*
X125960489Y-113223387D01*
X125876613Y-113139511D01*
X125773886Y-113080201D01*
X125659309Y-113049500D01*
X125659306Y-113049500D01*
X115574500Y-113049500D01*
X115507461Y-113029815D01*
X115461706Y-112977011D01*
X115450500Y-112925500D01*
X115450500Y-111306031D01*
X115470185Y-111238992D01*
X115518205Y-111195546D01*
X115681610Y-111112287D01*
X115847219Y-110991966D01*
X115991966Y-110847219D01*
X116026383Y-110799846D01*
X116081712Y-110757181D01*
X116151325Y-110751200D01*
X116213121Y-110783805D01*
X116227020Y-110799846D01*
X116277339Y-110869104D01*
X116277340Y-110869105D01*
X117017037Y-110129408D01*
X117034075Y-110192993D01*
X117099901Y-110307007D01*
X117192993Y-110400099D01*
X117307007Y-110465925D01*
X117370590Y-110482962D01*
X116630893Y-111222658D01*
X116713828Y-111282914D01*
X116924197Y-111390102D01*
X117148752Y-111463065D01*
X117148751Y-111463065D01*
X117381948Y-111500000D01*
X117618052Y-111500000D01*
X117851247Y-111463065D01*
X118075802Y-111390102D01*
X118286163Y-111282918D01*
X118286169Y-111282914D01*
X118369104Y-111222658D01*
X118369105Y-111222658D01*
X117629408Y-110482962D01*
X117692993Y-110465925D01*
X117807007Y-110400099D01*
X117900099Y-110307007D01*
X117965925Y-110192993D01*
X117982962Y-110129408D01*
X118663181Y-110809627D01*
X118696666Y-110870950D01*
X118699500Y-110897307D01*
X118699500Y-111044856D01*
X118699502Y-111044881D01*
X118702414Y-111069988D01*
X118702415Y-111069991D01*
X118747793Y-111172764D01*
X118747794Y-111172765D01*
X118827235Y-111252206D01*
X118930009Y-111297585D01*
X118955135Y-111300500D01*
X121044864Y-111300499D01*
X121044879Y-111300497D01*
X121044882Y-111300497D01*
X121069987Y-111297586D01*
X121069988Y-111297585D01*
X121069991Y-111297585D01*
X121172765Y-111252206D01*
X121252206Y-111172765D01*
X121297585Y-111069991D01*
X121300500Y-111044865D01*
X121300500Y-110574500D01*
X121320185Y-110507461D01*
X121372989Y-110461706D01*
X121424500Y-110450500D01*
X127425500Y-110450500D01*
X127492539Y-110470185D01*
X127538294Y-110522989D01*
X127549500Y-110574500D01*
X127549500Y-135825500D01*
X127529815Y-135892539D01*
X127477011Y-135938294D01*
X127425500Y-135949500D01*
X55774500Y-135949500D01*
X55707461Y-135929815D01*
X55661706Y-135877011D01*
X55650500Y-135825500D01*
X55650500Y-103591518D01*
X55657377Y-103568096D01*
X55660037Y-103543829D01*
X55667990Y-103531951D01*
X55670185Y-103524479D01*
X55678109Y-103513513D01*
X55682207Y-103508448D01*
X55744114Y-103446542D01*
X55800043Y-103362838D01*
X55803609Y-103358432D01*
X55827875Y-103341657D01*
X55850510Y-103322741D01*
X55856290Y-103322015D01*
X55861083Y-103318702D01*
X55890569Y-103317709D01*
X55919835Y-103314034D01*
X55925089Y-103316547D01*
G37*
%TD.AperFunction*%
%TA.AperFunction,Conductor*%
G36*
X127003736Y-50500726D02*
G01*
X127293797Y-50518271D01*
X127308660Y-50520076D01*
X127590798Y-50571780D01*
X127605335Y-50575363D01*
X127879172Y-50660695D01*
X127893163Y-50666000D01*
X128154743Y-50783727D01*
X128167989Y-50790680D01*
X128413465Y-50939075D01*
X128425776Y-50947573D01*
X128651573Y-51124473D01*
X128662781Y-51134403D01*
X128865596Y-51337218D01*
X128875525Y-51348425D01*
X128995481Y-51501538D01*
X129052422Y-51574217D01*
X129060928Y-51586540D01*
X129209316Y-51832004D01*
X129216275Y-51845263D01*
X129333997Y-52106831D01*
X129339306Y-52120832D01*
X129424635Y-52394663D01*
X129428219Y-52409201D01*
X129479923Y-52691339D01*
X129481728Y-52706204D01*
X129499274Y-52996263D01*
X129499500Y-53003750D01*
X129499500Y-138996249D01*
X129499274Y-139003736D01*
X129481728Y-139293794D01*
X129479923Y-139308659D01*
X129428219Y-139590797D01*
X129424635Y-139605335D01*
X129339304Y-139879174D01*
X129333994Y-139893176D01*
X129216277Y-140154730D01*
X129209319Y-140167987D01*
X129060928Y-140413458D01*
X129052422Y-140425782D01*
X128875525Y-140651573D01*
X128865595Y-140662781D01*
X128662781Y-140865595D01*
X128651573Y-140875525D01*
X128425782Y-141052422D01*
X128413458Y-141060928D01*
X128167987Y-141209319D01*
X128154730Y-141216277D01*
X127893176Y-141333994D01*
X127879174Y-141339304D01*
X127605335Y-141424635D01*
X127590797Y-141428219D01*
X127308659Y-141479923D01*
X127293794Y-141481728D01*
X127003736Y-141499274D01*
X126996249Y-141499500D01*
X53003751Y-141499500D01*
X52996264Y-141499274D01*
X52706204Y-141481728D01*
X52691339Y-141479923D01*
X52409201Y-141428219D01*
X52394663Y-141424635D01*
X52120832Y-141339306D01*
X52106831Y-141333997D01*
X51845263Y-141216275D01*
X51832004Y-141209316D01*
X51586537Y-141060926D01*
X51574217Y-141052422D01*
X51507943Y-141000500D01*
X51348425Y-140875525D01*
X51337218Y-140865596D01*
X51134403Y-140662781D01*
X51124473Y-140651573D01*
X50947573Y-140425776D01*
X50939075Y-140413465D01*
X50790679Y-140167987D01*
X50783727Y-140154743D01*
X50666000Y-139893163D01*
X50660693Y-139879167D01*
X50642835Y-139821860D01*
X50575363Y-139605335D01*
X50571780Y-139590798D01*
X50535186Y-139391114D01*
X50520075Y-139308658D01*
X50518271Y-139293795D01*
X50500726Y-139003736D01*
X50500500Y-138996249D01*
X50500500Y-138368872D01*
X51999500Y-138368872D01*
X51999500Y-138631127D01*
X52026123Y-138833339D01*
X52033730Y-138891116D01*
X52101602Y-139144418D01*
X52101605Y-139144428D01*
X52201953Y-139386690D01*
X52201958Y-139386700D01*
X52333075Y-139613803D01*
X52492718Y-139821851D01*
X52492726Y-139821860D01*
X52678140Y-140007274D01*
X52678148Y-140007281D01*
X52886196Y-140166924D01*
X53113299Y-140298041D01*
X53113309Y-140298046D01*
X53355571Y-140398394D01*
X53355581Y-140398398D01*
X53608884Y-140466270D01*
X53868880Y-140500500D01*
X53868887Y-140500500D01*
X54131113Y-140500500D01*
X54131120Y-140500500D01*
X54391116Y-140466270D01*
X54644419Y-140398398D01*
X54829198Y-140321860D01*
X54886690Y-140298046D01*
X54886691Y-140298045D01*
X54886697Y-140298043D01*
X55113803Y-140166924D01*
X55321851Y-140007282D01*
X55321855Y-140007277D01*
X55321860Y-140007274D01*
X55507274Y-139821860D01*
X55507277Y-139821855D01*
X55507282Y-139821851D01*
X55666924Y-139613803D01*
X55798043Y-139386697D01*
X55898398Y-139144419D01*
X55966270Y-138891116D01*
X56000500Y-138631120D01*
X56000500Y-138368880D01*
X55966270Y-138108884D01*
X55898398Y-137855581D01*
X55898394Y-137855571D01*
X55798046Y-137613309D01*
X55798041Y-137613299D01*
X55666924Y-137386196D01*
X55525551Y-137201957D01*
X55507282Y-137178149D01*
X55507281Y-137178148D01*
X55507274Y-137178140D01*
X55391315Y-137062181D01*
X55357830Y-137000858D01*
X55362814Y-136931166D01*
X55404686Y-136875233D01*
X55470150Y-136850816D01*
X55478996Y-136850500D01*
X109350834Y-136850500D01*
X109417873Y-136870185D01*
X109463628Y-136922989D01*
X109473572Y-136992147D01*
X109444547Y-137055703D01*
X109385769Y-137093477D01*
X109382972Y-137094262D01*
X109355581Y-137101602D01*
X109355579Y-137101602D01*
X109355578Y-137101603D01*
X109355571Y-137101605D01*
X109113309Y-137201953D01*
X109113299Y-137201958D01*
X108886196Y-137333075D01*
X108678148Y-137492718D01*
X108492718Y-137678148D01*
X108333075Y-137886196D01*
X108201958Y-138113299D01*
X108201953Y-138113309D01*
X108101605Y-138355571D01*
X108101602Y-138355581D01*
X108033730Y-138608885D01*
X107999500Y-138868872D01*
X107999500Y-139131127D01*
X108020917Y-139293794D01*
X108033730Y-139391116D01*
X108089210Y-139598170D01*
X108101602Y-139644418D01*
X108101605Y-139644428D01*
X108201953Y-139886690D01*
X108201958Y-139886700D01*
X108333075Y-140113803D01*
X108492718Y-140321851D01*
X108492726Y-140321860D01*
X108678140Y-140507274D01*
X108678148Y-140507281D01*
X108886196Y-140666924D01*
X109113299Y-140798041D01*
X109113309Y-140798046D01*
X109300363Y-140875526D01*
X109355581Y-140898398D01*
X109608884Y-140966270D01*
X109868880Y-141000500D01*
X109868887Y-141000500D01*
X110131113Y-141000500D01*
X110131120Y-141000500D01*
X110391116Y-140966270D01*
X110644419Y-140898398D01*
X110886697Y-140798043D01*
X111113803Y-140666924D01*
X111321851Y-140507282D01*
X111321855Y-140507277D01*
X111321860Y-140507274D01*
X111507274Y-140321860D01*
X111507277Y-140321855D01*
X111507282Y-140321851D01*
X111666924Y-140113803D01*
X111798043Y-139886697D01*
X111898398Y-139644419D01*
X111966270Y-139391116D01*
X112000500Y-139131120D01*
X112000500Y-138868880D01*
X111966270Y-138608884D01*
X111898398Y-138355581D01*
X111898394Y-138355571D01*
X111798046Y-138113309D01*
X111798041Y-138113299D01*
X111666924Y-137886196D01*
X111507281Y-137678148D01*
X111507274Y-137678140D01*
X111321860Y-137492726D01*
X111321851Y-137492718D01*
X111113803Y-137333075D01*
X110886700Y-137201958D01*
X110886690Y-137201953D01*
X110644428Y-137101605D01*
X110644421Y-137101603D01*
X110644422Y-137101603D01*
X110644419Y-137101602D01*
X110617070Y-137094273D01*
X110557412Y-137057910D01*
X110526883Y-136995063D01*
X110535178Y-136925687D01*
X110579663Y-136871809D01*
X110646215Y-136850535D01*
X110649166Y-136850500D01*
X128059306Y-136850500D01*
X128059309Y-136850500D01*
X128173886Y-136819799D01*
X128276613Y-136760489D01*
X128360489Y-136676613D01*
X128419799Y-136573886D01*
X128450500Y-136459309D01*
X128450500Y-109940691D01*
X128419799Y-109826114D01*
X128360489Y-109723387D01*
X128276613Y-109639511D01*
X128173886Y-109580201D01*
X128059309Y-109549500D01*
X128059306Y-109549500D01*
X121424499Y-109549500D01*
X121357460Y-109529815D01*
X121311705Y-109477011D01*
X121300499Y-109425500D01*
X121300499Y-108955143D01*
X121300499Y-108955136D01*
X121300497Y-108955117D01*
X121297586Y-108930012D01*
X121297585Y-108930010D01*
X121297585Y-108930009D01*
X121252206Y-108827235D01*
X121172765Y-108747794D01*
X121135915Y-108731523D01*
X121069992Y-108702415D01*
X121044865Y-108699500D01*
X118955143Y-108699500D01*
X118955117Y-108699502D01*
X118930012Y-108702413D01*
X118930008Y-108702415D01*
X118827235Y-108747793D01*
X118747794Y-108827234D01*
X118702415Y-108930006D01*
X118702415Y-108930008D01*
X118699500Y-108955131D01*
X118699500Y-109102691D01*
X118679815Y-109169730D01*
X118663181Y-109190372D01*
X117982962Y-109870590D01*
X117965925Y-109807007D01*
X117900099Y-109692993D01*
X117807007Y-109599901D01*
X117692993Y-109534075D01*
X117629409Y-109517037D01*
X118369105Y-108777340D01*
X118369104Y-108777338D01*
X118286174Y-108717087D01*
X118075802Y-108609897D01*
X117851247Y-108536934D01*
X117851248Y-108536934D01*
X117618052Y-108500000D01*
X117381948Y-108500000D01*
X117148752Y-108536934D01*
X116924197Y-108609897D01*
X116713830Y-108717084D01*
X116630894Y-108777340D01*
X117370591Y-109517037D01*
X117307007Y-109534075D01*
X117192993Y-109599901D01*
X117099901Y-109692993D01*
X117034075Y-109807007D01*
X117017037Y-109870591D01*
X116277340Y-109130894D01*
X116277339Y-109130894D01*
X116227020Y-109200153D01*
X116171690Y-109242819D01*
X116102077Y-109248798D01*
X116040282Y-109216192D01*
X116026383Y-109200152D01*
X115991969Y-109152784D01*
X115847219Y-109008034D01*
X115774420Y-108955143D01*
X115732817Y-108924917D01*
X115732816Y-108924915D01*
X115681613Y-108887715D01*
X115681612Y-108887714D01*
X115681610Y-108887713D01*
X115624653Y-108858691D01*
X115499223Y-108794781D01*
X115304534Y-108731522D01*
X115120756Y-108702415D01*
X115102352Y-108699500D01*
X114897648Y-108699500D01*
X114879244Y-108702415D01*
X114695465Y-108731522D01*
X114500776Y-108794781D01*
X114318386Y-108887715D01*
X114152786Y-109008028D01*
X114008028Y-109152786D01*
X113887715Y-109318386D01*
X113794781Y-109500776D01*
X113731522Y-109695465D01*
X113699500Y-109897648D01*
X113699500Y-110102351D01*
X113731522Y-110304534D01*
X113794781Y-110499223D01*
X113887715Y-110681613D01*
X114008028Y-110847213D01*
X114152786Y-110991971D01*
X114318385Y-111112284D01*
X114318387Y-111112285D01*
X114318390Y-111112287D01*
X114437083Y-111172764D01*
X114481795Y-111195546D01*
X114532591Y-111243521D01*
X114549500Y-111306031D01*
X114549500Y-113559309D01*
X114580201Y-113673886D01*
X114639511Y-113776613D01*
X114723387Y-113860489D01*
X114826114Y-113919799D01*
X114940691Y-113950500D01*
X115059309Y-113950500D01*
X125025500Y-113950500D01*
X125092539Y-113970185D01*
X125138294Y-114022989D01*
X125149500Y-114074500D01*
X125149500Y-134625500D01*
X125129815Y-134692539D01*
X125077011Y-134738294D01*
X125025500Y-134749500D01*
X57174500Y-134749500D01*
X57107461Y-134729815D01*
X57061706Y-134677011D01*
X57050500Y-134625500D01*
X57050500Y-121899616D01*
X57644500Y-121899616D01*
X57644500Y-122100384D01*
X57649953Y-122134811D01*
X57675907Y-122298680D01*
X57737949Y-122489626D01*
X57827609Y-122665591D01*
X57829095Y-122668508D01*
X57947103Y-122830932D01*
X58089068Y-122972897D01*
X58251492Y-123090905D01*
X58288766Y-123109897D01*
X58430373Y-123182050D01*
X58430375Y-123182050D01*
X58430378Y-123182052D01*
X58621320Y-123244093D01*
X58819616Y-123275500D01*
X58819617Y-123275500D01*
X59020383Y-123275500D01*
X59020384Y-123275500D01*
X59218680Y-123244093D01*
X59409622Y-123182052D01*
X59588508Y-123090905D01*
X59750932Y-122972897D01*
X59892897Y-122830932D01*
X60010905Y-122668508D01*
X60102052Y-122489622D01*
X60164093Y-122298680D01*
X60195500Y-122100384D01*
X60195500Y-121899616D01*
X60190047Y-121865186D01*
X61599500Y-121865186D01*
X61599500Y-122134813D01*
X61629686Y-122402719D01*
X61629688Y-122402731D01*
X61689684Y-122665594D01*
X61689687Y-122665602D01*
X61778734Y-122920082D01*
X61895714Y-123162994D01*
X61895716Y-123162997D01*
X62039162Y-123391289D01*
X62207266Y-123602085D01*
X62397915Y-123792734D01*
X62608711Y-123960838D01*
X62837003Y-124104284D01*
X63079921Y-124221267D01*
X63271049Y-124288145D01*
X63334397Y-124310312D01*
X63334405Y-124310315D01*
X63334408Y-124310315D01*
X63334409Y-124310316D01*
X63597268Y-124370312D01*
X63865187Y-124400499D01*
X63865188Y-124400500D01*
X63865191Y-124400500D01*
X64134812Y-124400500D01*
X64134812Y-124400499D01*
X64402732Y-124370312D01*
X64665591Y-124310316D01*
X64920079Y-124221267D01*
X65162997Y-124104284D01*
X65391289Y-123960838D01*
X65602085Y-123792734D01*
X65792734Y-123602085D01*
X65960838Y-123391289D01*
X66104284Y-123162997D01*
X66221267Y-122920079D01*
X66310316Y-122665591D01*
X66370312Y-122402732D01*
X66400500Y-122134809D01*
X66400500Y-121865191D01*
X66370312Y-121597268D01*
X66310316Y-121334409D01*
X66304718Y-121318412D01*
X66285229Y-121262713D01*
X66221267Y-121079921D01*
X66104284Y-120837003D01*
X65960838Y-120608711D01*
X65792734Y-120397915D01*
X65602085Y-120207266D01*
X65391289Y-120039162D01*
X65162997Y-119895716D01*
X65162994Y-119895714D01*
X64920082Y-119778734D01*
X64665602Y-119689687D01*
X64665594Y-119689684D01*
X64468446Y-119644687D01*
X64402732Y-119629688D01*
X64402728Y-119629687D01*
X64402719Y-119629686D01*
X64134813Y-119599500D01*
X64134809Y-119599500D01*
X63865191Y-119599500D01*
X63865186Y-119599500D01*
X63597280Y-119629686D01*
X63597268Y-119629688D01*
X63334405Y-119689684D01*
X63334397Y-119689687D01*
X63079917Y-119778734D01*
X62837005Y-119895714D01*
X62608712Y-120039161D01*
X62397915Y-120207265D01*
X62207265Y-120397915D01*
X62039159Y-120608714D01*
X62005541Y-120662217D01*
X62005538Y-120662219D01*
X62005536Y-120662225D01*
X62003655Y-120665216D01*
X62003656Y-120665217D01*
X61895714Y-120837005D01*
X61778734Y-121079917D01*
X61689687Y-121334397D01*
X61689684Y-121334405D01*
X61629688Y-121597268D01*
X61629686Y-121597280D01*
X61599500Y-121865186D01*
X60190047Y-121865186D01*
X60164093Y-121701320D01*
X60114216Y-121547817D01*
X60112222Y-121477977D01*
X60148302Y-121418144D01*
X60211003Y-121387316D01*
X60232148Y-121385500D01*
X60316197Y-121385500D01*
X60316204Y-121385500D01*
X60566452Y-121352554D01*
X60810260Y-121287226D01*
X61043454Y-121190633D01*
X61235215Y-121079921D01*
X61262041Y-121064433D01*
X61262045Y-121064431D01*
X61310691Y-121027103D01*
X61462294Y-120910773D01*
X61462298Y-120910768D01*
X61462303Y-120910765D01*
X61640765Y-120732303D01*
X61640768Y-120732298D01*
X61640773Y-120732294D01*
X61794430Y-120532046D01*
X61920633Y-120313454D01*
X62017226Y-120080260D01*
X62082554Y-119836452D01*
X62115500Y-119586204D01*
X62115500Y-119333796D01*
X62082554Y-119083548D01*
X62017226Y-118839740D01*
X61938892Y-118650627D01*
X61920636Y-118606552D01*
X61920627Y-118606535D01*
X61794433Y-118387958D01*
X61794431Y-118387954D01*
X61644300Y-118192303D01*
X61640773Y-118187706D01*
X61640772Y-118187705D01*
X61640765Y-118187697D01*
X61462303Y-118009235D01*
X61462294Y-118009227D01*
X61262045Y-117855568D01*
X61262041Y-117855566D01*
X61043464Y-117729372D01*
X61043447Y-117729363D01*
X60810258Y-117632773D01*
X60655690Y-117591357D01*
X60566452Y-117567446D01*
X60535171Y-117563327D01*
X60316211Y-117534500D01*
X60316204Y-117534500D01*
X60063796Y-117534500D01*
X60063788Y-117534500D01*
X59813548Y-117567446D01*
X59569741Y-117632773D01*
X59336552Y-117729363D01*
X59336535Y-117729372D01*
X59117958Y-117855566D01*
X59117954Y-117855568D01*
X58917705Y-118009227D01*
X58739227Y-118187705D01*
X58585568Y-118387954D01*
X58585566Y-118387958D01*
X58459372Y-118606535D01*
X58459363Y-118606552D01*
X58362773Y-118839741D01*
X58297446Y-119083548D01*
X58264500Y-119333788D01*
X58264500Y-119586211D01*
X58297446Y-119836451D01*
X58362773Y-120080258D01*
X58459363Y-120313447D01*
X58459372Y-120313464D01*
X58585566Y-120532041D01*
X58585567Y-120532043D01*
X58623388Y-120581332D01*
X58648582Y-120646501D01*
X58634543Y-120714946D01*
X58585729Y-120764936D01*
X58563332Y-120774748D01*
X58534096Y-120784247D01*
X58430373Y-120817949D01*
X58251491Y-120909095D01*
X58158822Y-120976423D01*
X58089068Y-121027103D01*
X58089066Y-121027105D01*
X58089065Y-121027105D01*
X57947105Y-121169065D01*
X57947105Y-121169066D01*
X57947103Y-121169068D01*
X57931435Y-121190633D01*
X57829095Y-121331491D01*
X57737949Y-121510373D01*
X57675907Y-121701319D01*
X57675907Y-121701320D01*
X57644500Y-121899616D01*
X57050500Y-121899616D01*
X57050500Y-116793788D01*
X64614500Y-116793788D01*
X64614500Y-117046211D01*
X64647446Y-117296451D01*
X64712773Y-117540258D01*
X64809363Y-117773447D01*
X64809372Y-117773464D01*
X64935566Y-117992041D01*
X64935568Y-117992045D01*
X65089227Y-118192294D01*
X65089235Y-118192303D01*
X65267697Y-118370765D01*
X65267705Y-118370772D01*
X65467954Y-118524431D01*
X65467958Y-118524433D01*
X65686535Y-118650627D01*
X65686552Y-118650636D01*
X65815758Y-118704154D01*
X65919740Y-118747226D01*
X66163548Y-118812554D01*
X66413796Y-118845500D01*
X66413803Y-118845500D01*
X66666197Y-118845500D01*
X66666204Y-118845500D01*
X66916452Y-118812554D01*
X67160260Y-118747226D01*
X67393454Y-118650633D01*
X67612041Y-118524433D01*
X67612045Y-118524431D01*
X67649842Y-118495427D01*
X67812294Y-118370773D01*
X67812298Y-118370768D01*
X67812303Y-118370765D01*
X67990765Y-118192303D01*
X67990768Y-118192298D01*
X67990773Y-118192294D01*
X68131240Y-118009235D01*
X68144431Y-117992045D01*
X68144433Y-117992041D01*
X68270627Y-117773464D01*
X68270633Y-117773454D01*
X68367226Y-117540260D01*
X68432554Y-117296452D01*
X68465500Y-117046204D01*
X68465500Y-116793796D01*
X68432554Y-116543548D01*
X68367226Y-116299740D01*
X68324154Y-116195758D01*
X68270636Y-116066552D01*
X68270627Y-116066535D01*
X68144433Y-115847958D01*
X68144431Y-115847954D01*
X68006485Y-115668182D01*
X67990773Y-115647706D01*
X67990772Y-115647705D01*
X67990765Y-115647697D01*
X67812303Y-115469235D01*
X67812294Y-115469227D01*
X67612045Y-115315568D01*
X67612041Y-115315566D01*
X67393464Y-115189372D01*
X67393447Y-115189363D01*
X67160258Y-115092773D01*
X67005690Y-115051357D01*
X66916452Y-115027446D01*
X66885171Y-115023327D01*
X66666211Y-114994500D01*
X66666204Y-114994500D01*
X66413796Y-114994500D01*
X66413788Y-114994500D01*
X66163548Y-115027446D01*
X65919741Y-115092773D01*
X65686552Y-115189363D01*
X65686535Y-115189372D01*
X65467958Y-115315566D01*
X65467954Y-115315568D01*
X65267705Y-115469227D01*
X65089227Y-115647705D01*
X64935568Y-115847954D01*
X64935566Y-115847958D01*
X64809372Y-116066535D01*
X64809363Y-116066552D01*
X64712773Y-116299741D01*
X64647446Y-116543548D01*
X64614500Y-116793788D01*
X57050500Y-116793788D01*
X57050500Y-103591518D01*
X57070185Y-103524479D01*
X57086814Y-103503841D01*
X57144114Y-103446542D01*
X57220775Y-103331811D01*
X57273580Y-103204328D01*
X57282389Y-103160041D01*
X57300500Y-103068995D01*
X57300500Y-102931004D01*
X57273581Y-102795677D01*
X57273580Y-102795676D01*
X57273580Y-102795672D01*
X57228138Y-102685965D01*
X57220778Y-102668195D01*
X57220771Y-102668182D01*
X57144114Y-102553458D01*
X57144111Y-102553454D01*
X57046545Y-102455888D01*
X57046541Y-102455885D01*
X56931817Y-102379228D01*
X56931804Y-102379221D01*
X56804332Y-102326421D01*
X56804322Y-102326418D01*
X56668995Y-102299500D01*
X56668993Y-102299500D01*
X56531007Y-102299500D01*
X56531005Y-102299500D01*
X56395677Y-102326418D01*
X56395667Y-102326421D01*
X56268195Y-102379221D01*
X56268182Y-102379228D01*
X56153458Y-102455885D01*
X56153454Y-102455888D01*
X56055888Y-102553454D01*
X56055885Y-102553458D01*
X56003102Y-102632453D01*
X55949489Y-102677258D01*
X55880164Y-102685965D01*
X55817137Y-102655810D01*
X55796898Y-102632453D01*
X55744114Y-102553458D01*
X55744111Y-102553454D01*
X55646545Y-102455888D01*
X55646541Y-102455885D01*
X55531817Y-102379228D01*
X55531804Y-102379221D01*
X55404332Y-102326421D01*
X55404322Y-102326418D01*
X55268995Y-102299500D01*
X55268993Y-102299500D01*
X55131007Y-102299500D01*
X55131005Y-102299500D01*
X54995677Y-102326418D01*
X54995667Y-102326421D01*
X54868195Y-102379221D01*
X54868182Y-102379228D01*
X54753458Y-102455885D01*
X54753454Y-102455888D01*
X54655888Y-102553454D01*
X54655885Y-102553458D01*
X54579228Y-102668182D01*
X54579221Y-102668195D01*
X54526421Y-102795667D01*
X54526418Y-102795677D01*
X54499500Y-102931004D01*
X54499500Y-102931007D01*
X54499500Y-103068993D01*
X54499500Y-103068995D01*
X54499499Y-103068995D01*
X54526418Y-103204322D01*
X54526421Y-103204332D01*
X54579221Y-103331804D01*
X54579228Y-103331817D01*
X54655884Y-103446540D01*
X54655885Y-103446541D01*
X54655886Y-103446542D01*
X54713182Y-103503838D01*
X54746666Y-103565159D01*
X54749500Y-103591518D01*
X54749500Y-136467436D01*
X54746146Y-136467436D01*
X54737729Y-136521124D01*
X54691308Y-136573343D01*
X54624024Y-136592175D01*
X54593507Y-136587960D01*
X54391116Y-136533730D01*
X54333339Y-136526123D01*
X54131127Y-136499500D01*
X54131120Y-136499500D01*
X53868880Y-136499500D01*
X53868872Y-136499500D01*
X53637772Y-136529926D01*
X53608884Y-136533730D01*
X53406494Y-136587960D01*
X53355581Y-136601602D01*
X53355571Y-136601605D01*
X53113309Y-136701953D01*
X53113299Y-136701958D01*
X52886196Y-136833075D01*
X52678148Y-136992718D01*
X52492718Y-137178148D01*
X52333075Y-137386196D01*
X52201958Y-137613299D01*
X52201953Y-137613309D01*
X52101605Y-137855571D01*
X52101602Y-137855581D01*
X52033730Y-138108884D01*
X52029926Y-138137772D01*
X51999500Y-138368872D01*
X50500500Y-138368872D01*
X50500500Y-53820691D01*
X51349500Y-53820691D01*
X51349500Y-100459309D01*
X51380201Y-100573886D01*
X51439511Y-100676613D01*
X51523387Y-100760489D01*
X51626114Y-100819799D01*
X51740691Y-100850500D01*
X51859309Y-100850500D01*
X57925500Y-100850500D01*
X57992539Y-100870185D01*
X58038294Y-100922989D01*
X58049500Y-100974500D01*
X58049500Y-115408481D01*
X58029815Y-115475520D01*
X58013181Y-115496162D01*
X57955888Y-115553454D01*
X57955885Y-115553458D01*
X57879228Y-115668182D01*
X57879221Y-115668195D01*
X57826421Y-115795667D01*
X57826418Y-115795677D01*
X57799500Y-115931004D01*
X57799500Y-115931007D01*
X57799500Y-116068993D01*
X57799500Y-116068995D01*
X57799499Y-116068995D01*
X57826418Y-116204322D01*
X57826421Y-116204332D01*
X57879221Y-116331804D01*
X57879228Y-116331817D01*
X57955885Y-116446541D01*
X57955888Y-116446545D01*
X58053454Y-116544111D01*
X58053458Y-116544114D01*
X58168182Y-116620771D01*
X58168195Y-116620778D01*
X58295667Y-116673578D01*
X58295672Y-116673580D01*
X58295676Y-116673580D01*
X58295677Y-116673581D01*
X58431004Y-116700500D01*
X58431007Y-116700500D01*
X58568995Y-116700500D01*
X58660041Y-116682389D01*
X58704328Y-116673580D01*
X58831811Y-116620775D01*
X58946542Y-116544114D01*
X59044114Y-116446542D01*
X59120775Y-116331811D01*
X59173580Y-116204328D01*
X59200500Y-116068993D01*
X59200500Y-115931007D01*
X59200500Y-115931004D01*
X59173581Y-115795677D01*
X59173580Y-115795676D01*
X59173580Y-115795672D01*
X59145232Y-115727234D01*
X59120778Y-115668195D01*
X59120771Y-115668182D01*
X59044114Y-115553458D01*
X59044111Y-115553454D01*
X58986819Y-115496162D01*
X58953334Y-115434839D01*
X58950500Y-115408481D01*
X58950500Y-103068995D01*
X60299499Y-103068995D01*
X60326418Y-103204322D01*
X60326421Y-103204332D01*
X60379221Y-103331804D01*
X60379228Y-103331817D01*
X60455884Y-103446540D01*
X60455885Y-103446541D01*
X60455886Y-103446542D01*
X60513182Y-103503838D01*
X60546666Y-103565159D01*
X60549500Y-103591518D01*
X60549500Y-110059309D01*
X60580201Y-110173886D01*
X60639511Y-110276613D01*
X60723387Y-110360489D01*
X60826114Y-110419799D01*
X60940691Y-110450500D01*
X61059309Y-110450500D01*
X70225500Y-110450500D01*
X70292539Y-110470185D01*
X70338294Y-110522989D01*
X70349500Y-110574500D01*
X70349500Y-121195674D01*
X70329815Y-121262713D01*
X70277011Y-121308468D01*
X70207853Y-121318412D01*
X70144297Y-121289387D01*
X70125182Y-121268560D01*
X70120934Y-121262713D01*
X70052897Y-121169068D01*
X69910932Y-121027103D01*
X69748508Y-120909095D01*
X69569626Y-120817949D01*
X69378680Y-120755907D01*
X69180384Y-120724500D01*
X68979616Y-120724500D01*
X68930407Y-120732294D01*
X68781319Y-120755907D01*
X68590373Y-120817949D01*
X68411491Y-120909095D01*
X68318822Y-120976423D01*
X68249068Y-121027103D01*
X68249066Y-121027105D01*
X68249065Y-121027105D01*
X68107105Y-121169065D01*
X68107105Y-121169066D01*
X68107103Y-121169068D01*
X68091435Y-121190633D01*
X67989095Y-121331491D01*
X67897949Y-121510373D01*
X67835907Y-121701319D01*
X67835907Y-121701320D01*
X67804500Y-121899616D01*
X67804500Y-122100384D01*
X67809953Y-122134811D01*
X67835907Y-122298680D01*
X67897949Y-122489626D01*
X67987609Y-122665591D01*
X67989095Y-122668508D01*
X68107103Y-122830932D01*
X68249068Y-122972897D01*
X68411492Y-123090905D01*
X68448766Y-123109897D01*
X68590373Y-123182050D01*
X68590375Y-123182050D01*
X68590378Y-123182052D01*
X68781320Y-123244093D01*
X68979616Y-123275500D01*
X68979617Y-123275500D01*
X69180383Y-123275500D01*
X69180384Y-123275500D01*
X69378680Y-123244093D01*
X69569622Y-123182052D01*
X69748508Y-123090905D01*
X69910932Y-122972897D01*
X70052897Y-122830932D01*
X70125182Y-122731439D01*
X70180512Y-122688774D01*
X70250125Y-122682795D01*
X70311920Y-122715401D01*
X70346277Y-122776239D01*
X70349500Y-122804325D01*
X70349500Y-133940691D01*
X70349500Y-134059309D01*
X70380201Y-134173886D01*
X70439511Y-134276613D01*
X70523387Y-134360489D01*
X70626114Y-134419799D01*
X70740691Y-134450500D01*
X70740694Y-134450500D01*
X115059306Y-134450500D01*
X115059309Y-134450500D01*
X115173886Y-134419799D01*
X115276613Y-134360489D01*
X115360489Y-134276613D01*
X115419799Y-134173886D01*
X115450500Y-134059309D01*
X115450500Y-125806031D01*
X115470185Y-125738992D01*
X115518205Y-125695546D01*
X115681610Y-125612287D01*
X115847219Y-125491966D01*
X115991966Y-125347219D01*
X115991968Y-125347215D01*
X115991971Y-125347213D01*
X116044732Y-125274590D01*
X116112287Y-125181610D01*
X116205220Y-124999219D01*
X116268477Y-124804534D01*
X116300500Y-124602352D01*
X116300500Y-124397648D01*
X116298013Y-124381947D01*
X118500000Y-124381947D01*
X118500000Y-124618052D01*
X118536934Y-124851247D01*
X118609897Y-125075802D01*
X118717087Y-125286174D01*
X118777338Y-125369104D01*
X118777340Y-125369105D01*
X119517037Y-124629408D01*
X119534075Y-124692993D01*
X119599901Y-124807007D01*
X119692993Y-124900099D01*
X119807007Y-124965925D01*
X119870590Y-124982962D01*
X119130893Y-125722658D01*
X119213828Y-125782914D01*
X119424197Y-125890102D01*
X119648752Y-125963065D01*
X119648751Y-125963065D01*
X119881948Y-126000000D01*
X120118052Y-126000000D01*
X120351247Y-125963065D01*
X120575802Y-125890102D01*
X120786163Y-125782918D01*
X120786169Y-125782914D01*
X120869104Y-125722658D01*
X120869105Y-125722658D01*
X120129408Y-124982962D01*
X120192993Y-124965925D01*
X120307007Y-124900099D01*
X120400099Y-124807007D01*
X120465925Y-124692993D01*
X120482962Y-124629409D01*
X121222658Y-125369105D01*
X121222658Y-125369104D01*
X121282914Y-125286169D01*
X121282918Y-125286163D01*
X121390102Y-125075802D01*
X121463065Y-124851247D01*
X121500000Y-124618052D01*
X121500000Y-124381947D01*
X121463065Y-124148752D01*
X121390102Y-123924197D01*
X121282914Y-123713828D01*
X121222658Y-123630894D01*
X121222658Y-123630893D01*
X120482962Y-124370590D01*
X120465925Y-124307007D01*
X120400099Y-124192993D01*
X120307007Y-124099901D01*
X120192993Y-124034075D01*
X120129409Y-124017037D01*
X120869105Y-123277340D01*
X120869104Y-123277338D01*
X120786174Y-123217087D01*
X120575802Y-123109897D01*
X120351247Y-123036934D01*
X120351248Y-123036934D01*
X120118052Y-123000000D01*
X119881948Y-123000000D01*
X119648752Y-123036934D01*
X119424197Y-123109897D01*
X119213830Y-123217084D01*
X119130894Y-123277340D01*
X119870591Y-124017037D01*
X119807007Y-124034075D01*
X119692993Y-124099901D01*
X119599901Y-124192993D01*
X119534075Y-124307007D01*
X119517037Y-124370591D01*
X118777340Y-123630894D01*
X118717084Y-123713830D01*
X118609897Y-123924197D01*
X118536934Y-124148752D01*
X118500000Y-124381947D01*
X116298013Y-124381947D01*
X116268477Y-124195465D01*
X116205218Y-124000776D01*
X116166198Y-123924197D01*
X116112287Y-123818390D01*
X116093647Y-123792734D01*
X115991971Y-123652786D01*
X115847219Y-123508034D01*
X115847211Y-123508028D01*
X115732817Y-123424917D01*
X115732816Y-123424915D01*
X115681613Y-123387715D01*
X115681612Y-123387714D01*
X115681610Y-123387713D01*
X115624653Y-123358691D01*
X115499223Y-123294781D01*
X115304534Y-123231522D01*
X115129995Y-123203878D01*
X115102352Y-123199500D01*
X114897648Y-123199500D01*
X114873329Y-123203351D01*
X114695465Y-123231522D01*
X114500776Y-123294781D01*
X114318386Y-123387715D01*
X114152786Y-123508028D01*
X114008028Y-123652786D01*
X113887715Y-123818386D01*
X113794781Y-124000776D01*
X113731522Y-124195465D01*
X113699500Y-124397648D01*
X113699500Y-124602351D01*
X113731522Y-124804534D01*
X113794781Y-124999223D01*
X113887715Y-125181613D01*
X114008028Y-125347213D01*
X114152786Y-125491971D01*
X114318385Y-125612284D01*
X114318387Y-125612285D01*
X114318390Y-125612287D01*
X114481795Y-125695546D01*
X114532591Y-125743521D01*
X114549500Y-125806031D01*
X114549500Y-133425500D01*
X114529815Y-133492539D01*
X114477011Y-133538294D01*
X114425500Y-133549500D01*
X71374500Y-133549500D01*
X71307461Y-133529815D01*
X71261706Y-133477011D01*
X71250500Y-133425500D01*
X71250500Y-121899616D01*
X76694500Y-121899616D01*
X76694500Y-122100384D01*
X76699953Y-122134811D01*
X76725907Y-122298680D01*
X76787949Y-122489626D01*
X76877609Y-122665591D01*
X76879095Y-122668508D01*
X76997103Y-122830932D01*
X77139068Y-122972897D01*
X77301492Y-123090905D01*
X77338766Y-123109897D01*
X77480373Y-123182050D01*
X77480375Y-123182050D01*
X77480378Y-123182052D01*
X77671320Y-123244093D01*
X77869616Y-123275500D01*
X77869617Y-123275500D01*
X78070383Y-123275500D01*
X78070384Y-123275500D01*
X78268680Y-123244093D01*
X78459622Y-123182052D01*
X78638508Y-123090905D01*
X78800932Y-122972897D01*
X78942897Y-122830932D01*
X79060905Y-122668508D01*
X79152052Y-122489622D01*
X79214093Y-122298680D01*
X79245500Y-122100384D01*
X79245500Y-121899616D01*
X79240047Y-121865186D01*
X80649500Y-121865186D01*
X80649500Y-122134813D01*
X80679686Y-122402719D01*
X80679688Y-122402731D01*
X80739684Y-122665594D01*
X80739687Y-122665602D01*
X80828734Y-122920082D01*
X80945714Y-123162994D01*
X80945716Y-123162997D01*
X81089162Y-123391289D01*
X81257266Y-123602085D01*
X81447915Y-123792734D01*
X81658711Y-123960838D01*
X81887003Y-124104284D01*
X82129921Y-124221267D01*
X82321049Y-124288145D01*
X82384397Y-124310312D01*
X82384405Y-124310315D01*
X82384408Y-124310315D01*
X82384409Y-124310316D01*
X82647268Y-124370312D01*
X82915187Y-124400499D01*
X82915188Y-124400500D01*
X82915191Y-124400500D01*
X83184812Y-124400500D01*
X83184812Y-124400499D01*
X83452732Y-124370312D01*
X83715591Y-124310316D01*
X83970079Y-124221267D01*
X84212997Y-124104284D01*
X84441289Y-123960838D01*
X84652085Y-123792734D01*
X84842734Y-123602085D01*
X85010838Y-123391289D01*
X85154284Y-123162997D01*
X85271267Y-122920079D01*
X85360316Y-122665591D01*
X85420312Y-122402732D01*
X85450500Y-122134809D01*
X85450500Y-121899616D01*
X86854500Y-121899616D01*
X86854500Y-122100384D01*
X86859953Y-122134811D01*
X86885907Y-122298680D01*
X86947949Y-122489626D01*
X87037609Y-122665591D01*
X87039095Y-122668508D01*
X87157103Y-122830932D01*
X87299068Y-122972897D01*
X87461492Y-123090905D01*
X87498766Y-123109897D01*
X87640373Y-123182050D01*
X87640375Y-123182050D01*
X87640378Y-123182052D01*
X87831320Y-123244093D01*
X88029616Y-123275500D01*
X88029617Y-123275500D01*
X88230383Y-123275500D01*
X88230384Y-123275500D01*
X88428680Y-123244093D01*
X88619622Y-123182052D01*
X88798508Y-123090905D01*
X88960932Y-122972897D01*
X89102897Y-122830932D01*
X89220905Y-122668508D01*
X89312052Y-122489622D01*
X89374093Y-122298680D01*
X89405500Y-122100384D01*
X89405500Y-121899616D01*
X95744500Y-121899616D01*
X95744500Y-122100384D01*
X95749953Y-122134811D01*
X95775907Y-122298680D01*
X95837949Y-122489626D01*
X95927609Y-122665591D01*
X95929095Y-122668508D01*
X96047103Y-122830932D01*
X96189068Y-122972897D01*
X96351492Y-123090905D01*
X96388766Y-123109897D01*
X96530373Y-123182050D01*
X96530375Y-123182050D01*
X96530378Y-123182052D01*
X96721320Y-123244093D01*
X96919616Y-123275500D01*
X96919617Y-123275500D01*
X97120383Y-123275500D01*
X97120384Y-123275500D01*
X97318680Y-123244093D01*
X97509622Y-123182052D01*
X97688508Y-123090905D01*
X97850932Y-122972897D01*
X97992897Y-122830932D01*
X98110905Y-122668508D01*
X98202052Y-122489622D01*
X98264093Y-122298680D01*
X98295500Y-122100384D01*
X98295500Y-121899616D01*
X98290047Y-121865186D01*
X99699500Y-121865186D01*
X99699500Y-122134813D01*
X99729686Y-122402719D01*
X99729688Y-122402731D01*
X99789684Y-122665594D01*
X99789687Y-122665602D01*
X99878734Y-122920082D01*
X99995714Y-123162994D01*
X99995716Y-123162997D01*
X100139162Y-123391289D01*
X100307266Y-123602085D01*
X100497915Y-123792734D01*
X100708711Y-123960838D01*
X100937003Y-124104284D01*
X101179921Y-124221267D01*
X101371049Y-124288145D01*
X101434397Y-124310312D01*
X101434405Y-124310315D01*
X101434408Y-124310315D01*
X101434409Y-124310316D01*
X101697268Y-124370312D01*
X101965187Y-124400499D01*
X101965188Y-124400500D01*
X101965191Y-124400500D01*
X102234812Y-124400500D01*
X102234812Y-124400499D01*
X102502732Y-124370312D01*
X102765591Y-124310316D01*
X103020079Y-124221267D01*
X103262997Y-124104284D01*
X103491289Y-123960838D01*
X103702085Y-123792734D01*
X103892734Y-123602085D01*
X104060838Y-123391289D01*
X104204284Y-123162997D01*
X104321267Y-122920079D01*
X104410316Y-122665591D01*
X104470312Y-122402732D01*
X104500500Y-122134809D01*
X104500500Y-121899616D01*
X105904500Y-121899616D01*
X105904500Y-122100384D01*
X105909953Y-122134811D01*
X105935907Y-122298680D01*
X105997949Y-122489626D01*
X106087609Y-122665591D01*
X106089095Y-122668508D01*
X106207103Y-122830932D01*
X106349068Y-122972897D01*
X106511492Y-123090905D01*
X106548766Y-123109897D01*
X106690373Y-123182050D01*
X106690375Y-123182050D01*
X106690378Y-123182052D01*
X106881320Y-123244093D01*
X107079616Y-123275500D01*
X107079617Y-123275500D01*
X107280383Y-123275500D01*
X107280384Y-123275500D01*
X107478680Y-123244093D01*
X107669622Y-123182052D01*
X107848508Y-123090905D01*
X108010932Y-122972897D01*
X108152897Y-122830932D01*
X108270905Y-122668508D01*
X108362052Y-122489622D01*
X108424093Y-122298680D01*
X108455500Y-122100384D01*
X108455500Y-121899616D01*
X108424093Y-121701320D01*
X108362052Y-121510378D01*
X108362050Y-121510375D01*
X108362050Y-121510373D01*
X108296599Y-121381919D01*
X108270905Y-121331492D01*
X108152897Y-121169068D01*
X108010932Y-121027103D01*
X107848508Y-120909095D01*
X107669626Y-120817949D01*
X107478680Y-120755907D01*
X107280384Y-120724500D01*
X107079616Y-120724500D01*
X107030407Y-120732294D01*
X106881319Y-120755907D01*
X106690373Y-120817949D01*
X106511491Y-120909095D01*
X106418822Y-120976423D01*
X106349068Y-121027103D01*
X106349066Y-121027105D01*
X106349065Y-121027105D01*
X106207105Y-121169065D01*
X106207105Y-121169066D01*
X106207103Y-121169068D01*
X106191435Y-121190633D01*
X106089095Y-121331491D01*
X105997949Y-121510373D01*
X105935907Y-121701319D01*
X105935907Y-121701320D01*
X105904500Y-121899616D01*
X104500500Y-121899616D01*
X104500500Y-121865191D01*
X104470312Y-121597268D01*
X104410316Y-121334409D01*
X104404718Y-121318412D01*
X104385229Y-121262713D01*
X104321267Y-121079921D01*
X104204284Y-120837003D01*
X104060838Y-120608711D01*
X103892734Y-120397915D01*
X103702085Y-120207266D01*
X103491289Y-120039162D01*
X103262997Y-119895716D01*
X103262994Y-119895714D01*
X103020082Y-119778734D01*
X102765602Y-119689687D01*
X102765594Y-119689684D01*
X102568446Y-119644687D01*
X102502732Y-119629688D01*
X102502728Y-119629687D01*
X102502719Y-119629686D01*
X102234813Y-119599500D01*
X102234809Y-119599500D01*
X101965191Y-119599500D01*
X101965186Y-119599500D01*
X101697280Y-119629686D01*
X101697268Y-119629688D01*
X101434405Y-119689684D01*
X101434397Y-119689687D01*
X101179917Y-119778734D01*
X100937005Y-119895714D01*
X100708712Y-120039161D01*
X100497915Y-120207265D01*
X100307265Y-120397915D01*
X100139159Y-120608714D01*
X100105541Y-120662217D01*
X100105538Y-120662219D01*
X100105536Y-120662225D01*
X100103655Y-120665216D01*
X100103656Y-120665217D01*
X99995714Y-120837005D01*
X99878734Y-121079917D01*
X99789687Y-121334397D01*
X99789684Y-121334405D01*
X99729688Y-121597268D01*
X99729686Y-121597280D01*
X99699500Y-121865186D01*
X98290047Y-121865186D01*
X98264093Y-121701320D01*
X98214216Y-121547817D01*
X98212222Y-121477977D01*
X98248302Y-121418144D01*
X98311003Y-121387316D01*
X98332148Y-121385500D01*
X98416197Y-121385500D01*
X98416204Y-121385500D01*
X98666452Y-121352554D01*
X98910260Y-121287226D01*
X99143454Y-121190633D01*
X99335215Y-121079921D01*
X99362041Y-121064433D01*
X99362045Y-121064431D01*
X99410691Y-121027103D01*
X99562294Y-120910773D01*
X99562298Y-120910768D01*
X99562303Y-120910765D01*
X99740765Y-120732303D01*
X99740768Y-120732298D01*
X99740773Y-120732294D01*
X99894430Y-120532046D01*
X100020633Y-120313454D01*
X100117226Y-120080260D01*
X100182554Y-119836452D01*
X100215500Y-119586204D01*
X100215500Y-119333796D01*
X100182554Y-119083548D01*
X100117226Y-118839740D01*
X100038892Y-118650627D01*
X100020636Y-118606552D01*
X100020627Y-118606535D01*
X99894433Y-118387958D01*
X99894431Y-118387954D01*
X99744300Y-118192303D01*
X99740773Y-118187706D01*
X99740772Y-118187705D01*
X99740765Y-118187697D01*
X99562303Y-118009235D01*
X99562294Y-118009227D01*
X99362045Y-117855568D01*
X99362041Y-117855566D01*
X99143464Y-117729372D01*
X99143447Y-117729363D01*
X98910258Y-117632773D01*
X98755690Y-117591357D01*
X98666452Y-117567446D01*
X98635171Y-117563327D01*
X98416211Y-117534500D01*
X98416204Y-117534500D01*
X98163796Y-117534500D01*
X98163788Y-117534500D01*
X97913548Y-117567446D01*
X97669741Y-117632773D01*
X97436552Y-117729363D01*
X97436535Y-117729372D01*
X97217958Y-117855566D01*
X97217954Y-117855568D01*
X97017705Y-118009227D01*
X96839227Y-118187705D01*
X96685568Y-118387954D01*
X96685566Y-118387958D01*
X96559372Y-118606535D01*
X96559363Y-118606552D01*
X96462773Y-118839741D01*
X96397446Y-119083548D01*
X96364500Y-119333788D01*
X96364500Y-119586211D01*
X96397446Y-119836451D01*
X96462773Y-120080258D01*
X96559363Y-120313447D01*
X96559372Y-120313464D01*
X96685566Y-120532041D01*
X96685567Y-120532043D01*
X96723388Y-120581332D01*
X96748582Y-120646501D01*
X96734543Y-120714946D01*
X96685729Y-120764936D01*
X96663332Y-120774748D01*
X96634096Y-120784247D01*
X96530373Y-120817949D01*
X96351491Y-120909095D01*
X96258822Y-120976423D01*
X96189068Y-121027103D01*
X96189066Y-121027105D01*
X96189065Y-121027105D01*
X96047105Y-121169065D01*
X96047105Y-121169066D01*
X96047103Y-121169068D01*
X96031435Y-121190633D01*
X95929095Y-121331491D01*
X95837949Y-121510373D01*
X95775907Y-121701319D01*
X95775907Y-121701320D01*
X95744500Y-121899616D01*
X89405500Y-121899616D01*
X89374093Y-121701320D01*
X89312052Y-121510378D01*
X89312050Y-121510375D01*
X89312050Y-121510373D01*
X89246599Y-121381919D01*
X89220905Y-121331492D01*
X89102897Y-121169068D01*
X88960932Y-121027103D01*
X88798508Y-120909095D01*
X88619626Y-120817949D01*
X88428680Y-120755907D01*
X88230384Y-120724500D01*
X88029616Y-120724500D01*
X87980407Y-120732294D01*
X87831319Y-120755907D01*
X87640373Y-120817949D01*
X87461491Y-120909095D01*
X87368822Y-120976423D01*
X87299068Y-121027103D01*
X87299066Y-121027105D01*
X87299065Y-121027105D01*
X87157105Y-121169065D01*
X87157105Y-121169066D01*
X87157103Y-121169068D01*
X87141435Y-121190633D01*
X87039095Y-121331491D01*
X86947949Y-121510373D01*
X86885907Y-121701319D01*
X86885907Y-121701320D01*
X86854500Y-121899616D01*
X85450500Y-121899616D01*
X85450500Y-121865191D01*
X85420312Y-121597268D01*
X85360316Y-121334409D01*
X85354718Y-121318412D01*
X85335229Y-121262713D01*
X85271267Y-121079921D01*
X85154284Y-120837003D01*
X85010838Y-120608711D01*
X84842734Y-120397915D01*
X84652085Y-120207266D01*
X84441289Y-120039162D01*
X84212997Y-119895716D01*
X84212994Y-119895714D01*
X83970082Y-119778734D01*
X83715602Y-119689687D01*
X83715594Y-119689684D01*
X83518446Y-119644687D01*
X83452732Y-119629688D01*
X83452728Y-119629687D01*
X83452719Y-119629686D01*
X83184813Y-119599500D01*
X83184809Y-119599500D01*
X82915191Y-119599500D01*
X82915186Y-119599500D01*
X82647280Y-119629686D01*
X82647268Y-119629688D01*
X82384405Y-119689684D01*
X82384397Y-119689687D01*
X82129917Y-119778734D01*
X81887005Y-119895714D01*
X81658712Y-120039161D01*
X81447915Y-120207265D01*
X81257265Y-120397915D01*
X81089159Y-120608714D01*
X81055541Y-120662217D01*
X81055538Y-120662219D01*
X81055536Y-120662225D01*
X81053655Y-120665216D01*
X81053656Y-120665217D01*
X80945714Y-120837005D01*
X80828734Y-121079917D01*
X80739687Y-121334397D01*
X80739684Y-121334405D01*
X80679688Y-121597268D01*
X80679686Y-121597280D01*
X80649500Y-121865186D01*
X79240047Y-121865186D01*
X79214093Y-121701320D01*
X79164216Y-121547817D01*
X79162222Y-121477977D01*
X79198302Y-121418144D01*
X79261003Y-121387316D01*
X79282148Y-121385500D01*
X79366197Y-121385500D01*
X79366204Y-121385500D01*
X79616452Y-121352554D01*
X79860260Y-121287226D01*
X80093454Y-121190633D01*
X80285215Y-121079921D01*
X80312041Y-121064433D01*
X80312045Y-121064431D01*
X80360691Y-121027103D01*
X80512294Y-120910773D01*
X80512298Y-120910768D01*
X80512303Y-120910765D01*
X80690765Y-120732303D01*
X80690768Y-120732298D01*
X80690773Y-120732294D01*
X80844430Y-120532046D01*
X80970633Y-120313454D01*
X81067226Y-120080260D01*
X81132554Y-119836452D01*
X81165500Y-119586204D01*
X81165500Y-119333796D01*
X81132554Y-119083548D01*
X81067226Y-118839740D01*
X80988892Y-118650627D01*
X80970636Y-118606552D01*
X80970627Y-118606535D01*
X80844433Y-118387958D01*
X80844431Y-118387954D01*
X80694300Y-118192303D01*
X80690773Y-118187706D01*
X80690772Y-118187705D01*
X80690765Y-118187697D01*
X80512303Y-118009235D01*
X80512294Y-118009227D01*
X80312045Y-117855568D01*
X80312041Y-117855566D01*
X80093464Y-117729372D01*
X80093447Y-117729363D01*
X79860258Y-117632773D01*
X79705690Y-117591357D01*
X79616452Y-117567446D01*
X79585171Y-117563327D01*
X79366211Y-117534500D01*
X79366204Y-117534500D01*
X79113796Y-117534500D01*
X79113788Y-117534500D01*
X78863548Y-117567446D01*
X78619741Y-117632773D01*
X78386552Y-117729363D01*
X78386535Y-117729372D01*
X78167958Y-117855566D01*
X78167954Y-117855568D01*
X77967705Y-118009227D01*
X77789227Y-118187705D01*
X77635568Y-118387954D01*
X77635566Y-118387958D01*
X77509372Y-118606535D01*
X77509363Y-118606552D01*
X77412773Y-118839741D01*
X77347446Y-119083548D01*
X77314500Y-119333788D01*
X77314500Y-119586211D01*
X77347446Y-119836451D01*
X77412773Y-120080258D01*
X77509363Y-120313447D01*
X77509372Y-120313464D01*
X77635566Y-120532041D01*
X77635567Y-120532043D01*
X77673388Y-120581332D01*
X77698582Y-120646501D01*
X77684543Y-120714946D01*
X77635729Y-120764936D01*
X77613332Y-120774748D01*
X77584096Y-120784247D01*
X77480373Y-120817949D01*
X77301491Y-120909095D01*
X77208822Y-120976423D01*
X77139068Y-121027103D01*
X77139066Y-121027105D01*
X77139065Y-121027105D01*
X76997105Y-121169065D01*
X76997105Y-121169066D01*
X76997103Y-121169068D01*
X76981435Y-121190633D01*
X76879095Y-121331491D01*
X76787949Y-121510373D01*
X76725907Y-121701319D01*
X76725907Y-121701320D01*
X76694500Y-121899616D01*
X71250500Y-121899616D01*
X71250500Y-116793788D01*
X83664500Y-116793788D01*
X83664500Y-117046211D01*
X83697446Y-117296451D01*
X83762773Y-117540258D01*
X83859363Y-117773447D01*
X83859372Y-117773464D01*
X83985566Y-117992041D01*
X83985568Y-117992045D01*
X84139227Y-118192294D01*
X84139235Y-118192303D01*
X84317697Y-118370765D01*
X84317705Y-118370772D01*
X84517954Y-118524431D01*
X84517958Y-118524433D01*
X84736535Y-118650627D01*
X84736552Y-118650636D01*
X84865758Y-118704154D01*
X84969740Y-118747226D01*
X85213548Y-118812554D01*
X85463796Y-118845500D01*
X85463803Y-118845500D01*
X85716197Y-118845500D01*
X85716204Y-118845500D01*
X85966452Y-118812554D01*
X86210260Y-118747226D01*
X86443454Y-118650633D01*
X86662041Y-118524433D01*
X86662045Y-118524431D01*
X86699842Y-118495427D01*
X86862294Y-118370773D01*
X86862298Y-118370768D01*
X86862303Y-118370765D01*
X87040765Y-118192303D01*
X87040768Y-118192298D01*
X87040773Y-118192294D01*
X87181240Y-118009235D01*
X87194431Y-117992045D01*
X87194433Y-117992041D01*
X87320627Y-117773464D01*
X87320633Y-117773454D01*
X87417226Y-117540260D01*
X87482554Y-117296452D01*
X87515500Y-117046204D01*
X87515500Y-116793796D01*
X87515499Y-116793788D01*
X102714500Y-116793788D01*
X102714500Y-117046211D01*
X102747446Y-117296451D01*
X102812773Y-117540258D01*
X102909363Y-117773447D01*
X102909372Y-117773464D01*
X103035566Y-117992041D01*
X103035568Y-117992045D01*
X103189227Y-118192294D01*
X103189235Y-118192303D01*
X103367697Y-118370765D01*
X103367705Y-118370772D01*
X103567954Y-118524431D01*
X103567958Y-118524433D01*
X103786535Y-118650627D01*
X103786552Y-118650636D01*
X103915758Y-118704154D01*
X104019740Y-118747226D01*
X104263548Y-118812554D01*
X104513796Y-118845500D01*
X104513803Y-118845500D01*
X104766197Y-118845500D01*
X104766204Y-118845500D01*
X105016452Y-118812554D01*
X105260260Y-118747226D01*
X105493454Y-118650633D01*
X105712041Y-118524433D01*
X105712045Y-118524431D01*
X105749842Y-118495427D01*
X105912294Y-118370773D01*
X105912298Y-118370768D01*
X105912303Y-118370765D01*
X106090765Y-118192303D01*
X106090768Y-118192298D01*
X106090773Y-118192294D01*
X106231240Y-118009235D01*
X106244431Y-117992045D01*
X106244433Y-117992041D01*
X106370627Y-117773464D01*
X106370633Y-117773454D01*
X106467226Y-117540260D01*
X106532554Y-117296452D01*
X106565500Y-117046204D01*
X106565500Y-116793796D01*
X106532554Y-116543548D01*
X106467226Y-116299740D01*
X106424154Y-116195758D01*
X106370636Y-116066552D01*
X106370631Y-116066542D01*
X106282304Y-115913554D01*
X106282303Y-115913553D01*
X106248574Y-115855131D01*
X110599500Y-115855131D01*
X110599500Y-119144856D01*
X110599502Y-119144882D01*
X110602413Y-119169987D01*
X110602415Y-119169991D01*
X110647793Y-119272764D01*
X110647794Y-119272765D01*
X110727235Y-119352206D01*
X110830009Y-119397585D01*
X110855135Y-119400500D01*
X112944864Y-119400499D01*
X112944879Y-119400497D01*
X112944882Y-119400497D01*
X112969987Y-119397586D01*
X112969988Y-119397585D01*
X112969991Y-119397585D01*
X113072765Y-119352206D01*
X113152206Y-119272765D01*
X113197585Y-119169991D01*
X113200500Y-119144865D01*
X113200499Y-115855136D01*
X113200499Y-115855135D01*
X113200499Y-115855131D01*
X121799500Y-115855131D01*
X121799500Y-119144856D01*
X121799502Y-119144882D01*
X121802413Y-119169987D01*
X121802415Y-119169991D01*
X121847793Y-119272764D01*
X121847794Y-119272765D01*
X121927235Y-119352206D01*
X122030009Y-119397585D01*
X122055135Y-119400500D01*
X124144864Y-119400499D01*
X124144879Y-119400497D01*
X124144882Y-119400497D01*
X124169987Y-119397586D01*
X124169988Y-119397585D01*
X124169991Y-119397585D01*
X124272765Y-119352206D01*
X124352206Y-119272765D01*
X124397585Y-119169991D01*
X124400500Y-119144865D01*
X124400499Y-115855136D01*
X124399666Y-115847951D01*
X124397586Y-115830012D01*
X124397585Y-115830010D01*
X124397585Y-115830009D01*
X124352206Y-115727235D01*
X124272765Y-115647794D01*
X124272545Y-115647697D01*
X124169992Y-115602415D01*
X124144865Y-115599500D01*
X122055143Y-115599500D01*
X122055117Y-115599502D01*
X122030012Y-115602413D01*
X122030008Y-115602415D01*
X121927235Y-115647793D01*
X121847794Y-115727234D01*
X121802415Y-115830006D01*
X121802415Y-115830008D01*
X121799500Y-115855131D01*
X113200499Y-115855131D01*
X113200499Y-115855130D01*
X113197586Y-115830012D01*
X113197585Y-115830010D01*
X113197585Y-115830009D01*
X113152206Y-115727235D01*
X113072765Y-115647794D01*
X113072545Y-115647697D01*
X112969992Y-115602415D01*
X112944865Y-115599500D01*
X110855143Y-115599500D01*
X110855117Y-115599502D01*
X110830012Y-115602413D01*
X110830008Y-115602415D01*
X110727235Y-115647793D01*
X110647794Y-115727234D01*
X110602415Y-115830006D01*
X110602415Y-115830008D01*
X110599500Y-115855131D01*
X106248574Y-115855131D01*
X106244430Y-115847954D01*
X106230659Y-115830008D01*
X106106485Y-115668182D01*
X106090773Y-115647706D01*
X106090772Y-115647705D01*
X106090765Y-115647697D01*
X105912303Y-115469235D01*
X105912294Y-115469227D01*
X105712045Y-115315568D01*
X105712041Y-115315566D01*
X105493464Y-115189372D01*
X105493447Y-115189363D01*
X105260258Y-115092773D01*
X105105690Y-115051357D01*
X105016452Y-115027446D01*
X104985171Y-115023327D01*
X104766211Y-114994500D01*
X104766204Y-114994500D01*
X104513796Y-114994500D01*
X104513788Y-114994500D01*
X104263548Y-115027446D01*
X104019741Y-115092773D01*
X103786552Y-115189363D01*
X103786535Y-115189372D01*
X103567958Y-115315566D01*
X103567954Y-115315568D01*
X103367705Y-115469227D01*
X103189227Y-115647705D01*
X103035568Y-115847954D01*
X103035566Y-115847958D01*
X102909372Y-116066535D01*
X102909363Y-116066552D01*
X102812773Y-116299741D01*
X102747446Y-116543548D01*
X102714500Y-116793788D01*
X87515499Y-116793788D01*
X87482554Y-116543548D01*
X87417226Y-116299740D01*
X87374154Y-116195758D01*
X87320636Y-116066552D01*
X87320627Y-116066535D01*
X87194433Y-115847958D01*
X87194431Y-115847954D01*
X87056485Y-115668182D01*
X87040773Y-115647706D01*
X87040772Y-115647705D01*
X87040765Y-115647697D01*
X86862303Y-115469235D01*
X86862294Y-115469227D01*
X86662045Y-115315568D01*
X86662041Y-115315566D01*
X86443464Y-115189372D01*
X86443447Y-115189363D01*
X86210258Y-115092773D01*
X86055690Y-115051357D01*
X85966452Y-115027446D01*
X85935171Y-115023327D01*
X85716211Y-114994500D01*
X85716204Y-114994500D01*
X85463796Y-114994500D01*
X85463788Y-114994500D01*
X85213548Y-115027446D01*
X84969741Y-115092773D01*
X84736552Y-115189363D01*
X84736535Y-115189372D01*
X84517958Y-115315566D01*
X84517954Y-115315568D01*
X84317705Y-115469227D01*
X84139227Y-115647705D01*
X83985568Y-115847954D01*
X83985566Y-115847958D01*
X83859372Y-116066535D01*
X83859363Y-116066552D01*
X83762773Y-116299741D01*
X83697446Y-116543548D01*
X83664500Y-116793788D01*
X71250500Y-116793788D01*
X71250500Y-109940693D01*
X71250500Y-109940691D01*
X71219799Y-109826114D01*
X71160489Y-109723387D01*
X71076613Y-109639511D01*
X70973886Y-109580201D01*
X70859309Y-109549500D01*
X70859306Y-109549500D01*
X61574500Y-109549500D01*
X61507461Y-109529815D01*
X61461706Y-109477011D01*
X61450500Y-109425500D01*
X61450500Y-103591518D01*
X61470185Y-103524479D01*
X61486814Y-103503841D01*
X61544114Y-103446542D01*
X61620775Y-103331811D01*
X61673580Y-103204328D01*
X61682389Y-103160041D01*
X61700500Y-103068995D01*
X61700500Y-102931004D01*
X61673581Y-102795677D01*
X61673580Y-102795676D01*
X61673580Y-102795672D01*
X61628138Y-102685965D01*
X61620778Y-102668195D01*
X61620771Y-102668182D01*
X61544114Y-102553458D01*
X61544111Y-102553454D01*
X61446545Y-102455888D01*
X61446541Y-102455885D01*
X61331817Y-102379228D01*
X61331804Y-102379221D01*
X61204332Y-102326421D01*
X61204322Y-102326418D01*
X61068995Y-102299500D01*
X61068993Y-102299500D01*
X60931007Y-102299500D01*
X60931005Y-102299500D01*
X60795677Y-102326418D01*
X60795667Y-102326421D01*
X60668195Y-102379221D01*
X60668182Y-102379228D01*
X60553458Y-102455885D01*
X60553454Y-102455888D01*
X60455888Y-102553454D01*
X60455885Y-102553458D01*
X60379228Y-102668182D01*
X60379221Y-102668195D01*
X60326421Y-102795667D01*
X60326418Y-102795677D01*
X60299500Y-102931004D01*
X60299500Y-102931007D01*
X60299500Y-103068993D01*
X60299500Y-103068995D01*
X60299499Y-103068995D01*
X58950500Y-103068995D01*
X58950500Y-100340693D01*
X58950500Y-100340691D01*
X58919799Y-100226114D01*
X58860489Y-100123387D01*
X58776613Y-100039511D01*
X58673886Y-99980201D01*
X58559309Y-99949500D01*
X58559306Y-99949500D01*
X52374500Y-99949500D01*
X52307461Y-99929815D01*
X52261706Y-99877011D01*
X52250500Y-99825500D01*
X52250500Y-99732636D01*
X52270185Y-99665597D01*
X52322989Y-99619842D01*
X52392147Y-99609898D01*
X52421954Y-99618075D01*
X52426105Y-99619793D01*
X52426114Y-99619799D01*
X52540691Y-99650500D01*
X52659309Y-99650500D01*
X76925500Y-99650500D01*
X76992539Y-99670185D01*
X77038294Y-99722989D01*
X77049500Y-99774500D01*
X77049500Y-115408481D01*
X77029815Y-115475520D01*
X77013181Y-115496162D01*
X76955888Y-115553454D01*
X76955885Y-115553458D01*
X76879228Y-115668182D01*
X76879221Y-115668195D01*
X76826421Y-115795667D01*
X76826418Y-115795677D01*
X76799500Y-115931004D01*
X76799500Y-115931007D01*
X76799500Y-116068993D01*
X76799500Y-116068995D01*
X76799499Y-116068995D01*
X76826418Y-116204322D01*
X76826421Y-116204332D01*
X76879221Y-116331804D01*
X76879228Y-116331817D01*
X76955885Y-116446541D01*
X76955888Y-116446545D01*
X77053454Y-116544111D01*
X77053458Y-116544114D01*
X77168182Y-116620771D01*
X77168195Y-116620778D01*
X77295667Y-116673578D01*
X77295672Y-116673580D01*
X77295676Y-116673580D01*
X77295677Y-116673581D01*
X77431004Y-116700500D01*
X77431007Y-116700500D01*
X77568995Y-116700500D01*
X77660041Y-116682389D01*
X77704328Y-116673580D01*
X77831811Y-116620775D01*
X77946542Y-116544114D01*
X78044114Y-116446542D01*
X78120775Y-116331811D01*
X78173580Y-116204328D01*
X78200500Y-116068993D01*
X78200500Y-115931007D01*
X78200500Y-115931004D01*
X78173581Y-115795677D01*
X78173580Y-115795676D01*
X78173580Y-115795672D01*
X78145232Y-115727234D01*
X78120778Y-115668195D01*
X78120771Y-115668182D01*
X78044114Y-115553458D01*
X78044111Y-115553454D01*
X77986819Y-115496162D01*
X77953334Y-115434839D01*
X77950500Y-115408481D01*
X77950500Y-99140693D01*
X77950500Y-99140691D01*
X77919799Y-99026114D01*
X77860489Y-98923387D01*
X77776613Y-98839511D01*
X77673886Y-98780201D01*
X77559309Y-98749500D01*
X77559306Y-98749500D01*
X53174500Y-98749500D01*
X53107461Y-98729815D01*
X53061706Y-98677011D01*
X53050500Y-98625500D01*
X53050500Y-98532636D01*
X53070185Y-98465597D01*
X53122989Y-98419842D01*
X53192147Y-98409898D01*
X53221954Y-98418075D01*
X53226105Y-98419793D01*
X53226114Y-98419799D01*
X53340691Y-98450500D01*
X53459309Y-98450500D01*
X95925500Y-98450500D01*
X95992539Y-98470185D01*
X96038294Y-98522989D01*
X96049500Y-98574500D01*
X96049500Y-115408481D01*
X96029815Y-115475520D01*
X96013181Y-115496162D01*
X95955888Y-115553454D01*
X95955885Y-115553458D01*
X95879228Y-115668182D01*
X95879221Y-115668195D01*
X95826421Y-115795667D01*
X95826418Y-115795677D01*
X95799500Y-115931004D01*
X95799500Y-115931007D01*
X95799500Y-116068993D01*
X95799500Y-116068995D01*
X95799499Y-116068995D01*
X95826418Y-116204322D01*
X95826421Y-116204332D01*
X95879221Y-116331804D01*
X95879228Y-116331817D01*
X95955885Y-116446541D01*
X95955888Y-116446545D01*
X96053454Y-116544111D01*
X96053458Y-116544114D01*
X96168182Y-116620771D01*
X96168195Y-116620778D01*
X96295667Y-116673578D01*
X96295672Y-116673580D01*
X96295676Y-116673580D01*
X96295677Y-116673581D01*
X96431004Y-116700500D01*
X96431007Y-116700500D01*
X96568995Y-116700500D01*
X96660041Y-116682389D01*
X96704328Y-116673580D01*
X96831811Y-116620775D01*
X96946542Y-116544114D01*
X97044114Y-116446542D01*
X97120775Y-116331811D01*
X97173580Y-116204328D01*
X97200500Y-116068993D01*
X97200500Y-115931007D01*
X97200500Y-115931004D01*
X97173581Y-115795677D01*
X97173580Y-115795676D01*
X97173580Y-115795672D01*
X97145232Y-115727234D01*
X97120778Y-115668195D01*
X97120771Y-115668182D01*
X97044114Y-115553458D01*
X97044111Y-115553454D01*
X96986819Y-115496162D01*
X96953334Y-115434839D01*
X96950500Y-115408481D01*
X96950500Y-97940693D01*
X96950500Y-97940691D01*
X96919799Y-97826114D01*
X96860489Y-97723387D01*
X96776613Y-97639511D01*
X96673886Y-97580201D01*
X96559309Y-97549500D01*
X96559306Y-97549500D01*
X53974500Y-97549500D01*
X53907461Y-97529815D01*
X53861706Y-97477011D01*
X53850500Y-97425500D01*
X53850500Y-59534500D01*
X53870185Y-59467461D01*
X53922989Y-59421706D01*
X53974500Y-59410500D01*
X58242317Y-59410500D01*
X58309356Y-59430185D01*
X58352802Y-59478205D01*
X58396006Y-59562998D01*
X58502441Y-59709494D01*
X58502445Y-59709499D01*
X58630500Y-59837554D01*
X58630505Y-59837558D01*
X58758287Y-59930396D01*
X58777006Y-59943996D01*
X58882484Y-59997740D01*
X58938360Y-60026211D01*
X58938363Y-60026212D01*
X59024476Y-60054191D01*
X59110591Y-60082171D01*
X59183639Y-60093740D01*
X59270678Y-60107527D01*
X59333813Y-60137456D01*
X59370744Y-60196768D01*
X59369746Y-60266631D01*
X59331136Y-60324863D01*
X59270678Y-60352473D01*
X59110589Y-60377829D01*
X58938363Y-60433787D01*
X58938360Y-60433788D01*
X58777002Y-60516006D01*
X58630505Y-60622441D01*
X58630500Y-60622445D01*
X58502445Y-60750500D01*
X58502441Y-60750505D01*
X58396006Y-60897002D01*
X58313788Y-61058360D01*
X58313787Y-61058363D01*
X58257829Y-61230589D01*
X58229500Y-61409448D01*
X58229500Y-61590551D01*
X58257829Y-61769410D01*
X58313787Y-61941636D01*
X58313788Y-61941639D01*
X58396006Y-62102997D01*
X58502441Y-62249494D01*
X58502445Y-62249499D01*
X58630500Y-62377554D01*
X58630505Y-62377558D01*
X58758287Y-62470396D01*
X58777006Y-62483996D01*
X58882484Y-62537740D01*
X58938360Y-62566211D01*
X58938363Y-62566212D01*
X59024476Y-62594191D01*
X59110591Y-62622171D01*
X59183639Y-62633740D01*
X59270678Y-62647527D01*
X59333813Y-62677456D01*
X59370744Y-62736768D01*
X59369746Y-62806631D01*
X59331136Y-62864863D01*
X59270678Y-62892473D01*
X59110589Y-62917829D01*
X58938363Y-62973787D01*
X58938360Y-62973788D01*
X58777002Y-63056006D01*
X58630505Y-63162441D01*
X58630500Y-63162445D01*
X58502445Y-63290500D01*
X58502441Y-63290505D01*
X58396006Y-63437001D01*
X58352802Y-63521795D01*
X58304827Y-63572591D01*
X58242317Y-63589500D01*
X55259309Y-63589500D01*
X55140691Y-63589500D01*
X55026114Y-63620201D01*
X55026112Y-63620201D01*
X55026112Y-63620202D01*
X54923387Y-63679511D01*
X54923384Y-63679513D01*
X54839513Y-63763384D01*
X54839511Y-63763387D01*
X54780201Y-63866114D01*
X54749500Y-63980691D01*
X54749500Y-63980693D01*
X54749500Y-94408481D01*
X54729815Y-94475520D01*
X54713181Y-94496162D01*
X54655888Y-94553454D01*
X54655885Y-94553458D01*
X54579228Y-94668182D01*
X54579221Y-94668195D01*
X54526421Y-94795667D01*
X54526418Y-94795677D01*
X54499500Y-94931004D01*
X54499500Y-94931007D01*
X54499500Y-95068993D01*
X54499500Y-95068995D01*
X54499499Y-95068995D01*
X54526418Y-95204322D01*
X54526421Y-95204332D01*
X54579221Y-95331804D01*
X54579228Y-95331817D01*
X54655885Y-95446541D01*
X54655888Y-95446545D01*
X54753454Y-95544111D01*
X54753458Y-95544114D01*
X54868182Y-95620771D01*
X54868195Y-95620778D01*
X54995667Y-95673578D01*
X54995672Y-95673580D01*
X54995676Y-95673580D01*
X54995677Y-95673581D01*
X55131004Y-95700500D01*
X55131007Y-95700500D01*
X55268995Y-95700500D01*
X55360041Y-95682389D01*
X55404328Y-95673580D01*
X55531811Y-95620775D01*
X55646542Y-95544114D01*
X55744114Y-95446542D01*
X55796898Y-95367546D01*
X55850510Y-95322741D01*
X55919835Y-95314034D01*
X55982863Y-95344189D01*
X56003102Y-95367546D01*
X56055885Y-95446541D01*
X56055888Y-95446545D01*
X56153454Y-95544111D01*
X56153458Y-95544114D01*
X56268182Y-95620771D01*
X56268195Y-95620778D01*
X56395667Y-95673578D01*
X56395672Y-95673580D01*
X56395676Y-95673580D01*
X56395677Y-95673581D01*
X56531004Y-95700500D01*
X56531007Y-95700500D01*
X56668995Y-95700500D01*
X56760041Y-95682389D01*
X56804328Y-95673580D01*
X56931811Y-95620775D01*
X57046542Y-95544114D01*
X57144114Y-95446542D01*
X57220775Y-95331811D01*
X57273580Y-95204328D01*
X57282389Y-95160041D01*
X57300500Y-95068995D01*
X57300500Y-94931004D01*
X57273581Y-94795677D01*
X57273580Y-94795676D01*
X57273580Y-94795672D01*
X57227097Y-94683451D01*
X57220778Y-94668195D01*
X57220771Y-94668182D01*
X57144114Y-94553458D01*
X57144111Y-94553454D01*
X57086819Y-94496162D01*
X57053334Y-94434839D01*
X57050500Y-94408481D01*
X57050500Y-67154500D01*
X57070185Y-67087461D01*
X57122989Y-67041706D01*
X57174500Y-67030500D01*
X58242317Y-67030500D01*
X58309356Y-67050185D01*
X58352801Y-67098204D01*
X58381486Y-67154500D01*
X58396006Y-67182998D01*
X58502441Y-67329494D01*
X58502445Y-67329499D01*
X58630500Y-67457554D01*
X58630505Y-67457558D01*
X58758287Y-67550396D01*
X58777006Y-67563996D01*
X58882484Y-67617740D01*
X58938360Y-67646211D01*
X58938363Y-67646212D01*
X59024476Y-67674191D01*
X59110591Y-67702171D01*
X59183639Y-67713740D01*
X59270678Y-67727527D01*
X59333813Y-67757456D01*
X59370744Y-67816768D01*
X59369746Y-67886631D01*
X59331136Y-67944863D01*
X59270678Y-67972473D01*
X59110589Y-67997829D01*
X58938363Y-68053787D01*
X58938360Y-68053788D01*
X58777002Y-68136006D01*
X58630505Y-68242441D01*
X58630500Y-68242445D01*
X58502445Y-68370500D01*
X58502441Y-68370505D01*
X58396006Y-68517002D01*
X58313788Y-68678360D01*
X58313787Y-68678363D01*
X58257829Y-68850589D01*
X58229500Y-69029448D01*
X58229500Y-69210551D01*
X58257829Y-69389410D01*
X58313787Y-69561636D01*
X58313788Y-69561639D01*
X58396006Y-69722997D01*
X58502441Y-69869494D01*
X58502445Y-69869499D01*
X58630500Y-69997554D01*
X58630505Y-69997558D01*
X58777001Y-70103993D01*
X58777003Y-70103994D01*
X58777006Y-70103996D01*
X58861795Y-70147198D01*
X58912591Y-70195173D01*
X58929500Y-70257683D01*
X58929500Y-90908481D01*
X58909815Y-90975520D01*
X58893181Y-90996162D01*
X58835888Y-91053454D01*
X58835885Y-91053458D01*
X58759228Y-91168182D01*
X58759221Y-91168195D01*
X58706421Y-91295667D01*
X58706418Y-91295677D01*
X58679500Y-91431004D01*
X58679500Y-91431007D01*
X58679500Y-91568993D01*
X58679500Y-91568995D01*
X58679499Y-91568995D01*
X58706418Y-91704322D01*
X58706421Y-91704332D01*
X58759221Y-91831804D01*
X58759228Y-91831817D01*
X58835885Y-91946541D01*
X58835888Y-91946545D01*
X58933454Y-92044111D01*
X58933458Y-92044114D01*
X59048182Y-92120771D01*
X59048195Y-92120778D01*
X59175667Y-92173578D01*
X59175672Y-92173580D01*
X59175676Y-92173580D01*
X59175677Y-92173581D01*
X59311004Y-92200500D01*
X59311007Y-92200500D01*
X59448995Y-92200500D01*
X59540041Y-92182389D01*
X59584328Y-92173580D01*
X59711811Y-92120775D01*
X59826542Y-92044114D01*
X59924114Y-91946542D01*
X60000775Y-91831811D01*
X60053580Y-91704328D01*
X60080500Y-91568993D01*
X60080500Y-91431007D01*
X60080500Y-91431004D01*
X60053581Y-91295677D01*
X60053580Y-91295676D01*
X60053580Y-91295672D01*
X60045018Y-91275001D01*
X60000778Y-91168195D01*
X60000771Y-91168182D01*
X59924114Y-91053458D01*
X59924111Y-91053454D01*
X59866819Y-90996162D01*
X59833334Y-90934839D01*
X59830500Y-90908481D01*
X59830500Y-70257683D01*
X59850185Y-70190644D01*
X59898204Y-70147198D01*
X59982994Y-70103996D01*
X60129501Y-69997553D01*
X60257553Y-69869501D01*
X60257555Y-69869497D01*
X60257558Y-69869495D01*
X60325182Y-69776418D01*
X60380511Y-69733752D01*
X60450125Y-69727773D01*
X60511920Y-69760378D01*
X60546277Y-69821217D01*
X60549500Y-69849303D01*
X60549500Y-94408481D01*
X60529815Y-94475520D01*
X60513181Y-94496162D01*
X60455888Y-94553454D01*
X60455885Y-94553458D01*
X60379228Y-94668182D01*
X60379221Y-94668195D01*
X60326421Y-94795667D01*
X60326418Y-94795677D01*
X60299500Y-94931004D01*
X60299500Y-94931007D01*
X60299500Y-95068993D01*
X60299500Y-95068995D01*
X60299499Y-95068995D01*
X60326418Y-95204322D01*
X60326421Y-95204332D01*
X60379221Y-95331804D01*
X60379228Y-95331817D01*
X60455885Y-95446541D01*
X60455888Y-95446545D01*
X60553454Y-95544111D01*
X60553458Y-95544114D01*
X60668182Y-95620771D01*
X60668195Y-95620778D01*
X60795667Y-95673578D01*
X60795672Y-95673580D01*
X60795676Y-95673580D01*
X60795677Y-95673581D01*
X60931004Y-95700500D01*
X60931007Y-95700500D01*
X61068995Y-95700500D01*
X61160041Y-95682389D01*
X61204328Y-95673580D01*
X61331811Y-95620775D01*
X61446542Y-95544114D01*
X61544114Y-95446542D01*
X61620775Y-95331811D01*
X61673580Y-95204328D01*
X61682389Y-95160041D01*
X61700500Y-95068995D01*
X61700500Y-94931004D01*
X61673581Y-94795677D01*
X61673580Y-94795676D01*
X61673580Y-94795672D01*
X61627097Y-94683451D01*
X61620778Y-94668195D01*
X61620771Y-94668182D01*
X61544114Y-94553458D01*
X61544111Y-94553454D01*
X61486819Y-94496162D01*
X61453334Y-94434839D01*
X61450500Y-94408481D01*
X61450500Y-61440693D01*
X61450500Y-61440691D01*
X61419799Y-61326114D01*
X61360489Y-61223387D01*
X61276613Y-61139511D01*
X61173886Y-61080201D01*
X61059309Y-61049500D01*
X61059306Y-61049500D01*
X60517683Y-61049500D01*
X60450644Y-61029815D01*
X60407198Y-60981795D01*
X60363993Y-60897001D01*
X60257558Y-60750505D01*
X60257554Y-60750500D01*
X60129499Y-60622445D01*
X60129494Y-60622441D01*
X59982997Y-60516006D01*
X59982996Y-60516005D01*
X59982994Y-60516004D01*
X59931300Y-60489664D01*
X59821639Y-60433788D01*
X59821636Y-60433787D01*
X59649410Y-60377829D01*
X59489321Y-60352473D01*
X59426186Y-60322544D01*
X59389255Y-60263232D01*
X59390253Y-60193370D01*
X59428863Y-60135137D01*
X59489321Y-60107527D01*
X59559425Y-60096422D01*
X59649409Y-60082171D01*
X59821639Y-60026211D01*
X59982994Y-59943996D01*
X60129501Y-59837553D01*
X60257553Y-59709501D01*
X60363996Y-59562994D01*
X60446211Y-59401639D01*
X60502171Y-59229409D01*
X60516765Y-59137259D01*
X60530500Y-59050551D01*
X60530500Y-58869448D01*
X60508129Y-58728209D01*
X60502171Y-58690591D01*
X60446211Y-58518361D01*
X60446211Y-58518360D01*
X60399845Y-58427363D01*
X60363996Y-58357006D01*
X60328670Y-58308384D01*
X60257558Y-58210505D01*
X60257554Y-58210500D01*
X60129499Y-58082445D01*
X60129494Y-58082441D01*
X59982997Y-57976006D01*
X59982996Y-57976005D01*
X59982994Y-57976004D01*
X59931300Y-57949664D01*
X59821639Y-57893788D01*
X59821636Y-57893787D01*
X59649410Y-57837829D01*
X59489321Y-57812473D01*
X59426186Y-57782544D01*
X59389255Y-57723232D01*
X59390253Y-57653370D01*
X59428863Y-57595137D01*
X59489321Y-57567527D01*
X59559425Y-57556422D01*
X59649409Y-57542171D01*
X59821639Y-57486211D01*
X59982994Y-57403996D01*
X60129501Y-57297553D01*
X60257553Y-57169501D01*
X60363996Y-57022994D01*
X60446211Y-56861639D01*
X60502171Y-56689409D01*
X60514188Y-56613538D01*
X60530500Y-56510551D01*
X60530500Y-56329448D01*
X60514188Y-56226462D01*
X60505245Y-56170000D01*
X73292769Y-56170000D01*
X74215854Y-56170000D01*
X74177370Y-56236657D01*
X74145000Y-56357465D01*
X74145000Y-56482535D01*
X74177370Y-56603343D01*
X74215854Y-56670000D01*
X73292769Y-56670000D01*
X73303242Y-56736126D01*
X73303242Y-56736129D01*
X73368904Y-56938217D01*
X73465379Y-57127557D01*
X73590272Y-57299459D01*
X73590276Y-57299464D01*
X73740535Y-57449723D01*
X73740540Y-57449727D01*
X73912442Y-57574620D01*
X74101780Y-57671094D01*
X74130705Y-57680492D01*
X74188381Y-57719929D01*
X74215580Y-57784287D01*
X74203667Y-57853134D01*
X74156424Y-57904610D01*
X74148685Y-57908908D01*
X74017004Y-57976004D01*
X73870505Y-58082441D01*
X73870500Y-58082445D01*
X73742445Y-58210500D01*
X73742441Y-58210505D01*
X73636006Y-58357002D01*
X73553788Y-58518360D01*
X73553787Y-58518363D01*
X73497829Y-58690589D01*
X73469500Y-58869448D01*
X73469500Y-59050551D01*
X73497829Y-59229410D01*
X73553787Y-59401636D01*
X73553788Y-59401639D01*
X73609664Y-59511300D01*
X73634733Y-59560500D01*
X73636006Y-59562997D01*
X73742441Y-59709494D01*
X73742445Y-59709499D01*
X73870500Y-59837554D01*
X73870505Y-59837558D01*
X73998287Y-59930396D01*
X74017006Y-59943996D01*
X74122484Y-59997740D01*
X74178360Y-60026211D01*
X74178363Y-60026212D01*
X74264476Y-60054191D01*
X74350591Y-60082171D01*
X74423639Y-60093740D01*
X74510678Y-60107527D01*
X74573813Y-60137456D01*
X74610744Y-60196768D01*
X74609746Y-60266631D01*
X74571136Y-60324863D01*
X74510678Y-60352473D01*
X74350589Y-60377829D01*
X74178363Y-60433787D01*
X74178360Y-60433788D01*
X74017002Y-60516006D01*
X73870505Y-60622441D01*
X73870500Y-60622445D01*
X73742445Y-60750500D01*
X73742441Y-60750505D01*
X73636006Y-60897002D01*
X73553788Y-61058360D01*
X73553787Y-61058363D01*
X73497829Y-61230589D01*
X73469500Y-61409448D01*
X73469500Y-61590551D01*
X73497829Y-61769410D01*
X73553787Y-61941636D01*
X73553788Y-61941639D01*
X73636006Y-62102997D01*
X73742441Y-62249494D01*
X73742445Y-62249499D01*
X73870500Y-62377554D01*
X73870505Y-62377558D01*
X73998287Y-62470396D01*
X74017006Y-62483996D01*
X74122484Y-62537740D01*
X74178360Y-62566211D01*
X74178363Y-62566212D01*
X74264476Y-62594191D01*
X74350591Y-62622171D01*
X74423639Y-62633740D01*
X74510678Y-62647527D01*
X74573813Y-62677456D01*
X74610744Y-62736768D01*
X74609746Y-62806631D01*
X74571136Y-62864863D01*
X74510678Y-62892473D01*
X74350589Y-62917829D01*
X74178363Y-62973787D01*
X74178360Y-62973788D01*
X74017002Y-63056006D01*
X73870505Y-63162441D01*
X73870500Y-63162445D01*
X73742445Y-63290500D01*
X73742441Y-63290505D01*
X73636006Y-63437002D01*
X73553788Y-63598360D01*
X73553787Y-63598363D01*
X73497829Y-63770589D01*
X73469500Y-63949448D01*
X73469500Y-64130551D01*
X73497829Y-64309410D01*
X73553787Y-64481636D01*
X73553788Y-64481639D01*
X73609664Y-64591300D01*
X73621485Y-64614500D01*
X73636006Y-64642997D01*
X73742441Y-64789494D01*
X73742445Y-64789499D01*
X73870500Y-64917554D01*
X73870505Y-64917558D01*
X73998287Y-65010396D01*
X74017006Y-65023996D01*
X74122484Y-65077740D01*
X74178360Y-65106211D01*
X74178363Y-65106212D01*
X74264476Y-65134191D01*
X74350591Y-65162171D01*
X74423639Y-65173740D01*
X74510678Y-65187527D01*
X74573813Y-65217456D01*
X74610744Y-65276768D01*
X74609746Y-65346631D01*
X74571136Y-65404863D01*
X74510678Y-65432473D01*
X74350589Y-65457829D01*
X74178363Y-65513787D01*
X74178360Y-65513788D01*
X74017002Y-65596006D01*
X73870505Y-65702441D01*
X73870500Y-65702445D01*
X73742445Y-65830500D01*
X73742441Y-65830505D01*
X73636006Y-65977002D01*
X73553788Y-66138360D01*
X73553787Y-66138363D01*
X73497829Y-66310589D01*
X73469500Y-66489448D01*
X73469500Y-66670551D01*
X73497829Y-66849410D01*
X73553787Y-67021636D01*
X73553788Y-67021639D01*
X73595239Y-67102989D01*
X73621485Y-67154500D01*
X73636006Y-67182997D01*
X73742441Y-67329494D01*
X73742445Y-67329499D01*
X73870500Y-67457554D01*
X73870505Y-67457558D01*
X73998287Y-67550396D01*
X74017006Y-67563996D01*
X74122484Y-67617740D01*
X74178360Y-67646211D01*
X74178363Y-67646212D01*
X74264476Y-67674191D01*
X74350591Y-67702171D01*
X74423639Y-67713740D01*
X74510678Y-67727527D01*
X74573813Y-67757456D01*
X74610744Y-67816768D01*
X74609746Y-67886631D01*
X74571136Y-67944863D01*
X74510678Y-67972473D01*
X74350589Y-67997829D01*
X74178363Y-68053787D01*
X74178360Y-68053788D01*
X74017002Y-68136006D01*
X73870505Y-68242441D01*
X73870500Y-68242445D01*
X73742445Y-68370500D01*
X73742441Y-68370505D01*
X73636006Y-68517002D01*
X73553788Y-68678360D01*
X73553787Y-68678363D01*
X73497829Y-68850589D01*
X73469500Y-69029448D01*
X73469500Y-69210551D01*
X73497829Y-69389410D01*
X73553787Y-69561636D01*
X73553788Y-69561639D01*
X73636006Y-69722997D01*
X73742441Y-69869494D01*
X73742445Y-69869499D01*
X73870500Y-69997554D01*
X73870505Y-69997558D01*
X73998287Y-70090396D01*
X74017006Y-70103996D01*
X74122484Y-70157740D01*
X74178360Y-70186211D01*
X74178363Y-70186212D01*
X74264476Y-70214191D01*
X74350591Y-70242171D01*
X74433429Y-70255291D01*
X74529449Y-70270500D01*
X74529454Y-70270500D01*
X74710551Y-70270500D01*
X74797259Y-70256765D01*
X74889409Y-70242171D01*
X75061639Y-70186211D01*
X75222994Y-70103996D01*
X75369501Y-69997553D01*
X75497553Y-69869501D01*
X75603996Y-69722994D01*
X75686211Y-69561639D01*
X75742171Y-69389409D01*
X75756765Y-69297259D01*
X75770500Y-69210551D01*
X75770500Y-69029448D01*
X75754019Y-68925397D01*
X75742171Y-68850591D01*
X75686211Y-68678361D01*
X75686211Y-68678360D01*
X75657740Y-68622484D01*
X75603996Y-68517006D01*
X75565181Y-68463581D01*
X75497558Y-68370505D01*
X75497554Y-68370500D01*
X75369499Y-68242445D01*
X75369494Y-68242441D01*
X75222997Y-68136006D01*
X75222996Y-68136005D01*
X75222994Y-68136004D01*
X75171300Y-68109664D01*
X75061639Y-68053788D01*
X75061636Y-68053787D01*
X74889410Y-67997829D01*
X74729321Y-67972473D01*
X74666186Y-67942544D01*
X74629255Y-67883232D01*
X74630253Y-67813370D01*
X74668863Y-67755137D01*
X74729321Y-67727527D01*
X74799425Y-67716422D01*
X74889409Y-67702171D01*
X75061639Y-67646211D01*
X75222994Y-67563996D01*
X75369501Y-67457553D01*
X75497553Y-67329501D01*
X75603996Y-67182994D01*
X75647198Y-67098204D01*
X75695173Y-67047409D01*
X75757683Y-67030500D01*
X108235500Y-67030500D01*
X108302539Y-67050185D01*
X108348294Y-67102989D01*
X108359500Y-67154500D01*
X108359500Y-85862316D01*
X108339815Y-85929355D01*
X108291796Y-85972800D01*
X108207004Y-86016004D01*
X108060505Y-86122441D01*
X108060500Y-86122445D01*
X107932445Y-86250500D01*
X107932441Y-86250505D01*
X107826006Y-86397002D01*
X107743788Y-86558360D01*
X107743787Y-86558363D01*
X107687829Y-86730589D01*
X107662473Y-86890678D01*
X107632544Y-86953813D01*
X107573232Y-86990744D01*
X107503369Y-86989746D01*
X107445137Y-86951136D01*
X107417527Y-86890678D01*
X107395245Y-86750000D01*
X107392171Y-86730591D01*
X107336211Y-86558361D01*
X107336211Y-86558360D01*
X107306474Y-86500000D01*
X107253996Y-86397006D01*
X107182727Y-86298912D01*
X107147558Y-86250505D01*
X107147554Y-86250500D01*
X107019499Y-86122445D01*
X107019494Y-86122441D01*
X106872997Y-86016006D01*
X106872996Y-86016005D01*
X106872994Y-86016004D01*
X106821300Y-85989664D01*
X106711639Y-85933788D01*
X106711636Y-85933787D01*
X106539410Y-85877829D01*
X106360551Y-85849500D01*
X106360546Y-85849500D01*
X106179454Y-85849500D01*
X106179449Y-85849500D01*
X106000589Y-85877829D01*
X105828363Y-85933787D01*
X105828360Y-85933788D01*
X105667002Y-86016006D01*
X105520505Y-86122441D01*
X105520500Y-86122445D01*
X105392445Y-86250500D01*
X105392441Y-86250505D01*
X105286006Y-86397002D01*
X105203788Y-86558360D01*
X105203787Y-86558363D01*
X105147829Y-86730589D01*
X105122473Y-86890678D01*
X105092544Y-86953813D01*
X105033232Y-86990744D01*
X104963369Y-86989746D01*
X104905137Y-86951136D01*
X104877527Y-86890678D01*
X104855245Y-86750000D01*
X104852171Y-86730591D01*
X104796211Y-86558361D01*
X104796211Y-86558360D01*
X104766474Y-86500000D01*
X104713996Y-86397006D01*
X104642727Y-86298912D01*
X104607558Y-86250505D01*
X104607554Y-86250500D01*
X104479499Y-86122445D01*
X104479494Y-86122441D01*
X104332997Y-86016006D01*
X104332996Y-86016005D01*
X104332994Y-86016004D01*
X104281300Y-85989664D01*
X104171639Y-85933788D01*
X104171636Y-85933787D01*
X103999410Y-85877829D01*
X103820551Y-85849500D01*
X103820546Y-85849500D01*
X103639454Y-85849500D01*
X103639449Y-85849500D01*
X103460589Y-85877829D01*
X103288363Y-85933787D01*
X103288360Y-85933788D01*
X103127002Y-86016006D01*
X102980505Y-86122441D01*
X102980500Y-86122445D01*
X102852445Y-86250500D01*
X102852441Y-86250505D01*
X102746006Y-86397002D01*
X102663788Y-86558360D01*
X102663787Y-86558363D01*
X102607829Y-86730589D01*
X102582473Y-86890678D01*
X102552544Y-86953813D01*
X102493232Y-86990744D01*
X102423369Y-86989746D01*
X102365137Y-86951136D01*
X102337527Y-86890678D01*
X102315245Y-86750000D01*
X102312171Y-86730591D01*
X102256211Y-86558361D01*
X102256211Y-86558360D01*
X102226474Y-86500000D01*
X102173996Y-86397006D01*
X102102727Y-86298912D01*
X102067558Y-86250505D01*
X102067554Y-86250500D01*
X101939499Y-86122445D01*
X101939494Y-86122441D01*
X101792997Y-86016006D01*
X101792996Y-86016005D01*
X101792994Y-86016004D01*
X101741300Y-85989664D01*
X101631639Y-85933788D01*
X101631636Y-85933787D01*
X101459410Y-85877829D01*
X101280551Y-85849500D01*
X101280546Y-85849500D01*
X101099454Y-85849500D01*
X101099449Y-85849500D01*
X100920589Y-85877829D01*
X100748363Y-85933787D01*
X100748360Y-85933788D01*
X100587002Y-86016006D01*
X100440505Y-86122441D01*
X100440500Y-86122445D01*
X100312445Y-86250500D01*
X100312441Y-86250505D01*
X100206006Y-86397002D01*
X100123788Y-86558360D01*
X100123787Y-86558363D01*
X100067829Y-86730589D01*
X100042473Y-86890678D01*
X100012544Y-86953813D01*
X99953232Y-86990744D01*
X99883369Y-86989746D01*
X99825137Y-86951136D01*
X99797527Y-86890678D01*
X99775245Y-86750000D01*
X99772171Y-86730591D01*
X99716211Y-86558361D01*
X99716211Y-86558360D01*
X99686474Y-86500000D01*
X99633996Y-86397006D01*
X99562727Y-86298912D01*
X99527558Y-86250505D01*
X99527554Y-86250500D01*
X99399499Y-86122445D01*
X99399494Y-86122441D01*
X99252997Y-86016006D01*
X99252996Y-86016005D01*
X99252994Y-86016004D01*
X99201300Y-85989664D01*
X99091639Y-85933788D01*
X99091636Y-85933787D01*
X98919410Y-85877829D01*
X98740551Y-85849500D01*
X98740546Y-85849500D01*
X98559454Y-85849500D01*
X98559449Y-85849500D01*
X98380589Y-85877829D01*
X98208363Y-85933787D01*
X98208360Y-85933788D01*
X98047002Y-86016006D01*
X97900505Y-86122441D01*
X97900500Y-86122445D01*
X97772445Y-86250500D01*
X97772441Y-86250505D01*
X97666006Y-86397002D01*
X97583788Y-86558360D01*
X97583787Y-86558363D01*
X97527829Y-86730589D01*
X97502473Y-86890678D01*
X97472544Y-86953813D01*
X97413232Y-86990744D01*
X97343369Y-86989746D01*
X97285137Y-86951136D01*
X97257527Y-86890678D01*
X97235245Y-86750000D01*
X97232171Y-86730591D01*
X97176211Y-86558361D01*
X97176211Y-86558360D01*
X97146474Y-86500000D01*
X97093996Y-86397006D01*
X97022727Y-86298912D01*
X96987558Y-86250505D01*
X96987554Y-86250500D01*
X96859499Y-86122445D01*
X96859494Y-86122441D01*
X96712997Y-86016006D01*
X96712996Y-86016005D01*
X96712994Y-86016004D01*
X96661300Y-85989664D01*
X96551639Y-85933788D01*
X96551636Y-85933787D01*
X96379410Y-85877829D01*
X96200551Y-85849500D01*
X96200546Y-85849500D01*
X96019454Y-85849500D01*
X96019449Y-85849500D01*
X95840589Y-85877829D01*
X95668363Y-85933787D01*
X95668360Y-85933788D01*
X95507002Y-86016006D01*
X95360505Y-86122441D01*
X95360500Y-86122445D01*
X95232445Y-86250500D01*
X95232441Y-86250505D01*
X95126006Y-86397002D01*
X95043788Y-86558360D01*
X95043787Y-86558363D01*
X94987829Y-86730589D01*
X94959500Y-86909448D01*
X94959500Y-87090551D01*
X94987829Y-87269410D01*
X95043787Y-87441636D01*
X95043788Y-87441639D01*
X95126006Y-87602997D01*
X95232441Y-87749494D01*
X95232445Y-87749499D01*
X95360500Y-87877554D01*
X95360505Y-87877558D01*
X95507001Y-87983993D01*
X95507003Y-87983994D01*
X95507006Y-87983996D01*
X95591795Y-88027198D01*
X95642591Y-88075173D01*
X95659500Y-88137683D01*
X95659500Y-93140691D01*
X95659500Y-93259309D01*
X95690201Y-93373886D01*
X95749511Y-93476613D01*
X95833387Y-93560489D01*
X95936114Y-93619799D01*
X96050691Y-93650500D01*
X96050694Y-93650500D01*
X116147306Y-93650500D01*
X116147309Y-93650500D01*
X116261886Y-93619799D01*
X116364613Y-93560489D01*
X116364616Y-93560486D01*
X116398578Y-93526524D01*
X116459900Y-93493038D01*
X116471474Y-93491088D01*
X116481564Y-93489877D01*
X116622342Y-93434361D01*
X116742922Y-93342922D01*
X116834361Y-93222342D01*
X116884646Y-93094826D01*
X116927551Y-93039685D01*
X116993459Y-93016492D01*
X117061443Y-93032612D01*
X117109920Y-93082929D01*
X117115348Y-93094814D01*
X117126805Y-93123866D01*
X117165639Y-93222343D01*
X117257077Y-93342922D01*
X117377656Y-93434360D01*
X117377657Y-93434360D01*
X117377658Y-93434361D01*
X117518436Y-93489877D01*
X117606898Y-93500500D01*
X117606903Y-93500500D01*
X118218097Y-93500500D01*
X118218102Y-93500500D01*
X118306564Y-93489877D01*
X118447342Y-93434361D01*
X118567922Y-93342922D01*
X118659361Y-93222342D01*
X118667506Y-93201689D01*
X118676450Y-93179010D01*
X118719356Y-93123866D01*
X118785264Y-93100673D01*
X118791804Y-93100500D01*
X119673338Y-93100500D01*
X119740377Y-93120185D01*
X119786132Y-93172989D01*
X119788687Y-93178997D01*
X119788692Y-93179010D01*
X119788693Y-93179011D01*
X119815638Y-93247342D01*
X119907077Y-93367922D01*
X120027656Y-93459360D01*
X120027657Y-93459360D01*
X120027658Y-93459361D01*
X120168436Y-93514877D01*
X120256898Y-93525500D01*
X120256903Y-93525500D01*
X120843097Y-93525500D01*
X120843102Y-93525500D01*
X120931564Y-93514877D01*
X121072342Y-93459361D01*
X121192922Y-93367922D01*
X121248892Y-93294115D01*
X121289486Y-93240584D01*
X121291317Y-93241972D01*
X121332607Y-93201689D01*
X121401058Y-93187682D01*
X121466216Y-93212905D01*
X121507394Y-93269351D01*
X121508391Y-93272241D01*
X121515640Y-93294115D01*
X121515643Y-93294124D01*
X121607684Y-93443345D01*
X121731654Y-93567315D01*
X121880875Y-93659356D01*
X121880880Y-93659358D01*
X122047302Y-93714505D01*
X122047309Y-93714506D01*
X122150019Y-93724999D01*
X122700000Y-93724999D01*
X122749972Y-93724999D01*
X122749986Y-93724998D01*
X122852697Y-93714505D01*
X123019119Y-93659358D01*
X123019124Y-93659356D01*
X123168345Y-93567315D01*
X123292315Y-93443345D01*
X123384356Y-93294124D01*
X123384358Y-93294119D01*
X123439505Y-93127697D01*
X123439506Y-93127690D01*
X123449999Y-93024986D01*
X123450000Y-93024973D01*
X123450000Y-92750000D01*
X122700000Y-92750000D01*
X122700000Y-93724999D01*
X122150019Y-93724999D01*
X122199999Y-93724998D01*
X122200000Y-93724998D01*
X122200000Y-92250000D01*
X122700000Y-92250000D01*
X123449999Y-92250000D01*
X123449999Y-91975028D01*
X123449998Y-91975013D01*
X123439505Y-91872302D01*
X123384358Y-91705880D01*
X123384356Y-91705875D01*
X123292315Y-91556654D01*
X123168345Y-91432684D01*
X123019124Y-91340643D01*
X123019119Y-91340641D01*
X122852697Y-91285494D01*
X122852690Y-91285493D01*
X122749986Y-91275000D01*
X122700000Y-91275000D01*
X122700000Y-92250000D01*
X122200000Y-92250000D01*
X122200000Y-91275000D01*
X122199999Y-91274999D01*
X122150029Y-91275000D01*
X122150011Y-91275001D01*
X122047302Y-91285494D01*
X121880880Y-91340641D01*
X121880875Y-91340643D01*
X121731654Y-91432684D01*
X121607684Y-91556654D01*
X121515643Y-91705875D01*
X121515640Y-91705884D01*
X121508391Y-91727759D01*
X121468618Y-91785203D01*
X121404102Y-91812025D01*
X121335326Y-91799709D01*
X121290834Y-91758393D01*
X121289486Y-91759416D01*
X121192922Y-91632077D01*
X121072343Y-91540639D01*
X120931561Y-91485122D01*
X120885926Y-91479642D01*
X120843102Y-91474500D01*
X120256898Y-91474500D01*
X120217853Y-91479188D01*
X120168438Y-91485122D01*
X120027656Y-91540639D01*
X119907077Y-91632077D01*
X119815638Y-91752657D01*
X119788693Y-91820989D01*
X119745787Y-91876134D01*
X119679880Y-91899327D01*
X119673338Y-91899500D01*
X118791804Y-91899500D01*
X118724765Y-91879815D01*
X118679010Y-91827011D01*
X118676450Y-91820990D01*
X118659362Y-91777660D01*
X118659361Y-91777658D01*
X118567921Y-91657076D01*
X118561573Y-91652262D01*
X118520051Y-91596069D01*
X118512500Y-91553460D01*
X118512500Y-90220945D01*
X118512500Y-90220943D01*
X118471577Y-90068216D01*
X118471573Y-90068209D01*
X118392524Y-89931290D01*
X118392518Y-89931282D01*
X118280717Y-89819481D01*
X118280709Y-89819475D01*
X118143790Y-89740426D01*
X118143786Y-89740424D01*
X118143784Y-89740423D01*
X117991057Y-89699500D01*
X117991056Y-89699500D01*
X112074500Y-89699500D01*
X112007461Y-89679815D01*
X111961706Y-89627011D01*
X111950500Y-89575500D01*
X111950500Y-88048989D01*
X111970185Y-87981950D01*
X112001616Y-87948670D01*
X112099497Y-87877556D01*
X112099497Y-87877555D01*
X112099501Y-87877553D01*
X112227553Y-87749501D01*
X112227555Y-87749497D01*
X112227558Y-87749495D01*
X112315682Y-87628202D01*
X112371011Y-87585536D01*
X112440625Y-87579557D01*
X112502420Y-87612162D01*
X112536777Y-87673001D01*
X112540000Y-87701087D01*
X112540000Y-87897844D01*
X112546401Y-87957372D01*
X112546403Y-87957379D01*
X112596645Y-88092086D01*
X112596649Y-88092093D01*
X112682809Y-88207187D01*
X112682812Y-88207190D01*
X112797906Y-88293350D01*
X112797913Y-88293354D01*
X112932620Y-88343596D01*
X112932627Y-88343598D01*
X112992155Y-88349999D01*
X112992172Y-88350000D01*
X113640000Y-88350000D01*
X113640000Y-87433012D01*
X113697007Y-87465925D01*
X113824174Y-87500000D01*
X113955826Y-87500000D01*
X114082993Y-87465925D01*
X114140000Y-87433012D01*
X114140000Y-88350000D01*
X114787828Y-88350000D01*
X114787844Y-88349999D01*
X114847372Y-88343598D01*
X114847379Y-88343596D01*
X114982086Y-88293354D01*
X114982093Y-88293350D01*
X115097187Y-88207190D01*
X115097190Y-88207187D01*
X115183350Y-88092093D01*
X115183354Y-88092086D01*
X115233596Y-87957379D01*
X115233598Y-87957372D01*
X115239999Y-87897844D01*
X115240000Y-87897827D01*
X115240000Y-87250000D01*
X114323012Y-87250000D01*
X114355925Y-87192993D01*
X114390000Y-87065826D01*
X114390000Y-86934174D01*
X114355925Y-86807007D01*
X114323012Y-86750000D01*
X115240000Y-86750000D01*
X115240000Y-86102172D01*
X115239999Y-86102155D01*
X115233598Y-86042627D01*
X115233596Y-86042620D01*
X115183354Y-85907913D01*
X115183350Y-85907906D01*
X115097190Y-85792812D01*
X115097187Y-85792809D01*
X114982093Y-85706649D01*
X114982086Y-85706645D01*
X114847379Y-85656403D01*
X114847372Y-85656401D01*
X114787844Y-85650000D01*
X114140000Y-85650000D01*
X114140000Y-86566988D01*
X114082993Y-86534075D01*
X113955826Y-86500000D01*
X113824174Y-86500000D01*
X113697007Y-86534075D01*
X113640000Y-86566988D01*
X113640000Y-85650000D01*
X112992155Y-85650000D01*
X112932627Y-85656401D01*
X112932620Y-85656403D01*
X112797913Y-85706645D01*
X112797906Y-85706649D01*
X112682812Y-85792809D01*
X112682809Y-85792812D01*
X112596649Y-85907906D01*
X112596645Y-85907913D01*
X112546403Y-86042620D01*
X112546401Y-86042627D01*
X112540000Y-86102155D01*
X112540000Y-86298912D01*
X112520315Y-86365951D01*
X112467511Y-86411706D01*
X112398353Y-86421650D01*
X112334797Y-86392625D01*
X112315682Y-86371797D01*
X112227558Y-86250505D01*
X112227554Y-86250500D01*
X112099499Y-86122445D01*
X112099494Y-86122441D01*
X112001615Y-86051328D01*
X111958949Y-85995998D01*
X111950500Y-85951010D01*
X111950500Y-58880945D01*
X111950500Y-58880943D01*
X111909577Y-58728216D01*
X111909573Y-58728209D01*
X111830524Y-58591290D01*
X111830518Y-58591282D01*
X111718717Y-58479481D01*
X111718709Y-58479475D01*
X111581790Y-58400426D01*
X111581786Y-58400424D01*
X111581784Y-58400423D01*
X111429057Y-58359500D01*
X111429056Y-58359500D01*
X75668989Y-58359500D01*
X75601950Y-58339815D01*
X75568670Y-58308384D01*
X75497556Y-58210502D01*
X75369499Y-58082445D01*
X75369494Y-58082441D01*
X75222995Y-57976004D01*
X75091314Y-57908908D01*
X75040519Y-57860934D01*
X75023724Y-57793113D01*
X75046262Y-57726978D01*
X75100977Y-57683527D01*
X75109295Y-57680492D01*
X75138217Y-57671095D01*
X75327557Y-57574620D01*
X75499459Y-57449727D01*
X75499464Y-57449723D01*
X75649723Y-57299464D01*
X75649727Y-57299459D01*
X75774620Y-57127557D01*
X75871095Y-56938217D01*
X75936757Y-56736129D01*
X75936757Y-56736126D01*
X75947231Y-56670000D01*
X75024146Y-56670000D01*
X75062630Y-56603343D01*
X75095000Y-56482535D01*
X75095000Y-56357465D01*
X75062630Y-56236657D01*
X75024146Y-56170000D01*
X75947231Y-56170000D01*
X75936757Y-56103873D01*
X75936757Y-56103870D01*
X75871095Y-55901782D01*
X75774620Y-55712442D01*
X75649727Y-55540540D01*
X75649723Y-55540535D01*
X75499464Y-55390276D01*
X75499459Y-55390272D01*
X75327557Y-55265379D01*
X75138217Y-55168904D01*
X75109292Y-55159506D01*
X75051616Y-55120068D01*
X75024418Y-55055710D01*
X75036333Y-54986863D01*
X75083577Y-54935388D01*
X75091315Y-54931090D01*
X75213424Y-54868872D01*
X81999500Y-54868872D01*
X81999500Y-55131127D01*
X82018242Y-55273476D01*
X82033730Y-55391116D01*
X82074279Y-55542447D01*
X82101602Y-55644418D01*
X82101605Y-55644428D01*
X82201953Y-55886690D01*
X82201958Y-55886700D01*
X82333075Y-56113803D01*
X82492718Y-56321851D01*
X82492726Y-56321860D01*
X82678140Y-56507274D01*
X82678148Y-56507281D01*
X82886196Y-56666924D01*
X83113299Y-56798041D01*
X83113309Y-56798046D01*
X83355571Y-56898394D01*
X83355581Y-56898398D01*
X83608884Y-56966270D01*
X83868880Y-57000500D01*
X83868887Y-57000500D01*
X84131113Y-57000500D01*
X84131120Y-57000500D01*
X84391116Y-56966270D01*
X84644419Y-56898398D01*
X84886697Y-56798043D01*
X85113803Y-56666924D01*
X85321851Y-56507282D01*
X85321855Y-56507277D01*
X85321860Y-56507274D01*
X85507274Y-56321860D01*
X85507277Y-56321855D01*
X85507282Y-56321851D01*
X85666924Y-56113803D01*
X85798043Y-55886697D01*
X85898398Y-55644419D01*
X85966270Y-55391116D01*
X86000500Y-55131120D01*
X86000500Y-54868880D01*
X86000499Y-54868872D01*
X124499500Y-54868872D01*
X124499500Y-55131127D01*
X124518242Y-55273476D01*
X124533730Y-55391116D01*
X124574279Y-55542447D01*
X124601602Y-55644418D01*
X124601605Y-55644428D01*
X124701953Y-55886690D01*
X124701958Y-55886700D01*
X124833075Y-56113803D01*
X124992718Y-56321851D01*
X124992726Y-56321860D01*
X125178140Y-56507274D01*
X125178148Y-56507281D01*
X125386196Y-56666924D01*
X125613299Y-56798041D01*
X125613309Y-56798046D01*
X125855571Y-56898394D01*
X125855581Y-56898398D01*
X126108884Y-56966270D01*
X126368880Y-57000500D01*
X126368887Y-57000500D01*
X126631113Y-57000500D01*
X126631120Y-57000500D01*
X126891116Y-56966270D01*
X127144419Y-56898398D01*
X127386697Y-56798043D01*
X127613803Y-56666924D01*
X127821851Y-56507282D01*
X127821855Y-56507277D01*
X127821860Y-56507274D01*
X128007274Y-56321860D01*
X128007277Y-56321855D01*
X128007282Y-56321851D01*
X128166924Y-56113803D01*
X128298043Y-55886697D01*
X128398398Y-55644419D01*
X128466270Y-55391116D01*
X128500500Y-55131120D01*
X128500500Y-54868880D01*
X128466270Y-54608884D01*
X128398398Y-54355581D01*
X128397472Y-54353345D01*
X128298046Y-54113309D01*
X128298041Y-54113299D01*
X128166924Y-53886196D01*
X128007281Y-53678148D01*
X128007274Y-53678140D01*
X127821860Y-53492726D01*
X127821851Y-53492718D01*
X127613803Y-53333075D01*
X127386700Y-53201958D01*
X127386690Y-53201953D01*
X127144428Y-53101605D01*
X127144421Y-53101603D01*
X127144419Y-53101602D01*
X126891116Y-53033730D01*
X126833339Y-53026123D01*
X126631127Y-52999500D01*
X126631120Y-52999500D01*
X126368880Y-52999500D01*
X126368872Y-52999500D01*
X126137772Y-53029926D01*
X126108884Y-53033730D01*
X125855581Y-53101602D01*
X125855571Y-53101605D01*
X125613309Y-53201953D01*
X125613299Y-53201958D01*
X125386196Y-53333075D01*
X125178148Y-53492718D01*
X124992718Y-53678148D01*
X124833075Y-53886196D01*
X124701958Y-54113299D01*
X124701953Y-54113309D01*
X124601605Y-54355571D01*
X124601602Y-54355581D01*
X124575577Y-54452710D01*
X124533730Y-54608885D01*
X124499500Y-54868872D01*
X86000499Y-54868872D01*
X85966270Y-54608884D01*
X85898398Y-54355581D01*
X85897472Y-54353345D01*
X85798046Y-54113309D01*
X85798041Y-54113299D01*
X85666924Y-53886196D01*
X85507281Y-53678148D01*
X85507274Y-53678140D01*
X85321860Y-53492726D01*
X85321851Y-53492718D01*
X85113803Y-53333075D01*
X84886700Y-53201958D01*
X84886690Y-53201953D01*
X84644428Y-53101605D01*
X84644421Y-53101603D01*
X84644419Y-53101602D01*
X84391116Y-53033730D01*
X84333339Y-53026123D01*
X84131127Y-52999500D01*
X84131120Y-52999500D01*
X83868880Y-52999500D01*
X83868872Y-52999500D01*
X83637772Y-53029926D01*
X83608884Y-53033730D01*
X83355581Y-53101602D01*
X83355571Y-53101605D01*
X83113309Y-53201953D01*
X83113299Y-53201958D01*
X82886196Y-53333075D01*
X82678148Y-53492718D01*
X82492718Y-53678148D01*
X82333075Y-53886196D01*
X82201958Y-54113299D01*
X82201953Y-54113309D01*
X82101605Y-54355571D01*
X82101602Y-54355581D01*
X82075577Y-54452710D01*
X82033730Y-54608885D01*
X81999500Y-54868872D01*
X75213424Y-54868872D01*
X75222994Y-54863996D01*
X75299003Y-54808772D01*
X75359936Y-54764503D01*
X75359938Y-54764501D01*
X75368825Y-54758044D01*
X75369501Y-54757553D01*
X75497553Y-54629501D01*
X75603996Y-54482994D01*
X75686211Y-54321639D01*
X75742171Y-54149409D01*
X75756765Y-54057259D01*
X75770500Y-53970551D01*
X75770500Y-53789448D01*
X75752870Y-53678140D01*
X75742171Y-53610591D01*
X75703872Y-53492718D01*
X75686212Y-53438363D01*
X75686211Y-53438360D01*
X75632565Y-53333076D01*
X75603996Y-53277006D01*
X75509037Y-53146305D01*
X75497558Y-53130505D01*
X75497554Y-53130500D01*
X75369499Y-53002445D01*
X75369494Y-53002441D01*
X75222997Y-52896006D01*
X75222996Y-52896005D01*
X75222994Y-52896004D01*
X75171300Y-52869664D01*
X75061639Y-52813788D01*
X75061636Y-52813787D01*
X74889410Y-52757829D01*
X74710551Y-52729500D01*
X74710546Y-52729500D01*
X74529454Y-52729500D01*
X74529449Y-52729500D01*
X74350589Y-52757829D01*
X74178363Y-52813787D01*
X74178360Y-52813788D01*
X74017002Y-52896006D01*
X73870505Y-53002441D01*
X73870500Y-53002445D01*
X73742445Y-53130500D01*
X73742441Y-53130505D01*
X73636006Y-53277002D01*
X73553788Y-53438360D01*
X73553787Y-53438363D01*
X73497829Y-53610589D01*
X73469500Y-53789448D01*
X73469500Y-53970551D01*
X73497829Y-54149410D01*
X73553787Y-54321636D01*
X73553788Y-54321639D01*
X73571078Y-54355571D01*
X73621485Y-54454500D01*
X73636006Y-54482997D01*
X73742441Y-54629494D01*
X73742445Y-54629499D01*
X73870500Y-54757554D01*
X73870505Y-54757558D01*
X73998287Y-54850396D01*
X74017006Y-54863996D01*
X74118780Y-54915853D01*
X74148684Y-54931090D01*
X74199480Y-54979065D01*
X74216275Y-55046886D01*
X74193737Y-55113021D01*
X74139022Y-55156472D01*
X74130708Y-55159506D01*
X74101781Y-55168905D01*
X73912442Y-55265379D01*
X73740540Y-55390272D01*
X73740535Y-55390276D01*
X73590276Y-55540535D01*
X73590272Y-55540540D01*
X73465379Y-55712442D01*
X73368904Y-55901782D01*
X73303242Y-56103870D01*
X73303242Y-56103873D01*
X73292769Y-56170000D01*
X60505245Y-56170000D01*
X60502171Y-56150591D01*
X60446211Y-55978361D01*
X60446211Y-55978360D01*
X60399507Y-55886700D01*
X60363996Y-55817006D01*
X60350396Y-55798287D01*
X60257558Y-55670505D01*
X60257554Y-55670500D01*
X60129499Y-55542445D01*
X60129494Y-55542441D01*
X59982997Y-55436006D01*
X59982996Y-55436005D01*
X59982994Y-55436004D01*
X59931300Y-55409664D01*
X59821639Y-55353788D01*
X59821636Y-55353787D01*
X59649410Y-55297829D01*
X59517728Y-55276972D01*
X59454593Y-55247042D01*
X59417662Y-55187731D01*
X59418660Y-55117868D01*
X59457270Y-55059636D01*
X59521234Y-55031522D01*
X59537120Y-55030499D01*
X59853344Y-55030499D01*
X59853352Y-55030498D01*
X59853355Y-55030498D01*
X59907760Y-55024940D01*
X59952708Y-55020349D01*
X60113697Y-54967003D01*
X60258044Y-54877968D01*
X60377968Y-54758044D01*
X60467003Y-54613697D01*
X60520349Y-54452708D01*
X60530500Y-54353345D01*
X60530499Y-53406656D01*
X60520349Y-53307292D01*
X60467003Y-53146303D01*
X60466999Y-53146297D01*
X60466998Y-53146294D01*
X60377970Y-53001959D01*
X60377967Y-53001955D01*
X60258044Y-52882032D01*
X60258040Y-52882029D01*
X60113705Y-52793001D01*
X60113699Y-52792998D01*
X60113697Y-52792997D01*
X60113694Y-52792996D01*
X59952709Y-52739651D01*
X59853346Y-52729500D01*
X58906662Y-52729500D01*
X58906644Y-52729501D01*
X58807292Y-52739650D01*
X58807289Y-52739651D01*
X58646305Y-52792996D01*
X58646294Y-52793001D01*
X58501959Y-52882029D01*
X58501955Y-52882032D01*
X58382032Y-53001955D01*
X58382029Y-53001959D01*
X58293001Y-53146294D01*
X58292996Y-53146305D01*
X58239650Y-53307291D01*
X58238547Y-53318099D01*
X58212153Y-53382792D01*
X58154973Y-53422945D01*
X58115189Y-53429500D01*
X51859309Y-53429500D01*
X51740691Y-53429500D01*
X51626114Y-53460201D01*
X51626112Y-53460201D01*
X51626112Y-53460202D01*
X51523387Y-53519511D01*
X51523384Y-53519513D01*
X51439513Y-53603384D01*
X51439511Y-53603387D01*
X51380201Y-53706114D01*
X51349500Y-53820691D01*
X50500500Y-53820691D01*
X50500500Y-53003750D01*
X50500726Y-52996263D01*
X50506790Y-52896006D01*
X50518271Y-52706200D01*
X50520076Y-52691339D01*
X50571780Y-52409201D01*
X50575358Y-52394683D01*
X50660700Y-52120806D01*
X50665997Y-52106841D01*
X50783730Y-51845249D01*
X50790675Y-51832016D01*
X50939079Y-51586526D01*
X50947566Y-51574230D01*
X51124480Y-51348416D01*
X51134395Y-51337225D01*
X51337225Y-51134395D01*
X51348416Y-51124480D01*
X51574230Y-50947566D01*
X51586526Y-50939079D01*
X51832016Y-50790675D01*
X51845249Y-50783730D01*
X52106841Y-50665997D01*
X52120806Y-50660700D01*
X52394683Y-50575358D01*
X52409197Y-50571780D01*
X52691343Y-50520075D01*
X52706200Y-50518271D01*
X52996264Y-50500726D01*
X53003751Y-50500500D01*
X53065892Y-50500500D01*
X126934108Y-50500500D01*
X126996249Y-50500500D01*
X127003736Y-50500726D01*
G37*
%TD.AperFunction*%
%TD*%
M02*
