M48
; DRILL file {KiCad 7.0.11+dfsg-1build4} date Sat Aug 29 20:49:05 2026
; FORMAT={-:-/ absolute / metric / decimal}
; #@! TF.CreationDate,2026-08-29T20:49:05+00:00
; #@! TF.GenerationSoftware,Kicad,Pcbnew,7.0.11+dfsg-1build4
; #@! TF.FileFunction,Plated,1,2,PTH
FMAT,2
METRIC
; #@! TA.AperFunction,Plated,PTH,ViaDrill
T1C0.400
; #@! TA.AperFunction,Plated,PTH,ComponentDrill
T2C0.950
; #@! TA.AperFunction,Plated,PTH,ComponentDrill
T3C1.000
; #@! TA.AperFunction,Plated,PTH,ComponentDrill
T4C1.500
%
G90
G05
T1
X55.2Y-95.0
X55.2Y-103.0
X56.6Y-95.0
X56.6Y-103.0
X58.5Y-116.0
X59.38Y-91.5
X61.0Y-95.0
X61.0Y-103.0
X71.642Y-114.12
X75.82Y-56.42
X77.5Y-116.0
X90.692Y-114.12
X96.5Y-116.0
X109.742Y-114.12
X124.0Y-92.5
T2
X59.38Y-53.88
X59.38Y-56.42
X59.38Y-58.96
X59.38Y-61.5
X59.38Y-64.04
X59.38Y-66.58
X59.38Y-69.12
X74.62Y-53.88
X74.62Y-56.42
X74.62Y-58.96
X74.62Y-61.5
X74.62Y-64.04
X74.62Y-66.58
X74.62Y-69.12
T3
X96.11Y-87.0
X98.65Y-87.0
X101.19Y-87.0
X103.73Y-87.0
X106.27Y-87.0
X108.81Y-87.0
X111.35Y-87.0
X113.89Y-87.0
X115.0Y-110.0
X115.0Y-124.5
X117.5Y-110.0
X120.0Y-110.0
X120.0Y-124.5
T4
X111.9Y-116.85G85X111.9Y-118.15
G05
X123.1Y-116.85G85X123.1Y-118.15
G05
M30
