%TF.GenerationSoftware,KiCad,Pcbnew,7.0.11+dfsg-1build4*%
%TF.CreationDate,2026-08-29T20:49:05+00:00*%
%TF.ProjectId,spotify-pad,73706f74-6966-4792-9d70-61642e6b6963,rev?*%
%TF.SameCoordinates,Original*%
%TF.FileFunction,Soldermask,Bot*%
%TF.FilePolarity,Negative*%
%FSLAX46Y46*%
G04 Gerber Fmt 4.6, Leading zero omitted, Abs format (unit mm)*
G04 Created by KiCad (PCBNEW 7.0.11+dfsg-1build4) date 2026-08-29 20:49:05*
%MOMM*%
%LPD*%
G01*
G04 APERTURE LIST*
G04 Aperture macros list*
%AMRoundRect*
0 Rectangle with rounded corners*
0 $1 Rounding radius*
0 $2 $3 $4 $5 $6 $7 $8 $9 X,Y pos of 4 corners*
0 Add a 4 corners polygon primitive as box body*
4,1,4,$2,$3,$4,$5,$6,$7,$8,$9,$2,$3,0*
0 Add four circle primitives for the rounded corners*
1,1,$1+$1,$2,$3*
1,1,$1+$1,$4,$5*
1,1,$1+$1,$6,$7*
1,1,$1+$1,$8,$9*
0 Add four rect primitives between the rounded corners*
20,1,$1+$1,$2,$3,$4,$5,0*
20,1,$1+$1,$4,$5,$6,$7,0*
20,1,$1+$1,$6,$7,$8,$9,0*
20,1,$1+$1,$8,$9,$2,$3,0*%
G04 Aperture macros list end*
%ADD10C,3.200000*%
%ADD11C,1.750000*%
%ADD12C,3.050000*%
%ADD13C,4.000000*%
%ADD14RoundRect,0.250000X-1.025000X-1.000000X1.025000X-1.000000X1.025000X1.000000X-1.025000X1.000000X0*%
%ADD15R,1.700000X1.700000*%
%ADD16O,1.700000X1.700000*%
%ADD17RoundRect,0.425000X-0.425000X-0.425000X0.425000X-0.425000X0.425000X0.425000X-0.425000X0.425000X0*%
%ADD18R,2.000000X2.000000*%
%ADD19C,2.000000*%
%ADD20R,2.000000X3.200000*%
G04 APERTURE END LIST*
D10*
%TO.C,H1*%
X84000000Y-55000000D03*
%TD*%
%TO.C,H2*%
X126500000Y-55000000D03*
%TD*%
D11*
%TO.C,SW2*%
X77970000Y-122000000D03*
D12*
X79240000Y-119460000D03*
D13*
X83050000Y-122000000D03*
D12*
X85590000Y-116920000D03*
D11*
X88130000Y-122000000D03*
D14*
X75965000Y-119460000D03*
X88892000Y-116920000D03*
%TD*%
D11*
%TO.C,SW3*%
X97020000Y-122000000D03*
D12*
X98290000Y-119460000D03*
D13*
X102100000Y-122000000D03*
D12*
X104640000Y-116920000D03*
D11*
X107180000Y-122000000D03*
D14*
X95015000Y-119460000D03*
X107942000Y-116920000D03*
%TD*%
D15*
%TO.C,J1*%
X113890000Y-87000000D03*
D16*
X111350000Y-87000000D03*
X108810000Y-87000000D03*
X106270000Y-87000000D03*
X103730000Y-87000000D03*
X101190000Y-87000000D03*
X98650000Y-87000000D03*
X96110000Y-87000000D03*
%TD*%
D17*
%TO.C,U1*%
X59380000Y-53880000D03*
D16*
X59380000Y-56420000D03*
X59380000Y-58960000D03*
X59380000Y-61500000D03*
X59380000Y-64040000D03*
X59380000Y-66580000D03*
X59380000Y-69120000D03*
X74620000Y-69120000D03*
X74620000Y-66580000D03*
X74620000Y-64040000D03*
X74620000Y-61500000D03*
X74620000Y-58960000D03*
X74620000Y-56420000D03*
X74620000Y-53880000D03*
%TD*%
D10*
%TO.C,H3*%
X54000000Y-138500000D03*
%TD*%
D18*
%TO.C,RE1*%
X120000000Y-110000000D03*
D19*
X115000000Y-110000000D03*
X117500000Y-110000000D03*
D20*
X123100000Y-117500000D03*
X111900000Y-117500000D03*
D19*
X115000000Y-124500000D03*
X120000000Y-124500000D03*
%TD*%
D10*
%TO.C,H4*%
X110000000Y-139000000D03*
%TD*%
D11*
%TO.C,SW1*%
X58920000Y-122000000D03*
D12*
X60190000Y-119460000D03*
D13*
X64000000Y-122000000D03*
D12*
X66540000Y-116920000D03*
D11*
X69080000Y-122000000D03*
D14*
X56915000Y-119460000D03*
X69842000Y-116920000D03*
%TD*%
M02*
