%TF.GenerationSoftware,KiCad,Pcbnew,7.0.11+dfsg-1build4*%
%TF.CreationDate,2026-08-29T20:49:05+00:00*%
%TF.ProjectId,spotify-pad,73706f74-6966-4792-9d70-61642e6b6963,rev?*%
%TF.SameCoordinates,Original*%
%TF.FileFunction,Copper,L1,Top*%
%TF.FilePolarity,Positive*%
%FSLAX46Y46*%
G04 Gerber Fmt 4.6, Leading zero omitted, Abs format (unit mm)*
G04 Created by KiCad (PCBNEW 7.0.11+dfsg-1build4) date 2026-08-29 20:49:05*
%MOMM*%
%LPD*%
G01*
G04 APERTURE LIST*
G04 Aperture macros list*
%AMRoundRect*
0 Rectangle with rounded corners*
0 $1 Rounding radius*
0 $2 $3 $4 $5 $6 $7 $8 $9 X,Y pos of 4 corners*
0 Add a 4 corners polygon primitive as box body*
4,1,4,$2,$3,$4,$5,$6,$7,$8,$9,$2,$3,0*
0 Add four circle primitives for the rounded corners*
1,1,$1+$1,$2,$3*
1,1,$1+$1,$4,$5*
1,1,$1+$1,$6,$7*
1,1,$1+$1,$8,$9*
0 Add four rect primitives between the rounded corners*
20,1,$1+$1,$2,$3,$4,$5,0*
20,1,$1+$1,$4,$5,$6,$7,0*
20,1,$1+$1,$6,$7,$8,$9,0*
20,1,$1+$1,$8,$9,$2,$3,0*%
G04 Aperture macros list end*
%TA.AperFunction,ComponentPad*%
%ADD10R,1.700000X1.700000*%
%TD*%
%TA.AperFunction,ComponentPad*%
%ADD11O,1.700000X1.700000*%
%TD*%
%TA.AperFunction,SMDPad,CuDef*%
%ADD12RoundRect,0.250000X-0.250000X-0.475000X0.250000X-0.475000X0.250000X0.475000X-0.250000X0.475000X0*%
%TD*%
%TA.AperFunction,SMDPad,CuDef*%
%ADD13RoundRect,0.250000X-0.262500X-0.450000X0.262500X-0.450000X0.262500X0.450000X-0.262500X0.450000X0*%
%TD*%
%TA.AperFunction,ComponentPad*%
%ADD14RoundRect,0.425000X-0.425000X-0.425000X0.425000X-0.425000X0.425000X0.425000X-0.425000X0.425000X0*%
%TD*%
%TA.AperFunction,ComponentPad*%
%ADD15R,2.000000X2.000000*%
%TD*%
%TA.AperFunction,ComponentPad*%
%ADD16C,2.000000*%
%TD*%
%TA.AperFunction,ComponentPad*%
%ADD17R,2.000000X3.200000*%
%TD*%
%TA.AperFunction,ViaPad*%
%ADD18C,0.800000*%
%TD*%
%TA.AperFunction,Conductor*%
%ADD19C,0.600000*%
%TD*%
%TA.AperFunction,Conductor*%
%ADD20C,0.300000*%
%TD*%
G04 APERTURE END LIST*
D10*
%TO.P,J1,1*%
%TO.N,GND*%
X113890000Y-87000000D03*
D11*
%TO.P,J1,2*%
%TO.N,+3V3*%
X111350000Y-87000000D03*
%TO.P,J1,3*%
%TO.N,LCD_SCK*%
X108810000Y-87000000D03*
%TO.P,J1,4*%
%TO.N,LCD_MOSI*%
X106270000Y-87000000D03*
%TO.P,J1,5*%
%TO.N,LCD_RST*%
X103730000Y-87000000D03*
%TO.P,J1,6*%
%TO.N,LCD_DC*%
X101190000Y-87000000D03*
%TO.P,J1,7*%
%TO.N,LCD_CS*%
X98650000Y-87000000D03*
%TO.P,J1,8*%
%TO.N,LCD_BL*%
X96110000Y-87000000D03*
%TD*%
D12*
%TO.P,C1,1*%
%TO.N,+3V3*%
X120550000Y-92500000D03*
%TO.P,C1,2*%
%TO.N,GND*%
X122450000Y-92500000D03*
%TD*%
D13*
%TO.P,R1,1*%
%TO.N,LCD_BL*%
X116087500Y-92500000D03*
%TO.P,R1,2*%
%TO.N,+3V3*%
X117912500Y-92500000D03*
%TD*%
D14*
%TO.P,U1,1*%
%TO.N,SW_BACK*%
X59380000Y-53880000D03*
D11*
%TO.P,U1,2*%
%TO.N,SW_PLAY*%
X59380000Y-56420000D03*
%TO.P,U1,3*%
%TO.N,SW_NEXT*%
X59380000Y-58960000D03*
%TO.P,U1,4*%
%TO.N,ENC_SW*%
X59380000Y-61500000D03*
%TO.P,U1,5*%
%TO.N,ENC_A*%
X59380000Y-64040000D03*
%TO.P,U1,6*%
%TO.N,ENC_B*%
X59380000Y-66580000D03*
%TO.P,U1,7*%
%TO.N,LCD_RST*%
X59380000Y-69120000D03*
%TO.P,U1,8*%
%TO.N,LCD_CS*%
X74620000Y-69120000D03*
%TO.P,U1,9*%
%TO.N,LCD_SCK*%
X74620000Y-66580000D03*
%TO.P,U1,10*%
%TO.N,LCD_DC*%
X74620000Y-64040000D03*
%TO.P,U1,11*%
%TO.N,LCD_MOSI*%
X74620000Y-61500000D03*
%TO.P,U1,12*%
%TO.N,+3V3*%
X74620000Y-58960000D03*
%TO.P,U1,13*%
%TO.N,GND*%
X74620000Y-56420000D03*
%TO.P,U1,14*%
%TO.N,+5V*%
X74620000Y-53880000D03*
%TD*%
D15*
%TO.P,RE1,A*%
%TO.N,ENC_A*%
X120000000Y-110000000D03*
D16*
%TO.P,RE1,B*%
%TO.N,ENC_B*%
X115000000Y-110000000D03*
%TO.P,RE1,C*%
%TO.N,GND*%
X117500000Y-110000000D03*
D17*
%TO.P,RE1,MP*%
%TO.N,N/C*%
X123100000Y-117500000D03*
X111900000Y-117500000D03*
D16*
%TO.P,RE1,S1*%
%TO.N,ENC_SW*%
X115000000Y-124500000D03*
%TO.P,RE1,S2*%
%TO.N,GND*%
X120000000Y-124500000D03*
%TD*%
D18*
%TO.N,GND*%
X109741999Y-114120000D03*
X90692000Y-114120000D03*
X124000000Y-92500000D03*
X71642000Y-114120000D03*
X75820000Y-56420000D03*
%TO.N,SW_BACK*%
X58500000Y-116000000D03*
%TO.N,SW_PLAY*%
X77500000Y-116000000D03*
%TO.N,SW_NEXT*%
X96500000Y-116000000D03*
%TO.N,ENC_A*%
X55200000Y-103000000D03*
X55200000Y-95000000D03*
%TO.N,ENC_B*%
X56600000Y-103000000D03*
X56600000Y-95000000D03*
%TO.N,ENC_SW*%
X61000000Y-103000000D03*
X61000000Y-95000000D03*
%TO.N,LCD_RST*%
X59380000Y-91500000D03*
%TD*%
D19*
%TO.N,GND*%
X122450000Y-92500000D02*
X124000000Y-92500000D01*
X74620000Y-56420000D02*
X75820000Y-56420000D01*
%TO.N,+3V3*%
X111350000Y-87000000D02*
X111350000Y-90300000D01*
X117912000Y-90300000D02*
X117912000Y-92500000D01*
X74620000Y-58960000D02*
X111350000Y-58960000D01*
X117912000Y-92500000D02*
X120550000Y-92500000D01*
X111350000Y-58960000D02*
X111350000Y-87000000D01*
X111350000Y-90300000D02*
X117912000Y-90300000D01*
D20*
%TO.N,SW_BACK*%
X58500000Y-116000000D02*
X58500000Y-100400000D01*
X58500000Y-100400000D02*
X51800000Y-100400000D01*
X51800000Y-100400000D02*
X51800000Y-53880000D01*
X51800000Y-53880000D02*
X59380000Y-53880000D01*
%TO.N,SW_PLAY*%
X77500000Y-99200000D02*
X52600000Y-99200000D01*
X52600000Y-56420000D02*
X59380000Y-56420000D01*
X77500000Y-116000000D02*
X77500000Y-99200000D01*
X52600000Y-99200000D02*
X52600000Y-56420000D01*
%TO.N,SW_NEXT*%
X96500000Y-98000000D02*
X53400000Y-98000000D01*
X96500000Y-116000000D02*
X96500000Y-98000000D01*
X53400000Y-58960000D02*
X59380000Y-58960000D01*
X53400000Y-98000000D02*
X53400000Y-58960000D01*
%TO.N,ENC_A*%
X55200000Y-95000000D02*
X55200000Y-64040000D01*
X128000000Y-136400000D02*
X55200000Y-136400000D01*
X55200000Y-136400000D02*
X55200000Y-103000000D01*
X120000000Y-110000000D02*
X128000000Y-110000000D01*
X128000000Y-110000000D02*
X128000000Y-136400000D01*
X55200000Y-64040000D02*
X59380000Y-64040000D01*
%TO.N,ENC_B*%
X125600000Y-113500000D02*
X125600000Y-135200000D01*
X125600000Y-135200000D02*
X56600000Y-135200000D01*
X56600000Y-135200000D02*
X56600000Y-103000000D01*
X115000000Y-113500000D02*
X125600000Y-113500000D01*
X56600000Y-95000000D02*
X56600000Y-66580000D01*
X115000000Y-110000000D02*
X115000000Y-113500000D01*
X56600000Y-66580000D02*
X59380000Y-66580000D01*
%TO.N,ENC_SW*%
X70800000Y-110000000D02*
X61000000Y-110000000D01*
X61000000Y-110000000D02*
X61000000Y-103000000D01*
X61000000Y-95000000D02*
X61000000Y-61500000D01*
X115000000Y-124500000D02*
X115000000Y-134000000D01*
X70800000Y-134000000D02*
X70800000Y-110000000D01*
X115000000Y-134000000D02*
X70800000Y-134000000D01*
X61000000Y-61500000D02*
X59380000Y-61500000D01*
%TO.N,LCD_SCK*%
X108810000Y-66580000D02*
X108810000Y-87000000D01*
X74620000Y-66580000D02*
X108810000Y-66580000D01*
%TO.N,LCD_RST*%
X59380000Y-69120000D02*
X59380000Y-91500000D01*
%TO.N,LCD_BL*%
X96110000Y-93200000D02*
X96110000Y-87000000D01*
X116088000Y-93200000D02*
X96110000Y-93200000D01*
X116088000Y-92500000D02*
X116088000Y-93200000D01*
%TD*%
%TA.AperFunction,Conductor*%
%TO.N,GND*%
G36*
X55984246Y-103346307D02*
G01*
X56002047Y-103366851D01*
X56033789Y-103412837D01*
X56071815Y-103467927D01*
X56071816Y-103467928D01*
X56071817Y-103467929D01*
X56107727Y-103499742D01*
X56144853Y-103558929D01*
X56149500Y-103592557D01*
X56149500Y-135135268D01*
X56146391Y-135162860D01*
X56145684Y-135165954D01*
X56149153Y-135212228D01*
X56149500Y-135221496D01*
X56149500Y-135233759D01*
X56149501Y-135233773D01*
X56151327Y-135245890D01*
X56152365Y-135255101D01*
X56155833Y-135301375D01*
X56156991Y-135304325D01*
X56164179Y-135331149D01*
X56164651Y-135334285D01*
X56164652Y-135334287D01*
X56184784Y-135376091D01*
X56188487Y-135384580D01*
X56200526Y-135415253D01*
X56205447Y-135427792D01*
X56205447Y-135427793D01*
X56207426Y-135430274D01*
X56222194Y-135453777D01*
X56223571Y-135456637D01*
X56223572Y-135456638D01*
X56223574Y-135456640D01*
X56223575Y-135456642D01*
X56249011Y-135484055D01*
X56255143Y-135490664D01*
X56261181Y-135497680D01*
X56290121Y-135533970D01*
X56292747Y-135535760D01*
X56313782Y-135553863D01*
X56315945Y-135556194D01*
X56356139Y-135579400D01*
X56363978Y-135584326D01*
X56376085Y-135592580D01*
X56402327Y-135610472D01*
X56405356Y-135611406D01*
X56430808Y-135622510D01*
X56433555Y-135624096D01*
X56478805Y-135634423D01*
X56487745Y-135636818D01*
X56532098Y-135650500D01*
X56535268Y-135650500D01*
X56562859Y-135653608D01*
X56565954Y-135654315D01*
X56612230Y-135650846D01*
X56621497Y-135650500D01*
X125535268Y-135650500D01*
X125562859Y-135653608D01*
X125565954Y-135654315D01*
X125612230Y-135650846D01*
X125621497Y-135650500D01*
X125633759Y-135650500D01*
X125633762Y-135650500D01*
X125645907Y-135648668D01*
X125655065Y-135647636D01*
X125701378Y-135644166D01*
X125704329Y-135643007D01*
X125731158Y-135635819D01*
X125734287Y-135635348D01*
X125776106Y-135615207D01*
X125784577Y-135611512D01*
X125827794Y-135594552D01*
X125830272Y-135592575D01*
X125853786Y-135577799D01*
X125856642Y-135576425D01*
X125890672Y-135544848D01*
X125897678Y-135538819D01*
X125933970Y-135509879D01*
X125935754Y-135507261D01*
X125953872Y-135486209D01*
X125956194Y-135484055D01*
X125979409Y-135443843D01*
X125984318Y-135436032D01*
X126010472Y-135397673D01*
X126011406Y-135394641D01*
X126022513Y-135369186D01*
X126024096Y-135366445D01*
X126034421Y-135321202D01*
X126036822Y-135312242D01*
X126039265Y-135304325D01*
X126050500Y-135267902D01*
X126050500Y-135264733D01*
X126053609Y-135237139D01*
X126054315Y-135234044D01*
X126050847Y-135187770D01*
X126050500Y-135178502D01*
X126050500Y-113564733D01*
X126053609Y-113537139D01*
X126054315Y-113534044D01*
X126050847Y-113487770D01*
X126050500Y-113478502D01*
X126050500Y-113466240D01*
X126050500Y-113466238D01*
X126048671Y-113454110D01*
X126047633Y-113444891D01*
X126044166Y-113398620D01*
X126043009Y-113395672D01*
X126035819Y-113368840D01*
X126035348Y-113365716D01*
X126035348Y-113365715D01*
X126035348Y-113365713D01*
X126015210Y-113323897D01*
X126011507Y-113315408D01*
X126010800Y-113313608D01*
X125994552Y-113272206D01*
X125992569Y-113269719D01*
X125977801Y-113246216D01*
X125976425Y-113243358D01*
X125944862Y-113209341D01*
X125938813Y-113202312D01*
X125909878Y-113166029D01*
X125909877Y-113166028D01*
X125907253Y-113164239D01*
X125886214Y-113146133D01*
X125884056Y-113143807D01*
X125884052Y-113143804D01*
X125843864Y-113120601D01*
X125836015Y-113115669D01*
X125797672Y-113089527D01*
X125797666Y-113089525D01*
X125794630Y-113088588D01*
X125769195Y-113077490D01*
X125766452Y-113075907D01*
X125766448Y-113075905D01*
X125766445Y-113075904D01*
X125739008Y-113069641D01*
X125721196Y-113065576D01*
X125712249Y-113063178D01*
X125667902Y-113049500D01*
X125667900Y-113049500D01*
X125664732Y-113049500D01*
X125637140Y-113046391D01*
X125634046Y-113045685D01*
X125634042Y-113045684D01*
X125589702Y-113049008D01*
X125587769Y-113049153D01*
X125578503Y-113049500D01*
X115574500Y-113049500D01*
X115507461Y-113029815D01*
X115461706Y-112977011D01*
X115450500Y-112925500D01*
X115450500Y-111303867D01*
X115470185Y-111236828D01*
X115522095Y-111191485D01*
X115652734Y-111130568D01*
X115839139Y-111000047D01*
X116000047Y-110839139D01*
X116027570Y-110799830D01*
X116082145Y-110756206D01*
X116151643Y-110749012D01*
X116213999Y-110780533D01*
X116232953Y-110803132D01*
X116276563Y-110869882D01*
X116276564Y-110869882D01*
X117016923Y-110129523D01*
X117040507Y-110209844D01*
X117118239Y-110330798D01*
X117226900Y-110424952D01*
X117357685Y-110484680D01*
X117367466Y-110486086D01*
X116629942Y-111223609D01*
X116676768Y-111260055D01*
X116676770Y-111260056D01*
X116895385Y-111378364D01*
X116895396Y-111378369D01*
X117130506Y-111459083D01*
X117375707Y-111500000D01*
X117624293Y-111500000D01*
X117869493Y-111459083D01*
X118104603Y-111378369D01*
X118104614Y-111378364D01*
X118323228Y-111260057D01*
X118323231Y-111260055D01*
X118370056Y-111223609D01*
X117632533Y-110486086D01*
X117642315Y-110484680D01*
X117773100Y-110424952D01*
X117881761Y-110330798D01*
X117959493Y-110209844D01*
X117983076Y-110129523D01*
X118663181Y-110809628D01*
X118696666Y-110870951D01*
X118699500Y-110897308D01*
X118699500Y-111044856D01*
X118699502Y-111044881D01*
X118702414Y-111069988D01*
X118702415Y-111069991D01*
X118747793Y-111172764D01*
X118747794Y-111172765D01*
X118827235Y-111252206D01*
X118930009Y-111297585D01*
X118955135Y-111300500D01*
X121044864Y-111300499D01*
X121044879Y-111300497D01*
X121044882Y-111300497D01*
X121069987Y-111297586D01*
X121069988Y-111297585D01*
X121069991Y-111297585D01*
X121172765Y-111252206D01*
X121252206Y-111172765D01*
X121297585Y-111069991D01*
X121300500Y-111044865D01*
X121300500Y-110574500D01*
X121320185Y-110507461D01*
X121372989Y-110461706D01*
X121424500Y-110450500D01*
X127425500Y-110450500D01*
X127492539Y-110470185D01*
X127538294Y-110522989D01*
X127549500Y-110574500D01*
X127549500Y-135825500D01*
X127529815Y-135892539D01*
X127477011Y-135938294D01*
X127425500Y-135949500D01*
X55774500Y-135949500D01*
X55707461Y-135929815D01*
X55661706Y-135877011D01*
X55650500Y-135825500D01*
X55650500Y-103592557D01*
X55670185Y-103525518D01*
X55692270Y-103499744D01*
X55728183Y-103467929D01*
X55797951Y-103366853D01*
X55852233Y-103322864D01*
X55921681Y-103315204D01*
X55984246Y-103346307D01*
G37*
%TD.AperFunction*%
%TA.AperFunction,Conductor*%
G36*
X127003243Y-50000669D02*
G01*
X127133379Y-50007490D01*
X127313908Y-50017628D01*
X127326309Y-50018955D01*
X127474990Y-50042504D01*
X127476245Y-50042709D01*
X127635324Y-50069738D01*
X127646606Y-50072202D01*
X127795635Y-50112134D01*
X127797761Y-50112725D01*
X127949174Y-50156347D01*
X127959260Y-50159729D01*
X128104710Y-50215562D01*
X128107599Y-50216714D01*
X128251768Y-50276430D01*
X128260594Y-50280500D01*
X128400064Y-50351565D01*
X128403748Y-50353521D01*
X128493848Y-50403316D01*
X128539548Y-50428574D01*
X128547061Y-50433081D01*
X128678754Y-50518604D01*
X128682947Y-50521452D01*
X128809147Y-50610996D01*
X128815428Y-50615759D01*
X128937567Y-50714665D01*
X128942158Y-50718571D01*
X129057424Y-50821579D01*
X129062478Y-50826358D01*
X129173640Y-50937520D01*
X129178419Y-50942574D01*
X129281427Y-51057840D01*
X129285333Y-51062431D01*
X129384239Y-51184570D01*
X129389002Y-51190851D01*
X129478546Y-51317051D01*
X129481409Y-51321266D01*
X129566907Y-51452921D01*
X129571430Y-51460460D01*
X129646477Y-51596250D01*
X129648433Y-51599934D01*
X129719498Y-51739404D01*
X129723575Y-51748247D01*
X129783259Y-51892337D01*
X129784462Y-51895353D01*
X129840265Y-52040727D01*
X129843655Y-52050836D01*
X129887258Y-52202185D01*
X129887879Y-52204419D01*
X129927791Y-52353370D01*
X129930264Y-52364694D01*
X129957282Y-52523715D01*
X129957507Y-52525087D01*
X129981040Y-52673666D01*
X129982372Y-52686111D01*
X129992498Y-52866421D01*
X129992523Y-52866884D01*
X129999330Y-52996756D01*
X129999500Y-53003246D01*
X129999500Y-138996753D01*
X129999330Y-139003243D01*
X129992523Y-139133114D01*
X129992498Y-139133577D01*
X129982372Y-139313887D01*
X129981040Y-139326332D01*
X129957507Y-139474911D01*
X129957282Y-139476283D01*
X129930264Y-139635304D01*
X129927791Y-139646628D01*
X129887879Y-139795579D01*
X129887258Y-139797813D01*
X129843655Y-139949162D01*
X129840265Y-139959271D01*
X129784462Y-140104645D01*
X129783259Y-140107661D01*
X129723575Y-140251751D01*
X129719498Y-140260594D01*
X129648433Y-140400064D01*
X129646477Y-140403748D01*
X129571430Y-140539538D01*
X129566897Y-140547094D01*
X129481412Y-140678728D01*
X129478546Y-140682947D01*
X129389002Y-140809147D01*
X129384239Y-140815428D01*
X129285333Y-140937567D01*
X129281427Y-140942158D01*
X129178419Y-141057424D01*
X129173640Y-141062478D01*
X129062478Y-141173640D01*
X129057424Y-141178419D01*
X128942158Y-141281427D01*
X128937567Y-141285333D01*
X128815428Y-141384239D01*
X128809147Y-141389002D01*
X128682947Y-141478546D01*
X128678728Y-141481412D01*
X128547094Y-141566897D01*
X128539538Y-141571430D01*
X128403748Y-141646477D01*
X128400064Y-141648433D01*
X128260594Y-141719498D01*
X128251751Y-141723575D01*
X128107661Y-141783259D01*
X128104645Y-141784462D01*
X127959271Y-141840265D01*
X127949162Y-141843655D01*
X127797813Y-141887258D01*
X127795579Y-141887879D01*
X127646628Y-141927791D01*
X127635304Y-141930264D01*
X127476283Y-141957282D01*
X127474911Y-141957507D01*
X127326332Y-141981040D01*
X127313887Y-141982372D01*
X127133577Y-141992498D01*
X127133114Y-141992523D01*
X127003243Y-141999330D01*
X126996753Y-141999500D01*
X53003247Y-141999500D01*
X52996757Y-141999330D01*
X52866884Y-141992523D01*
X52866421Y-141992498D01*
X52686111Y-141982372D01*
X52673666Y-141981040D01*
X52525087Y-141957507D01*
X52523715Y-141957282D01*
X52364694Y-141930264D01*
X52353370Y-141927791D01*
X52204419Y-141887879D01*
X52202185Y-141887258D01*
X52050836Y-141843655D01*
X52040727Y-141840265D01*
X51895353Y-141784462D01*
X51892337Y-141783259D01*
X51748247Y-141723575D01*
X51739404Y-141719498D01*
X51599934Y-141648433D01*
X51596250Y-141646477D01*
X51460460Y-141571430D01*
X51452921Y-141566907D01*
X51321266Y-141481409D01*
X51317051Y-141478546D01*
X51190851Y-141389002D01*
X51184570Y-141384239D01*
X51062431Y-141285333D01*
X51057840Y-141281427D01*
X50942574Y-141178419D01*
X50937520Y-141173640D01*
X50826358Y-141062478D01*
X50821579Y-141057424D01*
X50718571Y-140942158D01*
X50714665Y-140937567D01*
X50703977Y-140924369D01*
X50615757Y-140815426D01*
X50610996Y-140809147D01*
X50521452Y-140682947D01*
X50518604Y-140678754D01*
X50433081Y-140547061D01*
X50428568Y-140539538D01*
X50415418Y-140515745D01*
X50398534Y-140485195D01*
X50353521Y-140403748D01*
X50351565Y-140400064D01*
X50280500Y-140260594D01*
X50276430Y-140251768D01*
X50216714Y-140107599D01*
X50215562Y-140104710D01*
X50159729Y-139959260D01*
X50156347Y-139949174D01*
X50112725Y-139797761D01*
X50112134Y-139795635D01*
X50072202Y-139646606D01*
X50069738Y-139635324D01*
X50042709Y-139476245D01*
X50042491Y-139474911D01*
X50018955Y-139326309D01*
X50017628Y-139313908D01*
X50007485Y-139133285D01*
X50007476Y-139133114D01*
X50000670Y-139003243D01*
X50000500Y-138996754D01*
X50000500Y-138500001D01*
X51994390Y-138500001D01*
X52014804Y-138785433D01*
X52075628Y-139065037D01*
X52075630Y-139065043D01*
X52075631Y-139065046D01*
X52168312Y-139313533D01*
X52175635Y-139333166D01*
X52312770Y-139584309D01*
X52312775Y-139584317D01*
X52484254Y-139813387D01*
X52484270Y-139813405D01*
X52686594Y-140015729D01*
X52686612Y-140015745D01*
X52915682Y-140187224D01*
X52915690Y-140187229D01*
X53166833Y-140324364D01*
X53166832Y-140324364D01*
X53166836Y-140324365D01*
X53166839Y-140324367D01*
X53434954Y-140424369D01*
X53434960Y-140424370D01*
X53434962Y-140424371D01*
X53714566Y-140485195D01*
X53714568Y-140485195D01*
X53714572Y-140485196D01*
X53928552Y-140500500D01*
X54071448Y-140500500D01*
X54285428Y-140485196D01*
X54565046Y-140424369D01*
X54833161Y-140324367D01*
X55084315Y-140187226D01*
X55313395Y-140015739D01*
X55515739Y-139813395D01*
X55687226Y-139584315D01*
X55824367Y-139333161D01*
X55924369Y-139065046D01*
X55985196Y-138785428D01*
X56005610Y-138500000D01*
X55985196Y-138214572D01*
X55974812Y-138166839D01*
X55924371Y-137934962D01*
X55924370Y-137934960D01*
X55924369Y-137934954D01*
X55824367Y-137666839D01*
X55724676Y-137484270D01*
X55687229Y-137415690D01*
X55687224Y-137415682D01*
X55515745Y-137186612D01*
X55515729Y-137186594D01*
X55391316Y-137062181D01*
X55357831Y-137000858D01*
X55362815Y-136931166D01*
X55404687Y-136875233D01*
X55470151Y-136850816D01*
X55478997Y-136850500D01*
X109351269Y-136850500D01*
X109418308Y-136870185D01*
X109464063Y-136922989D01*
X109474007Y-136992147D01*
X109444982Y-137055703D01*
X109394605Y-137090680D01*
X109218359Y-137156416D01*
X109166833Y-137175635D01*
X108915690Y-137312770D01*
X108915682Y-137312775D01*
X108686612Y-137484254D01*
X108686594Y-137484270D01*
X108484270Y-137686594D01*
X108484254Y-137686612D01*
X108312775Y-137915682D01*
X108312770Y-137915690D01*
X108175635Y-138166833D01*
X108075628Y-138434962D01*
X108014804Y-138714566D01*
X107994390Y-138999998D01*
X107994390Y-139000001D01*
X108014804Y-139285433D01*
X108075628Y-139565037D01*
X108075630Y-139565043D01*
X108075631Y-139565046D01*
X108175633Y-139833161D01*
X108175635Y-139833166D01*
X108312770Y-140084309D01*
X108312775Y-140084317D01*
X108484254Y-140313387D01*
X108484270Y-140313405D01*
X108686594Y-140515729D01*
X108686612Y-140515745D01*
X108915682Y-140687224D01*
X108915690Y-140687229D01*
X109166833Y-140824364D01*
X109166832Y-140824364D01*
X109166836Y-140824365D01*
X109166839Y-140824367D01*
X109434954Y-140924369D01*
X109434960Y-140924370D01*
X109434962Y-140924371D01*
X109714566Y-140985195D01*
X109714568Y-140985195D01*
X109714572Y-140985196D01*
X109928552Y-141000500D01*
X110071448Y-141000500D01*
X110285428Y-140985196D01*
X110565046Y-140924369D01*
X110833161Y-140824367D01*
X111084315Y-140687226D01*
X111313395Y-140515739D01*
X111515739Y-140313395D01*
X111687226Y-140084315D01*
X111824367Y-139833161D01*
X111924369Y-139565046D01*
X111985196Y-139285428D01*
X112005610Y-139000000D01*
X111985196Y-138714572D01*
X111938518Y-138499998D01*
X111924371Y-138434962D01*
X111924370Y-138434960D01*
X111924369Y-138434954D01*
X111824367Y-138166839D01*
X111687226Y-137915685D01*
X111687224Y-137915682D01*
X111515745Y-137686612D01*
X111515729Y-137686594D01*
X111313405Y-137484270D01*
X111313387Y-137484254D01*
X111084317Y-137312775D01*
X111084309Y-137312770D01*
X110833166Y-137175635D01*
X110833167Y-137175635D01*
X110781640Y-137156416D01*
X110605394Y-137090680D01*
X110549464Y-137048810D01*
X110525047Y-136983346D01*
X110539899Y-136915073D01*
X110589304Y-136865668D01*
X110648731Y-136850500D01*
X127935268Y-136850500D01*
X127962859Y-136853608D01*
X127965954Y-136854315D01*
X128012230Y-136850846D01*
X128021497Y-136850500D01*
X128033759Y-136850500D01*
X128033762Y-136850500D01*
X128045907Y-136848668D01*
X128055065Y-136847636D01*
X128101378Y-136844166D01*
X128104329Y-136843007D01*
X128131158Y-136835819D01*
X128134287Y-136835348D01*
X128176106Y-136815207D01*
X128184577Y-136811512D01*
X128227794Y-136794552D01*
X128230272Y-136792575D01*
X128253786Y-136777799D01*
X128256642Y-136776425D01*
X128290672Y-136744848D01*
X128297678Y-136738819D01*
X128333970Y-136709879D01*
X128335754Y-136707261D01*
X128353872Y-136686209D01*
X128356194Y-136684055D01*
X128379409Y-136643843D01*
X128384318Y-136636032D01*
X128410472Y-136597673D01*
X128411406Y-136594641D01*
X128422513Y-136569186D01*
X128424096Y-136566445D01*
X128434421Y-136521202D01*
X128436822Y-136512242D01*
X128440174Y-136501378D01*
X128450500Y-136467902D01*
X128450500Y-136464733D01*
X128453609Y-136437139D01*
X128454315Y-136434044D01*
X128450847Y-136387770D01*
X128450500Y-136378502D01*
X128450500Y-110064733D01*
X128453609Y-110037139D01*
X128454315Y-110034044D01*
X128450847Y-109987770D01*
X128450500Y-109978502D01*
X128450500Y-109966240D01*
X128450500Y-109966238D01*
X128448671Y-109954110D01*
X128447633Y-109944891D01*
X128444166Y-109898620D01*
X128443009Y-109895672D01*
X128435819Y-109868840D01*
X128435348Y-109865716D01*
X128435348Y-109865715D01*
X128435348Y-109865713D01*
X128415210Y-109823897D01*
X128411507Y-109815408D01*
X128410800Y-109813608D01*
X128394552Y-109772206D01*
X128392569Y-109769719D01*
X128377801Y-109746216D01*
X128376425Y-109743358D01*
X128344862Y-109709341D01*
X128338813Y-109702312D01*
X128319559Y-109678169D01*
X128309879Y-109666030D01*
X128309878Y-109666029D01*
X128309877Y-109666028D01*
X128307253Y-109664239D01*
X128286214Y-109646133D01*
X128284056Y-109643807D01*
X128284052Y-109643804D01*
X128243864Y-109620601D01*
X128236015Y-109615669D01*
X128197672Y-109589527D01*
X128197666Y-109589525D01*
X128194630Y-109588588D01*
X128169195Y-109577490D01*
X128166452Y-109575907D01*
X128166448Y-109575905D01*
X128166445Y-109575904D01*
X128139008Y-109569641D01*
X128121196Y-109565576D01*
X128112249Y-109563178D01*
X128067902Y-109549500D01*
X128067900Y-109549500D01*
X128064732Y-109549500D01*
X128037140Y-109546391D01*
X128034046Y-109545685D01*
X128034042Y-109545684D01*
X127989702Y-109549008D01*
X127987769Y-109549153D01*
X127978503Y-109549500D01*
X121424499Y-109549500D01*
X121357460Y-109529815D01*
X121311705Y-109477011D01*
X121300499Y-109425500D01*
X121300499Y-108955143D01*
X121300499Y-108955136D01*
X121300497Y-108955117D01*
X121297586Y-108930012D01*
X121297585Y-108930010D01*
X121297585Y-108930009D01*
X121252206Y-108827235D01*
X121172765Y-108747794D01*
X121097058Y-108714366D01*
X121069992Y-108702415D01*
X121044865Y-108699500D01*
X118955143Y-108699500D01*
X118955117Y-108699502D01*
X118930012Y-108702413D01*
X118930008Y-108702415D01*
X118827235Y-108747793D01*
X118747794Y-108827234D01*
X118702415Y-108930006D01*
X118702415Y-108930008D01*
X118699500Y-108955131D01*
X118699500Y-109102690D01*
X118679815Y-109169729D01*
X118663181Y-109190371D01*
X117983076Y-109870475D01*
X117959493Y-109790156D01*
X117881761Y-109669202D01*
X117773100Y-109575048D01*
X117642315Y-109515320D01*
X117632534Y-109513913D01*
X118370057Y-108776390D01*
X118370056Y-108776389D01*
X118323229Y-108739943D01*
X118104614Y-108621635D01*
X118104603Y-108621630D01*
X117869493Y-108540916D01*
X117624293Y-108500000D01*
X117375707Y-108500000D01*
X117130506Y-108540916D01*
X116895396Y-108621630D01*
X116895390Y-108621632D01*
X116676761Y-108739949D01*
X116629942Y-108776388D01*
X116629942Y-108776390D01*
X117367466Y-109513913D01*
X117357685Y-109515320D01*
X117226900Y-109575048D01*
X117118239Y-109669202D01*
X117040507Y-109790156D01*
X117016923Y-109870475D01*
X116276564Y-109130116D01*
X116276563Y-109130116D01*
X116232953Y-109196867D01*
X116179807Y-109242223D01*
X116110576Y-109251647D01*
X116047240Y-109222145D01*
X116027570Y-109200168D01*
X116000045Y-109160858D01*
X115839141Y-108999954D01*
X115652734Y-108869432D01*
X115652732Y-108869431D01*
X115446497Y-108773261D01*
X115446488Y-108773258D01*
X115226697Y-108714366D01*
X115226693Y-108714365D01*
X115226692Y-108714365D01*
X115226691Y-108714364D01*
X115226686Y-108714364D01*
X115000002Y-108694532D01*
X114999998Y-108694532D01*
X114773313Y-108714364D01*
X114773302Y-108714366D01*
X114553511Y-108773258D01*
X114553502Y-108773261D01*
X114347267Y-108869431D01*
X114347265Y-108869432D01*
X114160858Y-108999954D01*
X113999954Y-109160858D01*
X113869432Y-109347265D01*
X113869431Y-109347267D01*
X113773261Y-109553502D01*
X113773258Y-109553511D01*
X113714366Y-109773302D01*
X113714364Y-109773313D01*
X113694532Y-109999998D01*
X113694532Y-110000001D01*
X113714364Y-110226686D01*
X113714366Y-110226697D01*
X113773258Y-110446488D01*
X113773261Y-110446497D01*
X113869431Y-110652732D01*
X113869432Y-110652734D01*
X113999954Y-110839141D01*
X114160858Y-111000045D01*
X114160861Y-111000047D01*
X114347266Y-111130568D01*
X114477904Y-111191485D01*
X114530344Y-111237657D01*
X114549500Y-111303867D01*
X114549500Y-113435268D01*
X114546391Y-113462860D01*
X114545684Y-113465954D01*
X114549153Y-113512228D01*
X114549500Y-113521496D01*
X114549500Y-113533759D01*
X114549501Y-113533773D01*
X114551327Y-113545890D01*
X114552365Y-113555101D01*
X114555833Y-113601375D01*
X114556991Y-113604325D01*
X114564179Y-113631149D01*
X114564651Y-113634285D01*
X114564652Y-113634286D01*
X114584784Y-113676091D01*
X114588487Y-113684580D01*
X114600526Y-113715253D01*
X114605447Y-113727792D01*
X114605447Y-113727793D01*
X114607426Y-113730274D01*
X114622194Y-113753777D01*
X114623571Y-113756637D01*
X114623572Y-113756638D01*
X114623574Y-113756640D01*
X114623575Y-113756642D01*
X114655143Y-113790664D01*
X114661181Y-113797680D01*
X114690121Y-113833970D01*
X114692747Y-113835760D01*
X114713782Y-113853863D01*
X114715945Y-113856194D01*
X114756139Y-113879400D01*
X114763978Y-113884326D01*
X114778413Y-113894167D01*
X114802327Y-113910472D01*
X114805356Y-113911406D01*
X114830808Y-113922510D01*
X114833555Y-113924096D01*
X114878805Y-113934423D01*
X114887745Y-113936818D01*
X114932098Y-113950500D01*
X114935268Y-113950500D01*
X114962859Y-113953608D01*
X114965954Y-113954315D01*
X115012230Y-113950846D01*
X115021497Y-113950500D01*
X125025500Y-113950500D01*
X125092539Y-113970185D01*
X125138294Y-114022989D01*
X125149500Y-114074500D01*
X125149500Y-134625500D01*
X125129815Y-134692539D01*
X125077011Y-134738294D01*
X125025500Y-134749500D01*
X57174500Y-134749500D01*
X57107461Y-134729815D01*
X57061706Y-134677011D01*
X57050500Y-134625500D01*
X57050500Y-122057456D01*
X57640634Y-122057456D01*
X57664138Y-122230970D01*
X57671454Y-122284977D01*
X57742401Y-122503331D01*
X57851197Y-122705507D01*
X57851203Y-122705516D01*
X57994345Y-122885011D01*
X57994347Y-122885012D01*
X57994348Y-122885014D01*
X58167249Y-123036072D01*
X58252748Y-123087155D01*
X58364336Y-123153827D01*
X58364338Y-123153827D01*
X58364344Y-123153831D01*
X58579298Y-123234505D01*
X58805200Y-123275500D01*
X58805203Y-123275500D01*
X58977281Y-123275500D01*
X58977287Y-123275500D01*
X59138032Y-123261032D01*
X59148671Y-123260075D01*
X59252587Y-123231395D01*
X59369990Y-123198995D01*
X59576848Y-123099378D01*
X59762593Y-122964425D01*
X59921257Y-122798476D01*
X60047740Y-122606863D01*
X60137976Y-122395744D01*
X60189066Y-122171907D01*
X60199366Y-121942544D01*
X60196705Y-121922903D01*
X61595793Y-121922903D01*
X61605672Y-122230970D01*
X61605672Y-122230975D01*
X61605673Y-122230978D01*
X61654867Y-122535261D01*
X61705396Y-122705510D01*
X61742571Y-122830763D01*
X61861481Y-123099381D01*
X61867337Y-123112609D01*
X62027123Y-123376193D01*
X62027127Y-123376198D01*
X62027133Y-123376207D01*
X62219297Y-123617174D01*
X62219299Y-123617176D01*
X62219303Y-123617180D01*
X62219304Y-123617181D01*
X62440724Y-123831614D01*
X62607862Y-123956352D01*
X62687741Y-124015968D01*
X62687743Y-124015969D01*
X62687747Y-124015972D01*
X62956318Y-124167228D01*
X63097057Y-124224207D01*
X63242018Y-124282897D01*
X63242023Y-124282898D01*
X63242025Y-124282899D01*
X63540179Y-124361084D01*
X63845883Y-124400500D01*
X63845890Y-124400500D01*
X64076971Y-124400500D01*
X64076974Y-124400500D01*
X64076978Y-124400499D01*
X64076996Y-124400499D01*
X64179700Y-124393904D01*
X64307601Y-124385693D01*
X64610151Y-124326772D01*
X64902683Y-124229644D01*
X64902689Y-124229640D01*
X64902693Y-124229640D01*
X65093571Y-124137717D01*
X65180393Y-124095907D01*
X65438720Y-123927754D01*
X65673424Y-123727948D01*
X65880650Y-123499769D01*
X66036470Y-123276389D01*
X66056994Y-123246966D01*
X66056996Y-123246963D01*
X66199567Y-122973683D01*
X66306020Y-122684415D01*
X66374609Y-122383908D01*
X66404206Y-122077098D01*
X66394327Y-121769022D01*
X66345133Y-121464739D01*
X66257431Y-121169244D01*
X66257429Y-121169239D01*
X66257428Y-121169236D01*
X66151903Y-120930855D01*
X66132663Y-120887391D01*
X65972877Y-120623807D01*
X65972870Y-120623799D01*
X65972866Y-120623792D01*
X65780702Y-120382825D01*
X65780700Y-120382823D01*
X65559279Y-120168389D01*
X65559276Y-120168386D01*
X65430450Y-120072241D01*
X65312258Y-119984031D01*
X65312253Y-119984028D01*
X65043682Y-119832772D01*
X65006383Y-119817671D01*
X64757981Y-119717102D01*
X64590660Y-119673226D01*
X64459821Y-119638916D01*
X64154117Y-119599500D01*
X63923026Y-119599500D01*
X63923003Y-119599500D01*
X63692406Y-119614306D01*
X63692389Y-119614308D01*
X63389854Y-119673226D01*
X63389849Y-119673228D01*
X63097310Y-119770358D01*
X63097306Y-119770359D01*
X62819613Y-119904089D01*
X62819605Y-119904094D01*
X62561286Y-120072241D01*
X62561276Y-120072248D01*
X62326581Y-120272046D01*
X62326571Y-120272056D01*
X62119354Y-120500225D01*
X62119350Y-120500229D01*
X61943005Y-120753033D01*
X61943003Y-120753037D01*
X61800432Y-121026319D01*
X61800429Y-121026326D01*
X61693981Y-121315580D01*
X61693979Y-121315590D01*
X61625391Y-121616089D01*
X61595794Y-121922902D01*
X61595793Y-121922903D01*
X60196705Y-121922903D01*
X60168547Y-121715027D01*
X60114218Y-121547818D01*
X60112223Y-121477977D01*
X60148303Y-121418144D01*
X60211004Y-121387316D01*
X60232149Y-121385500D01*
X60258762Y-121385500D01*
X60464727Y-121370769D01*
X60733862Y-121312223D01*
X60991925Y-121215970D01*
X61233663Y-121083971D01*
X61454155Y-120918913D01*
X61648913Y-120724155D01*
X61813971Y-120503663D01*
X61945970Y-120261925D01*
X62042223Y-120003862D01*
X62100769Y-119734727D01*
X62120418Y-119460000D01*
X62100769Y-119185273D01*
X62042223Y-118916138D01*
X61945970Y-118658075D01*
X61883664Y-118543971D01*
X61813974Y-118416342D01*
X61813969Y-118416334D01*
X61648919Y-118195852D01*
X61648903Y-118195834D01*
X61454165Y-118001096D01*
X61454147Y-118001080D01*
X61233665Y-117836030D01*
X61233657Y-117836025D01*
X60991930Y-117704032D01*
X60991931Y-117704032D01*
X60941679Y-117685289D01*
X60733862Y-117607777D01*
X60733855Y-117607775D01*
X60733854Y-117607775D01*
X60464734Y-117549232D01*
X60464727Y-117549231D01*
X60258764Y-117534500D01*
X60258762Y-117534500D01*
X60121238Y-117534500D01*
X60121235Y-117534500D01*
X59915272Y-117549231D01*
X59915265Y-117549232D01*
X59646145Y-117607775D01*
X59646141Y-117607776D01*
X59646138Y-117607777D01*
X59460402Y-117677052D01*
X59388069Y-117704032D01*
X59146342Y-117836025D01*
X59146334Y-117836030D01*
X58925852Y-118001080D01*
X58925834Y-118001096D01*
X58731096Y-118195834D01*
X58731080Y-118195852D01*
X58566030Y-118416334D01*
X58566025Y-118416342D01*
X58434032Y-118658069D01*
X58427355Y-118675970D01*
X58337777Y-118916138D01*
X58337776Y-118916141D01*
X58337775Y-118916145D01*
X58279232Y-119185265D01*
X58279231Y-119185272D01*
X58259582Y-119459998D01*
X58259582Y-119460001D01*
X58279231Y-119734727D01*
X58279232Y-119734734D01*
X58316074Y-119904094D01*
X58337777Y-120003862D01*
X58399142Y-120168386D01*
X58434032Y-120261930D01*
X58566025Y-120503657D01*
X58566030Y-120503665D01*
X58625149Y-120582639D01*
X58649566Y-120648103D01*
X58634714Y-120716376D01*
X58585308Y-120765781D01*
X58558871Y-120776480D01*
X58470019Y-120801001D01*
X58470006Y-120801006D01*
X58263158Y-120900618D01*
X58263156Y-120900619D01*
X58077407Y-121035574D01*
X58077404Y-121035577D01*
X57918746Y-121201519D01*
X57792260Y-121393136D01*
X57702024Y-121604257D01*
X57702022Y-121604263D01*
X57664415Y-121769029D01*
X57650934Y-121828093D01*
X57640634Y-122057456D01*
X57050500Y-122057456D01*
X57050500Y-116920001D01*
X64609582Y-116920001D01*
X64629231Y-117194727D01*
X64629232Y-117194734D01*
X64687775Y-117463854D01*
X64687777Y-117463862D01*
X64777356Y-117704032D01*
X64784032Y-117721930D01*
X64916025Y-117963657D01*
X64916030Y-117963665D01*
X65081080Y-118184147D01*
X65081096Y-118184165D01*
X65275834Y-118378903D01*
X65275852Y-118378919D01*
X65496334Y-118543969D01*
X65496342Y-118543974D01*
X65738069Y-118675967D01*
X65738068Y-118675967D01*
X65738072Y-118675968D01*
X65738075Y-118675970D01*
X65996138Y-118772223D01*
X66265273Y-118830769D01*
X66471238Y-118845500D01*
X66608762Y-118845500D01*
X66814727Y-118830769D01*
X67083862Y-118772223D01*
X67341925Y-118675970D01*
X67583663Y-118543971D01*
X67804155Y-118378913D01*
X67998913Y-118184155D01*
X68163971Y-117963663D01*
X68295970Y-117721925D01*
X68392223Y-117463862D01*
X68450769Y-117194727D01*
X68470418Y-116920000D01*
X68450769Y-116645273D01*
X68392223Y-116376138D01*
X68295970Y-116118075D01*
X68163971Y-115876337D01*
X68163969Y-115876334D01*
X67998919Y-115655852D01*
X67998903Y-115655834D01*
X67804165Y-115461096D01*
X67804147Y-115461080D01*
X67583665Y-115296030D01*
X67583657Y-115296025D01*
X67341930Y-115164032D01*
X67341931Y-115164032D01*
X67291679Y-115145289D01*
X67083862Y-115067777D01*
X67083855Y-115067775D01*
X67083854Y-115067775D01*
X66814734Y-115009232D01*
X66814727Y-115009231D01*
X66608764Y-114994500D01*
X66608762Y-114994500D01*
X66471238Y-114994500D01*
X66471235Y-114994500D01*
X66265272Y-115009231D01*
X66265265Y-115009232D01*
X65996145Y-115067775D01*
X65996141Y-115067776D01*
X65996138Y-115067777D01*
X65810402Y-115137052D01*
X65738069Y-115164032D01*
X65496342Y-115296025D01*
X65496334Y-115296030D01*
X65275852Y-115461080D01*
X65275834Y-115461096D01*
X65081096Y-115655834D01*
X65081080Y-115655852D01*
X64916030Y-115876334D01*
X64916025Y-115876342D01*
X64784032Y-116118069D01*
X64784030Y-116118075D01*
X64687777Y-116376138D01*
X64687776Y-116376141D01*
X64687775Y-116376145D01*
X64629232Y-116645265D01*
X64629231Y-116645272D01*
X64609582Y-116919998D01*
X64609582Y-116920001D01*
X57050500Y-116920001D01*
X57050500Y-103592557D01*
X57070185Y-103525518D01*
X57092270Y-103499744D01*
X57128183Y-103467929D01*
X57224818Y-103327930D01*
X57285140Y-103168872D01*
X57305645Y-103000000D01*
X57285140Y-102831128D01*
X57224818Y-102672070D01*
X57128183Y-102532071D01*
X57000852Y-102419266D01*
X57000849Y-102419263D01*
X56850226Y-102340210D01*
X56685056Y-102299500D01*
X56514944Y-102299500D01*
X56349773Y-102340210D01*
X56199150Y-102419263D01*
X56071818Y-102532070D01*
X56071817Y-102532071D01*
X56002048Y-102633146D01*
X55947767Y-102677136D01*
X55878318Y-102684795D01*
X55815753Y-102653691D01*
X55797952Y-102633148D01*
X55728183Y-102532071D01*
X55600852Y-102419266D01*
X55600849Y-102419263D01*
X55450226Y-102340210D01*
X55285056Y-102299500D01*
X55114944Y-102299500D01*
X54949773Y-102340210D01*
X54799150Y-102419263D01*
X54671816Y-102532072D01*
X54575182Y-102672068D01*
X54514860Y-102831125D01*
X54514859Y-102831130D01*
X54494355Y-103000000D01*
X54514859Y-103168869D01*
X54514860Y-103168874D01*
X54575182Y-103327931D01*
X54671815Y-103467927D01*
X54671816Y-103467928D01*
X54671817Y-103467929D01*
X54707727Y-103499742D01*
X54744853Y-103558929D01*
X54749500Y-103592557D01*
X54749500Y-136335268D01*
X54746391Y-136362860D01*
X54745684Y-136365954D01*
X54749153Y-136412228D01*
X54749500Y-136421496D01*
X54749500Y-136433759D01*
X54749501Y-136433773D01*
X54751327Y-136445890D01*
X54752363Y-136455076D01*
X54752569Y-136457817D01*
X54737964Y-136526143D01*
X54688738Y-136575727D01*
X54620519Y-136590825D01*
X54585587Y-136583292D01*
X54565046Y-136575631D01*
X54565042Y-136575630D01*
X54565039Y-136575629D01*
X54285433Y-136514804D01*
X54071450Y-136499500D01*
X54071448Y-136499500D01*
X53928552Y-136499500D01*
X53928549Y-136499500D01*
X53714566Y-136514804D01*
X53434962Y-136575628D01*
X53166833Y-136675635D01*
X52915690Y-136812770D01*
X52915682Y-136812775D01*
X52686612Y-136984254D01*
X52686594Y-136984270D01*
X52484270Y-137186594D01*
X52484254Y-137186612D01*
X52312775Y-137415682D01*
X52312770Y-137415690D01*
X52175635Y-137666833D01*
X52075628Y-137934962D01*
X52014804Y-138214566D01*
X51994390Y-138499998D01*
X51994390Y-138500001D01*
X50000500Y-138500001D01*
X50000500Y-100365954D01*
X51345684Y-100365954D01*
X51349153Y-100412228D01*
X51349500Y-100421496D01*
X51349500Y-100433759D01*
X51349501Y-100433773D01*
X51351327Y-100445890D01*
X51352365Y-100455101D01*
X51355833Y-100501375D01*
X51356991Y-100504325D01*
X51364179Y-100531149D01*
X51364651Y-100534285D01*
X51364652Y-100534286D01*
X51384784Y-100576091D01*
X51388487Y-100584580D01*
X51400526Y-100615253D01*
X51405447Y-100627792D01*
X51405447Y-100627793D01*
X51407426Y-100630274D01*
X51422194Y-100653777D01*
X51423571Y-100656637D01*
X51423572Y-100656638D01*
X51423574Y-100656640D01*
X51423575Y-100656642D01*
X51455143Y-100690664D01*
X51461181Y-100697680D01*
X51490121Y-100733970D01*
X51492747Y-100735760D01*
X51513782Y-100753863D01*
X51515945Y-100756194D01*
X51556139Y-100779400D01*
X51563978Y-100784326D01*
X51578413Y-100794167D01*
X51602327Y-100810472D01*
X51605356Y-100811406D01*
X51630808Y-100822510D01*
X51633555Y-100824096D01*
X51678805Y-100834423D01*
X51687745Y-100836818D01*
X51732098Y-100850500D01*
X51735268Y-100850500D01*
X51762859Y-100853608D01*
X51765954Y-100854315D01*
X51812230Y-100850846D01*
X51821497Y-100850500D01*
X57925500Y-100850500D01*
X57992539Y-100870185D01*
X58038294Y-100922989D01*
X58049500Y-100974500D01*
X58049500Y-115407442D01*
X58029815Y-115474481D01*
X58007727Y-115500257D01*
X57971818Y-115532069D01*
X57875182Y-115672068D01*
X57814860Y-115831125D01*
X57814859Y-115831130D01*
X57794355Y-116000000D01*
X57814859Y-116168869D01*
X57814860Y-116168874D01*
X57875182Y-116327931D01*
X57937475Y-116418177D01*
X57971817Y-116467929D01*
X58077505Y-116561560D01*
X58099150Y-116580736D01*
X58222115Y-116645273D01*
X58249775Y-116659790D01*
X58414944Y-116700500D01*
X58585056Y-116700500D01*
X58750225Y-116659790D01*
X58829692Y-116618081D01*
X58900849Y-116580736D01*
X58900850Y-116580734D01*
X58900852Y-116580734D01*
X59028183Y-116467929D01*
X59124818Y-116327930D01*
X59185140Y-116168872D01*
X59205645Y-116000000D01*
X59185140Y-115831128D01*
X59184714Y-115830006D01*
X59124817Y-115672068D01*
X59076737Y-115602413D01*
X59028183Y-115532071D01*
X59028181Y-115532069D01*
X58992273Y-115500257D01*
X58955146Y-115441068D01*
X58950500Y-115407442D01*
X58950500Y-103000000D01*
X60294355Y-103000000D01*
X60314859Y-103168869D01*
X60314860Y-103168874D01*
X60375182Y-103327931D01*
X60471815Y-103467927D01*
X60471816Y-103467928D01*
X60471817Y-103467929D01*
X60507727Y-103499742D01*
X60544853Y-103558929D01*
X60549500Y-103592557D01*
X60549500Y-109935268D01*
X60546391Y-109962860D01*
X60545684Y-109965954D01*
X60549153Y-110012228D01*
X60549500Y-110021496D01*
X60549500Y-110033759D01*
X60549501Y-110033773D01*
X60551327Y-110045890D01*
X60552365Y-110055101D01*
X60555833Y-110101375D01*
X60556991Y-110104325D01*
X60564179Y-110131149D01*
X60564651Y-110134285D01*
X60564652Y-110134286D01*
X60584784Y-110176091D01*
X60588487Y-110184580D01*
X60598403Y-110209844D01*
X60605447Y-110227792D01*
X60605447Y-110227793D01*
X60607426Y-110230274D01*
X60622194Y-110253777D01*
X60623571Y-110256637D01*
X60623572Y-110256638D01*
X60623574Y-110256640D01*
X60623575Y-110256642D01*
X60655143Y-110290664D01*
X60661181Y-110297680D01*
X60690121Y-110333970D01*
X60692747Y-110335760D01*
X60713782Y-110353863D01*
X60715945Y-110356194D01*
X60756139Y-110379400D01*
X60763978Y-110384326D01*
X60778413Y-110394167D01*
X60802327Y-110410472D01*
X60805356Y-110411406D01*
X60830808Y-110422510D01*
X60833555Y-110424096D01*
X60878805Y-110434423D01*
X60887745Y-110436818D01*
X60932098Y-110450500D01*
X60935268Y-110450500D01*
X60962859Y-110453608D01*
X60965954Y-110454315D01*
X61012230Y-110450846D01*
X61021497Y-110450500D01*
X70225500Y-110450500D01*
X70292539Y-110470185D01*
X70338294Y-110522989D01*
X70349500Y-110574500D01*
X70349500Y-121191786D01*
X70329815Y-121258825D01*
X70277011Y-121304580D01*
X70207853Y-121314524D01*
X70144297Y-121285499D01*
X70128553Y-121269099D01*
X70005652Y-121114986D01*
X69832751Y-120963928D01*
X69832749Y-120963927D01*
X69635663Y-120846172D01*
X69635658Y-120846170D01*
X69635656Y-120846169D01*
X69515307Y-120801001D01*
X69420701Y-120765494D01*
X69194800Y-120724500D01*
X69194797Y-120724500D01*
X69022713Y-120724500D01*
X68990801Y-120727372D01*
X68851328Y-120739924D01*
X68630021Y-120801001D01*
X68630006Y-120801006D01*
X68423158Y-120900618D01*
X68423156Y-120900619D01*
X68237407Y-121035574D01*
X68237404Y-121035577D01*
X68078746Y-121201519D01*
X67952260Y-121393136D01*
X67862024Y-121604257D01*
X67862022Y-121604263D01*
X67824415Y-121769029D01*
X67810934Y-121828093D01*
X67800634Y-122057456D01*
X67824138Y-122230970D01*
X67831454Y-122284977D01*
X67902401Y-122503331D01*
X68011197Y-122705507D01*
X68011203Y-122705516D01*
X68154345Y-122885011D01*
X68154347Y-122885012D01*
X68154348Y-122885014D01*
X68327249Y-123036072D01*
X68412748Y-123087155D01*
X68524336Y-123153827D01*
X68524338Y-123153827D01*
X68524344Y-123153831D01*
X68739298Y-123234505D01*
X68965200Y-123275500D01*
X68965203Y-123275500D01*
X69137281Y-123275500D01*
X69137287Y-123275500D01*
X69298032Y-123261032D01*
X69308671Y-123260075D01*
X69412587Y-123231395D01*
X69529990Y-123198995D01*
X69736848Y-123099378D01*
X69922593Y-122964425D01*
X70081257Y-122798476D01*
X70122013Y-122736732D01*
X70175373Y-122691628D01*
X70244648Y-122682531D01*
X70307843Y-122712332D01*
X70344896Y-122771568D01*
X70349500Y-122805044D01*
X70349500Y-133935268D01*
X70346391Y-133962860D01*
X70345684Y-133965954D01*
X70349153Y-134012228D01*
X70349500Y-134021496D01*
X70349500Y-134033759D01*
X70349501Y-134033773D01*
X70351327Y-134045890D01*
X70352365Y-134055101D01*
X70355833Y-134101375D01*
X70356991Y-134104325D01*
X70364179Y-134131149D01*
X70364651Y-134134285D01*
X70364652Y-134134287D01*
X70384784Y-134176091D01*
X70388487Y-134184580D01*
X70400526Y-134215253D01*
X70405447Y-134227792D01*
X70405447Y-134227793D01*
X70407426Y-134230274D01*
X70422194Y-134253777D01*
X70423571Y-134256637D01*
X70423572Y-134256638D01*
X70423574Y-134256640D01*
X70423575Y-134256642D01*
X70449011Y-134284055D01*
X70455143Y-134290664D01*
X70461181Y-134297680D01*
X70490121Y-134333970D01*
X70492747Y-134335760D01*
X70513782Y-134353863D01*
X70515945Y-134356194D01*
X70556139Y-134379400D01*
X70563978Y-134384326D01*
X70576085Y-134392580D01*
X70602327Y-134410472D01*
X70605356Y-134411406D01*
X70630808Y-134422510D01*
X70633555Y-134424096D01*
X70678805Y-134434423D01*
X70687745Y-134436818D01*
X70732098Y-134450500D01*
X70735268Y-134450500D01*
X70762859Y-134453608D01*
X70765954Y-134454315D01*
X70812230Y-134450846D01*
X70821497Y-134450500D01*
X114935268Y-134450500D01*
X114962859Y-134453608D01*
X114965954Y-134454315D01*
X115012230Y-134450846D01*
X115021497Y-134450500D01*
X115033759Y-134450500D01*
X115033762Y-134450500D01*
X115045907Y-134448668D01*
X115055065Y-134447636D01*
X115101378Y-134444166D01*
X115104329Y-134443007D01*
X115131158Y-134435819D01*
X115134287Y-134435348D01*
X115176106Y-134415207D01*
X115184577Y-134411512D01*
X115227794Y-134394552D01*
X115230272Y-134392575D01*
X115253786Y-134377799D01*
X115256642Y-134376425D01*
X115290672Y-134344848D01*
X115297678Y-134338819D01*
X115333970Y-134309879D01*
X115335754Y-134307261D01*
X115353872Y-134286209D01*
X115356194Y-134284055D01*
X115379409Y-134243843D01*
X115384318Y-134236032D01*
X115410472Y-134197673D01*
X115411406Y-134194641D01*
X115422513Y-134169186D01*
X115424096Y-134166445D01*
X115434421Y-134121202D01*
X115436822Y-134112242D01*
X115439265Y-134104325D01*
X115450500Y-134067902D01*
X115450500Y-134064733D01*
X115453609Y-134037139D01*
X115454315Y-134034044D01*
X115450847Y-133987770D01*
X115450500Y-133978502D01*
X115450500Y-125803867D01*
X115470185Y-125736828D01*
X115522095Y-125691485D01*
X115652734Y-125630568D01*
X115839139Y-125500047D01*
X116000047Y-125339139D01*
X116130568Y-125152734D01*
X116226739Y-124946496D01*
X116285635Y-124726692D01*
X116305468Y-124500005D01*
X118494859Y-124500005D01*
X118515385Y-124747729D01*
X118515387Y-124747738D01*
X118576412Y-124988717D01*
X118676266Y-125216364D01*
X118776564Y-125369882D01*
X119516923Y-124629523D01*
X119540507Y-124709844D01*
X119618239Y-124830798D01*
X119726900Y-124924952D01*
X119857685Y-124984680D01*
X119867466Y-124986086D01*
X119129942Y-125723609D01*
X119176768Y-125760055D01*
X119176770Y-125760056D01*
X119395385Y-125878364D01*
X119395396Y-125878369D01*
X119630506Y-125959083D01*
X119875707Y-126000000D01*
X120124293Y-126000000D01*
X120369493Y-125959083D01*
X120604603Y-125878369D01*
X120604614Y-125878364D01*
X120823228Y-125760057D01*
X120823231Y-125760055D01*
X120870056Y-125723609D01*
X120132533Y-124986086D01*
X120142315Y-124984680D01*
X120273100Y-124924952D01*
X120381761Y-124830798D01*
X120459493Y-124709844D01*
X120483076Y-124629524D01*
X121223434Y-125369882D01*
X121323731Y-125216369D01*
X121423587Y-124988717D01*
X121484612Y-124747738D01*
X121484614Y-124747729D01*
X121505141Y-124500005D01*
X121505141Y-124499994D01*
X121484614Y-124252270D01*
X121484612Y-124252261D01*
X121423587Y-124011282D01*
X121323731Y-123783630D01*
X121223434Y-123630116D01*
X120483076Y-124370475D01*
X120459493Y-124290156D01*
X120381761Y-124169202D01*
X120273100Y-124075048D01*
X120142315Y-124015320D01*
X120132534Y-124013913D01*
X120870057Y-123276390D01*
X120870056Y-123276389D01*
X120823229Y-123239943D01*
X120604614Y-123121635D01*
X120604603Y-123121630D01*
X120369493Y-123040916D01*
X120124293Y-123000000D01*
X119875707Y-123000000D01*
X119630506Y-123040916D01*
X119395396Y-123121630D01*
X119395390Y-123121632D01*
X119176761Y-123239949D01*
X119129942Y-123276388D01*
X119129942Y-123276390D01*
X119867466Y-124013913D01*
X119857685Y-124015320D01*
X119726900Y-124075048D01*
X119618239Y-124169202D01*
X119540507Y-124290156D01*
X119516923Y-124370475D01*
X118776564Y-123630116D01*
X118676267Y-123783632D01*
X118576412Y-124011282D01*
X118515387Y-124252261D01*
X118515385Y-124252270D01*
X118494859Y-124499994D01*
X118494859Y-124500005D01*
X116305468Y-124500005D01*
X116305468Y-124500000D01*
X116305467Y-124499994D01*
X116293314Y-124361082D01*
X116285635Y-124273308D01*
X116226739Y-124053504D01*
X116130568Y-123847266D01*
X116000047Y-123660861D01*
X116000045Y-123660858D01*
X115839141Y-123499954D01*
X115652734Y-123369432D01*
X115652732Y-123369431D01*
X115446497Y-123273261D01*
X115446488Y-123273258D01*
X115226697Y-123214366D01*
X115226693Y-123214365D01*
X115226692Y-123214365D01*
X115226691Y-123214364D01*
X115226686Y-123214364D01*
X115000002Y-123194532D01*
X114999998Y-123194532D01*
X114773313Y-123214364D01*
X114773302Y-123214366D01*
X114553511Y-123273258D01*
X114553502Y-123273261D01*
X114347267Y-123369431D01*
X114347265Y-123369432D01*
X114160858Y-123499954D01*
X113999954Y-123660858D01*
X113869432Y-123847265D01*
X113869431Y-123847267D01*
X113773261Y-124053502D01*
X113773258Y-124053511D01*
X113714366Y-124273302D01*
X113714364Y-124273313D01*
X113694532Y-124499998D01*
X113694532Y-124500001D01*
X113714364Y-124726686D01*
X113714366Y-124726697D01*
X113773258Y-124946488D01*
X113773261Y-124946497D01*
X113869431Y-125152732D01*
X113869432Y-125152734D01*
X113999954Y-125339141D01*
X114160858Y-125500045D01*
X114160861Y-125500047D01*
X114347266Y-125630568D01*
X114477904Y-125691485D01*
X114530344Y-125737657D01*
X114549500Y-125803867D01*
X114549500Y-133425500D01*
X114529815Y-133492539D01*
X114477011Y-133538294D01*
X114425500Y-133549500D01*
X71374500Y-133549500D01*
X71307461Y-133529815D01*
X71261706Y-133477011D01*
X71250500Y-133425500D01*
X71250500Y-122057456D01*
X76690634Y-122057456D01*
X76714138Y-122230970D01*
X76721454Y-122284977D01*
X76792401Y-122503331D01*
X76901197Y-122705507D01*
X76901203Y-122705516D01*
X77044345Y-122885011D01*
X77044347Y-122885012D01*
X77044348Y-122885014D01*
X77217249Y-123036072D01*
X77302748Y-123087155D01*
X77414336Y-123153827D01*
X77414338Y-123153827D01*
X77414344Y-123153831D01*
X77629298Y-123234505D01*
X77855200Y-123275500D01*
X77855203Y-123275500D01*
X78027281Y-123275500D01*
X78027287Y-123275500D01*
X78188032Y-123261032D01*
X78198671Y-123260075D01*
X78302587Y-123231395D01*
X78419990Y-123198995D01*
X78626848Y-123099378D01*
X78812593Y-122964425D01*
X78971257Y-122798476D01*
X79097740Y-122606863D01*
X79187976Y-122395744D01*
X79239066Y-122171907D01*
X79249366Y-121942544D01*
X79246705Y-121922903D01*
X80645793Y-121922903D01*
X80655672Y-122230970D01*
X80655672Y-122230975D01*
X80655673Y-122230978D01*
X80704867Y-122535261D01*
X80755396Y-122705510D01*
X80792571Y-122830763D01*
X80911481Y-123099381D01*
X80917337Y-123112609D01*
X81077123Y-123376193D01*
X81077127Y-123376198D01*
X81077133Y-123376207D01*
X81269297Y-123617174D01*
X81269299Y-123617176D01*
X81269303Y-123617180D01*
X81269304Y-123617181D01*
X81490724Y-123831614D01*
X81657862Y-123956352D01*
X81737741Y-124015968D01*
X81737743Y-124015969D01*
X81737747Y-124015972D01*
X82006318Y-124167228D01*
X82147057Y-124224207D01*
X82292018Y-124282897D01*
X82292023Y-124282898D01*
X82292025Y-124282899D01*
X82590179Y-124361084D01*
X82895883Y-124400500D01*
X82895890Y-124400500D01*
X83126971Y-124400500D01*
X83126974Y-124400500D01*
X83126978Y-124400499D01*
X83126996Y-124400499D01*
X83229700Y-124393904D01*
X83357601Y-124385693D01*
X83660151Y-124326772D01*
X83952683Y-124229644D01*
X83952689Y-124229640D01*
X83952693Y-124229640D01*
X84143571Y-124137717D01*
X84230393Y-124095907D01*
X84488720Y-123927754D01*
X84723424Y-123727948D01*
X84930650Y-123499769D01*
X85086470Y-123276389D01*
X85106994Y-123246966D01*
X85106996Y-123246963D01*
X85249567Y-122973683D01*
X85356020Y-122684415D01*
X85424609Y-122383908D01*
X85454206Y-122077098D01*
X85453576Y-122057456D01*
X86850634Y-122057456D01*
X86874138Y-122230970D01*
X86881454Y-122284977D01*
X86952401Y-122503331D01*
X87061197Y-122705507D01*
X87061203Y-122705516D01*
X87204345Y-122885011D01*
X87204347Y-122885012D01*
X87204348Y-122885014D01*
X87377249Y-123036072D01*
X87462748Y-123087155D01*
X87574336Y-123153827D01*
X87574338Y-123153827D01*
X87574344Y-123153831D01*
X87789298Y-123234505D01*
X88015200Y-123275500D01*
X88015203Y-123275500D01*
X88187281Y-123275500D01*
X88187287Y-123275500D01*
X88348032Y-123261032D01*
X88358671Y-123260075D01*
X88462587Y-123231395D01*
X88579990Y-123198995D01*
X88786848Y-123099378D01*
X88972593Y-122964425D01*
X89131257Y-122798476D01*
X89257740Y-122606863D01*
X89347976Y-122395744D01*
X89399066Y-122171907D01*
X89404206Y-122057456D01*
X95740634Y-122057456D01*
X95764138Y-122230970D01*
X95771454Y-122284977D01*
X95842401Y-122503331D01*
X95951197Y-122705507D01*
X95951203Y-122705516D01*
X96094345Y-122885011D01*
X96094347Y-122885012D01*
X96094348Y-122885014D01*
X96267249Y-123036072D01*
X96352748Y-123087155D01*
X96464336Y-123153827D01*
X96464338Y-123153827D01*
X96464344Y-123153831D01*
X96679298Y-123234505D01*
X96905200Y-123275500D01*
X96905203Y-123275500D01*
X97077281Y-123275500D01*
X97077287Y-123275500D01*
X97238032Y-123261032D01*
X97248671Y-123260075D01*
X97352587Y-123231395D01*
X97469990Y-123198995D01*
X97676848Y-123099378D01*
X97862593Y-122964425D01*
X98021257Y-122798476D01*
X98147740Y-122606863D01*
X98237976Y-122395744D01*
X98289066Y-122171907D01*
X98299366Y-121942544D01*
X98296705Y-121922903D01*
X99695793Y-121922903D01*
X99705672Y-122230970D01*
X99705672Y-122230975D01*
X99705673Y-122230978D01*
X99754867Y-122535261D01*
X99805396Y-122705510D01*
X99842571Y-122830763D01*
X99961481Y-123099381D01*
X99967337Y-123112609D01*
X100127123Y-123376193D01*
X100127127Y-123376198D01*
X100127133Y-123376207D01*
X100319297Y-123617174D01*
X100319299Y-123617176D01*
X100319303Y-123617180D01*
X100319304Y-123617181D01*
X100540724Y-123831614D01*
X100707862Y-123956352D01*
X100787741Y-124015968D01*
X100787743Y-124015969D01*
X100787747Y-124015972D01*
X101056318Y-124167228D01*
X101197057Y-124224207D01*
X101342018Y-124282897D01*
X101342023Y-124282898D01*
X101342025Y-124282899D01*
X101640179Y-124361084D01*
X101945883Y-124400500D01*
X101945890Y-124400500D01*
X102176971Y-124400500D01*
X102176974Y-124400500D01*
X102176978Y-124400499D01*
X102176996Y-124400499D01*
X102279700Y-124393904D01*
X102407601Y-124385693D01*
X102710151Y-124326772D01*
X103002683Y-124229644D01*
X103002689Y-124229640D01*
X103002693Y-124229640D01*
X103193571Y-124137717D01*
X103280393Y-124095907D01*
X103538720Y-123927754D01*
X103773424Y-123727948D01*
X103980650Y-123499769D01*
X104136470Y-123276389D01*
X104156994Y-123246966D01*
X104156996Y-123246963D01*
X104299567Y-122973683D01*
X104406020Y-122684415D01*
X104474609Y-122383908D01*
X104504206Y-122077098D01*
X104503576Y-122057456D01*
X105900634Y-122057456D01*
X105924138Y-122230970D01*
X105931454Y-122284977D01*
X106002401Y-122503331D01*
X106111197Y-122705507D01*
X106111203Y-122705516D01*
X106254345Y-122885011D01*
X106254347Y-122885012D01*
X106254348Y-122885014D01*
X106427249Y-123036072D01*
X106512748Y-123087155D01*
X106624336Y-123153827D01*
X106624338Y-123153827D01*
X106624344Y-123153831D01*
X106839298Y-123234505D01*
X107065200Y-123275500D01*
X107065203Y-123275500D01*
X107237281Y-123275500D01*
X107237287Y-123275500D01*
X107398032Y-123261032D01*
X107408671Y-123260075D01*
X107512587Y-123231395D01*
X107629990Y-123198995D01*
X107836848Y-123099378D01*
X108022593Y-122964425D01*
X108181257Y-122798476D01*
X108307740Y-122606863D01*
X108397976Y-122395744D01*
X108449066Y-122171907D01*
X108459366Y-121942544D01*
X108428547Y-121715027D01*
X108357599Y-121496670D01*
X108248801Y-121294490D01*
X108248798Y-121294487D01*
X108248796Y-121294483D01*
X108105654Y-121114988D01*
X108070155Y-121083974D01*
X107932751Y-120963928D01*
X107857409Y-120918913D01*
X107735663Y-120846172D01*
X107735658Y-120846170D01*
X107735656Y-120846169D01*
X107615307Y-120801001D01*
X107520701Y-120765494D01*
X107294800Y-120724500D01*
X107294797Y-120724500D01*
X107122713Y-120724500D01*
X107090801Y-120727372D01*
X106951328Y-120739924D01*
X106730021Y-120801001D01*
X106730006Y-120801006D01*
X106523158Y-120900618D01*
X106523156Y-120900619D01*
X106337407Y-121035574D01*
X106337404Y-121035577D01*
X106178746Y-121201519D01*
X106052260Y-121393136D01*
X105962024Y-121604257D01*
X105962022Y-121604263D01*
X105924415Y-121769029D01*
X105910934Y-121828093D01*
X105900634Y-122057456D01*
X104503576Y-122057456D01*
X104494327Y-121769022D01*
X104445133Y-121464739D01*
X104357431Y-121169244D01*
X104357429Y-121169239D01*
X104357428Y-121169236D01*
X104251903Y-120930855D01*
X104232663Y-120887391D01*
X104072877Y-120623807D01*
X104072870Y-120623799D01*
X104072866Y-120623792D01*
X103880702Y-120382825D01*
X103880700Y-120382823D01*
X103659279Y-120168389D01*
X103659276Y-120168386D01*
X103530450Y-120072241D01*
X103412258Y-119984031D01*
X103412253Y-119984028D01*
X103143682Y-119832772D01*
X103106383Y-119817671D01*
X102857981Y-119717102D01*
X102690660Y-119673226D01*
X102559821Y-119638916D01*
X102254117Y-119599500D01*
X102023026Y-119599500D01*
X102023003Y-119599500D01*
X101792406Y-119614306D01*
X101792389Y-119614308D01*
X101489854Y-119673226D01*
X101489849Y-119673228D01*
X101197310Y-119770358D01*
X101197306Y-119770359D01*
X100919613Y-119904089D01*
X100919605Y-119904094D01*
X100661286Y-120072241D01*
X100661276Y-120072248D01*
X100426581Y-120272046D01*
X100426571Y-120272056D01*
X100219354Y-120500225D01*
X100219350Y-120500229D01*
X100043005Y-120753033D01*
X100043003Y-120753037D01*
X99900432Y-121026319D01*
X99900429Y-121026326D01*
X99793981Y-121315580D01*
X99793979Y-121315590D01*
X99725391Y-121616089D01*
X99695794Y-121922902D01*
X99695793Y-121922903D01*
X98296705Y-121922903D01*
X98268547Y-121715027D01*
X98214218Y-121547818D01*
X98212223Y-121477977D01*
X98248303Y-121418144D01*
X98311004Y-121387316D01*
X98332149Y-121385500D01*
X98358762Y-121385500D01*
X98564727Y-121370769D01*
X98833862Y-121312223D01*
X99091925Y-121215970D01*
X99333663Y-121083971D01*
X99554155Y-120918913D01*
X99748913Y-120724155D01*
X99913971Y-120503663D01*
X100045970Y-120261925D01*
X100142223Y-120003862D01*
X100200769Y-119734727D01*
X100220418Y-119460000D01*
X100200769Y-119185273D01*
X100191977Y-119144856D01*
X110599500Y-119144856D01*
X110599502Y-119144882D01*
X110602413Y-119169987D01*
X110602415Y-119169991D01*
X110647793Y-119272764D01*
X110647794Y-119272765D01*
X110727235Y-119352206D01*
X110830009Y-119397585D01*
X110855135Y-119400500D01*
X112944864Y-119400499D01*
X112944879Y-119400497D01*
X112944882Y-119400497D01*
X112969987Y-119397586D01*
X112969988Y-119397585D01*
X112969991Y-119397585D01*
X113072765Y-119352206D01*
X113152206Y-119272765D01*
X113197585Y-119169991D01*
X113200500Y-119144865D01*
X113200500Y-119144856D01*
X121799500Y-119144856D01*
X121799502Y-119144882D01*
X121802413Y-119169987D01*
X121802415Y-119169991D01*
X121847793Y-119272764D01*
X121847794Y-119272765D01*
X121927235Y-119352206D01*
X122030009Y-119397585D01*
X122055135Y-119400500D01*
X124144864Y-119400499D01*
X124144879Y-119400497D01*
X124144882Y-119400497D01*
X124169987Y-119397586D01*
X124169988Y-119397585D01*
X124169991Y-119397585D01*
X124272765Y-119352206D01*
X124352206Y-119272765D01*
X124397585Y-119169991D01*
X124400500Y-119144865D01*
X124400499Y-115855136D01*
X124400497Y-115855117D01*
X124397586Y-115830012D01*
X124397585Y-115830010D01*
X124397585Y-115830009D01*
X124352206Y-115727235D01*
X124272765Y-115647794D01*
X124272763Y-115647793D01*
X124169992Y-115602415D01*
X124144865Y-115599500D01*
X122055143Y-115599500D01*
X122055117Y-115599502D01*
X122030012Y-115602413D01*
X122030008Y-115602415D01*
X121927235Y-115647793D01*
X121847794Y-115727234D01*
X121802415Y-115830006D01*
X121802415Y-115830008D01*
X121799500Y-115855131D01*
X121799500Y-119144856D01*
X113200500Y-119144856D01*
X113200499Y-115855136D01*
X113200497Y-115855117D01*
X113197586Y-115830012D01*
X113197585Y-115830010D01*
X113197585Y-115830009D01*
X113152206Y-115727235D01*
X113072765Y-115647794D01*
X113072763Y-115647793D01*
X112969992Y-115602415D01*
X112944865Y-115599500D01*
X110855143Y-115599500D01*
X110855117Y-115599502D01*
X110830012Y-115602413D01*
X110830008Y-115602415D01*
X110727235Y-115647793D01*
X110647794Y-115727234D01*
X110602415Y-115830006D01*
X110602415Y-115830008D01*
X110599500Y-115855131D01*
X110599500Y-119144856D01*
X100191977Y-119144856D01*
X100142223Y-118916138D01*
X100045970Y-118658075D01*
X99983664Y-118543971D01*
X99913974Y-118416342D01*
X99913969Y-118416334D01*
X99748919Y-118195852D01*
X99748903Y-118195834D01*
X99554165Y-118001096D01*
X99554147Y-118001080D01*
X99333665Y-117836030D01*
X99333657Y-117836025D01*
X99091930Y-117704032D01*
X99091931Y-117704032D01*
X99041679Y-117685289D01*
X98833862Y-117607777D01*
X98833855Y-117607775D01*
X98833854Y-117607775D01*
X98564734Y-117549232D01*
X98564727Y-117549231D01*
X98358764Y-117534500D01*
X98358762Y-117534500D01*
X98221238Y-117534500D01*
X98221235Y-117534500D01*
X98015272Y-117549231D01*
X98015265Y-117549232D01*
X97746145Y-117607775D01*
X97746141Y-117607776D01*
X97746138Y-117607777D01*
X97560402Y-117677052D01*
X97488069Y-117704032D01*
X97246342Y-117836025D01*
X97246334Y-117836030D01*
X97025852Y-118001080D01*
X97025834Y-118001096D01*
X96831096Y-118195834D01*
X96831080Y-118195852D01*
X96666030Y-118416334D01*
X96666025Y-118416342D01*
X96534032Y-118658069D01*
X96527355Y-118675970D01*
X96437777Y-118916138D01*
X96437776Y-118916141D01*
X96437775Y-118916145D01*
X96379232Y-119185265D01*
X96379231Y-119185272D01*
X96359582Y-119459998D01*
X96359582Y-119460001D01*
X96379231Y-119734727D01*
X96379232Y-119734734D01*
X96416074Y-119904094D01*
X96437777Y-120003862D01*
X96499142Y-120168386D01*
X96534032Y-120261930D01*
X96666025Y-120503657D01*
X96666030Y-120503665D01*
X96725149Y-120582639D01*
X96749566Y-120648103D01*
X96734714Y-120716376D01*
X96685308Y-120765781D01*
X96658871Y-120776480D01*
X96570019Y-120801001D01*
X96570006Y-120801006D01*
X96363158Y-120900618D01*
X96363156Y-120900619D01*
X96177407Y-121035574D01*
X96177404Y-121035577D01*
X96018746Y-121201519D01*
X95892260Y-121393136D01*
X95802024Y-121604257D01*
X95802022Y-121604263D01*
X95764415Y-121769029D01*
X95750934Y-121828093D01*
X95740634Y-122057456D01*
X89404206Y-122057456D01*
X89409366Y-121942544D01*
X89378547Y-121715027D01*
X89307599Y-121496670D01*
X89198801Y-121294490D01*
X89198798Y-121294487D01*
X89198796Y-121294483D01*
X89055654Y-121114988D01*
X89020155Y-121083974D01*
X88882751Y-120963928D01*
X88807409Y-120918913D01*
X88685663Y-120846172D01*
X88685658Y-120846170D01*
X88685656Y-120846169D01*
X88565307Y-120801001D01*
X88470701Y-120765494D01*
X88244800Y-120724500D01*
X88244797Y-120724500D01*
X88072713Y-120724500D01*
X88040801Y-120727372D01*
X87901328Y-120739924D01*
X87680021Y-120801001D01*
X87680006Y-120801006D01*
X87473158Y-120900618D01*
X87473156Y-120900619D01*
X87287407Y-121035574D01*
X87287404Y-121035577D01*
X87128746Y-121201519D01*
X87002260Y-121393136D01*
X86912024Y-121604257D01*
X86912022Y-121604263D01*
X86874415Y-121769029D01*
X86860934Y-121828093D01*
X86850634Y-122057456D01*
X85453576Y-122057456D01*
X85444327Y-121769022D01*
X85395133Y-121464739D01*
X85307431Y-121169244D01*
X85307429Y-121169239D01*
X85307428Y-121169236D01*
X85201903Y-120930855D01*
X85182663Y-120887391D01*
X85022877Y-120623807D01*
X85022870Y-120623799D01*
X85022866Y-120623792D01*
X84830702Y-120382825D01*
X84830700Y-120382823D01*
X84609279Y-120168389D01*
X84609276Y-120168386D01*
X84480450Y-120072241D01*
X84362258Y-119984031D01*
X84362253Y-119984028D01*
X84093682Y-119832772D01*
X84056383Y-119817671D01*
X83807981Y-119717102D01*
X83640660Y-119673226D01*
X83509821Y-119638916D01*
X83204117Y-119599500D01*
X82973026Y-119599500D01*
X82973003Y-119599500D01*
X82742406Y-119614306D01*
X82742389Y-119614308D01*
X82439854Y-119673226D01*
X82439849Y-119673228D01*
X82147310Y-119770358D01*
X82147306Y-119770359D01*
X81869613Y-119904089D01*
X81869605Y-119904094D01*
X81611286Y-120072241D01*
X81611276Y-120072248D01*
X81376581Y-120272046D01*
X81376571Y-120272056D01*
X81169354Y-120500225D01*
X81169350Y-120500229D01*
X80993005Y-120753033D01*
X80993003Y-120753037D01*
X80850432Y-121026319D01*
X80850429Y-121026326D01*
X80743981Y-121315580D01*
X80743979Y-121315590D01*
X80675391Y-121616089D01*
X80645794Y-121922902D01*
X80645793Y-121922903D01*
X79246705Y-121922903D01*
X79218547Y-121715027D01*
X79164218Y-121547818D01*
X79162223Y-121477977D01*
X79198303Y-121418144D01*
X79261004Y-121387316D01*
X79282149Y-121385500D01*
X79308762Y-121385500D01*
X79514727Y-121370769D01*
X79783862Y-121312223D01*
X80041925Y-121215970D01*
X80283663Y-121083971D01*
X80504155Y-120918913D01*
X80698913Y-120724155D01*
X80863971Y-120503663D01*
X80995970Y-120261925D01*
X81092223Y-120003862D01*
X81150769Y-119734727D01*
X81170418Y-119460000D01*
X81150769Y-119185273D01*
X81092223Y-118916138D01*
X80995970Y-118658075D01*
X80933664Y-118543971D01*
X80863974Y-118416342D01*
X80863969Y-118416334D01*
X80698919Y-118195852D01*
X80698903Y-118195834D01*
X80504165Y-118001096D01*
X80504147Y-118001080D01*
X80283665Y-117836030D01*
X80283657Y-117836025D01*
X80041930Y-117704032D01*
X80041931Y-117704032D01*
X79991679Y-117685289D01*
X79783862Y-117607777D01*
X79783855Y-117607775D01*
X79783854Y-117607775D01*
X79514734Y-117549232D01*
X79514727Y-117549231D01*
X79308764Y-117534500D01*
X79308762Y-117534500D01*
X79171238Y-117534500D01*
X79171235Y-117534500D01*
X78965272Y-117549231D01*
X78965265Y-117549232D01*
X78696145Y-117607775D01*
X78696141Y-117607776D01*
X78696138Y-117607777D01*
X78510402Y-117677052D01*
X78438069Y-117704032D01*
X78196342Y-117836025D01*
X78196334Y-117836030D01*
X77975852Y-118001080D01*
X77975834Y-118001096D01*
X77781096Y-118195834D01*
X77781080Y-118195852D01*
X77616030Y-118416334D01*
X77616025Y-118416342D01*
X77484032Y-118658069D01*
X77477355Y-118675970D01*
X77387777Y-118916138D01*
X77387776Y-118916141D01*
X77387775Y-118916145D01*
X77329232Y-119185265D01*
X77329231Y-119185272D01*
X77309582Y-119459998D01*
X77309582Y-119460001D01*
X77329231Y-119734727D01*
X77329232Y-119734734D01*
X77366074Y-119904094D01*
X77387777Y-120003862D01*
X77449142Y-120168386D01*
X77484032Y-120261930D01*
X77616025Y-120503657D01*
X77616030Y-120503665D01*
X77675149Y-120582639D01*
X77699566Y-120648103D01*
X77684714Y-120716376D01*
X77635308Y-120765781D01*
X77608871Y-120776480D01*
X77520019Y-120801001D01*
X77520006Y-120801006D01*
X77313158Y-120900618D01*
X77313156Y-120900619D01*
X77127407Y-121035574D01*
X77127404Y-121035577D01*
X76968746Y-121201519D01*
X76842260Y-121393136D01*
X76752024Y-121604257D01*
X76752022Y-121604263D01*
X76714415Y-121769029D01*
X76700934Y-121828093D01*
X76690634Y-122057456D01*
X71250500Y-122057456D01*
X71250500Y-116920001D01*
X83659582Y-116920001D01*
X83679231Y-117194727D01*
X83679232Y-117194734D01*
X83737775Y-117463854D01*
X83737777Y-117463862D01*
X83827356Y-117704032D01*
X83834032Y-117721930D01*
X83966025Y-117963657D01*
X83966030Y-117963665D01*
X84131080Y-118184147D01*
X84131096Y-118184165D01*
X84325834Y-118378903D01*
X84325852Y-118378919D01*
X84546334Y-118543969D01*
X84546342Y-118543974D01*
X84788069Y-118675967D01*
X84788068Y-118675967D01*
X84788072Y-118675968D01*
X84788075Y-118675970D01*
X85046138Y-118772223D01*
X85315273Y-118830769D01*
X85521238Y-118845500D01*
X85658762Y-118845500D01*
X85864727Y-118830769D01*
X86133862Y-118772223D01*
X86391925Y-118675970D01*
X86633663Y-118543971D01*
X86854155Y-118378913D01*
X87048913Y-118184155D01*
X87213971Y-117963663D01*
X87345970Y-117721925D01*
X87442223Y-117463862D01*
X87500769Y-117194727D01*
X87520418Y-116920001D01*
X102709582Y-116920001D01*
X102729231Y-117194727D01*
X102729232Y-117194734D01*
X102787775Y-117463854D01*
X102787777Y-117463862D01*
X102877356Y-117704032D01*
X102884032Y-117721930D01*
X103016025Y-117963657D01*
X103016030Y-117963665D01*
X103181080Y-118184147D01*
X103181096Y-118184165D01*
X103375834Y-118378903D01*
X103375852Y-118378919D01*
X103596334Y-118543969D01*
X103596342Y-118543974D01*
X103838069Y-118675967D01*
X103838068Y-118675967D01*
X103838072Y-118675968D01*
X103838075Y-118675970D01*
X104096138Y-118772223D01*
X104365273Y-118830769D01*
X104571238Y-118845500D01*
X104708762Y-118845500D01*
X104914727Y-118830769D01*
X105183862Y-118772223D01*
X105441925Y-118675970D01*
X105683663Y-118543971D01*
X105904155Y-118378913D01*
X106098913Y-118184155D01*
X106263971Y-117963663D01*
X106395970Y-117721925D01*
X106492223Y-117463862D01*
X106550769Y-117194727D01*
X106570418Y-116920000D01*
X106550769Y-116645273D01*
X106492223Y-116376138D01*
X106395970Y-116118075D01*
X106263971Y-115876337D01*
X106263969Y-115876334D01*
X106098919Y-115655852D01*
X106098903Y-115655834D01*
X105904165Y-115461096D01*
X105904147Y-115461080D01*
X105683665Y-115296030D01*
X105683657Y-115296025D01*
X105441930Y-115164032D01*
X105441931Y-115164032D01*
X105391679Y-115145289D01*
X105183862Y-115067777D01*
X105183855Y-115067775D01*
X105183854Y-115067775D01*
X104914734Y-115009232D01*
X104914727Y-115009231D01*
X104708764Y-114994500D01*
X104708762Y-114994500D01*
X104571238Y-114994500D01*
X104571235Y-114994500D01*
X104365272Y-115009231D01*
X104365265Y-115009232D01*
X104096145Y-115067775D01*
X104096141Y-115067776D01*
X104096138Y-115067777D01*
X103910402Y-115137052D01*
X103838069Y-115164032D01*
X103596342Y-115296025D01*
X103596334Y-115296030D01*
X103375852Y-115461080D01*
X103375834Y-115461096D01*
X103181096Y-115655834D01*
X103181080Y-115655852D01*
X103016030Y-115876334D01*
X103016025Y-115876342D01*
X102884032Y-116118069D01*
X102884030Y-116118075D01*
X102787777Y-116376138D01*
X102787776Y-116376141D01*
X102787775Y-116376145D01*
X102729232Y-116645265D01*
X102729231Y-116645272D01*
X102709582Y-116919998D01*
X102709582Y-116920001D01*
X87520418Y-116920001D01*
X87520418Y-116920000D01*
X87500769Y-116645273D01*
X87442223Y-116376138D01*
X87345970Y-116118075D01*
X87213971Y-115876337D01*
X87213969Y-115876334D01*
X87048919Y-115655852D01*
X87048903Y-115655834D01*
X86854165Y-115461096D01*
X86854147Y-115461080D01*
X86633665Y-115296030D01*
X86633657Y-115296025D01*
X86391930Y-115164032D01*
X86391931Y-115164032D01*
X86341679Y-115145289D01*
X86133862Y-115067777D01*
X86133855Y-115067775D01*
X86133854Y-115067775D01*
X85864734Y-115009232D01*
X85864727Y-115009231D01*
X85658764Y-114994500D01*
X85658762Y-114994500D01*
X85521238Y-114994500D01*
X85521235Y-114994500D01*
X85315272Y-115009231D01*
X85315265Y-115009232D01*
X85046145Y-115067775D01*
X85046141Y-115067776D01*
X85046138Y-115067777D01*
X84860402Y-115137052D01*
X84788069Y-115164032D01*
X84546342Y-115296025D01*
X84546334Y-115296030D01*
X84325852Y-115461080D01*
X84325834Y-115461096D01*
X84131096Y-115655834D01*
X84131080Y-115655852D01*
X83966030Y-115876334D01*
X83966025Y-115876342D01*
X83834032Y-116118069D01*
X83834030Y-116118075D01*
X83737777Y-116376138D01*
X83737776Y-116376141D01*
X83737775Y-116376145D01*
X83679232Y-116645265D01*
X83679231Y-116645272D01*
X83659582Y-116919998D01*
X83659582Y-116920001D01*
X71250500Y-116920001D01*
X71250500Y-110064733D01*
X71253609Y-110037139D01*
X71254315Y-110034044D01*
X71250847Y-109987770D01*
X71250500Y-109978502D01*
X71250500Y-109966240D01*
X71250500Y-109966238D01*
X71248671Y-109954110D01*
X71247633Y-109944891D01*
X71244166Y-109898620D01*
X71243009Y-109895672D01*
X71235819Y-109868840D01*
X71235348Y-109865716D01*
X71235348Y-109865715D01*
X71235348Y-109865713D01*
X71215210Y-109823897D01*
X71211507Y-109815408D01*
X71210800Y-109813608D01*
X71194552Y-109772206D01*
X71192569Y-109769719D01*
X71177801Y-109746216D01*
X71176425Y-109743358D01*
X71144862Y-109709341D01*
X71138813Y-109702312D01*
X71119559Y-109678169D01*
X71109879Y-109666030D01*
X71109878Y-109666029D01*
X71109877Y-109666028D01*
X71107253Y-109664239D01*
X71086214Y-109646133D01*
X71084056Y-109643807D01*
X71084052Y-109643804D01*
X71043864Y-109620601D01*
X71036015Y-109615669D01*
X70997672Y-109589527D01*
X70997666Y-109589525D01*
X70994630Y-109588588D01*
X70969195Y-109577490D01*
X70966452Y-109575907D01*
X70966448Y-109575905D01*
X70966445Y-109575904D01*
X70939008Y-109569641D01*
X70921196Y-109565576D01*
X70912249Y-109563178D01*
X70867902Y-109549500D01*
X70867900Y-109549500D01*
X70864732Y-109549500D01*
X70837140Y-109546391D01*
X70834046Y-109545685D01*
X70834042Y-109545684D01*
X70789702Y-109549008D01*
X70787769Y-109549153D01*
X70778503Y-109549500D01*
X61574500Y-109549500D01*
X61507461Y-109529815D01*
X61461706Y-109477011D01*
X61450500Y-109425500D01*
X61450500Y-103592557D01*
X61470185Y-103525518D01*
X61492270Y-103499744D01*
X61528183Y-103467929D01*
X61624818Y-103327930D01*
X61685140Y-103168872D01*
X61705645Y-103000000D01*
X61685140Y-102831128D01*
X61624818Y-102672070D01*
X61528183Y-102532071D01*
X61400852Y-102419266D01*
X61400849Y-102419263D01*
X61250226Y-102340210D01*
X61085056Y-102299500D01*
X60914944Y-102299500D01*
X60749773Y-102340210D01*
X60599150Y-102419263D01*
X60471816Y-102532072D01*
X60375182Y-102672068D01*
X60314860Y-102831125D01*
X60314859Y-102831130D01*
X60294355Y-103000000D01*
X58950500Y-103000000D01*
X58950500Y-100464733D01*
X58953609Y-100437139D01*
X58954315Y-100434044D01*
X58950847Y-100387770D01*
X58950500Y-100378502D01*
X58950500Y-100366240D01*
X58950500Y-100366238D01*
X58948671Y-100354110D01*
X58947633Y-100344891D01*
X58944166Y-100298620D01*
X58943009Y-100295672D01*
X58935819Y-100268840D01*
X58935348Y-100265716D01*
X58935348Y-100265715D01*
X58935348Y-100265713D01*
X58915210Y-100223897D01*
X58911507Y-100215408D01*
X58910800Y-100213608D01*
X58894552Y-100172206D01*
X58892569Y-100169719D01*
X58877801Y-100146216D01*
X58876425Y-100143358D01*
X58844862Y-100109341D01*
X58838813Y-100102312D01*
X58809878Y-100066029D01*
X58809877Y-100066028D01*
X58807253Y-100064239D01*
X58786214Y-100046133D01*
X58784056Y-100043807D01*
X58784052Y-100043804D01*
X58743864Y-100020601D01*
X58736015Y-100015669D01*
X58697672Y-99989527D01*
X58697666Y-99989525D01*
X58694630Y-99988588D01*
X58669195Y-99977490D01*
X58666452Y-99975907D01*
X58666448Y-99975905D01*
X58666445Y-99975904D01*
X58639008Y-99969641D01*
X58621196Y-99965576D01*
X58612249Y-99963178D01*
X58567902Y-99949500D01*
X58567900Y-99949500D01*
X58564732Y-99949500D01*
X58537140Y-99946391D01*
X58534046Y-99945685D01*
X58534042Y-99945684D01*
X58489702Y-99949008D01*
X58487769Y-99949153D01*
X58478503Y-99949500D01*
X52374500Y-99949500D01*
X52307461Y-99929815D01*
X52261706Y-99877011D01*
X52250500Y-99825500D01*
X52250500Y-99733183D01*
X52270185Y-99666144D01*
X52322989Y-99620389D01*
X52392147Y-99610445D01*
X52424533Y-99621654D01*
X52424907Y-99620702D01*
X52433553Y-99624095D01*
X52433555Y-99624096D01*
X52478805Y-99634423D01*
X52487745Y-99636818D01*
X52532098Y-99650500D01*
X52535268Y-99650500D01*
X52562859Y-99653608D01*
X52565954Y-99654315D01*
X52612230Y-99650846D01*
X52621497Y-99650500D01*
X76925500Y-99650500D01*
X76992539Y-99670185D01*
X77038294Y-99722989D01*
X77049500Y-99774500D01*
X77049500Y-115407442D01*
X77029815Y-115474481D01*
X77007727Y-115500257D01*
X76971818Y-115532069D01*
X76875182Y-115672068D01*
X76814860Y-115831125D01*
X76814859Y-115831130D01*
X76794355Y-116000000D01*
X76814859Y-116168869D01*
X76814860Y-116168874D01*
X76875182Y-116327931D01*
X76937475Y-116418177D01*
X76971817Y-116467929D01*
X77077505Y-116561560D01*
X77099150Y-116580736D01*
X77222115Y-116645273D01*
X77249775Y-116659790D01*
X77414944Y-116700500D01*
X77585056Y-116700500D01*
X77750225Y-116659790D01*
X77829692Y-116618081D01*
X77900849Y-116580736D01*
X77900850Y-116580734D01*
X77900852Y-116580734D01*
X78028183Y-116467929D01*
X78124818Y-116327930D01*
X78185140Y-116168872D01*
X78205645Y-116000000D01*
X78185140Y-115831128D01*
X78184714Y-115830006D01*
X78124817Y-115672068D01*
X78076737Y-115602413D01*
X78028183Y-115532071D01*
X78028181Y-115532069D01*
X77992273Y-115500257D01*
X77955146Y-115441068D01*
X77950500Y-115407442D01*
X77950500Y-99264733D01*
X77953609Y-99237139D01*
X77954315Y-99234044D01*
X77950847Y-99187770D01*
X77950500Y-99178502D01*
X77950500Y-99166240D01*
X77950500Y-99166238D01*
X77948671Y-99154110D01*
X77947633Y-99144891D01*
X77944166Y-99098620D01*
X77943009Y-99095672D01*
X77935819Y-99068840D01*
X77935348Y-99065716D01*
X77935348Y-99065715D01*
X77935348Y-99065713D01*
X77915210Y-99023897D01*
X77911507Y-99015408D01*
X77910800Y-99013608D01*
X77894552Y-98972206D01*
X77892569Y-98969719D01*
X77877801Y-98946216D01*
X77876425Y-98943358D01*
X77844862Y-98909341D01*
X77838813Y-98902312D01*
X77809878Y-98866029D01*
X77809877Y-98866028D01*
X77807253Y-98864239D01*
X77786214Y-98846133D01*
X77784056Y-98843807D01*
X77784052Y-98843804D01*
X77743864Y-98820601D01*
X77736015Y-98815669D01*
X77697672Y-98789527D01*
X77697666Y-98789525D01*
X77694630Y-98788588D01*
X77669195Y-98777490D01*
X77666452Y-98775907D01*
X77666448Y-98775905D01*
X77666445Y-98775904D01*
X77639008Y-98769641D01*
X77621196Y-98765576D01*
X77612249Y-98763178D01*
X77567902Y-98749500D01*
X77567900Y-98749500D01*
X77564732Y-98749500D01*
X77537140Y-98746391D01*
X77534046Y-98745685D01*
X77534042Y-98745684D01*
X77489702Y-98749008D01*
X77487769Y-98749153D01*
X77478503Y-98749500D01*
X53174500Y-98749500D01*
X53107461Y-98729815D01*
X53061706Y-98677011D01*
X53050500Y-98625500D01*
X53050500Y-98533183D01*
X53070185Y-98466144D01*
X53122989Y-98420389D01*
X53192147Y-98410445D01*
X53224533Y-98421654D01*
X53224907Y-98420702D01*
X53233553Y-98424095D01*
X53233555Y-98424096D01*
X53278805Y-98434423D01*
X53287745Y-98436818D01*
X53332098Y-98450500D01*
X53335268Y-98450500D01*
X53362859Y-98453608D01*
X53365954Y-98454315D01*
X53412230Y-98450846D01*
X53421497Y-98450500D01*
X95925500Y-98450500D01*
X95992539Y-98470185D01*
X96038294Y-98522989D01*
X96049500Y-98574500D01*
X96049500Y-115407442D01*
X96029815Y-115474481D01*
X96007727Y-115500257D01*
X95971818Y-115532069D01*
X95875182Y-115672068D01*
X95814860Y-115831125D01*
X95814859Y-115831130D01*
X95794355Y-116000000D01*
X95814859Y-116168869D01*
X95814860Y-116168874D01*
X95875182Y-116327931D01*
X95937475Y-116418177D01*
X95971817Y-116467929D01*
X96077505Y-116561560D01*
X96099150Y-116580736D01*
X96222115Y-116645273D01*
X96249775Y-116659790D01*
X96414944Y-116700500D01*
X96585056Y-116700500D01*
X96750225Y-116659790D01*
X96829692Y-116618081D01*
X96900849Y-116580736D01*
X96900850Y-116580734D01*
X96900852Y-116580734D01*
X97028183Y-116467929D01*
X97124818Y-116327930D01*
X97185140Y-116168872D01*
X97205645Y-116000000D01*
X97185140Y-115831128D01*
X97184714Y-115830006D01*
X97124817Y-115672068D01*
X97076737Y-115602413D01*
X97028183Y-115532071D01*
X97028181Y-115532069D01*
X96992273Y-115500257D01*
X96955146Y-115441068D01*
X96950500Y-115407442D01*
X96950500Y-98064733D01*
X96953609Y-98037139D01*
X96954315Y-98034044D01*
X96950847Y-97987770D01*
X96950500Y-97978502D01*
X96950500Y-97966240D01*
X96950500Y-97966238D01*
X96948671Y-97954110D01*
X96947633Y-97944891D01*
X96944166Y-97898620D01*
X96943009Y-97895672D01*
X96935819Y-97868840D01*
X96935348Y-97865716D01*
X96935348Y-97865715D01*
X96935348Y-97865713D01*
X96915210Y-97823897D01*
X96911507Y-97815408D01*
X96910800Y-97813608D01*
X96894552Y-97772206D01*
X96892569Y-97769719D01*
X96877801Y-97746216D01*
X96876425Y-97743358D01*
X96844862Y-97709341D01*
X96838813Y-97702312D01*
X96809878Y-97666029D01*
X96809877Y-97666028D01*
X96807253Y-97664239D01*
X96786214Y-97646133D01*
X96784056Y-97643807D01*
X96784052Y-97643804D01*
X96743864Y-97620601D01*
X96736015Y-97615669D01*
X96697672Y-97589527D01*
X96697666Y-97589525D01*
X96694630Y-97588588D01*
X96669195Y-97577490D01*
X96666452Y-97575907D01*
X96666448Y-97575905D01*
X96666445Y-97575904D01*
X96639008Y-97569641D01*
X96621196Y-97565576D01*
X96612249Y-97563178D01*
X96567902Y-97549500D01*
X96567900Y-97549500D01*
X96564732Y-97549500D01*
X96537140Y-97546391D01*
X96534046Y-97545685D01*
X96534042Y-97545684D01*
X96489702Y-97549008D01*
X96487769Y-97549153D01*
X96478503Y-97549500D01*
X53974500Y-97549500D01*
X53907461Y-97529815D01*
X53861706Y-97477011D01*
X53850500Y-97425500D01*
X53850500Y-59534500D01*
X53870185Y-59467461D01*
X53922989Y-59421706D01*
X53974500Y-59410500D01*
X58242305Y-59410500D01*
X58309344Y-59430185D01*
X58353303Y-59479225D01*
X58397634Y-59568255D01*
X58526128Y-59738407D01*
X58683698Y-59882052D01*
X58864981Y-59994298D01*
X59063802Y-60071321D01*
X59260613Y-60108111D01*
X59322893Y-60139779D01*
X59358166Y-60200092D01*
X59355232Y-60269900D01*
X59315023Y-60327040D01*
X59260613Y-60351888D01*
X59063802Y-60388679D01*
X59063799Y-60388679D01*
X59063799Y-60388680D01*
X58864982Y-60465701D01*
X58864980Y-60465702D01*
X58683699Y-60577947D01*
X58526127Y-60721593D01*
X58397632Y-60891746D01*
X58302596Y-61082605D01*
X58302596Y-61082607D01*
X58244244Y-61287689D01*
X58224571Y-61499999D01*
X58224571Y-61500000D01*
X58244244Y-61712310D01*
X58302596Y-61917392D01*
X58302596Y-61917394D01*
X58397632Y-62108253D01*
X58489885Y-62230414D01*
X58526128Y-62278407D01*
X58683698Y-62422052D01*
X58864981Y-62534298D01*
X59063802Y-62611321D01*
X59260613Y-62648111D01*
X59322893Y-62679779D01*
X59358166Y-62740092D01*
X59355232Y-62809900D01*
X59315023Y-62867040D01*
X59260613Y-62891888D01*
X59063802Y-62928679D01*
X59063799Y-62928679D01*
X59063799Y-62928680D01*
X58864982Y-63005701D01*
X58864980Y-63005702D01*
X58683699Y-63117947D01*
X58526127Y-63261593D01*
X58433454Y-63384312D01*
X58397634Y-63431745D01*
X58353303Y-63520774D01*
X58305803Y-63572008D01*
X58242305Y-63589500D01*
X55264732Y-63589500D01*
X55237140Y-63586391D01*
X55234046Y-63585685D01*
X55234042Y-63585684D01*
X55189702Y-63589008D01*
X55187769Y-63589153D01*
X55178503Y-63589500D01*
X55166235Y-63589500D01*
X55154108Y-63591328D01*
X55144899Y-63592365D01*
X55098622Y-63595833D01*
X55098619Y-63595834D01*
X55095664Y-63596994D01*
X55068860Y-63604177D01*
X55065713Y-63604651D01*
X55065712Y-63604651D01*
X55023903Y-63624785D01*
X55015407Y-63628492D01*
X54972206Y-63645447D01*
X54969716Y-63647433D01*
X54946221Y-63662195D01*
X54943363Y-63663571D01*
X54943359Y-63663573D01*
X54909342Y-63695136D01*
X54902319Y-63701180D01*
X54866029Y-63730121D01*
X54864235Y-63732753D01*
X54846138Y-63753780D01*
X54843806Y-63755945D01*
X54820596Y-63796143D01*
X54815674Y-63803977D01*
X54789527Y-63842326D01*
X54789526Y-63842331D01*
X54788589Y-63845368D01*
X54777495Y-63870797D01*
X54775908Y-63873545D01*
X54775902Y-63873561D01*
X54765577Y-63918795D01*
X54763179Y-63927746D01*
X54749500Y-63972095D01*
X54749500Y-63975268D01*
X54746391Y-64002860D01*
X54745684Y-64005954D01*
X54749153Y-64052228D01*
X54749500Y-64061496D01*
X54749500Y-94407442D01*
X54729815Y-94474481D01*
X54707727Y-94500257D01*
X54671818Y-94532069D01*
X54575182Y-94672068D01*
X54514860Y-94831125D01*
X54514859Y-94831130D01*
X54494355Y-95000000D01*
X54514859Y-95168869D01*
X54514860Y-95168874D01*
X54575182Y-95327931D01*
X54602049Y-95366854D01*
X54671817Y-95467929D01*
X54777505Y-95561560D01*
X54799150Y-95580736D01*
X54949773Y-95659789D01*
X54949775Y-95659790D01*
X55114944Y-95700500D01*
X55285056Y-95700500D01*
X55450225Y-95659790D01*
X55529692Y-95618081D01*
X55600849Y-95580736D01*
X55600850Y-95580734D01*
X55600852Y-95580734D01*
X55728183Y-95467929D01*
X55797951Y-95366853D01*
X55852233Y-95322864D01*
X55921681Y-95315204D01*
X55984246Y-95346307D01*
X56002047Y-95366851D01*
X56045680Y-95430064D01*
X56071816Y-95467928D01*
X56199150Y-95580736D01*
X56349773Y-95659789D01*
X56349775Y-95659790D01*
X56514944Y-95700500D01*
X56685056Y-95700500D01*
X56850225Y-95659790D01*
X56929692Y-95618081D01*
X57000849Y-95580736D01*
X57000850Y-95580734D01*
X57000852Y-95580734D01*
X57128183Y-95467929D01*
X57224818Y-95327930D01*
X57285140Y-95168872D01*
X57305645Y-95000000D01*
X57285140Y-94831128D01*
X57224818Y-94672070D01*
X57128183Y-94532071D01*
X57128181Y-94532069D01*
X57092273Y-94500257D01*
X57055146Y-94441068D01*
X57050500Y-94407442D01*
X57050500Y-67154500D01*
X57070185Y-67087461D01*
X57122989Y-67041706D01*
X57174500Y-67030500D01*
X58242305Y-67030500D01*
X58309344Y-67050185D01*
X58353303Y-67099225D01*
X58397634Y-67188255D01*
X58526128Y-67358407D01*
X58683698Y-67502052D01*
X58864981Y-67614298D01*
X59063802Y-67691321D01*
X59260613Y-67728111D01*
X59322893Y-67759779D01*
X59358166Y-67820092D01*
X59355232Y-67889900D01*
X59315023Y-67947040D01*
X59260613Y-67971888D01*
X59063802Y-68008679D01*
X59063799Y-68008679D01*
X59063799Y-68008680D01*
X58864982Y-68085701D01*
X58864980Y-68085702D01*
X58683699Y-68197947D01*
X58526127Y-68341593D01*
X58397632Y-68511746D01*
X58302596Y-68702605D01*
X58302596Y-68702607D01*
X58244244Y-68907689D01*
X58224571Y-69119999D01*
X58224571Y-69120000D01*
X58244244Y-69332310D01*
X58302596Y-69537392D01*
X58302596Y-69537394D01*
X58397632Y-69728253D01*
X58489885Y-69850414D01*
X58526128Y-69898407D01*
X58683698Y-70042052D01*
X58864981Y-70154298D01*
X58864983Y-70154298D01*
X58869856Y-70157316D01*
X58868553Y-70159419D01*
X58912003Y-70199695D01*
X58929500Y-70263202D01*
X58929500Y-90907442D01*
X58909815Y-90974481D01*
X58887727Y-91000257D01*
X58851818Y-91032069D01*
X58755182Y-91172068D01*
X58694860Y-91331125D01*
X58694859Y-91331130D01*
X58674355Y-91500000D01*
X58694859Y-91668869D01*
X58694860Y-91668874D01*
X58755182Y-91827931D01*
X58808497Y-91905170D01*
X58851817Y-91967929D01*
X58895810Y-92006903D01*
X58979150Y-92080736D01*
X59129773Y-92159789D01*
X59129775Y-92159790D01*
X59294944Y-92200500D01*
X59465056Y-92200500D01*
X59630225Y-92159790D01*
X59709692Y-92118081D01*
X59780849Y-92080736D01*
X59780850Y-92080734D01*
X59780852Y-92080734D01*
X59908183Y-91967929D01*
X60004818Y-91827930D01*
X60065140Y-91668872D01*
X60085645Y-91500000D01*
X60065140Y-91331128D01*
X60004818Y-91172070D01*
X59908183Y-91032071D01*
X59899637Y-91024500D01*
X59872273Y-91000257D01*
X59835146Y-90941068D01*
X59830500Y-90907442D01*
X59830500Y-70263202D01*
X59850185Y-70196163D01*
X59891351Y-70159265D01*
X59890144Y-70157316D01*
X59895016Y-70154298D01*
X59895019Y-70154298D01*
X60076302Y-70042052D01*
X60233872Y-69898407D01*
X60326547Y-69775685D01*
X60382655Y-69734051D01*
X60452367Y-69729360D01*
X60513549Y-69763102D01*
X60546776Y-69824565D01*
X60549500Y-69850414D01*
X60549500Y-94407442D01*
X60529815Y-94474481D01*
X60507727Y-94500257D01*
X60471818Y-94532069D01*
X60375182Y-94672068D01*
X60314860Y-94831125D01*
X60314859Y-94831130D01*
X60294355Y-95000000D01*
X60314859Y-95168869D01*
X60314860Y-95168874D01*
X60375182Y-95327931D01*
X60402049Y-95366854D01*
X60471817Y-95467929D01*
X60577505Y-95561560D01*
X60599150Y-95580736D01*
X60749773Y-95659789D01*
X60749775Y-95659790D01*
X60914944Y-95700500D01*
X61085056Y-95700500D01*
X61250225Y-95659790D01*
X61329692Y-95618081D01*
X61400849Y-95580736D01*
X61400850Y-95580734D01*
X61400852Y-95580734D01*
X61528183Y-95467929D01*
X61624818Y-95327930D01*
X61685140Y-95168872D01*
X61705645Y-95000000D01*
X61685140Y-94831128D01*
X61624818Y-94672070D01*
X61528183Y-94532071D01*
X61528181Y-94532069D01*
X61492273Y-94500257D01*
X61455146Y-94441068D01*
X61450500Y-94407442D01*
X61450500Y-61564733D01*
X61453609Y-61537139D01*
X61454315Y-61534044D01*
X61450847Y-61487770D01*
X61450500Y-61478502D01*
X61450500Y-61466240D01*
X61450500Y-61466238D01*
X61448671Y-61454110D01*
X61447633Y-61444891D01*
X61444166Y-61398620D01*
X61443009Y-61395672D01*
X61435819Y-61368840D01*
X61435348Y-61365716D01*
X61435348Y-61365715D01*
X61435348Y-61365713D01*
X61415210Y-61323897D01*
X61411507Y-61315408D01*
X61410800Y-61313608D01*
X61394552Y-61272206D01*
X61392569Y-61269719D01*
X61377801Y-61246216D01*
X61376425Y-61243358D01*
X61344862Y-61209341D01*
X61338813Y-61202312D01*
X61309878Y-61166029D01*
X61309877Y-61166028D01*
X61307253Y-61164239D01*
X61286214Y-61146133D01*
X61284056Y-61143807D01*
X61284052Y-61143804D01*
X61243864Y-61120601D01*
X61236015Y-61115669D01*
X61197672Y-61089527D01*
X61197666Y-61089525D01*
X61194630Y-61088588D01*
X61169195Y-61077490D01*
X61166452Y-61075907D01*
X61166448Y-61075905D01*
X61166445Y-61075904D01*
X61139008Y-61069641D01*
X61121196Y-61065576D01*
X61112249Y-61063178D01*
X61067902Y-61049500D01*
X61067900Y-61049500D01*
X61064732Y-61049500D01*
X61037140Y-61046391D01*
X61034046Y-61045685D01*
X61034042Y-61045684D01*
X60989702Y-61049008D01*
X60987769Y-61049153D01*
X60978503Y-61049500D01*
X60517695Y-61049500D01*
X60450656Y-61029815D01*
X60406696Y-60980774D01*
X60362366Y-60891745D01*
X60233872Y-60721593D01*
X60076302Y-60577948D01*
X59895019Y-60465702D01*
X59895017Y-60465701D01*
X59795608Y-60427190D01*
X59696198Y-60388679D01*
X59499385Y-60351888D01*
X59437106Y-60320221D01*
X59401833Y-60259908D01*
X59404767Y-60190100D01*
X59444976Y-60132960D01*
X59499384Y-60108111D01*
X59696198Y-60071321D01*
X59895019Y-59994298D01*
X60076302Y-59882052D01*
X60233872Y-59738407D01*
X60362366Y-59568255D01*
X60362425Y-59568137D01*
X60457403Y-59377394D01*
X60457403Y-59377393D01*
X60457405Y-59377389D01*
X60515756Y-59172310D01*
X60535429Y-58960000D01*
X60515756Y-58747690D01*
X60457405Y-58542611D01*
X60457403Y-58542606D01*
X60457403Y-58542605D01*
X60362367Y-58351746D01*
X60233872Y-58181593D01*
X60076302Y-58037948D01*
X59895019Y-57925702D01*
X59895017Y-57925701D01*
X59795608Y-57887190D01*
X59696198Y-57848679D01*
X59499385Y-57811888D01*
X59437106Y-57780221D01*
X59401833Y-57719908D01*
X59404767Y-57650100D01*
X59444976Y-57592960D01*
X59499384Y-57568111D01*
X59696198Y-57531321D01*
X59895019Y-57454298D01*
X60076302Y-57342052D01*
X60233872Y-57198407D01*
X60362366Y-57028255D01*
X60414095Y-56924369D01*
X60457403Y-56837394D01*
X60457403Y-56837393D01*
X60457405Y-56837389D01*
X60505032Y-56670000D01*
X73289364Y-56670000D01*
X73346567Y-56883486D01*
X73346570Y-56883492D01*
X73446399Y-57097578D01*
X73581894Y-57291082D01*
X73748917Y-57458105D01*
X73942421Y-57593600D01*
X74141573Y-57686466D01*
X74194012Y-57732638D01*
X74213164Y-57799832D01*
X74192948Y-57866713D01*
X74139783Y-57912048D01*
X74133968Y-57914472D01*
X74126771Y-57917260D01*
X74104982Y-57925701D01*
X74104980Y-57925702D01*
X73923699Y-58037947D01*
X73766127Y-58181593D01*
X73637632Y-58351746D01*
X73542596Y-58542605D01*
X73542596Y-58542607D01*
X73484244Y-58747689D01*
X73464571Y-58959999D01*
X73464571Y-58960000D01*
X73484244Y-59172310D01*
X73542596Y-59377392D01*
X73542596Y-59377394D01*
X73637632Y-59568253D01*
X73646643Y-59580185D01*
X73766128Y-59738407D01*
X73923698Y-59882052D01*
X74104981Y-59994298D01*
X74303802Y-60071321D01*
X74500613Y-60108111D01*
X74562893Y-60139779D01*
X74598166Y-60200092D01*
X74595232Y-60269900D01*
X74555023Y-60327040D01*
X74500613Y-60351888D01*
X74303802Y-60388679D01*
X74303799Y-60388679D01*
X74303799Y-60388680D01*
X74104982Y-60465701D01*
X74104980Y-60465702D01*
X73923699Y-60577947D01*
X73766127Y-60721593D01*
X73637632Y-60891746D01*
X73542596Y-61082605D01*
X73542596Y-61082607D01*
X73484244Y-61287689D01*
X73464571Y-61499999D01*
X73464571Y-61500000D01*
X73484244Y-61712310D01*
X73542596Y-61917392D01*
X73542596Y-61917394D01*
X73637632Y-62108253D01*
X73729885Y-62230414D01*
X73766128Y-62278407D01*
X73923698Y-62422052D01*
X74104981Y-62534298D01*
X74303802Y-62611321D01*
X74500613Y-62648111D01*
X74562893Y-62679779D01*
X74598166Y-62740092D01*
X74595232Y-62809900D01*
X74555023Y-62867040D01*
X74500613Y-62891888D01*
X74303802Y-62928679D01*
X74303799Y-62928679D01*
X74303799Y-62928680D01*
X74104982Y-63005701D01*
X74104980Y-63005702D01*
X73923699Y-63117947D01*
X73766127Y-63261593D01*
X73637632Y-63431746D01*
X73542596Y-63622605D01*
X73542596Y-63622607D01*
X73484244Y-63827689D01*
X73464571Y-64039999D01*
X73464571Y-64040000D01*
X73484244Y-64252310D01*
X73542596Y-64457392D01*
X73542596Y-64457394D01*
X73637632Y-64648253D01*
X73729885Y-64770414D01*
X73766128Y-64818407D01*
X73923698Y-64962052D01*
X74104981Y-65074298D01*
X74303802Y-65151321D01*
X74500613Y-65188111D01*
X74562893Y-65219779D01*
X74598166Y-65280092D01*
X74595232Y-65349900D01*
X74555023Y-65407040D01*
X74500613Y-65431888D01*
X74303802Y-65468679D01*
X74303799Y-65468679D01*
X74303799Y-65468680D01*
X74104982Y-65545701D01*
X74104980Y-65545702D01*
X73923699Y-65657947D01*
X73766127Y-65801593D01*
X73637632Y-65971746D01*
X73542596Y-66162605D01*
X73542596Y-66162607D01*
X73484244Y-66367689D01*
X73464571Y-66579999D01*
X73464571Y-66580000D01*
X73484244Y-66792310D01*
X73542596Y-66997392D01*
X73542596Y-66997394D01*
X73637632Y-67188253D01*
X73729885Y-67310414D01*
X73766128Y-67358407D01*
X73923698Y-67502052D01*
X74104981Y-67614298D01*
X74303802Y-67691321D01*
X74500613Y-67728111D01*
X74562893Y-67759779D01*
X74598166Y-67820092D01*
X74595232Y-67889900D01*
X74555023Y-67947040D01*
X74500613Y-67971888D01*
X74303802Y-68008679D01*
X74303799Y-68008679D01*
X74303799Y-68008680D01*
X74104982Y-68085701D01*
X74104980Y-68085702D01*
X73923699Y-68197947D01*
X73766127Y-68341593D01*
X73637632Y-68511746D01*
X73542596Y-68702605D01*
X73542596Y-68702607D01*
X73484244Y-68907689D01*
X73464571Y-69119999D01*
X73464571Y-69120000D01*
X73484244Y-69332310D01*
X73542596Y-69537392D01*
X73542596Y-69537394D01*
X73637632Y-69728253D01*
X73729885Y-69850414D01*
X73766128Y-69898407D01*
X73923698Y-70042052D01*
X74104981Y-70154298D01*
X74303802Y-70231321D01*
X74513390Y-70270500D01*
X74513392Y-70270500D01*
X74726608Y-70270500D01*
X74726610Y-70270500D01*
X74936198Y-70231321D01*
X75135019Y-70154298D01*
X75316302Y-70042052D01*
X75473872Y-69898407D01*
X75602366Y-69728255D01*
X75697405Y-69537389D01*
X75755756Y-69332310D01*
X75775429Y-69120000D01*
X75755756Y-68907690D01*
X75697405Y-68702611D01*
X75697403Y-68702606D01*
X75697403Y-68702605D01*
X75602367Y-68511746D01*
X75473872Y-68341593D01*
X75316302Y-68197948D01*
X75135019Y-68085702D01*
X75135017Y-68085701D01*
X75035608Y-68047190D01*
X74936198Y-68008679D01*
X74739385Y-67971888D01*
X74677106Y-67940221D01*
X74641833Y-67879908D01*
X74644767Y-67810100D01*
X74684976Y-67752960D01*
X74739384Y-67728111D01*
X74936198Y-67691321D01*
X75135019Y-67614298D01*
X75316302Y-67502052D01*
X75473872Y-67358407D01*
X75602366Y-67188255D01*
X75646696Y-67099225D01*
X75694197Y-67047992D01*
X75757695Y-67030500D01*
X108235500Y-67030500D01*
X108302539Y-67050185D01*
X108348294Y-67102989D01*
X108359500Y-67154500D01*
X108359500Y-85856797D01*
X108339815Y-85923836D01*
X108298654Y-85960744D01*
X108299855Y-85962684D01*
X108113699Y-86077947D01*
X107956127Y-86221593D01*
X107827632Y-86391746D01*
X107732596Y-86582605D01*
X107732596Y-86582607D01*
X107674244Y-86787689D01*
X107663471Y-86903951D01*
X107637685Y-86968888D01*
X107593130Y-87000804D01*
X107629503Y-87021668D01*
X107661693Y-87083681D01*
X107663471Y-87096048D01*
X107674244Y-87212310D01*
X107732596Y-87417392D01*
X107732596Y-87417394D01*
X107827632Y-87608253D01*
X107899385Y-87703268D01*
X107956128Y-87778407D01*
X108113698Y-87922052D01*
X108294981Y-88034298D01*
X108493802Y-88111321D01*
X108703390Y-88150500D01*
X108703392Y-88150500D01*
X108916608Y-88150500D01*
X108916610Y-88150500D01*
X109126198Y-88111321D01*
X109325019Y-88034298D01*
X109506302Y-87922052D01*
X109663872Y-87778407D01*
X109792366Y-87608255D01*
X109846270Y-87500000D01*
X109887403Y-87417394D01*
X109887403Y-87417393D01*
X109887405Y-87417389D01*
X109945756Y-87212310D01*
X109956529Y-87096047D01*
X109982315Y-87031111D01*
X110026869Y-86999194D01*
X109990497Y-86978331D01*
X109958307Y-86916318D01*
X109956529Y-86903951D01*
X109955849Y-86896613D01*
X109945756Y-86787690D01*
X109887405Y-86582611D01*
X109887403Y-86582606D01*
X109887403Y-86582605D01*
X109792367Y-86391746D01*
X109663872Y-86221593D01*
X109532874Y-86102172D01*
X109506302Y-86077948D01*
X109325019Y-85965702D01*
X109320145Y-85962684D01*
X109321441Y-85960589D01*
X109277969Y-85920257D01*
X109260500Y-85856797D01*
X109260500Y-66644733D01*
X109263609Y-66617139D01*
X109264315Y-66614044D01*
X109260847Y-66567770D01*
X109260500Y-66558502D01*
X109260500Y-66546240D01*
X109260500Y-66546238D01*
X109258671Y-66534110D01*
X109257633Y-66524891D01*
X109254166Y-66478620D01*
X109253009Y-66475672D01*
X109245819Y-66448840D01*
X109245348Y-66445716D01*
X109245348Y-66445715D01*
X109245348Y-66445713D01*
X109225210Y-66403897D01*
X109221507Y-66395408D01*
X109216373Y-66382326D01*
X109204552Y-66352206D01*
X109202569Y-66349719D01*
X109187801Y-66326216D01*
X109186425Y-66323358D01*
X109177792Y-66314054D01*
X109154862Y-66289341D01*
X109148813Y-66282312D01*
X109119878Y-66246029D01*
X109119877Y-66246028D01*
X109117253Y-66244239D01*
X109096214Y-66226133D01*
X109094056Y-66223807D01*
X109094052Y-66223804D01*
X109053864Y-66200601D01*
X109046015Y-66195669D01*
X109007672Y-66169527D01*
X109007666Y-66169525D01*
X109004630Y-66168588D01*
X108979195Y-66157490D01*
X108976452Y-66155907D01*
X108976448Y-66155905D01*
X108976445Y-66155904D01*
X108949008Y-66149641D01*
X108931196Y-66145576D01*
X108922249Y-66143178D01*
X108877902Y-66129500D01*
X108877900Y-66129500D01*
X108874732Y-66129500D01*
X108847140Y-66126391D01*
X108844046Y-66125685D01*
X108844042Y-66125684D01*
X108799702Y-66129008D01*
X108797769Y-66129153D01*
X108788503Y-66129500D01*
X75757695Y-66129500D01*
X75690656Y-66109815D01*
X75646696Y-66060774D01*
X75602366Y-65971745D01*
X75473872Y-65801593D01*
X75316302Y-65657948D01*
X75135019Y-65545702D01*
X75135017Y-65545701D01*
X75035608Y-65507190D01*
X74936198Y-65468679D01*
X74739385Y-65431888D01*
X74677106Y-65400221D01*
X74641833Y-65339908D01*
X74644767Y-65270100D01*
X74684976Y-65212960D01*
X74739384Y-65188111D01*
X74936198Y-65151321D01*
X75135019Y-65074298D01*
X75316302Y-64962052D01*
X75473872Y-64818407D01*
X75602366Y-64648255D01*
X75697405Y-64457389D01*
X75755756Y-64252310D01*
X75775429Y-64040000D01*
X75755756Y-63827690D01*
X75697405Y-63622611D01*
X75697403Y-63622606D01*
X75697403Y-63622605D01*
X75602367Y-63431746D01*
X75473872Y-63261593D01*
X75316302Y-63117948D01*
X75135019Y-63005702D01*
X75135017Y-63005701D01*
X75035608Y-62967190D01*
X74936198Y-62928679D01*
X74739385Y-62891888D01*
X74677106Y-62860221D01*
X74641833Y-62799908D01*
X74644767Y-62730100D01*
X74684976Y-62672960D01*
X74739384Y-62648111D01*
X74936198Y-62611321D01*
X75135019Y-62534298D01*
X75316302Y-62422052D01*
X75473872Y-62278407D01*
X75602366Y-62108255D01*
X75697405Y-61917389D01*
X75755756Y-61712310D01*
X75775429Y-61500000D01*
X75755756Y-61287690D01*
X75697405Y-61082611D01*
X75697403Y-61082606D01*
X75697403Y-61082605D01*
X75602367Y-60891746D01*
X75473872Y-60721593D01*
X75316302Y-60577948D01*
X75135019Y-60465702D01*
X75135017Y-60465701D01*
X75035608Y-60427190D01*
X74936198Y-60388679D01*
X74739385Y-60351888D01*
X74677106Y-60320221D01*
X74641833Y-60259908D01*
X74644767Y-60190100D01*
X74684976Y-60132960D01*
X74739384Y-60108111D01*
X74936198Y-60071321D01*
X75135019Y-59994298D01*
X75316302Y-59882052D01*
X75473872Y-59738407D01*
X75571013Y-59609773D01*
X75627122Y-59568137D01*
X75669967Y-59560500D01*
X110625500Y-59560500D01*
X110692539Y-59580185D01*
X110738294Y-59632989D01*
X110749500Y-59684500D01*
X110749500Y-85949562D01*
X110729815Y-86016601D01*
X110690778Y-86054988D01*
X110673924Y-86065424D01*
X110653699Y-86077947D01*
X110496127Y-86221593D01*
X110367632Y-86391746D01*
X110272596Y-86582605D01*
X110272596Y-86582607D01*
X110214244Y-86787689D01*
X110203471Y-86903951D01*
X110177685Y-86968888D01*
X110133130Y-87000804D01*
X110169503Y-87021668D01*
X110201693Y-87083681D01*
X110203471Y-87096048D01*
X110214244Y-87212310D01*
X110272596Y-87417392D01*
X110272596Y-87417394D01*
X110367632Y-87608253D01*
X110496127Y-87778406D01*
X110653699Y-87922053D01*
X110666861Y-87930202D01*
X110690777Y-87945010D01*
X110737412Y-87997036D01*
X110749500Y-88050437D01*
X110749500Y-90252512D01*
X110748439Y-90268697D01*
X110744318Y-90299998D01*
X110744318Y-90300000D01*
X110749500Y-90339360D01*
X110749500Y-90339361D01*
X110764955Y-90456760D01*
X110764956Y-90456762D01*
X110825464Y-90602841D01*
X110921718Y-90728282D01*
X111047159Y-90824536D01*
X111193238Y-90885044D01*
X111271619Y-90895363D01*
X111349999Y-90905682D01*
X111350000Y-90905682D01*
X111381302Y-90901560D01*
X111397487Y-90900500D01*
X117187500Y-90900500D01*
X117254539Y-90920185D01*
X117300294Y-90972989D01*
X117311500Y-91024500D01*
X117311500Y-91554219D01*
X117291815Y-91621258D01*
X117262429Y-91653020D01*
X117257079Y-91657076D01*
X117257074Y-91657082D01*
X117165639Y-91777656D01*
X117145814Y-91827930D01*
X117115353Y-91905171D01*
X117072449Y-91960314D01*
X117006541Y-91983507D01*
X116938556Y-91967386D01*
X116890080Y-91917070D01*
X116884648Y-91905178D01*
X116834361Y-91777658D01*
X116834360Y-91777657D01*
X116834360Y-91777656D01*
X116742922Y-91657077D01*
X116622343Y-91565639D01*
X116481561Y-91510122D01*
X116435926Y-91504642D01*
X116393102Y-91499500D01*
X115781898Y-91499500D01*
X115742853Y-91504188D01*
X115693438Y-91510122D01*
X115552656Y-91565639D01*
X115432077Y-91657077D01*
X115340639Y-91777656D01*
X115285122Y-91918438D01*
X115280094Y-91960314D01*
X115274500Y-92006898D01*
X115274500Y-92006903D01*
X115274500Y-92625500D01*
X115254815Y-92692539D01*
X115202011Y-92738294D01*
X115150500Y-92749500D01*
X96684500Y-92749500D01*
X96617461Y-92729815D01*
X96571706Y-92677011D01*
X96560500Y-92625500D01*
X96560500Y-88143202D01*
X96580185Y-88076163D01*
X96621351Y-88039265D01*
X96620144Y-88037316D01*
X96625016Y-88034298D01*
X96625019Y-88034298D01*
X96806302Y-87922052D01*
X96963872Y-87778407D01*
X97092366Y-87608255D01*
X97146270Y-87500000D01*
X97187403Y-87417394D01*
X97187403Y-87417393D01*
X97187405Y-87417389D01*
X97245756Y-87212310D01*
X97256529Y-87096047D01*
X97282315Y-87031111D01*
X97324622Y-87000804D01*
X97433130Y-87000804D01*
X97469503Y-87021668D01*
X97501693Y-87083681D01*
X97503471Y-87096048D01*
X97514244Y-87212310D01*
X97572596Y-87417392D01*
X97572596Y-87417394D01*
X97667632Y-87608253D01*
X97739385Y-87703268D01*
X97796128Y-87778407D01*
X97953698Y-87922052D01*
X98134981Y-88034298D01*
X98333802Y-88111321D01*
X98543390Y-88150500D01*
X98543392Y-88150500D01*
X98756608Y-88150500D01*
X98756610Y-88150500D01*
X98966198Y-88111321D01*
X99165019Y-88034298D01*
X99346302Y-87922052D01*
X99503872Y-87778407D01*
X99632366Y-87608255D01*
X99686270Y-87500000D01*
X99727403Y-87417394D01*
X99727403Y-87417393D01*
X99727405Y-87417389D01*
X99785756Y-87212310D01*
X99796529Y-87096047D01*
X99822315Y-87031111D01*
X99864622Y-87000804D01*
X99973130Y-87000804D01*
X100009503Y-87021668D01*
X100041693Y-87083681D01*
X100043471Y-87096048D01*
X100054244Y-87212310D01*
X100112596Y-87417392D01*
X100112596Y-87417394D01*
X100207632Y-87608253D01*
X100279385Y-87703268D01*
X100336128Y-87778407D01*
X100493698Y-87922052D01*
X100674981Y-88034298D01*
X100873802Y-88111321D01*
X101083390Y-88150500D01*
X101083392Y-88150500D01*
X101296608Y-88150500D01*
X101296610Y-88150500D01*
X101506198Y-88111321D01*
X101705019Y-88034298D01*
X101886302Y-87922052D01*
X102043872Y-87778407D01*
X102172366Y-87608255D01*
X102226270Y-87500000D01*
X102267403Y-87417394D01*
X102267403Y-87417393D01*
X102267405Y-87417389D01*
X102325756Y-87212310D01*
X102336529Y-87096047D01*
X102362315Y-87031111D01*
X102404622Y-87000804D01*
X102513130Y-87000804D01*
X102549503Y-87021668D01*
X102581693Y-87083681D01*
X102583471Y-87096048D01*
X102594244Y-87212310D01*
X102652596Y-87417392D01*
X102652596Y-87417394D01*
X102747632Y-87608253D01*
X102819385Y-87703268D01*
X102876128Y-87778407D01*
X103033698Y-87922052D01*
X103214981Y-88034298D01*
X103413802Y-88111321D01*
X103623390Y-88150500D01*
X103623392Y-88150500D01*
X103836608Y-88150500D01*
X103836610Y-88150500D01*
X104046198Y-88111321D01*
X104245019Y-88034298D01*
X104426302Y-87922052D01*
X104583872Y-87778407D01*
X104712366Y-87608255D01*
X104766270Y-87500000D01*
X104807403Y-87417394D01*
X104807403Y-87417393D01*
X104807405Y-87417389D01*
X104865756Y-87212310D01*
X104876529Y-87096047D01*
X104902315Y-87031111D01*
X104944622Y-87000804D01*
X105053130Y-87000804D01*
X105089503Y-87021668D01*
X105121693Y-87083681D01*
X105123471Y-87096048D01*
X105134244Y-87212310D01*
X105192596Y-87417392D01*
X105192596Y-87417394D01*
X105287632Y-87608253D01*
X105359385Y-87703268D01*
X105416128Y-87778407D01*
X105573698Y-87922052D01*
X105754981Y-88034298D01*
X105953802Y-88111321D01*
X106163390Y-88150500D01*
X106163392Y-88150500D01*
X106376608Y-88150500D01*
X106376610Y-88150500D01*
X106586198Y-88111321D01*
X106785019Y-88034298D01*
X106966302Y-87922052D01*
X107123872Y-87778407D01*
X107252366Y-87608255D01*
X107306270Y-87500000D01*
X107347403Y-87417394D01*
X107347403Y-87417393D01*
X107347405Y-87417389D01*
X107405756Y-87212310D01*
X107416529Y-87096047D01*
X107442315Y-87031111D01*
X107486869Y-86999194D01*
X107450497Y-86978331D01*
X107418307Y-86916318D01*
X107416529Y-86903951D01*
X107415849Y-86896613D01*
X107405756Y-86787690D01*
X107347405Y-86582611D01*
X107347403Y-86582606D01*
X107347403Y-86582605D01*
X107252367Y-86391746D01*
X107123872Y-86221593D01*
X106992874Y-86102172D01*
X106966302Y-86077948D01*
X106785019Y-85965702D01*
X106785017Y-85965701D01*
X106635829Y-85907906D01*
X106586198Y-85888679D01*
X106376610Y-85849500D01*
X106163390Y-85849500D01*
X105953802Y-85888679D01*
X105953799Y-85888679D01*
X105953799Y-85888680D01*
X105754982Y-85965701D01*
X105754980Y-85965702D01*
X105573699Y-86077947D01*
X105416127Y-86221593D01*
X105287632Y-86391746D01*
X105192596Y-86582605D01*
X105192596Y-86582607D01*
X105134244Y-86787689D01*
X105123471Y-86903951D01*
X105097685Y-86968888D01*
X105053130Y-87000804D01*
X104944622Y-87000804D01*
X104946869Y-86999194D01*
X104910497Y-86978331D01*
X104878307Y-86916318D01*
X104876529Y-86903951D01*
X104875849Y-86896613D01*
X104865756Y-86787690D01*
X104807405Y-86582611D01*
X104807403Y-86582606D01*
X104807403Y-86582605D01*
X104712367Y-86391746D01*
X104583872Y-86221593D01*
X104452874Y-86102172D01*
X104426302Y-86077948D01*
X104245019Y-85965702D01*
X104245017Y-85965701D01*
X104095829Y-85907906D01*
X104046198Y-85888679D01*
X103836610Y-85849500D01*
X103623390Y-85849500D01*
X103413802Y-85888679D01*
X103413799Y-85888679D01*
X103413799Y-85888680D01*
X103214982Y-85965701D01*
X103214980Y-85965702D01*
X103033699Y-86077947D01*
X102876127Y-86221593D01*
X102747632Y-86391746D01*
X102652596Y-86582605D01*
X102652596Y-86582607D01*
X102594244Y-86787689D01*
X102583471Y-86903951D01*
X102557685Y-86968888D01*
X102513130Y-87000804D01*
X102404622Y-87000804D01*
X102406869Y-86999194D01*
X102370497Y-86978331D01*
X102338307Y-86916318D01*
X102336529Y-86903951D01*
X102335849Y-86896613D01*
X102325756Y-86787690D01*
X102267405Y-86582611D01*
X102267403Y-86582606D01*
X102267403Y-86582605D01*
X102172367Y-86391746D01*
X102043872Y-86221593D01*
X101912874Y-86102172D01*
X101886302Y-86077948D01*
X101705019Y-85965702D01*
X101705017Y-85965701D01*
X101555829Y-85907906D01*
X101506198Y-85888679D01*
X101296610Y-85849500D01*
X101083390Y-85849500D01*
X100873802Y-85888679D01*
X100873799Y-85888679D01*
X100873799Y-85888680D01*
X100674982Y-85965701D01*
X100674980Y-85965702D01*
X100493699Y-86077947D01*
X100336127Y-86221593D01*
X100207632Y-86391746D01*
X100112596Y-86582605D01*
X100112596Y-86582607D01*
X100054244Y-86787689D01*
X100043471Y-86903951D01*
X100017685Y-86968888D01*
X99973130Y-87000804D01*
X99864622Y-87000804D01*
X99866869Y-86999194D01*
X99830497Y-86978331D01*
X99798307Y-86916318D01*
X99796529Y-86903951D01*
X99795849Y-86896613D01*
X99785756Y-86787690D01*
X99727405Y-86582611D01*
X99727403Y-86582606D01*
X99727403Y-86582605D01*
X99632367Y-86391746D01*
X99503872Y-86221593D01*
X99372874Y-86102172D01*
X99346302Y-86077948D01*
X99165019Y-85965702D01*
X99165017Y-85965701D01*
X99015829Y-85907906D01*
X98966198Y-85888679D01*
X98756610Y-85849500D01*
X98543390Y-85849500D01*
X98333802Y-85888679D01*
X98333799Y-85888679D01*
X98333799Y-85888680D01*
X98134982Y-85965701D01*
X98134980Y-85965702D01*
X97953699Y-86077947D01*
X97796127Y-86221593D01*
X97667632Y-86391746D01*
X97572596Y-86582605D01*
X97572596Y-86582607D01*
X97514244Y-86787689D01*
X97503471Y-86903951D01*
X97477685Y-86968888D01*
X97433130Y-87000804D01*
X97324622Y-87000804D01*
X97326869Y-86999194D01*
X97290497Y-86978331D01*
X97258307Y-86916318D01*
X97256529Y-86903951D01*
X97255849Y-86896613D01*
X97245756Y-86787690D01*
X97187405Y-86582611D01*
X97187403Y-86582606D01*
X97187403Y-86582605D01*
X97092367Y-86391746D01*
X96963872Y-86221593D01*
X96832874Y-86102172D01*
X96806302Y-86077948D01*
X96625019Y-85965702D01*
X96625017Y-85965701D01*
X96475829Y-85907906D01*
X96426198Y-85888679D01*
X96216610Y-85849500D01*
X96003390Y-85849500D01*
X95793802Y-85888679D01*
X95793799Y-85888679D01*
X95793799Y-85888680D01*
X95594982Y-85965701D01*
X95594980Y-85965702D01*
X95413699Y-86077947D01*
X95256127Y-86221593D01*
X95127632Y-86391746D01*
X95032596Y-86582605D01*
X95032596Y-86582607D01*
X94974244Y-86787689D01*
X94954571Y-86999999D01*
X94954571Y-87000000D01*
X94974244Y-87212310D01*
X95032596Y-87417392D01*
X95032596Y-87417394D01*
X95127632Y-87608253D01*
X95199385Y-87703268D01*
X95256128Y-87778407D01*
X95413698Y-87922052D01*
X95594981Y-88034298D01*
X95594983Y-88034298D01*
X95599856Y-88037316D01*
X95598553Y-88039419D01*
X95642003Y-88079695D01*
X95659500Y-88143202D01*
X95659500Y-93135268D01*
X95656391Y-93162860D01*
X95655684Y-93165954D01*
X95659153Y-93212228D01*
X95659500Y-93221496D01*
X95659500Y-93233759D01*
X95659501Y-93233773D01*
X95661327Y-93245890D01*
X95662365Y-93255101D01*
X95665833Y-93301375D01*
X95666991Y-93304325D01*
X95674179Y-93331149D01*
X95674651Y-93334285D01*
X95674652Y-93334287D01*
X95690850Y-93367922D01*
X95694784Y-93376091D01*
X95698487Y-93384580D01*
X95710526Y-93415253D01*
X95715447Y-93427792D01*
X95715447Y-93427793D01*
X95717426Y-93430274D01*
X95732194Y-93453777D01*
X95733571Y-93456637D01*
X95733572Y-93456638D01*
X95733574Y-93456640D01*
X95733575Y-93456642D01*
X95764412Y-93489876D01*
X95765143Y-93490664D01*
X95771181Y-93497680D01*
X95800121Y-93533970D01*
X95802747Y-93535760D01*
X95823782Y-93553863D01*
X95825945Y-93556194D01*
X95866139Y-93579400D01*
X95873978Y-93584326D01*
X95886085Y-93592580D01*
X95912327Y-93610472D01*
X95915356Y-93611406D01*
X95940808Y-93622510D01*
X95943555Y-93624096D01*
X95988805Y-93634423D01*
X95997745Y-93636818D01*
X96042098Y-93650500D01*
X96045268Y-93650500D01*
X96072859Y-93653608D01*
X96075954Y-93654315D01*
X96122230Y-93650846D01*
X96131497Y-93650500D01*
X116023268Y-93650500D01*
X116050859Y-93653608D01*
X116053954Y-93654315D01*
X116100230Y-93650846D01*
X116109497Y-93650500D01*
X116121759Y-93650500D01*
X116121762Y-93650500D01*
X116133907Y-93648668D01*
X116143065Y-93647636D01*
X116189378Y-93644166D01*
X116192329Y-93643007D01*
X116219158Y-93635819D01*
X116222287Y-93635348D01*
X116264106Y-93615207D01*
X116272577Y-93611512D01*
X116315794Y-93594552D01*
X116318272Y-93592575D01*
X116341786Y-93577799D01*
X116344642Y-93576425D01*
X116378672Y-93544848D01*
X116385669Y-93538826D01*
X116413390Y-93516720D01*
X116475920Y-93490554D01*
X116481564Y-93489877D01*
X116622342Y-93434361D01*
X116742922Y-93342922D01*
X116834361Y-93222342D01*
X116884646Y-93094826D01*
X116927551Y-93039685D01*
X116993459Y-93016492D01*
X117061443Y-93032612D01*
X117109920Y-93082929D01*
X117115348Y-93094814D01*
X117146177Y-93172989D01*
X117165639Y-93222343D01*
X117257077Y-93342922D01*
X117377656Y-93434360D01*
X117377657Y-93434360D01*
X117377658Y-93434361D01*
X117518436Y-93489877D01*
X117606898Y-93500500D01*
X117606903Y-93500500D01*
X118218097Y-93500500D01*
X118218102Y-93500500D01*
X118306564Y-93489877D01*
X118447342Y-93434361D01*
X118567922Y-93342922D01*
X118659361Y-93222342D01*
X118667506Y-93201689D01*
X118676450Y-93179010D01*
X118719356Y-93123866D01*
X118785264Y-93100673D01*
X118791804Y-93100500D01*
X119673338Y-93100500D01*
X119740377Y-93120185D01*
X119786132Y-93172989D01*
X119788687Y-93178997D01*
X119788692Y-93179010D01*
X119788693Y-93179011D01*
X119815638Y-93247342D01*
X119907077Y-93367922D01*
X120027656Y-93459360D01*
X120027657Y-93459360D01*
X120027658Y-93459361D01*
X120168436Y-93514877D01*
X120256898Y-93525500D01*
X120256903Y-93525500D01*
X120843097Y-93525500D01*
X120843102Y-93525500D01*
X120931564Y-93514877D01*
X121072342Y-93459361D01*
X121192922Y-93367922D01*
X121248892Y-93294115D01*
X121289486Y-93240584D01*
X121291317Y-93241972D01*
X121332607Y-93201689D01*
X121401058Y-93187682D01*
X121466216Y-93212905D01*
X121507394Y-93269351D01*
X121508391Y-93272241D01*
X121515640Y-93294115D01*
X121515643Y-93294124D01*
X121607684Y-93443345D01*
X121731654Y-93567315D01*
X121880875Y-93659356D01*
X121880880Y-93659358D01*
X122047302Y-93714505D01*
X122047309Y-93714506D01*
X122150019Y-93724999D01*
X122199999Y-93724998D01*
X122200000Y-93724998D01*
X122200000Y-92750000D01*
X122700000Y-92750000D01*
X122700000Y-93724999D01*
X122749972Y-93724999D01*
X122749986Y-93724998D01*
X122852697Y-93714505D01*
X123019119Y-93659358D01*
X123019124Y-93659356D01*
X123168345Y-93567315D01*
X123292315Y-93443345D01*
X123384356Y-93294124D01*
X123384358Y-93294119D01*
X123439505Y-93127697D01*
X123439506Y-93127690D01*
X123449999Y-93024986D01*
X123450000Y-93024973D01*
X123450000Y-92750000D01*
X122700000Y-92750000D01*
X122200000Y-92750000D01*
X122200000Y-91275000D01*
X122700000Y-91275000D01*
X122700000Y-92250000D01*
X123449999Y-92250000D01*
X123449999Y-91975028D01*
X123449998Y-91975013D01*
X123439505Y-91872302D01*
X123384358Y-91705880D01*
X123384356Y-91705875D01*
X123292315Y-91556654D01*
X123168345Y-91432684D01*
X123019124Y-91340643D01*
X123019119Y-91340641D01*
X122852697Y-91285494D01*
X122852690Y-91285493D01*
X122749986Y-91275000D01*
X122700000Y-91275000D01*
X122200000Y-91275000D01*
X122199999Y-91274999D01*
X122150029Y-91275000D01*
X122150011Y-91275001D01*
X122047302Y-91285494D01*
X121880880Y-91340641D01*
X121880875Y-91340643D01*
X121731654Y-91432684D01*
X121607684Y-91556654D01*
X121515643Y-91705875D01*
X121515640Y-91705884D01*
X121508391Y-91727759D01*
X121468618Y-91785203D01*
X121404102Y-91812025D01*
X121335326Y-91799709D01*
X121290834Y-91758393D01*
X121289486Y-91759416D01*
X121192922Y-91632077D01*
X121072343Y-91540639D01*
X120931561Y-91485122D01*
X120885926Y-91479642D01*
X120843102Y-91474500D01*
X120256898Y-91474500D01*
X120217853Y-91479188D01*
X120168438Y-91485122D01*
X120027656Y-91540639D01*
X119907077Y-91632077D01*
X119815638Y-91752657D01*
X119788693Y-91820989D01*
X119745787Y-91876134D01*
X119679880Y-91899327D01*
X119673338Y-91899500D01*
X118791804Y-91899500D01*
X118724765Y-91879815D01*
X118679010Y-91827011D01*
X118676450Y-91820990D01*
X118659362Y-91777660D01*
X118659361Y-91777658D01*
X118567921Y-91657076D01*
X118561573Y-91652262D01*
X118520051Y-91596069D01*
X118512500Y-91553460D01*
X118512500Y-90347487D01*
X118513561Y-90331301D01*
X118517682Y-90299999D01*
X118517682Y-90299998D01*
X118497044Y-90143239D01*
X118497044Y-90143238D01*
X118436536Y-89997159D01*
X118340282Y-89871718D01*
X118214841Y-89775464D01*
X118068762Y-89714956D01*
X118068760Y-89714955D01*
X117951361Y-89699500D01*
X117912000Y-89694318D01*
X117880697Y-89698439D01*
X117864513Y-89699500D01*
X112074500Y-89699500D01*
X112007461Y-89679815D01*
X111961706Y-89627011D01*
X111950500Y-89575500D01*
X111950500Y-88050437D01*
X111970185Y-87983398D01*
X112009222Y-87945010D01*
X112046302Y-87922052D01*
X112203872Y-87778407D01*
X112317047Y-87628540D01*
X112373155Y-87586905D01*
X112442867Y-87582214D01*
X112504049Y-87615956D01*
X112537276Y-87677419D01*
X112540000Y-87703268D01*
X112540000Y-87897844D01*
X112546401Y-87957372D01*
X112546403Y-87957379D01*
X112596645Y-88092086D01*
X112596649Y-88092093D01*
X112682809Y-88207187D01*
X112682812Y-88207190D01*
X112797906Y-88293350D01*
X112797913Y-88293354D01*
X112932620Y-88343596D01*
X112932627Y-88343598D01*
X112992155Y-88349999D01*
X112992172Y-88350000D01*
X113640000Y-88350000D01*
X113640000Y-87435501D01*
X113747685Y-87484680D01*
X113854237Y-87500000D01*
X113925763Y-87500000D01*
X114032315Y-87484680D01*
X114140000Y-87435501D01*
X114140000Y-88350000D01*
X114787828Y-88350000D01*
X114787844Y-88349999D01*
X114847372Y-88343598D01*
X114847379Y-88343596D01*
X114982086Y-88293354D01*
X114982093Y-88293350D01*
X115097187Y-88207190D01*
X115097190Y-88207187D01*
X115183350Y-88092093D01*
X115183354Y-88092086D01*
X115233596Y-87957379D01*
X115233598Y-87957372D01*
X115239999Y-87897844D01*
X115240000Y-87897827D01*
X115240000Y-87250000D01*
X114323686Y-87250000D01*
X114349493Y-87209844D01*
X114390000Y-87071889D01*
X114390000Y-86928111D01*
X114349493Y-86790156D01*
X114323686Y-86750000D01*
X115240000Y-86750000D01*
X115240000Y-86102172D01*
X115239999Y-86102155D01*
X115233598Y-86042627D01*
X115233596Y-86042620D01*
X115183354Y-85907913D01*
X115183350Y-85907906D01*
X115097190Y-85792812D01*
X115097187Y-85792809D01*
X114982093Y-85706649D01*
X114982086Y-85706645D01*
X114847379Y-85656403D01*
X114847372Y-85656401D01*
X114787844Y-85650000D01*
X114140000Y-85650000D01*
X114140000Y-86564498D01*
X114032315Y-86515320D01*
X113925763Y-86500000D01*
X113854237Y-86500000D01*
X113747685Y-86515320D01*
X113640000Y-86564498D01*
X113640000Y-85650000D01*
X112992155Y-85650000D01*
X112932627Y-85656401D01*
X112932620Y-85656403D01*
X112797913Y-85706645D01*
X112797906Y-85706649D01*
X112682812Y-85792809D01*
X112682809Y-85792812D01*
X112596649Y-85907906D01*
X112596645Y-85907913D01*
X112546403Y-86042620D01*
X112546401Y-86042627D01*
X112540000Y-86102155D01*
X112540000Y-86296731D01*
X112520315Y-86363770D01*
X112467511Y-86409525D01*
X112398353Y-86419469D01*
X112334797Y-86390444D01*
X112317046Y-86371458D01*
X112203872Y-86221593D01*
X112072874Y-86102172D01*
X112046302Y-86077948D01*
X112009221Y-86054988D01*
X111962587Y-86002961D01*
X111950500Y-85949562D01*
X111950500Y-59007487D01*
X111951561Y-58991301D01*
X111955682Y-58959999D01*
X111955682Y-58959998D01*
X111935044Y-58803239D01*
X111935044Y-58803238D01*
X111874536Y-58657159D01*
X111778282Y-58531718D01*
X111652841Y-58435464D01*
X111506762Y-58374956D01*
X111506760Y-58374955D01*
X111389361Y-58359500D01*
X111350000Y-58354318D01*
X111318697Y-58358439D01*
X111302513Y-58359500D01*
X75669967Y-58359500D01*
X75602928Y-58339815D01*
X75571013Y-58310227D01*
X75473872Y-58181593D01*
X75316302Y-58037948D01*
X75135019Y-57925702D01*
X75135014Y-57925700D01*
X75128129Y-57923032D01*
X75106037Y-57914474D01*
X75050636Y-57871903D01*
X75027045Y-57806136D01*
X75042756Y-57738056D01*
X75092779Y-57689276D01*
X75098426Y-57686466D01*
X75297578Y-57593599D01*
X75491082Y-57458105D01*
X75658105Y-57291082D01*
X75793600Y-57097578D01*
X75893429Y-56883492D01*
X75893432Y-56883486D01*
X75950636Y-56670000D01*
X75023969Y-56670000D01*
X75056519Y-56619351D01*
X75095000Y-56488295D01*
X75095000Y-56351705D01*
X75056519Y-56220649D01*
X75023969Y-56170000D01*
X75950636Y-56170000D01*
X75950635Y-56169999D01*
X75893432Y-55956513D01*
X75893429Y-55956507D01*
X75793600Y-55742422D01*
X75793599Y-55742420D01*
X75658113Y-55548926D01*
X75658108Y-55548920D01*
X75491082Y-55381894D01*
X75297578Y-55246399D01*
X75098426Y-55153533D01*
X75045987Y-55107360D01*
X75026835Y-55040167D01*
X75038976Y-55000001D01*
X81994390Y-55000001D01*
X82014804Y-55285433D01*
X82075628Y-55565037D01*
X82175635Y-55833166D01*
X82312770Y-56084309D01*
X82312775Y-56084317D01*
X82484254Y-56313387D01*
X82484270Y-56313405D01*
X82686594Y-56515729D01*
X82686612Y-56515745D01*
X82915682Y-56687224D01*
X82915690Y-56687229D01*
X83166833Y-56824364D01*
X83166832Y-56824364D01*
X83166836Y-56824365D01*
X83166839Y-56824367D01*
X83434954Y-56924369D01*
X83434960Y-56924370D01*
X83434962Y-56924371D01*
X83714566Y-56985195D01*
X83714568Y-56985195D01*
X83714572Y-56985196D01*
X83928552Y-57000500D01*
X84071448Y-57000500D01*
X84285428Y-56985196D01*
X84496736Y-56939229D01*
X84565037Y-56924371D01*
X84565037Y-56924370D01*
X84565046Y-56924369D01*
X84833161Y-56824367D01*
X85084315Y-56687226D01*
X85313395Y-56515739D01*
X85515739Y-56313395D01*
X85687226Y-56084315D01*
X85824367Y-55833161D01*
X85924369Y-55565046D01*
X85938965Y-55497948D01*
X85985195Y-55285433D01*
X85985195Y-55285432D01*
X85985196Y-55285428D01*
X86005610Y-55000001D01*
X124494390Y-55000001D01*
X124514804Y-55285433D01*
X124575628Y-55565037D01*
X124675635Y-55833166D01*
X124812770Y-56084309D01*
X124812775Y-56084317D01*
X124984254Y-56313387D01*
X124984270Y-56313405D01*
X125186594Y-56515729D01*
X125186612Y-56515745D01*
X125415682Y-56687224D01*
X125415690Y-56687229D01*
X125666833Y-56824364D01*
X125666832Y-56824364D01*
X125666836Y-56824365D01*
X125666839Y-56824367D01*
X125934954Y-56924369D01*
X125934960Y-56924370D01*
X125934962Y-56924371D01*
X126214566Y-56985195D01*
X126214568Y-56985195D01*
X126214572Y-56985196D01*
X126428552Y-57000500D01*
X126571448Y-57000500D01*
X126785428Y-56985196D01*
X126996736Y-56939229D01*
X127065037Y-56924371D01*
X127065037Y-56924370D01*
X127065046Y-56924369D01*
X127333161Y-56824367D01*
X127584315Y-56687226D01*
X127813395Y-56515739D01*
X128015739Y-56313395D01*
X128187226Y-56084315D01*
X128324367Y-55833161D01*
X128424369Y-55565046D01*
X128438965Y-55497948D01*
X128485195Y-55285433D01*
X128485195Y-55285432D01*
X128485196Y-55285428D01*
X128505610Y-55000000D01*
X128485196Y-54714572D01*
X128463251Y-54613694D01*
X128424371Y-54434962D01*
X128424370Y-54434960D01*
X128424369Y-54434954D01*
X128324367Y-54166839D01*
X128187226Y-53915685D01*
X128187224Y-53915682D01*
X128015745Y-53686612D01*
X128015729Y-53686594D01*
X127813405Y-53484270D01*
X127813387Y-53484254D01*
X127584317Y-53312775D01*
X127584309Y-53312770D01*
X127333166Y-53175635D01*
X127333167Y-53175635D01*
X127225915Y-53135632D01*
X127065046Y-53075631D01*
X127065043Y-53075630D01*
X127065037Y-53075628D01*
X126785433Y-53014804D01*
X126571450Y-52999500D01*
X126571448Y-52999500D01*
X126428552Y-52999500D01*
X126428549Y-52999500D01*
X126214566Y-53014804D01*
X125934962Y-53075628D01*
X125666833Y-53175635D01*
X125415690Y-53312770D01*
X125415682Y-53312775D01*
X125186612Y-53484254D01*
X125186594Y-53484270D01*
X124984270Y-53686594D01*
X124984254Y-53686612D01*
X124812775Y-53915682D01*
X124812770Y-53915690D01*
X124675635Y-54166833D01*
X124575628Y-54434962D01*
X124514804Y-54714566D01*
X124494390Y-54999998D01*
X124494390Y-55000001D01*
X86005610Y-55000001D01*
X86005610Y-55000000D01*
X85985196Y-54714572D01*
X85963251Y-54613694D01*
X85924371Y-54434962D01*
X85924370Y-54434960D01*
X85924369Y-54434954D01*
X85824367Y-54166839D01*
X85687226Y-53915685D01*
X85687224Y-53915682D01*
X85515745Y-53686612D01*
X85515729Y-53686594D01*
X85313405Y-53484270D01*
X85313387Y-53484254D01*
X85084317Y-53312775D01*
X85084309Y-53312770D01*
X84833166Y-53175635D01*
X84833167Y-53175635D01*
X84725915Y-53135632D01*
X84565046Y-53075631D01*
X84565043Y-53075630D01*
X84565037Y-53075628D01*
X84285433Y-53014804D01*
X84071450Y-52999500D01*
X84071448Y-52999500D01*
X83928552Y-52999500D01*
X83928549Y-52999500D01*
X83714566Y-53014804D01*
X83434962Y-53075628D01*
X83166833Y-53175635D01*
X82915690Y-53312770D01*
X82915682Y-53312775D01*
X82686612Y-53484254D01*
X82686594Y-53484270D01*
X82484270Y-53686594D01*
X82484254Y-53686612D01*
X82312775Y-53915682D01*
X82312770Y-53915690D01*
X82175635Y-54166833D01*
X82075628Y-54434962D01*
X82014804Y-54714566D01*
X81994390Y-54999998D01*
X81994390Y-55000001D01*
X75038976Y-55000001D01*
X75047051Y-54973286D01*
X75100216Y-54927951D01*
X75106005Y-54925537D01*
X75135019Y-54914298D01*
X75316302Y-54802052D01*
X75473872Y-54658407D01*
X75602366Y-54488255D01*
X75625448Y-54441900D01*
X75697403Y-54297394D01*
X75697403Y-54297393D01*
X75697405Y-54297389D01*
X75755756Y-54092310D01*
X75775429Y-53880000D01*
X75755756Y-53667690D01*
X75697405Y-53462611D01*
X75697403Y-53462606D01*
X75697403Y-53462605D01*
X75602367Y-53271746D01*
X75473872Y-53101593D01*
X75445390Y-53075628D01*
X75316302Y-52957948D01*
X75135019Y-52845702D01*
X75135017Y-52845701D01*
X74998981Y-52793001D01*
X74936198Y-52768679D01*
X74726610Y-52729500D01*
X74513390Y-52729500D01*
X74303802Y-52768679D01*
X74303799Y-52768679D01*
X74303799Y-52768680D01*
X74104982Y-52845701D01*
X74104980Y-52845702D01*
X73923699Y-52957947D01*
X73766127Y-53101593D01*
X73637632Y-53271746D01*
X73542596Y-53462605D01*
X73542596Y-53462607D01*
X73484244Y-53667689D01*
X73464571Y-53879999D01*
X73464571Y-53880000D01*
X73484244Y-54092310D01*
X73542596Y-54297392D01*
X73542596Y-54297394D01*
X73637632Y-54488253D01*
X73637634Y-54488255D01*
X73766128Y-54658407D01*
X73923698Y-54802052D01*
X74104981Y-54914298D01*
X74133961Y-54925525D01*
X74189362Y-54968095D01*
X74212954Y-55033861D01*
X74197244Y-55101942D01*
X74147222Y-55150722D01*
X74141573Y-55153533D01*
X73942422Y-55246399D01*
X73942420Y-55246400D01*
X73748926Y-55381886D01*
X73748920Y-55381891D01*
X73581891Y-55548920D01*
X73581886Y-55548926D01*
X73446400Y-55742420D01*
X73446399Y-55742422D01*
X73346570Y-55956507D01*
X73346567Y-55956513D01*
X73289364Y-56169999D01*
X73289364Y-56170000D01*
X74216031Y-56170000D01*
X74183481Y-56220649D01*
X74145000Y-56351705D01*
X74145000Y-56488295D01*
X74183481Y-56619351D01*
X74216031Y-56670000D01*
X73289364Y-56670000D01*
X60505032Y-56670000D01*
X60515756Y-56632310D01*
X60535429Y-56420000D01*
X60515756Y-56207690D01*
X60457405Y-56002611D01*
X60457403Y-56002606D01*
X60457403Y-56002605D01*
X60362367Y-55811746D01*
X60233872Y-55641593D01*
X60076302Y-55497948D01*
X59895019Y-55385702D01*
X59895017Y-55385701D01*
X59795608Y-55347190D01*
X59696198Y-55308679D01*
X59523455Y-55276387D01*
X59461175Y-55244720D01*
X59425902Y-55184407D01*
X59428836Y-55114599D01*
X59469045Y-55057459D01*
X59533763Y-55031128D01*
X59546234Y-55030499D01*
X59853344Y-55030499D01*
X59853352Y-55030498D01*
X59853355Y-55030498D01*
X59907760Y-55024940D01*
X59952708Y-55020349D01*
X60113697Y-54967003D01*
X60258044Y-54877968D01*
X60377968Y-54758044D01*
X60467003Y-54613697D01*
X60520349Y-54452708D01*
X60530500Y-54353345D01*
X60530499Y-53406656D01*
X60520349Y-53307292D01*
X60467003Y-53146303D01*
X60466999Y-53146297D01*
X60466998Y-53146294D01*
X60377970Y-53001959D01*
X60377967Y-53001955D01*
X60258044Y-52882032D01*
X60258040Y-52882029D01*
X60113705Y-52793001D01*
X60113699Y-52792998D01*
X60113697Y-52792997D01*
X60040313Y-52768680D01*
X59952709Y-52739651D01*
X59853346Y-52729500D01*
X58906662Y-52729500D01*
X58906644Y-52729501D01*
X58807292Y-52739650D01*
X58807289Y-52739651D01*
X58646305Y-52792996D01*
X58646294Y-52793001D01*
X58501959Y-52882029D01*
X58501955Y-52882032D01*
X58382032Y-53001955D01*
X58382029Y-53001959D01*
X58293001Y-53146294D01*
X58292996Y-53146305D01*
X58239650Y-53307291D01*
X58238547Y-53318099D01*
X58212153Y-53382792D01*
X58154973Y-53422945D01*
X58115189Y-53429500D01*
X51864732Y-53429500D01*
X51837140Y-53426391D01*
X51834046Y-53425685D01*
X51834042Y-53425684D01*
X51789702Y-53429008D01*
X51787769Y-53429153D01*
X51778503Y-53429500D01*
X51766235Y-53429500D01*
X51754108Y-53431328D01*
X51744899Y-53432365D01*
X51698622Y-53435833D01*
X51698619Y-53435834D01*
X51695664Y-53436994D01*
X51668860Y-53444177D01*
X51665713Y-53444651D01*
X51665712Y-53444651D01*
X51623903Y-53464785D01*
X51615407Y-53468492D01*
X51572206Y-53485447D01*
X51569716Y-53487433D01*
X51546221Y-53502195D01*
X51543363Y-53503571D01*
X51543359Y-53503573D01*
X51509342Y-53535136D01*
X51502319Y-53541180D01*
X51466029Y-53570121D01*
X51464235Y-53572753D01*
X51446138Y-53593780D01*
X51443806Y-53595945D01*
X51420596Y-53636143D01*
X51415674Y-53643977D01*
X51389527Y-53682326D01*
X51389526Y-53682331D01*
X51388589Y-53685368D01*
X51377495Y-53710797D01*
X51375908Y-53713545D01*
X51375902Y-53713561D01*
X51365577Y-53758795D01*
X51363179Y-53767746D01*
X51349500Y-53812095D01*
X51349500Y-53815268D01*
X51346391Y-53842860D01*
X51345684Y-53845954D01*
X51349153Y-53892228D01*
X51349500Y-53901496D01*
X51349500Y-100335268D01*
X51346391Y-100362860D01*
X51345684Y-100365954D01*
X50000500Y-100365954D01*
X50000500Y-53003245D01*
X50000670Y-52996756D01*
X50002704Y-52957947D01*
X50007501Y-52866421D01*
X50017628Y-52686087D01*
X50018954Y-52673694D01*
X50042513Y-52524947D01*
X50042700Y-52523809D01*
X50069739Y-52364666D01*
X50072199Y-52353402D01*
X50112150Y-52204305D01*
X50112709Y-52202293D01*
X50156351Y-52050811D01*
X50159724Y-52040753D01*
X50215583Y-51895233D01*
X50216692Y-51892452D01*
X50276439Y-51748212D01*
X50280488Y-51739429D01*
X50351569Y-51599925D01*
X50353521Y-51596250D01*
X50428588Y-51460426D01*
X50433065Y-51452962D01*
X50518633Y-51321199D01*
X50521434Y-51317077D01*
X50611010Y-51190832D01*
X50615733Y-51184603D01*
X50714702Y-51062386D01*
X50718532Y-51057885D01*
X50821613Y-50942537D01*
X50826323Y-50937556D01*
X50937556Y-50826323D01*
X50942537Y-50821613D01*
X51057885Y-50718532D01*
X51062386Y-50714702D01*
X51184603Y-50615733D01*
X51190832Y-50611010D01*
X51317077Y-50521434D01*
X51321199Y-50518633D01*
X51452962Y-50433065D01*
X51460426Y-50428588D01*
X51596255Y-50353517D01*
X51599934Y-50351565D01*
X51739429Y-50280488D01*
X51748212Y-50276439D01*
X51892452Y-50216692D01*
X51895233Y-50215583D01*
X52040753Y-50159724D01*
X52050811Y-50156351D01*
X52202293Y-50112709D01*
X52204305Y-50112150D01*
X52353402Y-50072199D01*
X52364666Y-50069739D01*
X52523809Y-50042700D01*
X52524947Y-50042513D01*
X52673694Y-50018954D01*
X52686087Y-50017628D01*
X52866554Y-50007493D01*
X52996756Y-50000669D01*
X53003245Y-50000500D01*
X126996755Y-50000500D01*
X127003243Y-50000669D01*
G37*
%TD.AperFunction*%
%TD*%
M02*
